<svg xmlns="http://www.w3.org/2000/svg" width="1069" height="1427" viewBox="0 0 1069 1427"><rect width="238" height="39.789" x="7" y="1221.4" fill="#EEF7FF" rx="2.5" ry="2.5" style="stroke:#3d58d3;stroke-width:.5"/><circle cx="22" cy="1241.294" r="11" fill="#ADD1B2" style="stroke:#181818;stroke-width:1"/><path d="M24.969 1246.935q-.578.297-1.219.438-.64.156-1.344.156-2.5 0-3.828-1.64-1.312-1.657-1.312-4.782t1.312-4.781q1.328-1.657 3.828-1.657.703 0 1.344.157.656.156 1.219.453v2.719q-.625-.579-1.219-.844-.594-.281-1.219-.281-1.343 0-2.031 1.078-.687 1.062-.687 3.156t.687 3.172q.688 1.062 2.031 1.062.625 0 1.219-.265.594-.282 1.219-.86z"/><text x="41" y="1247.18" font-family="Helvetica" font-size="17" textLength="196">aws_ec2_instance_type</text><rect width="254" height="39.789" x="429" y="1382.19" fill="#EEF7FF" rx="2.5" ry="2.5" style="stroke:#3d58d3;stroke-width:.5"/><circle cx="444" cy="1402.084" r="11" fill="#ADD1B2" style="stroke:#181818;stroke-width:1"/><path d="M446.969 1407.725q-.578.297-1.219.438-.64.156-1.344.156-2.5 0-3.828-1.64-1.312-1.657-1.312-4.782t1.312-4.781q1.328-1.657 3.828-1.657.703 0 1.344.157.656.156 1.219.453v2.719q-.625-.579-1.219-.844-.594-.281-1.219-.281-1.344 0-2.031 1.078-.687 1.062-.687 3.156t.687 3.172q.688 1.062 2.031 1.062.625 0 1.219-.265.594-.282 1.219-.86z"/><text x="463" y="1407.97" font-family="Helvetica" font-size="17" textLength="212">azure_mysql_server_type</text><rect width="289" height="39.789" x="718.5" y="1382.19" fill="#EEF7FF" rx="2.5" ry="2.5" style="stroke:#3d58d3;stroke-width:.5"/><circle cx="733.5" cy="1402.084" r="11" fill="#ADD1B2" style="stroke:#181818;stroke-width:1"/><path d="M736.469 1407.725q-.578.297-1.219.438-.64.156-1.344.156-2.5 0-3.828-1.64-1.312-1.657-1.312-4.782t1.312-4.781q1.328-1.657 3.828-1.657.703 0 1.344.157.656.156 1.219.453v2.719q-.625-.579-1.219-.844-.594-.281-1.219-.281-1.343 0-2.031 1.078-.687 1.062-.687 3.156t.687 3.172q.688 1.062 2.031 1.062.625 0 1.219-.265.594-.282 1.219-.86z"/><text x="752.5" y="1407.97" font-family="Helvetica" font-size="17" textLength="247">azure_postgresql_server_type</text><rect width="273" height="39.789" x="280.5" y="1221.4" fill="#EEF7FF" rx="2.5" ry="2.5" style="stroke:#3d58d3;stroke-width:.5"/><circle cx="295.5" cy="1241.294" r="11" fill="#ADD1B2" style="stroke:#181818;stroke-width:1"/><path d="M298.469 1246.935q-.578.297-1.219.438-.64.156-1.344.156-2.5 0-3.828-1.64-1.312-1.657-1.312-4.782t1.312-4.781q1.328-1.657 3.828-1.657.703 0 1.344.157.656.156 1.219.453v2.719q-.625-.579-1.219-.844-.594-.281-1.219-.281-1.344 0-2.031 1.078-.687 1.062-.687 3.156t.687 3.172q.688 1.062 2.031 1.062.625 0 1.219-.265.594-.282 1.219-.86z"/><text x="314.5" y="1247.18" font-family="Helvetica" font-size="17" textLength="231">azure_virtual_machine_size</text><rect width="242" height="39.789" x="589" y="1221.4" fill="#EEF7FF" rx="2.5" ry="2.5" style="stroke:#3d58d3;stroke-width:.5"/><circle cx="604" cy="1241.294" r="11" fill="#ADD1B2" style="stroke:#181818;stroke-width:1"/><path d="M606.969 1246.935q-.578.297-1.219.438-.64.156-1.344.156-2.5 0-3.828-1.64-1.312-1.657-1.312-4.782t1.312-4.781q1.328-1.657 3.828-1.657.703 0 1.344.157.656.156 1.219.453v2.719q-.625-.579-1.219-.844-.594-.281-1.219-.281-1.343 0-2.031 1.078-.687 1.062-.687 3.156t.687 3.172q.688 1.062 2.031 1.062.625 0 1.219-.265.594-.282 1.219-.86z"/><text x="623" y="1247.18" font-family="Helvetica" font-size="17" textLength="200">database_instance_type</text><rect width="197" height="39.789" x="865.5" y="1221.4" fill="#EEF7FF" rx="2.5" ry="2.5" style="stroke:#3d58d3;stroke-width:.5"/><circle cx="880.5" cy="1241.294" r="11" fill="#ADD1B2" style="stroke:#181818;stroke-width:1"/><path d="M883.469 1246.935q-.578.297-1.219.438-.64.156-1.344.156-2.5 0-3.828-1.64-1.312-1.657-1.312-4.782t1.312-4.781q1.328-1.657 3.828-1.657.703 0 1.344.157.656.156 1.219.453v2.719q-.625-.579-1.219-.844-.594-.281-1.219-.281-1.343 0-2.031 1.078-.687 1.062-.687 3.156t.687 3.172q.688 1.062 2.031 1.062.625 0 1.219-.265.594-.282 1.219-.86z"/><text x="899.5" y="1247.18" font-family="Helvetica" font-size="17" textLength="155">gcp_machine_type</text><rect width="217" height="179.273" x="399.5" y="921.13" fill="#EEF7FF" rx="2.5" ry="2.5" style="stroke:#3d58d3;stroke-width:.5"/><circle cx="441.05" cy="941.024" r="11" fill="#ADD1B2" style="stroke:#181818;stroke-width:1"/><path d="M444.019 946.665q-.578.297-1.219.438-.64.156-1.344.156-2.5 0-3.828-1.64-1.312-1.657-1.312-4.782t1.312-4.781q1.328-1.657 3.828-1.657.703 0 1.344.157.656.156 1.219.453v2.719q-.625-.578-1.219-.844-.594-.281-1.219-.281-1.344 0-2.031 1.078-.687 1.062-.687 3.156t.687 3.172q.688 1.062 2.031 1.062.625 0 1.219-.265.594-.282 1.219-.86z"/><text x="465.95" y="946.91" font-family="Helvetica" font-size="17" textLength="116">instance_type</text><path d="M400.5 960.919h215" style="stroke:#3d58d3;stroke-width:.5"/><text x="410.5" y="982.914" font-family="sans-serif" font-size="14" font-weight="bold" textLength="119">instance_cores</text><text x="529.5" y="982.914" font-family="sans-serif" font-size="14" textLength="57">: double</text><text x="410.5" y="1009.211" font-family="sans-serif" font-size="14" font-weight="bold" textLength="138">instance_memory</text><text x="548.5" y="1009.211" font-family="sans-serif" font-size="14" textLength="57">: double</text><text x="410.5" y="1035.508" font-family="sans-serif" font-size="14" font-weight="bold" textLength="109">instance_type</text><text x="519.5" y="1035.508" font-family="sans-serif" font-size="14" textLength="48">: string</text><text x="410.5" y="1061.805" font-family="sans-serif" font-size="14" font-weight="bold" textLength="124">ondemand_cost</text><text x="534.5" y="1061.805" font-family="sans-serif" font-size="14" textLength="57">: double</text><text x="410.5" y="1088.102" font-family="sans-serif" font-size="14" font-weight="bold" textLength="100">reservations</text><text x="510.5" y="1088.102" font-family="sans-serif" font-size="14" textLength="44">: int64</text><rect width="198" height="39.789" x="409" y="438.76" fill="#EEF7FF" rx="2.5" ry="2.5" style="stroke:#3d58d3;stroke-width:.5"/><circle cx="424" cy="458.654" r="11" fill="#ADD1B2" style="stroke:#181818;stroke-width:1"/><path d="M426.969 464.295q-.578.297-1.219.438-.64.156-1.344.156-2.5 0-3.828-1.64-1.312-1.657-1.312-4.782t1.312-4.781q1.328-1.656 3.828-1.656.703 0 1.344.156.656.156 1.219.453v2.719q-.625-.579-1.219-.844-.594-.281-1.219-.281-1.344 0-2.031 1.078-.687 1.062-.687 3.156t.687 3.172q.688 1.062 2.031 1.062.625 0 1.219-.265.594-.281 1.219-.86z"/><text x="443" y="464.54" font-family="Helvetica" font-size="17" textLength="156">phantom_resource</text><rect width="90" height="39.789" x="463" y="599.55" fill="#EEF7FF" rx="2.5" ry="2.5" style="stroke:#3d58d3;stroke-width:.5"/><circle cx="478" cy="619.444" r="11" fill="#ADD1B2" style="stroke:#181818;stroke-width:1"/><path d="M480.969 625.085q-.578.297-1.219.438-.64.156-1.344.156-2.5 0-3.828-1.64-1.312-1.657-1.312-4.782t1.312-4.781q1.328-1.657 3.828-1.657.703 0 1.344.157.656.156 1.219.453v2.719q-.625-.579-1.219-.844-.594-.281-1.219-.281-1.344 0-2.031 1.078-.687 1.062-.687 3.156t.687 3.172q.688 1.062 2.031 1.062.625 0 1.219-.265.594-.282 1.219-.86z"/><text x="497" y="625.33" font-family="Helvetica" font-size="17" textLength="48">quota</text><rect width="227" height="310.758" x="394.5" y="7" fill="#EEF7FF" rx="2.5" ry="2.5" style="stroke:#3d58d3;stroke-width:.5"/><circle cx="463.25" cy="26.895" r="11" fill="#ADD1B2" style="stroke:#181818;stroke-width:1"/><path d="M466.219 32.535q-.578.297-1.219.438-.64.156-1.344.156-2.5 0-3.828-1.64-1.312-1.657-1.312-4.782t1.312-4.781q1.328-1.656 3.828-1.656.703 0 1.344.156.656.156 1.219.453v2.719q-.625-.578-1.219-.844-.594-.281-1.219-.281-1.344 0-2.031 1.078-.687 1.062-.687 3.156t.687 3.172q.688 1.062 2.031 1.062.625 0 1.219-.265.594-.281 1.219-.86z"/><text x="488.75" y="32.78" font-family="Helvetica" font-size="17" textLength="71">resource</text><path d="M395.5 46.789h225" style="stroke:#3d58d3;stroke-width:.5"/><text x="405.5" y="68.784" font-family="sans-serif" font-size="14" font-weight="bold" textLength="29">age</text><text x="434.5" y="68.784" font-family="sans-serif" font-size="14" textLength="66">: duration</text><text x="405.5" y="95.081" font-family="sans-serif" font-size="14" font-weight="bold" textLength="43">atime</text><text x="448.5" y="95.081" font-family="sans-serif" font-size="14" textLength="70">: datetime</text><text x="405.5" y="121.378" font-family="sans-serif" font-size="14" font-weight="bold" textLength="43">ctime</text><text x="448.5" y="121.378" font-family="sans-serif" font-size="14" textLength="70">: datetime</text><text x="405.5" y="147.675" font-family="sans-serif" font-size="14" font-weight="bold" textLength="14">id</text><text x="419.5" y="147.675" font-family="sans-serif" font-size="14" textLength="48">: string</text><text x="405.5" y="173.972" font-family="sans-serif" font-size="14" font-weight="bold" textLength="33">kind</text><text x="438.5" y="173.972" font-family="sans-serif" font-size="14" textLength="48">: string</text><text x="405.5" y="200.269" font-family="sans-serif" font-size="14" font-weight="bold" textLength="90">last_access</text><text x="495.5" y="200.269" font-family="sans-serif" font-size="14" textLength="66">: duration</text><text x="405.5" y="226.565" font-family="sans-serif" font-size="14" font-weight="bold" textLength="90">last_update</text><text x="495.5" y="226.565" font-family="sans-serif" font-size="14" textLength="66">: duration</text><text x="405.5" y="252.862" font-family="sans-serif" font-size="14" font-weight="bold" textLength="48">mtime</text><text x="453.5" y="252.862" font-family="sans-serif" font-size="14" textLength="70">: datetime</text><text x="405.5" y="279.159" font-family="sans-serif" font-size="14" font-weight="bold" textLength="43">name</text><text x="448.5" y="279.159" font-family="sans-serif" font-size="14" textLength="48">: string</text><text x="405.5" y="305.456" font-family="sans-serif" font-size="14" font-weight="bold" textLength="34">tags</text><text x="439.5" y="305.456" font-family="sans-serif" font-size="14" textLength="171">: dictionary[string, string]</text><rect width="79" height="39.789" x="468.5" y="760.34" fill="#EEF7FF" rx="2.5" ry="2.5" style="stroke:#3d58d3;stroke-width:.5"/><circle cx="483.5" cy="780.235" r="11" fill="#ADD1B2" style="stroke:#181818;stroke-width:1"/><path d="M486.469 785.875q-.578.297-1.219.438-.64.156-1.344.156-2.5 0-3.828-1.64-1.312-1.657-1.312-4.782t1.312-4.781q1.328-1.656 3.828-1.656.703 0 1.344.156.656.156 1.219.453v2.719q-.625-.578-1.219-.844-.594-.281-1.219-.281-1.344 0-2.031 1.078-.687 1.062-.687 3.156t.687 3.172q.688 1.062 2.031 1.062.625 0 1.219-.265.594-.281 1.219-.86z"/><text x="502.5" y="786.12" font-family="Helvetica" font-size="17" textLength="37">type</text><g fill="none"><path d="M383.603 1086.19c-81.82 48.94-172.983 103.48-225.503 134.9" style="stroke:#111827;stroke-width:2"/><path d="m399.05 1076.95-18.528 4.09 6.16 10.299z" style="stroke:#111827;stroke-width:2"/></g><path fill="none" d="M678.888 1274.371c-29.6 30.52-74.608 76.929-104.248 107.489m116.78-120.41-16.839 8.744 8.614 8.354zm49.528 12.964c29.4 30.52 74.082 76.886 103.532 107.446m-116.02-120.41 8.167 17.126 8.642-8.325z" style="stroke:#111827;stroke-width:2"/><g fill="none"><path d="M465.899 1117.502c-17.67 44.36-30.809 77.348-41.339 103.808" style="stroke:#111827;stroke-width:2"/><path d="m472.56 1100.78-12.235 14.502 11.148 4.44z" style="stroke:#111827;stroke-width:2"/></g><path fill="none" d="M598.6 1114.267c39.21 44.36 71.23 80.583 94.62 107.043m-106.54-120.53 7.425 17.46 8.991-7.947zm46.343-26.356c99.46 49.84 224.837 112.676 292.297 146.486m-308.39-154.55 13.405 13.428 5.376-10.728zM508 818.33v102.49m0-120.49-6 18h12zm0-464.49v102.83m0-120.83-6 18h12zm0 178.97v102.41m0-120.41-6 18h12zm0 178.79v102.41m0-120.41-6 18h12z" style="stroke:#111827;stroke-width:2"/></svg>