<svg xmlns="http://www.w3.org/2000/svg" width="389" height="758" viewBox="0 0 389 758"><rect width="192" height="39.789" x="7" y="712.73" fill="#EEF7FF" rx="2.5" ry="2.5" style="stroke:#3d58d3;stroke-width:.5"/><circle cx="22" cy="732.625" r="11" fill="#ADD1B2" style="stroke:#181818;stroke-width:1"/><path d="M24.969 738.265q-.578.297-1.219.438-.64.156-1.344.156-2.5 0-3.828-1.64-1.312-1.657-1.312-4.782t1.312-4.781Q19.906 726 22.406 726q.703 0 1.344.156.656.156 1.219.453v2.719q-.625-.578-1.219-.844-.594-.281-1.219-.281-1.343 0-2.031 1.078-.687 1.062-.687 3.156t.687 3.172q.688 1.062 2.031 1.062.625 0 1.219-.265.594-.281 1.219-.86z"/><text x="41" y="738.51" font-family="Helvetica" font-size="17" textLength="150">aws_ec2_instance</text><rect width="149" height="39.789" x="233.5" y="712.73" fill="#EEF7FF" rx="2.5" ry="2.5" style="stroke:#3d58d3;stroke-width:.5"/><circle cx="248.5" cy="732.625" r="11" fill="#ADD1B2" style="stroke:#181818;stroke-width:1"/><path d="M251.469 738.265q-.578.297-1.219.438-.64.156-1.344.156-2.5 0-3.828-1.64-1.312-1.657-1.312-4.782t1.312-4.781q1.328-1.656 3.828-1.656.703 0 1.344.156.656.156 1.219.453v2.719q-.625-.578-1.219-.844-.594-.281-1.219-.281-1.344 0-2.031 1.078-.687 1.062-.687 3.156t.687 3.172q.688 1.062 2.031 1.062.625 0 1.219-.265.594-.281 1.219-.86z"/><text x="267.5" y="738.51" font-family="Helvetica" font-size="17" textLength="107">gcp_instance</text><rect width="263" height="152.977" x="73.5" y="438.75" fill="#EEF7FF" rx="2.5" ry="2.5" style="stroke:#3d58d3;stroke-width:.5"/><circle cx="160.75" cy="458.644" r="11" fill="#ADD1B2" style="stroke:#181818;stroke-width:1"/><path d="M163.719 464.285q-.578.297-1.219.438-.64.156-1.344.156-2.5 0-3.828-1.64-1.312-1.657-1.312-4.782t1.312-4.781q1.328-1.656 3.828-1.656.703 0 1.344.156.656.156 1.219.453v2.719q-.625-.579-1.219-.844-.594-.281-1.219-.281-1.344 0-2.031 1.078-.687 1.062-.687 3.156t.687 3.172q.688 1.062 2.031 1.062.625 0 1.219-.265.594-.281 1.219-.86z"/><text x="186.25" y="464.53" font-family="Helvetica" font-size="17" textLength="70">instance</text><path d="M74.5 478.539h261" style="stroke:#3d58d3;stroke-width:.5"/><text x="84.5" y="500.534" font-family="sans-serif" font-size="14" font-weight="bold" textLength="119">instance_cores</text><text x="203.5" y="500.534" font-family="sans-serif" font-size="14" textLength="57">: double</text><text x="84.5" y="526.831" font-family="sans-serif" font-size="14" font-weight="bold" textLength="138">instance_memory</text><text x="222.5" y="526.831" font-family="sans-serif" font-size="14" textLength="57">: double</text><text x="84.5" y="553.128" font-family="sans-serif" font-size="14" font-weight="bold" textLength="123">instance_status</text><text x="207.5" y="553.128" font-family="sans-serif" font-size="14" textLength="118">: instance_status</text><text x="84.5" y="579.425" font-family="sans-serif" font-size="14" font-weight="bold" textLength="109">instance_type</text><text x="193.5" y="579.425" font-family="sans-serif" font-size="14" textLength="48">: string</text><rect width="227" height="310.758" x="91.5" y="7" fill="#EEF7FF" rx="2.5" ry="2.5" style="stroke:#3d58d3;stroke-width:.5"/><circle cx="160.25" cy="26.895" r="11" fill="#ADD1B2" style="stroke:#181818;stroke-width:1"/><path d="M163.219 32.535q-.578.297-1.219.438-.64.156-1.344.156-2.5 0-3.828-1.64-1.312-1.657-1.312-4.782t1.312-4.781q1.328-1.656 3.828-1.656.703 0 1.344.156.656.156 1.219.453v2.719q-.625-.578-1.219-.844-.594-.281-1.219-.281-1.344 0-2.031 1.078-.687 1.062-.687 3.156t.687 3.172q.688 1.062 2.031 1.062.625 0 1.219-.265.594-.281 1.219-.86z"/><text x="185.75" y="32.78" font-family="Helvetica" font-size="17" textLength="71">resource</text><path d="M92.5 46.789h225" style="stroke:#3d58d3;stroke-width:.5"/><text x="102.5" y="68.784" font-family="sans-serif" font-size="14" font-weight="bold" textLength="29">age</text><text x="131.5" y="68.784" font-family="sans-serif" font-size="14" textLength="66">: duration</text><text x="102.5" y="95.081" font-family="sans-serif" font-size="14" font-weight="bold" textLength="43">atime</text><text x="145.5" y="95.081" font-family="sans-serif" font-size="14" textLength="70">: datetime</text><text x="102.5" y="121.378" font-family="sans-serif" font-size="14" font-weight="bold" textLength="43">ctime</text><text x="145.5" y="121.378" font-family="sans-serif" font-size="14" textLength="70">: datetime</text><text x="102.5" y="147.675" font-family="sans-serif" font-size="14" font-weight="bold" textLength="14">id</text><text x="116.5" y="147.675" font-family="sans-serif" font-size="14" textLength="48">: string</text><text x="102.5" y="173.972" font-family="sans-serif" font-size="14" font-weight="bold" textLength="33">kind</text><text x="135.5" y="173.972" font-family="sans-serif" font-size="14" textLength="48">: string</text><text x="102.5" y="200.269" font-family="sans-serif" font-size="14" font-weight="bold" textLength="90">last_access</text><text x="192.5" y="200.269" font-family="sans-serif" font-size="14" textLength="66">: duration</text><text x="102.5" y="226.565" font-family="sans-serif" font-size="14" font-weight="bold" textLength="90">last_update</text><text x="192.5" y="226.565" font-family="sans-serif" font-size="14" textLength="66">: duration</text><text x="102.5" y="252.862" font-family="sans-serif" font-size="14" font-weight="bold" textLength="48">mtime</text><text x="150.5" y="252.862" font-family="sans-serif" font-size="14" textLength="70">: datetime</text><text x="102.5" y="279.159" font-family="sans-serif" font-size="14" font-weight="bold" textLength="43">name</text><text x="145.5" y="279.159" font-family="sans-serif" font-size="14" textLength="48">: string</text><text x="102.5" y="305.456" font-family="sans-serif" font-size="14" font-weight="bold" textLength="34">tags</text><text x="136.5" y="305.456" font-family="sans-serif" font-size="14" textLength="171">: dictionary[string, string]</text><g fill="none"><path d="M161.334 608.447c-20.31 42.87-36.394 76.853-49.154 103.783" style="stroke:#111827;stroke-width:2"/><path d="m169.04 592.18-13.129 13.698 10.845 5.138z" style="stroke:#111827;stroke-width:2"/></g><g fill="none"><path d="M249.078 608.417c20.51 42.87 36.772 76.883 49.652 103.813" style="stroke:#111827;stroke-width:2"/><path d="m241.31 592.18 2.356 18.827 10.825-5.18z" style="stroke:#111827;stroke-width:2"/></g><path fill="none" d="M205 336.04v102.27m0-120.27-6 18h12z" style="stroke:#111827;stroke-width:2"/></svg>