<svg xmlns="http://www.w3.org/2000/svg" width="1340" height="837" viewBox="0 0 1340 837"><rect width="197" height="39.789" x="7" y="791.62" fill="#EEF7FF" rx="2.5" ry="2.5" style="stroke:#3d58d3;stroke-width:.5"/><circle cx="22" cy="811.514" r="11" fill="#ADD1B2" style="stroke:#181818;stroke-width:1"/><path d="M24.969 817.155q-.578.297-1.219.438-.64.156-1.344.156-2.5 0-3.828-1.64-1.312-1.657-1.312-4.782t1.312-4.781q1.328-1.657 3.828-1.657.703 0 1.344.157.656.156 1.219.453v2.719q-.625-.578-1.219-.844-.594-.281-1.219-.281-1.343 0-2.031 1.078-.687 1.062-.687 3.156t.687 3.172q.688 1.062 2.031 1.062.625 0 1.219-.265.594-.282 1.219-.86z"/><text x="41" y="817.4" font-family="Helvetica" font-size="17" textLength="155">aws_ec2_snapshot</text><rect width="193" height="39.789" x="239" y="791.62" fill="#EEF7FF" rx="2.5" ry="2.5" style="stroke:#3d58d3;stroke-width:.5"/><circle cx="254" cy="811.514" r="11" fill="#ADD1B2" style="stroke:#181818;stroke-width:1"/><path d="M256.969 817.155q-.578.297-1.219.438-.64.156-1.344.156-2.5 0-3.828-1.64-1.312-1.657-1.312-4.782t1.312-4.781q1.328-1.657 3.828-1.657.703 0 1.344.157.656.156 1.219.453v2.719q-.625-.578-1.219-.844-.594-.281-1.219-.281-1.344 0-2.031 1.078-.687 1.062-.687 3.156t.687 3.172q.688 1.062 2.031 1.062.625 0 1.219-.265.594-.282 1.219-.86z"/><text x="273" y="817.4" font-family="Helvetica" font-size="17" textLength="151">aws_rds_snapshot</text><rect width="324" height="39.789" x="467.5" y="791.62" fill="#EEF7FF" rx="2.5" ry="2.5" style="stroke:#3d58d3;stroke-width:.5"/><circle cx="482.5" cy="811.514" r="11" fill="#ADD1B2" style="stroke:#181818;stroke-width:1"/><path d="M485.469 817.155q-.578.297-1.219.438-.64.156-1.344.156-2.5 0-3.828-1.64-1.312-1.657-1.312-4.782t1.312-4.781q1.328-1.657 3.828-1.657.703 0 1.344.157.656.156 1.219.453v2.719q-.625-.578-1.219-.844-.594-.281-1.219-.281-1.344 0-2.031 1.078-.687 1.062-.687 3.156t.687 3.172q.688 1.062 2.031 1.062.625 0 1.219-.265.594-.282 1.219-.86z"/><text x="501.5" y="817.4" font-family="Helvetica" font-size="17" textLength="282">azure_managed_cluster_snapshot</text><rect width="317" height="39.789" x="827" y="791.62" fill="#EEF7FF" rx="2.5" ry="2.5" style="stroke:#3d58d3;stroke-width:.5"/><circle cx="842" cy="811.514" r="11" fill="#ADD1B2" style="stroke:#181818;stroke-width:1"/><path d="M844.969 817.155q-.578.297-1.219.438-.64.156-1.344.156-2.5 0-3.828-1.64-1.312-1.657-1.312-4.782t1.312-4.781q1.328-1.657 3.828-1.657.703 0 1.344.157.656.156 1.219.453v2.719q-.625-.578-1.219-.844-.594-.281-1.219-.281-1.343 0-2.031 1.078-.687 1.062-.687 3.156t.687 3.172q.688 1.062 2.031 1.062.625 0 1.219-.265.594-.282 1.219-.86z"/><text x="861" y="817.4" font-family="Helvetica" font-size="17" textLength="275">azure_virtual_machine_snapshot</text><rect width="154" height="39.789" x="1179.5" y="791.62" fill="#EEF7FF" rx="2.5" ry="2.5" style="stroke:#3d58d3;stroke-width:.5"/><circle cx="1194.5" cy="811.514" r="11" fill="#ADD1B2" style="stroke:#181818;stroke-width:1"/><path d="M1197.469 817.155q-.578.297-1.219.438-.64.156-1.344.156-2.5 0-3.828-1.64-1.312-1.657-1.312-4.782t1.312-4.781q1.328-1.657 3.828-1.657.703 0 1.344.157.656.156 1.219.453v2.719q-.625-.578-1.219-.844-.594-.281-1.219-.281-1.343 0-2.031 1.078-.687 1.062-.687 3.156t.687 3.172q.688 1.062 2.031 1.062.625 0 1.219-.265.594-.282 1.219-.86z"/><text x="1213.5" y="817.4" font-family="Helvetica" font-size="17" textLength="112">gcp_snapshot</text><rect width="227" height="310.758" x="516" y="7" fill="#EEF7FF" rx="2.5" ry="2.5" style="stroke:#3d58d3;stroke-width:.5"/><circle cx="584.75" cy="26.895" r="11" fill="#ADD1B2" style="stroke:#181818;stroke-width:1"/><path d="M587.719 32.535q-.578.297-1.219.438-.64.156-1.344.156-2.5 0-3.828-1.64-1.312-1.657-1.312-4.782t1.312-4.781q1.328-1.656 3.828-1.656.703 0 1.344.156.656.156 1.219.453v2.719q-.625-.578-1.219-.844-.594-.281-1.219-.281-1.343 0-2.031 1.078-.687 1.062-.687 3.156t.687 3.172q.688 1.062 2.031 1.062.625 0 1.219-.265.594-.281 1.219-.86z"/><text x="610.25" y="32.78" font-family="Helvetica" font-size="17" textLength="71">resource</text><path d="M517 46.789h225" style="stroke:#3d58d3;stroke-width:.5"/><text x="527" y="68.784" font-family="sans-serif" font-size="14" font-weight="bold" textLength="29">age</text><text x="556" y="68.784" font-family="sans-serif" font-size="14" textLength="66">: duration</text><text x="527" y="95.081" font-family="sans-serif" font-size="14" font-weight="bold" textLength="43">atime</text><text x="570" y="95.081" font-family="sans-serif" font-size="14" textLength="70">: datetime</text><text x="527" y="121.378" font-family="sans-serif" font-size="14" font-weight="bold" textLength="43">ctime</text><text x="570" y="121.378" font-family="sans-serif" font-size="14" textLength="70">: datetime</text><text x="527" y="147.675" font-family="sans-serif" font-size="14" font-weight="bold" textLength="14">id</text><text x="541" y="147.675" font-family="sans-serif" font-size="14" textLength="48">: string</text><text x="527" y="173.972" font-family="sans-serif" font-size="14" font-weight="bold" textLength="33">kind</text><text x="560" y="173.972" font-family="sans-serif" font-size="14" textLength="48">: string</text><text x="527" y="200.269" font-family="sans-serif" font-size="14" font-weight="bold" textLength="90">last_access</text><text x="617" y="200.269" font-family="sans-serif" font-size="14" textLength="66">: duration</text><text x="527" y="226.565" font-family="sans-serif" font-size="14" font-weight="bold" textLength="90">last_update</text><text x="617" y="226.565" font-family="sans-serif" font-size="14" textLength="66">: duration</text><text x="527" y="252.862" font-family="sans-serif" font-size="14" font-weight="bold" textLength="48">mtime</text><text x="575" y="252.862" font-family="sans-serif" font-size="14" textLength="70">: datetime</text><text x="527" y="279.159" font-family="sans-serif" font-size="14" font-weight="bold" textLength="43">name</text><text x="570" y="279.159" font-family="sans-serif" font-size="14" textLength="48">: string</text><text x="527" y="305.456" font-family="sans-serif" font-size="14" font-weight="bold" textLength="34">tags</text><text x="561" y="305.456" font-family="sans-serif" font-size="14" textLength="171">: dictionary[string, string]</text><rect width="199" height="231.867" x="530" y="438.75" fill="#EEF7FF" rx="2.5" ry="2.5" style="stroke:#3d58d3;stroke-width:.5"/><circle cx="582.75" cy="458.644" r="11" fill="#ADD1B2" style="stroke:#181818;stroke-width:1"/><path d="M585.719 464.285q-.578.297-1.219.438-.64.156-1.344.156-2.5 0-3.828-1.64-1.312-1.657-1.312-4.782t1.312-4.781q1.328-1.656 3.828-1.656.703 0 1.344.156.656.156 1.219.453v2.719q-.625-.579-1.219-.844-.594-.281-1.219-.281-1.343 0-2.031 1.078-.687 1.062-.687 3.156t.687 3.172q.688 1.062 2.031 1.062.625 0 1.219-.265.594-.281 1.219-.86z"/><text x="608.25" y="464.53" font-family="Helvetica" font-size="17" textLength="75">snapshot</text><path d="M531 478.539h197" style="stroke:#3d58d3;stroke-width:.5"/><text x="541" y="500.534" font-family="sans-serif" font-size="14" font-weight="bold" textLength="89">description</text><text x="630" y="500.534" font-family="sans-serif" font-size="14" textLength="48">: string</text><text x="541" y="526.831" font-family="sans-serif" font-size="14" font-weight="bold" textLength="81">encrypted</text><text x="622" y="526.831" font-family="sans-serif" font-size="14" textLength="65">: boolean</text><text x="541" y="553.128" font-family="sans-serif" font-size="14" font-weight="bold" textLength="93">owner_alias</text><text x="634" y="553.128" font-family="sans-serif" font-size="14" textLength="48">: string</text><text x="541" y="579.425" font-family="sans-serif" font-size="14" font-weight="bold" textLength="72">owner_id</text><text x="613" y="579.425" font-family="sans-serif" font-size="14" textLength="48">: string</text><text x="541" y="605.722" font-family="sans-serif" font-size="14" font-weight="bold" textLength="129">snapshot_status</text><text x="670" y="605.722" font-family="sans-serif" font-size="14" textLength="48">: string</text><text x="541" y="632.019" font-family="sans-serif" font-size="14" font-weight="bold" textLength="78">volume_id</text><text x="619" y="632.019" font-family="sans-serif" font-size="14" textLength="48">: string</text><text x="541" y="658.315" font-family="sans-serif" font-size="14" font-weight="bold" textLength="96">volume_size</text><text x="637" y="658.315" font-family="sans-serif" font-size="14" textLength="44">: int64</text><path fill="none" d="M513.523 612.093C397.123 668.703 226.48 751.68 145.3 791.16m384.41-186.94-18.811 2.477 5.248 10.791z" style="stroke:#111827;stroke-width:2"/><g fill="none"><path d="M515.948 654.109C454.358 707.489 394.05 759.77 357.79 791.2" style="stroke:#111827;stroke-width:2"/><path d="m529.55 642.32-17.532 7.255 7.86 9.068z" style="stroke:#111827;stroke-width:2"/></g><path fill="none" d="M629.5 688.8v102.47m0-120.47-6 18h12z" style="stroke:#111827;stroke-width:2"/><g fill="none"><path d="M743.776 637.487c78.16 55.95 166.884 119.453 214.974 153.883" style="stroke:#111827;stroke-width:2"/><path d="m729.14 627.01 11.144 15.356 6.985-9.757z" style="stroke:#111827;stroke-width:2"/></g><g fill="none"><path d="M745.875 602.987c137 55.68 361.365 146.863 463.145 188.233" style="stroke:#111827;stroke-width:2"/><path d="m729.2 596.21 14.416 12.336 4.519-11.117z" style="stroke:#111827;stroke-width:2"/></g><path fill="none" d="M629.5 336.2v102.3m0-120.3-6 18h12z" style="stroke:#111827;stroke-width:2"/></svg>