<svg xmlns="http://www.w3.org/2000/svg" width="267" height="732" viewBox="0 0 267 732"><rect width="109" height="39.789" x="7" y="686.44" fill="#EEF7FF" rx="2.5" ry="2.5" style="stroke:#3d58d3;stroke-width:.5"/><circle cx="22" cy="706.335" r="11" fill="#ADD1B2" style="stroke:#181818;stroke-width:1"/><path d="M24.969 711.975q-.578.297-1.219.438-.64.156-1.344.156-2.5 0-3.828-1.64-1.312-1.657-1.312-4.782t1.312-4.781q1.328-1.656 3.828-1.656.703 0 1.344.156.656.156 1.219.453v2.719q-.625-.578-1.219-.844-.594-.281-1.219-.281-1.343 0-2.031 1.078-.687 1.062-.687 3.156t.687 3.172q.688 1.062 2.031 1.062.625 0 1.219-.265.594-.281 1.219-.86z"/><text x="41" y="712.22" font-family="Helvetica" font-size="17" textLength="67">aws_alb</text><rect width="109" height="39.789" x="151" y="686.44" fill="#EEF7FF" rx="2.5" ry="2.5" style="stroke:#3d58d3;stroke-width:.5"/><circle cx="166" cy="706.335" r="11" fill="#ADD1B2" style="stroke:#181818;stroke-width:1"/><path d="M168.969 711.975q-.578.297-1.219.438-.64.156-1.344.156-2.5 0-3.828-1.64-1.312-1.657-1.312-4.782t1.312-4.781q1.328-1.656 3.828-1.656.703 0 1.344.156.656.156 1.219.453v2.719q-.625-.578-1.219-.844-.594-.281-1.219-.281-1.344 0-2.031 1.078-.687 1.062-.687 3.156t.687 3.172q.688 1.062 2.031 1.062.625 0 1.219-.265.594-.281 1.219-.86z"/><text x="185" y="712.22" font-family="Helvetica" font-size="17" textLength="67">aws_elb</text><rect width="209" height="126.68" x="29" y="438.76" fill="#EEF7FF" rx="2.5" ry="2.5" style="stroke:#3d58d3;stroke-width:.5"/><circle cx="67.4" cy="458.654" r="11" fill="#ADD1B2" style="stroke:#181818;stroke-width:1"/><path d="M70.369 464.295q-.578.297-1.219.438-.64.156-1.344.156-2.5 0-3.828-1.64-1.312-1.657-1.312-4.782t1.312-4.781q1.328-1.656 3.828-1.656.703 0 1.344.156.656.156 1.219.453v2.719q-.625-.579-1.219-.844-.594-.281-1.219-.281-1.343 0-2.031 1.078-.687 1.062-.687 3.156t.687 3.172q.688 1.062 2.031 1.062.625 0 1.219-.265.594-.281 1.219-.86z"/><text x="91.6" y="464.54" font-family="Helvetica" font-size="17" textLength="115">load_balancer</text><path d="M30 478.549h207" style="stroke:#3d58d3;stroke-width:.5"/><text x="40" y="500.544" font-family="sans-serif" font-size="14" font-weight="bold" textLength="76">backends</text><text x="116" y="500.544" font-family="sans-serif" font-size="14" textLength="58">: string[]</text><text x="40" y="526.841" font-family="sans-serif" font-size="14" font-weight="bold" textLength="56">lb_type</text><text x="96" y="526.841" font-family="sans-serif" font-size="14" textLength="48">: string</text><text x="40" y="553.138" font-family="sans-serif" font-size="14" font-weight="bold" textLength="139">public_ip_address</text><text x="179" y="553.138" font-family="sans-serif" font-size="14" textLength="48">: string</text><rect width="227" height="310.758" x="20" y="7" fill="#EEF7FF" rx="2.5" ry="2.5" style="stroke:#3d58d3;stroke-width:.5"/><circle cx="88.75" cy="26.895" r="11" fill="#ADD1B2" style="stroke:#181818;stroke-width:1"/><path d="M91.719 32.535q-.578.297-1.219.438-.64.156-1.344.156-2.5 0-3.828-1.64-1.312-1.657-1.312-4.782t1.312-4.781q1.328-1.656 3.828-1.656.703 0 1.344.156.656.156 1.219.453v2.719q-.625-.578-1.219-.844-.594-.281-1.219-.281-1.344 0-2.031 1.078-.687 1.062-.687 3.156t.687 3.172q.688 1.062 2.031 1.062.625 0 1.219-.265.594-.281 1.219-.86z"/><text x="114.25" y="32.78" font-family="Helvetica" font-size="17" textLength="71">resource</text><path d="M21 46.789h225" style="stroke:#3d58d3;stroke-width:.5"/><text x="31" y="68.784" font-family="sans-serif" font-size="14" font-weight="bold" textLength="29">age</text><text x="60" y="68.784" font-family="sans-serif" font-size="14" textLength="66">: duration</text><text x="31" y="95.081" font-family="sans-serif" font-size="14" font-weight="bold" textLength="43">atime</text><text x="74" y="95.081" font-family="sans-serif" font-size="14" textLength="70">: datetime</text><text x="31" y="121.378" font-family="sans-serif" font-size="14" font-weight="bold" textLength="43">ctime</text><text x="74" y="121.378" font-family="sans-serif" font-size="14" textLength="70">: datetime</text><text x="31" y="147.675" font-family="sans-serif" font-size="14" font-weight="bold" textLength="14">id</text><text x="45" y="147.675" font-family="sans-serif" font-size="14" textLength="48">: string</text><text x="31" y="173.972" font-family="sans-serif" font-size="14" font-weight="bold" textLength="33">kind</text><text x="64" y="173.972" font-family="sans-serif" font-size="14" textLength="48">: string</text><text x="31" y="200.269" font-family="sans-serif" font-size="14" font-weight="bold" textLength="90">last_access</text><text x="121" y="200.269" font-family="sans-serif" font-size="14" textLength="66">: duration</text><text x="31" y="226.565" font-family="sans-serif" font-size="14" font-weight="bold" textLength="90">last_update</text><text x="121" y="226.565" font-family="sans-serif" font-size="14" textLength="66">: duration</text><text x="31" y="252.862" font-family="sans-serif" font-size="14" font-weight="bold" textLength="48">mtime</text><text x="79" y="252.862" font-family="sans-serif" font-size="14" textLength="70">: datetime</text><text x="31" y="279.159" font-family="sans-serif" font-size="14" font-weight="bold" textLength="43">name</text><text x="74" y="279.159" font-family="sans-serif" font-size="14" textLength="48">: string</text><text x="31" y="305.456" font-family="sans-serif" font-size="14" font-weight="bold" textLength="34">tags</text><text x="65" y="305.456" font-family="sans-serif" font-size="14" textLength="171">: dictionary[string, string]</text><g fill="none"><path d="M105.175 582.658C90.395 624.188 78.01 658.95 68.27 686.31" style="stroke:#111827;stroke-width:2"/><path d="m111.21 565.7-11.688 14.946 11.305 4.024z" style="stroke:#111827;stroke-width:2"/></g><g fill="none"><path d="M161.825 582.658c14.78 41.53 27.165 76.292 36.905 103.652" style="stroke:#111827;stroke-width:2"/><path d="m155.79 565.7.383 18.97 11.305-4.024z" style="stroke:#111827;stroke-width:2"/></g><path fill="none" d="M133.5 335.91v102.41m0-120.41-6 18h12z" style="stroke:#111827;stroke-width:2"/></svg>