<svg xmlns="http://www.w3.org/2000/svg" width="839" height="732" viewBox="0 0 839 732"><rect width="109" height="39.789" x="7" y="686.44" fill="#EEF7FF" rx="2.5" ry="2.5" style="stroke:#3d58d3;stroke-width:.5"/><circle cx="22" cy="706.335" r="11" fill="#ADD1B2" style="stroke:#181818;stroke-width:1"/><path d="M24.969 711.975q-.578.297-1.219.438-.64.156-1.344.156-2.5 0-3.828-1.64-1.312-1.657-1.312-4.782t1.312-4.781q1.328-1.656 3.828-1.656.703 0 1.344.156.656.156 1.219.453v2.719q-.625-.578-1.219-.844-.594-.281-1.219-.281-1.343 0-2.031 1.078-.687 1.062-.687 3.156t.687 3.172q.688 1.062 2.031 1.062.625 0 1.219-.265.594-.281 1.219-.86z"/><text x="41" y="712.22" font-family="Helvetica" font-size="17" textLength="67">aws_alb</text><rect width="109" height="39.789" x="151" y="686.44" fill="#EEF7FF" rx="2.5" ry="2.5" style="stroke:#3d58d3;stroke-width:.5"/><circle cx="166" cy="706.335" r="11" fill="#ADD1B2" style="stroke:#181818;stroke-width:1"/><path d="M168.969 711.975q-.578.297-1.219.438-.64.156-1.344.156-2.5 0-3.828-1.64-1.312-1.657-1.312-4.782t1.312-4.781q1.328-1.656 3.828-1.656.703 0 1.344.156.656.156 1.219.453v2.719q-.625-.578-1.219-.844-.594-.281-1.219-.281-1.344 0-2.031 1.078-.687 1.062-.687 3.156t.687 3.172q.688 1.062 2.031 1.062.625 0 1.219-.265.594-.281 1.219-.86z"/><text x="185" y="712.22" font-family="Helvetica" font-size="17" textLength="67">aws_elb</text><rect width="291" height="39.789" x="295" y="686.44" fill="#EEF7FF" rx="2.5" ry="2.5" style="stroke:#3d58d3;stroke-width:.5"/><circle cx="310" cy="706.335" r="11" fill="#ADD1B2" style="stroke:#181818;stroke-width:1"/><path d="M312.969 711.975q-.578.297-1.219.438-.64.156-1.344.156-2.5 0-3.828-1.64-1.312-1.657-1.312-4.782t1.312-4.781q1.328-1.656 3.828-1.656.703 0 1.344.156.656.156 1.219.453v2.719q-.625-.578-1.219-.844-.594-.281-1.219-.281-1.344 0-2.031 1.078-.687 1.062-.687 3.156t.687 3.172q.688 1.062 2.031 1.062.625 0 1.219-.265.594-.281 1.219-.86z"/><text x="329" y="712.22" font-family="Helvetica" font-size="17" textLength="249">azure_network_load_balancer</text><rect width="212" height="39.789" x="620.5" y="686.44" fill="#EEF7FF" rx="2.5" ry="2.5" style="stroke:#3d58d3;stroke-width:.5"/><circle cx="635.5" cy="706.335" r="11" fill="#ADD1B2" style="stroke:#181818;stroke-width:1"/><path d="M638.469 711.975q-.578.297-1.219.438-.64.156-1.344.156-2.5 0-3.828-1.64-1.312-1.657-1.312-4.782t1.312-4.781q1.328-1.656 3.828-1.656.703 0 1.344.156.656.156 1.219.453v2.719q-.625-.578-1.219-.844-.594-.281-1.219-.281-1.343 0-2.031 1.078-.687 1.062-.687 3.156t.687 3.172q.688 1.062 2.031 1.062.625 0 1.219-.265.594-.281 1.219-.86z"/><text x="654.5" y="712.22" font-family="Helvetica" font-size="17" textLength="170">gcp_forwarding_rule</text><rect width="209" height="126.68" x="218" y="438.76" fill="#EEF7FF" rx="2.5" ry="2.5" style="stroke:#3d58d3;stroke-width:.5"/><circle cx="256.4" cy="458.654" r="11" fill="#ADD1B2" style="stroke:#181818;stroke-width:1"/><path d="M259.369 464.295q-.578.297-1.219.438-.64.156-1.344.156-2.5 0-3.828-1.64-1.312-1.657-1.312-4.782t1.312-4.781q1.328-1.656 3.828-1.656.703 0 1.344.156.656.156 1.219.453v2.719q-.625-.579-1.219-.844-.594-.281-1.219-.281-1.343 0-2.031 1.078-.687 1.062-.687 3.156t.687 3.172q.688 1.062 2.031 1.062.625 0 1.219-.265.594-.281 1.219-.86z"/><text x="280.6" y="464.54" font-family="Helvetica" font-size="17" textLength="115">load_balancer</text><path d="M219 478.549h207" style="stroke:#3d58d3;stroke-width:.5"/><text x="229" y="500.544" font-family="sans-serif" font-size="14" font-weight="bold" textLength="76">backends</text><text x="305" y="500.544" font-family="sans-serif" font-size="14" textLength="58">: string[]</text><text x="229" y="526.841" font-family="sans-serif" font-size="14" font-weight="bold" textLength="56">lb_type</text><text x="285" y="526.841" font-family="sans-serif" font-size="14" textLength="48">: string</text><text x="229" y="553.138" font-family="sans-serif" font-size="14" font-weight="bold" textLength="139">public_ip_address</text><text x="368" y="553.138" font-family="sans-serif" font-size="14" textLength="48">: string</text><rect width="227" height="310.758" x="209" y="7" fill="#EEF7FF" rx="2.5" ry="2.5" style="stroke:#3d58d3;stroke-width:.5"/><circle cx="277.75" cy="26.895" r="11" fill="#ADD1B2" style="stroke:#181818;stroke-width:1"/><path d="M280.719 32.535q-.578.297-1.219.438-.64.156-1.344.156-2.5 0-3.828-1.64-1.312-1.657-1.312-4.782t1.312-4.781q1.328-1.656 3.828-1.656.703 0 1.344.156.656.156 1.219.453v2.719q-.625-.578-1.219-.844-.594-.281-1.219-.281-1.344 0-2.031 1.078-.687 1.062-.687 3.156t.687 3.172q.688 1.062 2.031 1.062.625 0 1.219-.265.594-.281 1.219-.86z"/><text x="303.25" y="32.78" font-family="Helvetica" font-size="17" textLength="71">resource</text><path d="M210 46.789h225" style="stroke:#3d58d3;stroke-width:.5"/><text x="220" y="68.784" font-family="sans-serif" font-size="14" font-weight="bold" textLength="29">age</text><text x="249" y="68.784" font-family="sans-serif" font-size="14" textLength="66">: duration</text><text x="220" y="95.081" font-family="sans-serif" font-size="14" font-weight="bold" textLength="43">atime</text><text x="263" y="95.081" font-family="sans-serif" font-size="14" textLength="70">: datetime</text><text x="220" y="121.378" font-family="sans-serif" font-size="14" font-weight="bold" textLength="43">ctime</text><text x="263" y="121.378" font-family="sans-serif" font-size="14" textLength="70">: datetime</text><text x="220" y="147.675" font-family="sans-serif" font-size="14" font-weight="bold" textLength="14">id</text><text x="234" y="147.675" font-family="sans-serif" font-size="14" textLength="48">: string</text><text x="220" y="173.972" font-family="sans-serif" font-size="14" font-weight="bold" textLength="33">kind</text><text x="253" y="173.972" font-family="sans-serif" font-size="14" textLength="48">: string</text><text x="220" y="200.269" font-family="sans-serif" font-size="14" font-weight="bold" textLength="90">last_access</text><text x="310" y="200.269" font-family="sans-serif" font-size="14" textLength="66">: duration</text><text x="220" y="226.565" font-family="sans-serif" font-size="14" font-weight="bold" textLength="90">last_update</text><text x="310" y="226.565" font-family="sans-serif" font-size="14" textLength="66">: duration</text><text x="220" y="252.862" font-family="sans-serif" font-size="14" font-weight="bold" textLength="48">mtime</text><text x="268" y="252.862" font-family="sans-serif" font-size="14" textLength="70">: datetime</text><text x="220" y="279.159" font-family="sans-serif" font-size="14" font-weight="bold" textLength="43">name</text><text x="263" y="279.159" font-family="sans-serif" font-size="14" textLength="48">: string</text><text x="220" y="305.456" font-family="sans-serif" font-size="14" font-weight="bold" textLength="34">tags</text><text x="254" y="305.456" font-family="sans-serif" font-size="14" textLength="171">: dictionary[string, string]</text><path fill="none" d="M227.482 576.726C174.032 618.146 121.73 658.66 86.35 686.08M241.71 565.7l-17.903 6.283 7.35 9.485zm35.558 15.582c-24.02 41.53-44.938 77.668-60.758 105.028m69.77-120.61-14.206 12.577 10.388 6.008z" style="stroke:#111827;stroke-width:2"/><g fill="none"><path d="M368.1 581.247c24.23 41.53 45.34 77.703 61.3 105.063" style="stroke:#111827;stroke-width:2"/><path d="m359.03 565.7 3.888 18.571 10.365-6.047z" style="stroke:#111827;stroke-width:2"/></g><g fill="none"><path d="M443.426 563.637c85.33 42.71 184.944 92.573 244.354 122.313" style="stroke:#111827;stroke-width:2"/><path d="m427.33 555.58 13.41 13.422 5.372-10.73z" style="stroke:#111827;stroke-width:2"/></g><path fill="none" d="M322.5 335.91v102.41m0-120.41-6 18h12z" style="stroke:#111827;stroke-width:2"/></svg>