<svg xmlns="http://www.w3.org/2000/svg" width="628" height="837" viewBox="0 0 628 837"><rect width="197" height="39.789" x="7" y="791.62" fill="#EEF7FF" rx="2.5" ry="2.5" style="stroke:#3d58d3;stroke-width:.5"/><circle cx="22" cy="811.514" r="11" fill="#ADD1B2" style="stroke:#181818;stroke-width:1"/><path d="M24.969 817.155q-.578.297-1.219.438-.64.156-1.344.156-2.5 0-3.828-1.64-1.312-1.657-1.312-4.782t1.312-4.781q1.328-1.657 3.828-1.657.703 0 1.344.157.656.156 1.219.453v2.719q-.625-.578-1.219-.844-.594-.281-1.219-.281-1.343 0-2.031 1.078-.687 1.062-.687 3.156t.687 3.172q.688 1.062 2.031 1.062.625 0 1.219-.265.594-.282 1.219-.86z"/><text x="41" y="817.4" font-family="Helvetica" font-size="17" textLength="155">aws_ec2_snapshot</text><rect width="193" height="39.789" x="239" y="791.62" fill="#EEF7FF" rx="2.5" ry="2.5" style="stroke:#3d58d3;stroke-width:.5"/><circle cx="254" cy="811.514" r="11" fill="#ADD1B2" style="stroke:#181818;stroke-width:1"/><path d="M256.969 817.155q-.578.297-1.219.438-.64.156-1.344.156-2.5 0-3.828-1.64-1.312-1.657-1.312-4.782t1.312-4.781q1.328-1.657 3.828-1.657.703 0 1.344.157.656.156 1.219.453v2.719q-.625-.578-1.219-.844-.594-.281-1.219-.281-1.344 0-2.031 1.078-.687 1.062-.687 3.156t.687 3.172q.688 1.062 2.031 1.062.625 0 1.219-.265.594-.282 1.219-.86z"/><text x="273" y="817.4" font-family="Helvetica" font-size="17" textLength="151">aws_rds_snapshot</text><rect width="154" height="39.789" x="467.5" y="791.62" fill="#EEF7FF" rx="2.5" ry="2.5" style="stroke:#3d58d3;stroke-width:.5"/><circle cx="482.5" cy="811.514" r="11" fill="#ADD1B2" style="stroke:#181818;stroke-width:1"/><path d="M485.469 817.155q-.578.297-1.219.438-.64.156-1.344.156-2.5 0-3.828-1.64-1.312-1.657-1.312-4.782t1.312-4.781q1.328-1.657 3.828-1.657.703 0 1.344.157.656.156 1.219.453v2.719q-.625-.578-1.219-.844-.594-.281-1.219-.281-1.344 0-2.031 1.078-.687 1.062-.687 3.156t.687 3.172q.688 1.062 2.031 1.062.625 0 1.219-.265.594-.282 1.219-.86z"/><text x="501.5" y="817.4" font-family="Helvetica" font-size="17" textLength="112">gcp_snapshot</text><rect width="227" height="310.758" x="222" y="7" fill="#EEF7FF" rx="2.5" ry="2.5" style="stroke:#3d58d3;stroke-width:.5"/><circle cx="290.75" cy="26.895" r="11" fill="#ADD1B2" style="stroke:#181818;stroke-width:1"/><path d="M293.719 32.535q-.578.297-1.219.438-.64.156-1.344.156-2.5 0-3.828-1.64-1.312-1.657-1.312-4.782t1.312-4.781q1.328-1.656 3.828-1.656.703 0 1.344.156.656.156 1.219.453v2.719q-.625-.578-1.219-.844-.594-.281-1.219-.281-1.344 0-2.031 1.078-.687 1.062-.687 3.156t.687 3.172q.688 1.062 2.031 1.062.625 0 1.219-.265.594-.281 1.219-.86z"/><text x="316.25" y="32.78" font-family="Helvetica" font-size="17" textLength="71">resource</text><path d="M223 46.789h225" style="stroke:#3d58d3;stroke-width:.5"/><text x="233" y="68.784" font-family="sans-serif" font-size="14" font-weight="bold" textLength="29">age</text><text x="262" y="68.784" font-family="sans-serif" font-size="14" textLength="66">: duration</text><text x="233" y="95.081" font-family="sans-serif" font-size="14" font-weight="bold" textLength="43">atime</text><text x="276" y="95.081" font-family="sans-serif" font-size="14" textLength="70">: datetime</text><text x="233" y="121.378" font-family="sans-serif" font-size="14" font-weight="bold" textLength="43">ctime</text><text x="276" y="121.378" font-family="sans-serif" font-size="14" textLength="70">: datetime</text><text x="233" y="147.675" font-family="sans-serif" font-size="14" font-weight="bold" textLength="14">id</text><text x="247" y="147.675" font-family="sans-serif" font-size="14" textLength="48">: string</text><text x="233" y="173.972" font-family="sans-serif" font-size="14" font-weight="bold" textLength="33">kind</text><text x="266" y="173.972" font-family="sans-serif" font-size="14" textLength="48">: string</text><text x="233" y="200.269" font-family="sans-serif" font-size="14" font-weight="bold" textLength="90">last_access</text><text x="323" y="200.269" font-family="sans-serif" font-size="14" textLength="66">: duration</text><text x="233" y="226.565" font-family="sans-serif" font-size="14" font-weight="bold" textLength="90">last_update</text><text x="323" y="226.565" font-family="sans-serif" font-size="14" textLength="66">: duration</text><text x="233" y="252.862" font-family="sans-serif" font-size="14" font-weight="bold" textLength="48">mtime</text><text x="281" y="252.862" font-family="sans-serif" font-size="14" textLength="70">: datetime</text><text x="233" y="279.159" font-family="sans-serif" font-size="14" font-weight="bold" textLength="43">name</text><text x="276" y="279.159" font-family="sans-serif" font-size="14" textLength="48">: string</text><text x="233" y="305.456" font-family="sans-serif" font-size="14" font-weight="bold" textLength="34">tags</text><text x="267" y="305.456" font-family="sans-serif" font-size="14" textLength="171">: dictionary[string, string]</text><rect width="199" height="231.867" x="236" y="438.75" fill="#EEF7FF" rx="2.5" ry="2.5" style="stroke:#3d58d3;stroke-width:.5"/><circle cx="288.75" cy="458.644" r="11" fill="#ADD1B2" style="stroke:#181818;stroke-width:1"/><path d="M291.719 464.285q-.578.297-1.219.438-.64.156-1.344.156-2.5 0-3.828-1.64-1.312-1.657-1.312-4.782t1.312-4.781q1.328-1.656 3.828-1.656.703 0 1.344.156.656.156 1.219.453v2.719q-.625-.579-1.219-.844-.594-.281-1.219-.281-1.344 0-2.031 1.078-.687 1.062-.687 3.156t.687 3.172q.688 1.062 2.031 1.062.625 0 1.219-.265.594-.281 1.219-.86z"/><text x="314.25" y="464.53" font-family="Helvetica" font-size="17" textLength="75">snapshot</text><path d="M237 478.539h197" style="stroke:#3d58d3;stroke-width:.5"/><text x="247" y="500.534" font-family="sans-serif" font-size="14" font-weight="bold" textLength="89">description</text><text x="336" y="500.534" font-family="sans-serif" font-size="14" textLength="48">: string</text><text x="247" y="526.831" font-family="sans-serif" font-size="14" font-weight="bold" textLength="81">encrypted</text><text x="328" y="526.831" font-family="sans-serif" font-size="14" textLength="65">: boolean</text><text x="247" y="553.128" font-family="sans-serif" font-size="14" font-weight="bold" textLength="93">owner_alias</text><text x="340" y="553.128" font-family="sans-serif" font-size="14" textLength="48">: string</text><text x="247" y="579.425" font-family="sans-serif" font-size="14" font-weight="bold" textLength="72">owner_id</text><text x="319" y="579.425" font-family="sans-serif" font-size="14" textLength="48">: string</text><text x="247" y="605.722" font-family="sans-serif" font-size="14" font-weight="bold" textLength="129">snapshot_status</text><text x="376" y="605.722" font-family="sans-serif" font-size="14" textLength="48">: string</text><text x="247" y="632.019" font-family="sans-serif" font-size="14" font-weight="bold" textLength="78">volume_id</text><text x="325" y="632.019" font-family="sans-serif" font-size="14" textLength="48">: string</text><text x="247" y="658.315" font-family="sans-serif" font-size="14" font-weight="bold" textLength="96">volume_size</text><text x="343" y="658.315" font-family="sans-serif" font-size="14" textLength="44">: int64</text><path fill="none" d="M223.56 679.713c-42.91 47.55-76.63 84.897-100.79 111.677m112.85-125.04-16.514 9.343 8.91 8.04zm99.88 22.45v102.47m0-120.47-6 18h12zm105.825 13.918L528.72 791.27M429.91 670.8l6.776 17.723 9.278-7.61zM335.5 336.2v102.3m0-120.3-6 18h12z" style="stroke:#111827;stroke-width:2"/></svg>