<svg xmlns="http://www.w3.org/2000/svg" width="855" height="645" viewBox="0 0 855 645"><rect width="168" height="39.789" x="7" y="599.55" fill="#EEF7FF" rx="2.5" ry="2.5" style="stroke:#3d58d3;stroke-width:.5"/><circle cx="22" cy="619.444" r="11" fill="#ADD1B2" style="stroke:#181818;stroke-width:1"/><path d="M24.969 625.085q-.578.297-1.219.438-.64.156-1.344.156-2.5 0-3.828-1.64-1.312-1.657-1.312-4.782t1.312-4.781q1.328-1.657 3.828-1.657.703 0 1.344.157.656.156 1.219.453v2.719q-.625-.579-1.219-.844-.594-.281-1.219-.281-1.343 0-2.031 1.078-.687 1.062-.687 3.156t.687 3.172q.688 1.062 2.031 1.062.625 0 1.219-.265.594-.282 1.219-.86z"/><text x="41" y="625.33" font-family="Helvetica" font-size="17" textLength="126">aws_s3_bucket</text><rect width="220" height="39.789" x="210" y="599.55" fill="#EEF7FF" rx="2.5" ry="2.5" style="stroke:#3d58d3;stroke-width:.5"/><circle cx="225" cy="619.444" r="11" fill="#ADD1B2" style="stroke:#181818;stroke-width:1"/><path d="M227.969 625.085q-.578.297-1.219.438-.64.156-1.344.156-2.5 0-3.828-1.64-1.312-1.657-1.312-4.782t1.312-4.781q1.328-1.657 3.828-1.657.703 0 1.344.157.656.156 1.219.453v2.719q-.625-.579-1.219-.844-.594-.281-1.219-.281-1.344 0-2.031 1.078-.687 1.062-.687 3.156t.687 3.172q.688 1.062 2.031 1.062.625 0 1.219-.265.594-.282 1.219-.86z"/><text x="244" y="625.33" font-family="Helvetica" font-size="17" textLength="178">azure_blob_container</text><rect width="98" height="39.789" x="397" y="438.76" fill="#EEF7FF" rx="2.5" ry="2.5" style="stroke:#3d58d3;stroke-width:.5"/><circle cx="412" cy="458.654" r="11" fill="#ADD1B2" style="stroke:#181818;stroke-width:1"/><path d="M414.969 464.295q-.578.297-1.219.438-.64.156-1.344.156-2.5 0-3.828-1.64-1.312-1.657-1.312-4.782t1.312-4.781q1.328-1.656 3.828-1.656.703 0 1.344.156.656.156 1.219.453v2.719q-.625-.579-1.219-.844-.594-.281-1.219-.281-1.344 0-2.031 1.078-.687 1.062-.687 3.156t.687 3.172q.688 1.062 2.031 1.062.625 0 1.219-.265.594-.281 1.219-.86z"/><text x="431" y="464.54" font-family="Helvetica" font-size="17" textLength="56">bucket</text><rect width="213" height="39.789" x="465.5" y="599.55" fill="#EEF7FF" rx="2.5" ry="2.5" style="stroke:#3d58d3;stroke-width:.5"/><circle cx="480.5" cy="619.444" r="11" fill="#ADD1B2" style="stroke:#181818;stroke-width:1"/><path d="M483.469 625.085q-.578.297-1.219.438-.64.156-1.344.156-2.5 0-3.828-1.64-1.312-1.657-1.312-4.782t1.312-4.781q1.328-1.657 3.828-1.657.703 0 1.344.157.656.156 1.219.453v2.719q-.625-.579-1.219-.844-.594-.281-1.219-.281-1.344 0-2.031 1.078-.687 1.062-.687 3.156t.687 3.172q.688 1.062 2.031 1.062.625 0 1.219-.265.594-.282 1.219-.86z"/><text x="499.5" y="625.33" font-family="Helvetica" font-size="17" textLength="171">gcp_backend_bucket</text><rect width="135" height="39.789" x="713.5" y="599.55" fill="#EEF7FF" rx="2.5" ry="2.5" style="stroke:#3d58d3;stroke-width:.5"/><circle cx="728.5" cy="619.444" r="11" fill="#ADD1B2" style="stroke:#181818;stroke-width:1"/><path d="M731.469 625.085q-.578.297-1.219.438-.64.156-1.344.156-2.5 0-3.828-1.64-1.312-1.657-1.312-4.782t1.312-4.781q1.328-1.657 3.828-1.657.703 0 1.344.157.656.156 1.219.453v2.719q-.625-.579-1.219-.844-.594-.281-1.219-.281-1.343 0-2.031 1.078-.687 1.062-.687 3.156t.687 3.172q.688 1.062 2.031 1.062.625 0 1.219-.265.594-.282 1.219-.86z"/><text x="747.5" y="625.33" font-family="Helvetica" font-size="17" textLength="93">gcp_bucket</text><rect width="227" height="310.758" x="332.5" y="7" fill="#EEF7FF" rx="2.5" ry="2.5" style="stroke:#3d58d3;stroke-width:.5"/><circle cx="401.25" cy="26.895" r="11" fill="#ADD1B2" style="stroke:#181818;stroke-width:1"/><path d="M404.219 32.535q-.578.297-1.219.438-.64.156-1.344.156-2.5 0-3.828-1.64-1.312-1.657-1.312-4.782t1.312-4.781q1.328-1.656 3.828-1.656.703 0 1.344.156.656.156 1.219.453v2.719q-.625-.578-1.219-.844-.594-.281-1.219-.281-1.344 0-2.031 1.078-.687 1.062-.687 3.156t.687 3.172q.688 1.062 2.031 1.062.625 0 1.219-.265.594-.281 1.219-.86z"/><text x="426.75" y="32.78" font-family="Helvetica" font-size="17" textLength="71">resource</text><path d="M333.5 46.789h225" style="stroke:#3d58d3;stroke-width:.5"/><text x="343.5" y="68.784" font-family="sans-serif" font-size="14" font-weight="bold" textLength="29">age</text><text x="372.5" y="68.784" font-family="sans-serif" font-size="14" textLength="66">: duration</text><text x="343.5" y="95.081" font-family="sans-serif" font-size="14" font-weight="bold" textLength="43">atime</text><text x="386.5" y="95.081" font-family="sans-serif" font-size="14" textLength="70">: datetime</text><text x="343.5" y="121.378" font-family="sans-serif" font-size="14" font-weight="bold" textLength="43">ctime</text><text x="386.5" y="121.378" font-family="sans-serif" font-size="14" textLength="70">: datetime</text><text x="343.5" y="147.675" font-family="sans-serif" font-size="14" font-weight="bold" textLength="14">id</text><text x="357.5" y="147.675" font-family="sans-serif" font-size="14" textLength="48">: string</text><text x="343.5" y="173.972" font-family="sans-serif" font-size="14" font-weight="bold" textLength="33">kind</text><text x="376.5" y="173.972" font-family="sans-serif" font-size="14" textLength="48">: string</text><text x="343.5" y="200.269" font-family="sans-serif" font-size="14" font-weight="bold" textLength="90">last_access</text><text x="433.5" y="200.269" font-family="sans-serif" font-size="14" textLength="66">: duration</text><text x="343.5" y="226.565" font-family="sans-serif" font-size="14" font-weight="bold" textLength="90">last_update</text><text x="433.5" y="226.565" font-family="sans-serif" font-size="14" textLength="66">: duration</text><text x="343.5" y="252.862" font-family="sans-serif" font-size="14" font-weight="bold" textLength="48">mtime</text><text x="391.5" y="252.862" font-family="sans-serif" font-size="14" textLength="70">: datetime</text><text x="343.5" y="279.159" font-family="sans-serif" font-size="14" font-weight="bold" textLength="43">name</text><text x="386.5" y="279.159" font-family="sans-serif" font-size="14" textLength="48">: string</text><text x="343.5" y="305.456" font-family="sans-serif" font-size="14" font-weight="bold" textLength="34">tags</text><text x="377.5" y="305.456" font-family="sans-serif" font-size="14" textLength="171">: dictionary[string, string]</text><g fill="none"><path d="M386.39 486.32c-68.27 30.54-183.98 82.29-252.24 112.82" style="stroke:#111827;stroke-width:2"/><path d="m402.82 478.97-18.881 1.873 4.9 10.954z" style="stroke:#111827;stroke-width:2"/></g><path fill="none" d="M419.61 492.91c-24.22 30.52-60.11 75.75-84.36 106.31m95.55-120.41-15.89 10.37 9.4 7.46zM446 335.85v102.83m0-120.83-6 18h12zm26.39 175.06c24.22 30.52 60.11 75.75 84.36 106.31M461.2 478.81l6.49 17.83 9.4-7.46zm41.805 7.87c64.43 30.54 172.855 81.93 237.275 112.46M486.74 478.97l13.695 13.131 5.14-10.843z" style="stroke:#111827;stroke-width:2"/></svg>