<svg xmlns="http://www.w3.org/2000/svg" width="7758" height="1288" viewBox="0 0 7758 1288"><rect width="238" height="39.789" x="5191" y="1081.91" fill="#EEF7FF" rx="2.5" ry="2.5" style="stroke:#3d58d3;stroke-width:.5"/><circle cx="5206" cy="1101.804" r="11" fill="#ADD1B2" style="stroke:#181818;stroke-width:1"/><path d="M5208.969 1107.445q-.578.297-1.219.438-.64.156-1.344.156-2.5 0-3.828-1.64-1.312-1.657-1.312-4.782t1.312-4.781q1.328-1.657 3.828-1.657.703 0 1.344.157.656.156 1.219.453v2.719q-.625-.579-1.219-.844-.594-.281-1.219-.281-1.343 0-2.031 1.078-.687 1.062-.687 3.156t.687 3.172q.688 1.062 2.031 1.062.625 0 1.219-.265.594-.282 1.219-.86z"/><text x="5225" y="1107.69" font-family="Helvetica" font-size="17" textLength="196">aws_ec2_instance_type</text><rect width="231" height="39.789" x="6830.5" y="1081.91" fill="#EEF7FF" rx="2.5" ry="2.5" style="stroke:#3d58d3;stroke-width:.5"/><circle cx="6845.5" cy="1101.804" r="11" fill="#ADD1B2" style="stroke:#181818;stroke-width:1"/><path d="M6848.469 1107.445q-.578.297-1.219.438-.64.156-1.344.156-2.5 0-3.828-1.64-1.312-1.657-1.312-4.782t1.312-4.781q1.328-1.657 3.828-1.657.703 0 1.344.157.656.156 1.219.453v2.719q-.625-.579-1.219-.844-.594-.281-1.219-.281-1.343 0-2.031 1.078-.687 1.062-.687 3.156t.687 3.172q.688 1.062 2.031 1.062.625 0 1.219-.265.594-.282 1.219-.86z"/><text x="6864.5" y="1107.69" font-family="Helvetica" font-size="17" textLength="189">aws_ec2_volume_type</text><rect width="137" height="39.789" x="6728.5" y="760.33" fill="#EEF7FF" rx="2.5" ry="2.5" style="stroke:#3d58d3;stroke-width:.5"/><circle cx="6743.5" cy="780.225" r="11" fill="#ADD1B2" style="stroke:#181818;stroke-width:1"/><path d="M6746.469 785.865q-.578.297-1.219.438-.64.156-1.344.156-2.5 0-3.828-1.64-1.312-1.657-1.312-4.782t1.312-4.781q1.328-1.656 3.828-1.656.703 0 1.344.156.656.156 1.219.453v2.719q-.625-.578-1.219-.844-.594-.281-1.219-.281-1.343 0-2.031 1.078-.687 1.062-.687 3.156t.687 3.172q.688 1.062 2.031 1.062.625 0 1.219-.265.594-.281 1.219-.86z"/><text x="6762.5" y="786.11" font-family="Helvetica" font-size="17" textLength="95">aws_region</text><rect width="252" height="39.789" x="7" y="599.54" fill="#EEF7FF" rx="2.5" ry="2.5" style="stroke:#3d58d3;stroke-width:.5"/><circle cx="22" cy="619.434" r="11" fill="#ADD1B2" style="stroke:#181818;stroke-width:1"/><path d="M24.969 625.075q-.578.297-1.219.438-.64.156-1.344.156-2.5 0-3.828-1.64-1.312-1.657-1.312-4.782t1.312-4.781q1.328-1.657 3.828-1.657.703 0 1.344.157.656.156 1.219.453v2.719q-.625-.579-1.219-.844-.594-.281-1.219-.281-1.343 0-2.031 1.078-.687 1.062-.687 3.156t.687 3.172q.688 1.062 2.031 1.062.625 0 1.219-.265.594-.282 1.219-.86z"/><text x="41" y="625.32" font-family="Helvetica" font-size="17" textLength="210">aws_s3_account_settings</text><rect width="199" height="39.789" x="5110.5" y="760.33" fill="#EEF7FF" rx="2.5" ry="2.5" style="stroke:#3d58d3;stroke-width:.5"/><circle cx="5125.5" cy="780.225" r="11" fill="#ADD1B2" style="stroke:#181818;stroke-width:1"/><path d="M5128.469 785.865q-.578.297-1.219.438-.64.156-1.344.156-2.5 0-3.828-1.64-1.312-1.657-1.312-4.782t1.312-4.781q1.328-1.656 3.828-1.656.703 0 1.344.156.656.156 1.219.453v2.719q-.625-.578-1.219-.844-.594-.281-1.219-.281-1.343 0-2.031 1.078-.687 1.062-.687 3.156t.687 3.172q.688 1.062 2.031 1.062.625 0 1.219-.265.594-.281 1.219-.86z"/><text x="5144.5" y="786.11" font-family="Helvetica" font-size="17" textLength="157">aws_service_quota</text><rect width="339" height="39.789" x="293.5" y="599.54" fill="#EEF7FF" rx="2.5" ry="2.5" style="stroke:#3d58d3;stroke-width:.5"/><circle cx="308.5" cy="619.434" r="11" fill="#ADD1B2" style="stroke:#181818;stroke-width:1"/><path d="M311.469 625.075q-.578.297-1.219.438-.64.156-1.344.156-2.5 0-3.828-1.64-1.312-1.657-1.312-4.782t1.312-4.781q1.328-1.657 3.828-1.657.703 0 1.344.157.656.156 1.219.453v2.719q-.625-.579-1.219-.844-.594-.281-1.219-.281-1.344 0-2.031 1.078-.687 1.062-.687 3.156t.687 3.172q.688 1.062 2.031 1.062.625 0 1.219-.265.594-.282 1.219-.86z"/><text x="327.5" y="625.32" font-family="Helvetica" font-size="17" textLength="297">azure_authorization_role_definition</text><rect width="258" height="39.789" x="7096" y="1081.91" fill="#EEF7FF" rx="2.5" ry="2.5" style="stroke:#3d58d3;stroke-width:.5"/><circle cx="7111" cy="1101.804" r="11" fill="#ADD1B2" style="stroke:#181818;stroke-width:1"/><path d="M7113.969 1107.445q-.578.297-1.219.438-.64.156-1.344.156-2.5 0-3.828-1.64-1.312-1.657-1.312-4.782t1.312-4.781q1.328-1.657 3.828-1.657.703 0 1.344.157.656.156 1.219.453v2.719q-.625-.579-1.219-.844-.594-.281-1.219-.281-1.343 0-2.031 1.078-.687 1.062-.687 3.156t.687 3.172q.688 1.062 2.031 1.062.625 0 1.219-.265.594-.282 1.219-.86z"/><text x="7130" y="1107.69" font-family="Helvetica" font-size="17" textLength="216">azure_compute_disk_type</text><rect width="355" height="39.789" x="5464.5" y="1081.91" fill="#EEF7FF" rx="2.5" ry="2.5" style="stroke:#3d58d3;stroke-width:.5"/><circle cx="5479.5" cy="1101.804" r="11" fill="#ADD1B2" style="stroke:#181818;stroke-width:1"/><path d="M5482.469 1107.445q-.578.297-1.219.438-.64.156-1.344.156-2.5 0-3.828-1.64-1.312-1.657-1.312-4.782t1.312-4.781q1.328-1.657 3.828-1.657.703 0 1.344.157.656.156 1.219.453v2.719q-.625-.579-1.219-.844-.594-.281-1.219-.281-1.343 0-2.031 1.078-.687 1.062-.687 3.156t.687 3.172q.688 1.062 2.031 1.062.625 0 1.219-.265.594-.282 1.219-.86z"/><text x="5498.5" y="1107.69" font-family="Helvetica" font-size="17" textLength="313">azure_compute_virtual_machine_size</text><rect width="319" height="39.789" x="3899.5" y="760.33" fill="#EEF7FF" rx="2.5" ry="2.5" style="stroke:#3d58d3;stroke-width:.5"/><circle cx="3914.5" cy="780.225" r="11" fill="#ADD1B2" style="stroke:#181818;stroke-width:1"/><path d="M3917.469 785.865q-.578.297-1.219.438-.64.156-1.344.156-2.5 0-3.828-1.64-1.312-1.657-1.312-4.782t1.312-4.781q1.328-1.656 3.828-1.656.703 0 1.344.156.656.156 1.219.453v2.719q-.625-.578-1.219-.844-.594-.281-1.219-.281-1.343 0-2.031 1.078-.687 1.062-.687 3.156t.687 3.172q.688 1.062 2.031 1.062.625 0 1.219-.265.594-.281 1.219-.86z"/><text x="3933.5" y="786.11" font-family="Helvetica" font-size="17" textLength="277">azure_cosmos_db_account_usage</text><rect width="262" height="39.789" x="667" y="599.54" fill="#EEF7FF" rx="2.5" ry="2.5" style="stroke:#3d58d3;stroke-width:.5"/><circle cx="682" cy="619.434" r="11" fill="#ADD1B2" style="stroke:#181818;stroke-width:1"/><path d="M684.969 625.075q-.578.297-1.219.438-.64.156-1.344.156-2.5 0-3.828-1.64-1.312-1.657-1.312-4.782t1.312-4.781q1.328-1.657 3.828-1.657.703 0 1.344.157.656.156 1.219.453v2.719q-.625-.579-1.219-.844-.594-.281-1.219-.281-1.343 0-2.031 1.078-.687 1.062-.687 3.156t.687 3.172q.688 1.062 2.031 1.062.625 0 1.219-.265.594-.282 1.219-.86z"/><text x="701" y="625.32" font-family="Helvetica" font-size="17" textLength="220">azure_cosmos_db_location</text><rect width="163" height="39.789" x="6900.5" y="760.33" fill="#EEF7FF" rx="2.5" ry="2.5" style="stroke:#3d58d3;stroke-width:.5"/><circle cx="6915.5" cy="780.225" r="11" fill="#ADD1B2" style="stroke:#181818;stroke-width:1"/><path d="M6918.469 785.865q-.578.297-1.219.438-.64.156-1.344.156-2.5 0-3.828-1.64-1.312-1.657-1.312-4.782t1.312-4.781q1.328-1.656 3.828-1.656.703 0 1.344.156.656.156 1.219.453v2.719q-.625-.578-1.219-.844-.594-.281-1.219-.281-1.343 0-2.031 1.078-.687 1.062-.687 3.156t.687 3.172q.688 1.062 2.031 1.062.625 0 1.219-.265.594-.281 1.219-.86z"/><text x="6934.5" y="786.11" font-family="Helvetica" font-size="17" textLength="121">azure_location</text><rect width="482" height="39.789" x="964" y="599.54" fill="#EEF7FF" rx="2.5" ry="2.5" style="stroke:#3d58d3;stroke-width:.5"/><circle cx="979" cy="619.434" r="11" fill="#ADD1B2" style="stroke:#181818;stroke-width:1"/><path d="M981.969 625.075q-.578.297-1.219.438-.64.156-1.344.156-2.5 0-3.828-1.64-1.312-1.657-1.312-4.782t1.312-4.781q1.328-1.657 3.828-1.657.703 0 1.344.157.656.156 1.219.453v2.719q-.625-.579-1.219-.844-.594-.281-1.219-.281-1.343 0-2.031 1.078-.687 1.062-.687 3.156t.687 3.172q.688 1.062 2.031 1.062.625 0 1.219-.265.594-.282 1.219-.86z"/><text x="998" y="625.32" font-family="Helvetica" font-size="17" textLength="440">azure_machine_learning_environment_version_base</text><rect width="304" height="39.789" x="1481" y="599.54" fill="#EEF7FF" rx="2.5" ry="2.5" style="stroke:#3d58d3;stroke-width:.5"/><circle cx="1496" cy="619.434" r="11" fill="#ADD1B2" style="stroke:#181818;stroke-width:1"/><path d="M1498.969 625.075q-.578.297-1.219.438-.64.156-1.344.156-2.5 0-3.828-1.64-1.312-1.657-1.312-4.782t1.312-4.781q1.328-1.657 3.828-1.657.703 0 1.344.157.656.156 1.219.453v2.719q-.625-.579-1.219-.844-.594-.281-1.219-.281-1.343 0-2.031 1.078-.687 1.062-.687 3.156t.687 3.172q.688 1.062 2.031 1.062.625 0 1.219-.265.594-.282 1.219-.86z"/><text x="1515" y="625.32" font-family="Helvetica" font-size="17" textLength="262">azure_machine_learning_quota</text><rect width="508" height="39.789" x="673" y="760.33" fill="#EEF7FF" rx="2.5" ry="2.5" style="stroke:#3d58d3;stroke-width:.5"/><circle cx="688" cy="780.225" r="11" fill="#ADD1B2" style="stroke:#181818;stroke-width:1"/><path d="M690.969 785.865q-.578.297-1.219.438-.64.156-1.344.156-2.5 0-3.828-1.64-1.312-1.657-1.312-4.782t1.312-4.781q1.328-1.656 3.828-1.656.703 0 1.344.156.656.156 1.219.453v2.719q-.625-.578-1.219-.844-.594-.281-1.219-.281-1.343 0-2.031 1.078-.687 1.062-.687 3.156t.687 3.172q.688 1.062 2.031 1.062.625 0 1.219-.265.594-.281 1.219-.86z"/><text x="707" y="786.11" font-family="Helvetica" font-size="17" textLength="466">azure_machine_learning_registry_environment_version</text><rect width="305" height="39.789" x="4253.5" y="760.33" fill="#EEF7FF" rx="2.5" ry="2.5" style="stroke:#3d58d3;stroke-width:.5"/><circle cx="4268.5" cy="780.225" r="11" fill="#ADD1B2" style="stroke:#181818;stroke-width:1"/><path d="M4271.469 785.865q-.578.297-1.219.438-.64.156-1.344.156-2.5 0-3.828-1.64-1.312-1.657-1.312-4.782t1.312-4.781q1.328-1.656 3.828-1.656.703 0 1.344.156.656.156 1.219.453v2.719q-.625-.578-1.219-.844-.594-.281-1.219-.281-1.343 0-2.031 1.078-.687 1.062-.687 3.156t.687 3.172q.688 1.062 2.031 1.062.625 0 1.219-.265.594-.281 1.219-.86z"/><text x="4287.5" y="786.11" font-family="Helvetica" font-size="17" textLength="263">azure_machine_learning_usage</text><rect width="432" height="39.789" x="5855" y="1081.91" fill="#EEF7FF" rx="2.5" ry="2.5" style="stroke:#3d58d3;stroke-width:.5"/><circle cx="5870" cy="1101.804" r="11" fill="#ADD1B2" style="stroke:#181818;stroke-width:1"/><path d="M5872.969 1107.445q-.578.297-1.219.438-.64.156-1.344.156-2.5 0-3.828-1.64-1.312-1.657-1.312-4.782t1.312-4.781q1.328-1.657 3.828-1.657.703 0 1.344.157.656.156 1.219.453v2.719q-.625-.579-1.219-.844-.594-.281-1.219-.281-1.343 0-2.031 1.078-.687 1.062-.687 3.156t.687 3.172q.688 1.062 2.031 1.062.625 0 1.219-.265.594-.282 1.219-.86z"/><text x="5889" y="1107.69" font-family="Helvetica" font-size="17" textLength="390">azure_machine_learning_virtual_machine_size</text><rect width="532" height="39.789" x="1216" y="760.33" fill="#EEF7FF" rx="2.5" ry="2.5" style="stroke:#3d58d3;stroke-width:.5"/><circle cx="1231" cy="780.225" r="11" fill="#ADD1B2" style="stroke:#181818;stroke-width:1"/><path d="M1233.969 785.865q-.578.297-1.219.438-.64.156-1.344.156-2.5 0-3.828-1.64-1.312-1.657-1.312-4.782t1.312-4.781q1.328-1.656 3.828-1.656.703 0 1.344.156.656.156 1.219.453v2.719q-.625-.578-1.219-.844-.594-.281-1.219-.281-1.343 0-2.031 1.078-.687 1.062-.687 3.156t.687 3.172q.688 1.062 2.031 1.062.625 0 1.219-.265.594-.281 1.219-.86z"/><text x="1250" y="786.11" font-family="Helvetica" font-size="17" textLength="490">azure_machine_learning_workspace_environment_version</text><rect width="254" height="39.789" x="6162" y="1242.7" fill="#EEF7FF" rx="2.5" ry="2.5" style="stroke:#3d58d3;stroke-width:.5"/><circle cx="6177" cy="1262.594" r="11" fill="#ADD1B2" style="stroke:#181818;stroke-width:1"/><path d="M6179.969 1268.235q-.578.297-1.219.438-.64.156-1.344.156-2.5 0-3.828-1.64-1.312-1.657-1.312-4.782t1.312-4.781q1.328-1.657 3.828-1.657.703 0 1.344.157.656.156 1.219.453v2.719q-.625-.579-1.219-.844-.594-.281-1.219-.281-1.343 0-2.031 1.078-.687 1.062-.687 3.156t.687 3.172q.688 1.062 2.031 1.062.625 0 1.219-.265.594-.282 1.219-.86z"/><text x="6196" y="1268.48" font-family="Helvetica" font-size="17" textLength="212">azure_mysql_server_type</text><rect width="496" height="39.789" x="1820" y="599.54" fill="#EEF7FF" rx="2.5" ry="2.5" style="stroke:#3d58d3;stroke-width:.5"/><circle cx="1835" cy="619.434" r="11" fill="#ADD1B2" style="stroke:#181818;stroke-width:1"/><path d="M1837.969 625.075q-.578.297-1.219.438-.64.156-1.344.156-2.5 0-3.828-1.64-1.312-1.657-1.312-4.782t1.312-4.781q1.328-1.657 3.828-1.657.703 0 1.344.157.656.156 1.219.453v2.719q-.625-.579-1.219-.844-.594-.281-1.219-.281-1.343 0-2.031 1.078-.687 1.062-.687 3.156t.687 3.172q.688 1.062 2.031 1.062.625 0 1.219-.265.594-.282 1.219-.86z"/><text x="1854" y="625.32" font-family="Helvetica" font-size="17" textLength="454">azure_network_application_gateway_firewall_rule_set</text><rect width="419" height="39.789" x="2350.5" y="599.54" fill="#EEF7FF" rx="2.5" ry="2.5" style="stroke:#3d58d3;stroke-width:.5"/><circle cx="2365.5" cy="619.434" r="11" fill="#ADD1B2" style="stroke:#181818;stroke-width:1"/><path d="M2368.469 625.075q-.578.297-1.219.438-.64.156-1.344.156-2.5 0-3.828-1.64-1.312-1.657-1.312-4.782t1.312-4.781q1.328-1.657 3.828-1.657.703 0 1.344.157.656.156 1.219.453v2.719q-.625-.579-1.219-.844-.594-.281-1.219-.281-1.343 0-2.031 1.078-.687 1.062-.687 3.156t.687 3.172q.688 1.062 2.031 1.062.625 0 1.219-.265.594-.282 1.219-.86z"/><text x="2384.5" y="625.32" font-family="Helvetica" font-size="17" textLength="377">azure_network_express_route_ports_location</text><rect width="391" height="39.789" x="2804.5" y="599.54" fill="#EEF7FF" rx="2.5" ry="2.5" style="stroke:#3d58d3;stroke-width:.5"/><circle cx="2819.5" cy="619.434" r="11" fill="#ADD1B2" style="stroke:#181818;stroke-width:1"/><path d="M2822.469 625.075q-.578.297-1.219.438-.64.156-1.344.156-2.5 0-3.828-1.64-1.312-1.657-1.312-4.782t1.312-4.781q1.328-1.657 3.828-1.657.703 0 1.344.157.656.156 1.219.453v2.719q-.625-.579-1.219-.844-.594-.281-1.219-.281-1.343 0-2.031 1.078-.687 1.062-.687 3.156t.687 3.172q.688 1.062 2.031 1.062.625 0 1.219-.265.594-.282 1.219-.86z"/><text x="2838.5" y="625.32" font-family="Helvetica" font-size="17" textLength="349">azure_network_security_partner_provider</text><rect width="225" height="39.789" x="4970.5" y="921.12" fill="#EEF7FF" rx="2.5" ry="2.5" style="stroke:#3d58d3;stroke-width:.5"/><circle cx="4985.5" cy="941.014" r="11" fill="#ADD1B2" style="stroke:#181818;stroke-width:1"/><path d="M4988.469 946.655q-.578.297-1.219.438-.64.156-1.344.156-2.5 0-3.828-1.64-1.312-1.657-1.312-4.782t1.312-4.781q1.328-1.657 3.828-1.657.703 0 1.344.157.656.156 1.219.453v2.719q-.625-.578-1.219-.844-.594-.281-1.219-.281-1.343 0-2.031 1.078-.687 1.062-.687 3.156t.687 3.172q.688 1.062 2.031 1.062.625 0 1.219-.265.594-.282 1.219-.86z"/><text x="5004.5" y="946.9" font-family="Helvetica" font-size="17" textLength="183">azure_network_usage</text><rect width="357" height="39.789" x="3230.5" y="599.54" fill="#EEF7FF" rx="2.5" ry="2.5" style="stroke:#3d58d3;stroke-width:.5"/><circle cx="3245.5" cy="619.434" r="11" fill="#ADD1B2" style="stroke:#181818;stroke-width:1"/><path d="M3248.469 625.075q-.578.297-1.219.438-.64.156-1.344.156-2.5 0-3.828-1.64-1.312-1.657-1.312-4.782t1.312-4.781q1.328-1.657 3.828-1.657.703 0 1.344.157.656.156 1.219.453v2.719q-.625-.579-1.219-.844-.594-.281-1.219-.281-1.343 0-2.031 1.078-.687 1.062-.687 3.156t.687 3.172q.688 1.062 2.031 1.062.625 0 1.219-.265.594-.282 1.219-.86z"/><text x="3264.5" y="625.32" font-family="Helvetica" font-size="17" textLength="315">azure_network_virtual_appliance_sku</text><rect width="289" height="39.789" x="6451.5" y="1242.7" fill="#EEF7FF" rx="2.5" ry="2.5" style="stroke:#3d58d3;stroke-width:.5"/><circle cx="6466.5" cy="1262.594" r="11" fill="#ADD1B2" style="stroke:#181818;stroke-width:1"/><path d="M6469.469 1268.235q-.578.297-1.219.438-.64.156-1.344.156-2.5 0-3.828-1.64-1.312-1.657-1.312-4.782t1.312-4.781q1.328-1.657 3.828-1.657.703 0 1.344.157.656.156 1.219.453v2.719q-.625-.579-1.219-.844-.594-.281-1.219-.281-1.343 0-2.031 1.078-.687 1.062-.687 3.156t.687 3.172q.688 1.062 2.031 1.062.625 0 1.219-.265.594-.282 1.219-.86z"/><text x="6485.5" y="1268.48" font-family="Helvetica" font-size="17" textLength="247">azure_postgresql_server_type</text><rect width="269" height="39.789" x="3622.5" y="599.54" fill="#EEF7FF" rx="2.5" ry="2.5" style="stroke:#3d58d3;stroke-width:.5"/><circle cx="3637.5" cy="619.434" r="11" fill="#ADD1B2" style="stroke:#181818;stroke-width:1"/><path d="M3640.469 625.075q-.578.297-1.219.438-.64.156-1.344.156-2.5 0-3.828-1.64-1.312-1.657-1.312-4.782t1.312-4.781q1.328-1.657 3.828-1.657.703 0 1.344.157.656.156 1.219.453v2.719q-.625-.579-1.219-.844-.594-.281-1.219-.281-1.343 0-2.031 1.078-.687 1.062-.687 3.156t.687 3.172q.688 1.062 2.031 1.062.625 0 1.219-.265.594-.282 1.219-.86z"/><text x="3656.5" y="625.32" font-family="Helvetica" font-size="17" textLength="227">azure_security_assessment</text><rect width="228" height="39.789" x="3927" y="599.54" fill="#EEF7FF" rx="2.5" ry="2.5" style="stroke:#3d58d3;stroke-width:.5"/><circle cx="3942" cy="619.434" r="11" fill="#ADD1B2" style="stroke:#181818;stroke-width:1"/><path d="M3944.969 625.075q-.578.297-1.219.438-.64.156-1.344.156-2.5 0-3.828-1.64-1.312-1.657-1.312-4.782t1.312-4.781q1.328-1.657 3.828-1.657.703 0 1.344.157.656.156 1.219.453v2.719q-.625-.579-1.219-.844-.594-.281-1.219-.281-1.343 0-2.031 1.078-.687 1.062-.687 3.156t.687 3.172q.688 1.062 2.031 1.062.625 0 1.219-.265.594-.282 1.219-.86z"/><text x="3961" y="625.32" font-family="Helvetica" font-size="17" textLength="186">azure_security_pricing</text><rect width="304" height="39.789" x="4190" y="599.54" fill="#EEF7FF" rx="2.5" ry="2.5" style="stroke:#3d58d3;stroke-width:.5"/><circle cx="4205" cy="619.434" r="11" fill="#ADD1B2" style="stroke:#181818;stroke-width:1"/><path d="M4207.969 625.075q-.578.297-1.219.438-.64.156-1.344.156-2.5 0-3.828-1.64-1.312-1.657-1.312-4.782t1.312-4.781q1.328-1.657 3.828-1.657.703 0 1.344.157.656.156 1.219.453v2.719q-.625-.579-1.219-.844-.594-.281-1.219-.281-1.343 0-2.031 1.078-.687 1.062-.687 3.156t.687 3.172q.688 1.062 2.031 1.062.625 0 1.219-.265.594-.282 1.219-.86z"/><text x="4224" y="625.32" font-family="Helvetica" font-size="17" textLength="262">azure_storage_account_deleted</text><rect width="291" height="39.789" x="4664.5" y="760.33" fill="#EEF7FF" rx="2.5" ry="2.5" style="stroke:#3d58d3;stroke-width:.5"/><circle cx="4679.5" cy="780.225" r="11" fill="#ADD1B2" style="stroke:#181818;stroke-width:1"/><path d="M4682.469 785.865q-.578.297-1.219.438-.64.156-1.344.156-2.5 0-3.828-1.64-1.312-1.657-1.312-4.782t1.312-4.781q1.328-1.656 3.828-1.656.703 0 1.344.156.656.156 1.219.453v2.719q-.625-.578-1.219-.844-.594-.281-1.219-.281-1.343 0-2.031 1.078-.687 1.062-.687 3.156t.687 3.172q.688 1.062 2.031 1.062.625 0 1.219-.265.594-.281 1.219-.86z"/><text x="4698.5" y="786.11" font-family="Helvetica" font-size="17" textLength="249">azure_storage_account_usage</text><rect width="197" height="39.789" x="4528.5" y="599.54" fill="#EEF7FF" rx="2.5" ry="2.5" style="stroke:#3d58d3;stroke-width:.5"/><circle cx="4543.5" cy="619.434" r="11" fill="#ADD1B2" style="stroke:#181818;stroke-width:1"/><path d="M4546.469 625.075q-.578.297-1.219.438-.64.156-1.344.156-2.5 0-3.828-1.64-1.312-1.657-1.312-4.782t1.312-4.781q1.328-1.657 3.828-1.657.703 0 1.344.157.656.156 1.219.453v2.719q-.625-.579-1.219-.844-.594-.281-1.219-.281-1.343 0-2.031 1.078-.687 1.062-.687 3.156t.687 3.172q.688 1.062 2.031 1.062.625 0 1.219-.265.594-.282 1.219-.86z"/><text x="4562.5" y="625.32" font-family="Helvetica" font-size="17" textLength="155">azure_storage_sku</text><rect width="146" height="39.789" x="4761" y="599.54" fill="#EEF7FF" rx="2.5" ry="2.5" style="stroke:#3d58d3;stroke-width:.5"/><circle cx="4776" cy="619.434" r="11" fill="#ADD1B2" style="stroke:#181818;stroke-width:1"/><path d="M4778.969 625.075q-.578.297-1.219.438-.64.156-1.344.156-2.5 0-3.828-1.64-1.312-1.657-1.312-4.782t1.312-4.781q1.328-1.657 3.828-1.657.703 0 1.344.157.656.156 1.219.453v2.719q-.625-.579-1.219-.844-.594-.281-1.219-.281-1.343 0-2.031 1.078-.687 1.062-.687 3.156t.687 3.172q.688 1.062 2.031 1.062.625 0 1.219-.265.594-.282 1.219-.86z"/><text x="4795" y="625.32" font-family="Helvetica" font-size="17" textLength="104">azure_usage</text><rect width="133" height="39.789" x="4942.5" y="599.54" fill="#EEF7FF" rx="2.5" ry="2.5" style="stroke:#3d58d3;stroke-width:.5"/><circle cx="4957.5" cy="619.434" r="11" fill="#ADD1B2" style="stroke:#181818;stroke-width:1"/><path d="M4960.469 625.075q-.578.297-1.219.438-.64.156-1.344.156-2.5 0-3.828-1.64-1.312-1.657-1.312-4.782t1.312-4.781q1.328-1.657 3.828-1.657.703 0 1.344.157.656.156 1.219.453v2.719q-.625-.579-1.219-.844-.594-.281-1.219-.281-1.343 0-2.031 1.078-.687 1.062-.687 3.156t.687 3.172q.688 1.062 2.031 1.062.625 0 1.219-.265.594-.282 1.219-.86z"/><text x="4976.5" y="625.32" font-family="Helvetica" font-size="17" textLength="91">base_cloud</text><rect width="155" height="39.789" x="5344.5" y="760.33" fill="#EEF7FF" rx="2.5" ry="2.5" style="stroke:#3d58d3;stroke-width:.5"/><circle cx="5359.5" cy="780.225" r="11" fill="#ADD1B2" style="stroke:#181818;stroke-width:1"/><path d="M5362.469 785.865q-.578.297-1.219.438-.64.156-1.344.156-2.5 0-3.828-1.64-1.312-1.657-1.312-4.782t1.312-4.781q1.328-1.656 3.828-1.656.703 0 1.344.156.656.156 1.219.453v2.719q-.625-.578-1.219-.844-.594-.281-1.219-.281-1.343 0-2.031 1.078-.687 1.062-.687 3.156t.687 3.172q.688 1.062 2.031 1.062.625 0 1.219-.265.594-.281 1.219-.86z"/><text x="5378.5" y="786.11" font-family="Helvetica" font-size="17" textLength="113">bucket_quota</text><rect width="182" height="39.789" x="5535" y="760.33" fill="#EEF7FF" rx="2.5" ry="2.5" style="stroke:#3d58d3;stroke-width:.5"/><circle cx="5550" cy="780.225" r="11" fill="#ADD1B2" style="stroke:#181818;stroke-width:1"/><path d="M5552.969 785.865q-.578.297-1.219.438-.64.156-1.344.156-2.5 0-3.828-1.64-1.312-1.657-1.312-4.782t1.312-4.781q1.328-1.656 3.828-1.656.703 0 1.344.156.656.156 1.219.453v2.719q-.625-.578-1.219-.844-.594-.281-1.219-.281-1.343 0-2.031 1.078-.687 1.062-.687 3.156t.687 3.172q.688 1.062 2.031 1.062.625 0 1.219-.265.594-.281 1.219-.86z"/><text x="5569" y="786.11" font-family="Helvetica" font-size="17" textLength="140">certificate_quota</text><rect width="86" height="39.789" x="4990" y="760.33" fill="#EEF7FF" rx="2.5" ry="2.5" style="stroke:#3d58d3;stroke-width:.5"/><circle cx="5005" cy="780.225" r="11" fill="#ADD1B2" style="stroke:#181818;stroke-width:1"/><path d="M5007.969 785.865q-.578.297-1.219.438-.64.156-1.344.156-2.5 0-3.828-1.64-1.312-1.657-1.312-4.782t1.312-4.781q1.328-1.656 3.828-1.656.703 0 1.344.156.656.156 1.219.453v2.719q-.625-.578-1.219-.844-.594-.281-1.219-.281-1.343 0-2.031 1.078-.687 1.062-.687 3.156t.687 3.172q.688 1.062 2.031 1.062.625 0 1.219-.265.594-.281 1.219-.86z"/><text x="5024" y="786.11" font-family="Helvetica" font-size="17" textLength="44">cloud</text><rect width="242" height="39.789" x="6322" y="1081.91" fill="#EEF7FF" rx="2.5" ry="2.5" style="stroke:#3d58d3;stroke-width:.5"/><circle cx="6337" cy="1101.804" r="11" fill="#ADD1B2" style="stroke:#181818;stroke-width:1"/><path d="M6339.969 1107.445q-.578.297-1.219.438-.64.156-1.344.156-2.5 0-3.828-1.64-1.312-1.657-1.312-4.782t1.312-4.781q1.328-1.657 3.828-1.657.703 0 1.344.157.656.156 1.219.453v2.719q-.625-.579-1.219-.844-.594-.281-1.219-.281-1.343 0-2.031 1.078-.687 1.062-.687 3.156t.687 3.172q.688 1.062 2.031 1.062.625 0 1.219-.265.594-.282 1.219-.86z"/><text x="6356" y="1107.69" font-family="Helvetica" font-size="17" textLength="200">database_instance_type</text><rect width="171" height="39.789" x="5752.5" y="760.33" fill="#EEF7FF" rx="2.5" ry="2.5" style="stroke:#3d58d3;stroke-width:.5"/><circle cx="5767.5" cy="780.225" r="11" fill="#ADD1B2" style="stroke:#181818;stroke-width:1"/><path d="M5770.469 785.865q-.578.297-1.219.438-.64.156-1.344.156-2.5 0-3.828-1.64-1.312-1.657-1.312-4.782t1.312-4.781q1.328-1.656 3.828-1.656.703 0 1.344.156.656.156 1.219.453v2.719q-.625-.578-1.219-.844-.594-.281-1.219-.281-1.343 0-2.031 1.078-.687 1.062-.687 3.156t.687 3.172q.688 1.062 2.031 1.062.625 0 1.219-.265.594-.281 1.219-.86z"/><text x="5786.5" y="786.11" font-family="Helvetica" font-size="17" textLength="129">gateway_quota</text><rect width="158" height="39.789" x="7389" y="1081.91" fill="#EEF7FF" rx="2.5" ry="2.5" style="stroke:#3d58d3;stroke-width:.5"/><circle cx="7404" cy="1101.804" r="11" fill="#ADD1B2" style="stroke:#181818;stroke-width:1"/><path d="M7406.969 1107.445q-.578.297-1.219.438-.64.156-1.344.156-2.5 0-3.828-1.64-1.312-1.657-1.312-4.782t1.312-4.781q1.328-1.657 3.828-1.657.703 0 1.344.157.656.156 1.219.453v2.719q-.625-.579-1.219-.844-.594-.281-1.219-.281-1.343 0-2.031 1.078-.687 1.062-.687 3.156t.687 3.172q.688 1.062 2.031 1.062.625 0 1.219-.265.594-.282 1.219-.86z"/><text x="7423" y="1107.69" font-family="Helvetica" font-size="17" textLength="116">gcp_disk_type</text><rect width="259" height="39.789" x="5110.5" y="599.54" fill="#EEF7FF" rx="2.5" ry="2.5" style="stroke:#3d58d3;stroke-width:.5"/><circle cx="5125.5" cy="619.434" r="11" fill="#ADD1B2" style="stroke:#181818;stroke-width:1"/><path d="M5128.469 625.075q-.578.297-1.219.438-.64.156-1.344.156-2.5 0-3.828-1.64-1.312-1.657-1.312-4.782t1.312-4.781q1.328-1.657 3.828-1.657.703 0 1.344.157.656.156 1.219.453v2.719q-.625-.579-1.219-.844-.594-.281-1.219-.281-1.343 0-2.031 1.078-.687 1.062-.687 3.156t.687 3.172q.688 1.062 2.031 1.062.625 0 1.219-.265.594-.282 1.219-.86z"/><text x="5144.5" y="625.32" font-family="Helvetica" font-size="17" textLength="217">gcp_interconnect_location</text><rect width="197" height="39.789" x="6598.5" y="1081.91" fill="#EEF7FF" rx="2.5" ry="2.5" style="stroke:#3d58d3;stroke-width:.5"/><circle cx="6613.5" cy="1101.804" r="11" fill="#ADD1B2" style="stroke:#181818;stroke-width:1"/><path d="M6616.469 1107.445q-.578.297-1.219.438-.64.156-1.344.156-2.5 0-3.828-1.64-1.312-1.657-1.312-4.782t1.312-4.781q1.328-1.657 3.828-1.657.703 0 1.344.157.656.156 1.219.453v2.719q-.625-.579-1.219-.844-.594-.281-1.219-.281-1.343 0-2.031 1.078-.687 1.062-.687 3.156t.687 3.172q.688 1.062 2.031 1.062.625 0 1.219-.265.594-.282 1.219-.86z"/><text x="6632.5" y="1107.69" font-family="Helvetica" font-size="17" textLength="155">gcp_machine_type</text><rect width="132" height="39.789" x="7098" y="760.33" fill="#EEF7FF" rx="2.5" ry="2.5" style="stroke:#3d58d3;stroke-width:.5"/><circle cx="7113" cy="780.225" r="11" fill="#ADD1B2" style="stroke:#181818;stroke-width:1"/><path d="M7115.969 785.865q-.578.297-1.219.438-.64.156-1.344.156-2.5 0-3.828-1.64-1.312-1.657-1.312-4.782t1.312-4.781q1.328-1.656 3.828-1.656.703 0 1.344.156.656.156 1.219.453v2.719q-.625-.578-1.219-.844-.594-.281-1.219-.281-1.343 0-2.031 1.078-.687 1.062-.687 3.156t.687 3.172q.688 1.062 2.031 1.062.625 0 1.219-.265.594-.281 1.219-.86z"/><text x="7132" y="786.11" font-family="Helvetica" font-size="17" textLength="90">gcp_region</text><rect width="189" height="39.789" x="5404.5" y="599.54" fill="#EEF7FF" rx="2.5" ry="2.5" style="stroke:#3d58d3;stroke-width:.5"/><circle cx="5419.5" cy="619.434" r="11" fill="#ADD1B2" style="stroke:#181818;stroke-width:1"/><path d="M5422.469 625.075q-.578.297-1.219.438-.64.156-1.344.156-2.5 0-3.828-1.64-1.312-1.657-1.312-4.782t1.312-4.781q1.328-1.657 3.828-1.657.703 0 1.344.157.656.156 1.219.453v2.719q-.625-.579-1.219-.844-.594-.281-1.219-.281-1.343 0-2.031 1.078-.687 1.062-.687 3.156t.687 3.172q.688 1.062 2.031 1.062.625 0 1.219-.265.594-.282 1.219-.86z"/><text x="5438.5" y="625.32" font-family="Helvetica" font-size="17" textLength="147">gcp_region_quota</text><rect width="118" height="39.789" x="7633" y="760.33" fill="#EEF7FF" rx="2.5" ry="2.5" style="stroke:#3d58d3;stroke-width:.5"/><circle cx="7648" cy="780.225" r="11" fill="#ADD1B2" style="stroke:#181818;stroke-width:1"/><path d="M7650.969 785.865q-.578.297-1.219.438-.64.156-1.344.156-2.5 0-3.828-1.64-1.312-1.657-1.312-4.782t1.312-4.781q1.328-1.656 3.828-1.656.703 0 1.344.156.656.156 1.219.453v2.719q-.625-.578-1.219-.844-.594-.281-1.219-.281-1.343 0-2.031 1.078-.687 1.062-.687 3.156t.687 3.172q.688 1.062 2.031 1.062.625 0 1.219-.265.594-.281 1.219-.86z"/><text x="7667" y="786.11" font-family="Helvetica" font-size="17" textLength="76">gcp_zone</text><rect width="169" height="39.789" x="5958.5" y="760.33" fill="#EEF7FF" rx="2.5" ry="2.5" style="stroke:#3d58d3;stroke-width:.5"/><circle cx="5973.5" cy="780.225" r="11" fill="#ADD1B2" style="stroke:#181818;stroke-width:1"/><path d="M5976.469 785.865q-.578.297-1.219.438-.64.156-1.344.156-2.5 0-3.828-1.64-1.312-1.657-1.312-4.782t1.312-4.781q1.328-1.656 3.828-1.656.703 0 1.344.156.656.156 1.219.453v2.719q-.625-.578-1.219-.844-.594-.281-1.219-.281-1.343 0-2.031 1.078-.687 1.062-.687 3.156t.687 3.172q.688 1.062 2.031 1.062.625 0 1.219-.265.594-.281 1.219-.86z"/><text x="5992.5" y="786.11" font-family="Helvetica" font-size="17" textLength="127">instance_quota</text><rect width="158" height="39.789" x="6103" y="921.12" fill="#EEF7FF" rx="2.5" ry="2.5" style="stroke:#3d58d3;stroke-width:.5"/><circle cx="6118" cy="941.014" r="11" fill="#ADD1B2" style="stroke:#181818;stroke-width:1"/><path d="M6120.969 946.655q-.578.297-1.219.438-.64.156-1.344.156-2.5 0-3.828-1.64-1.312-1.657-1.312-4.782t1.312-4.781q1.328-1.657 3.828-1.657.703 0 1.344.157.656.156 1.219.453v2.719q-.625-.578-1.219-.844-.594-.281-1.219-.281-1.343 0-2.031 1.078-.687 1.062-.687 3.156t.687 3.172q.688 1.062 2.031 1.062.625 0 1.219-.265.594-.282 1.219-.86z"/><text x="6137" y="946.9" font-family="Helvetica" font-size="17" textLength="116">instance_type</text><rect width="214" height="39.789" x="6162" y="760.33" fill="#EEF7FF" rx="2.5" ry="2.5" style="stroke:#3d58d3;stroke-width:.5"/><circle cx="6177" cy="780.225" r="11" fill="#ADD1B2" style="stroke:#181818;stroke-width:1"/><path d="M6179.969 785.865q-.578.297-1.219.438-.64.156-1.344.156-2.5 0-3.828-1.64-1.312-1.657-1.312-4.782t1.312-4.781q1.328-1.656 3.828-1.656.703 0 1.344.156.656.156 1.219.453v2.719q-.625-.578-1.219-.844-.594-.281-1.219-.281-1.343 0-2.031 1.078-.687 1.062-.687 3.156t.687 3.172q.688 1.062 2.031 1.062.625 0 1.219-.265.594-.281 1.219-.86z"/><text x="6196" y="786.11" font-family="Helvetica" font-size="17" textLength="172">load_balancer_quota</text><rect width="333" height="39.789" x="7264.5" y="760.33" fill="#EEF7FF" rx="2.5" ry="2.5" style="stroke:#3d58d3;stroke-width:.5"/><circle cx="7279.5" cy="780.225" r="11" fill="#ADD1B2" style="stroke:#181818;stroke-width:1"/><path d="M7282.469 785.865q-.578.297-1.219.438-.64.156-1.344.156-2.5 0-3.828-1.64-1.312-1.657-1.312-4.782t1.312-4.781q1.328-1.656 3.828-1.656.703 0 1.344.156.656.156 1.219.453v2.719q-.625-.578-1.219-.844-.594-.281-1.219-.281-1.343 0-2.031 1.078-.687 1.062-.687 3.156t.687 3.172q.688 1.062 2.031 1.062.625 0 1.219-.265.594-.281 1.219-.86z"/><text x="7298.5" y="786.11" font-family="Helvetica" font-size="17" textLength="291">microsoft_graph_organization_root</text><rect width="169" height="39.789" x="6410.5" y="760.33" fill="#EEF7FF" rx="2.5" ry="2.5" style="stroke:#3d58d3;stroke-width:.5"/><circle cx="6425.5" cy="780.225" r="11" fill="#ADD1B2" style="stroke:#181818;stroke-width:1"/><path d="M6428.469 785.865q-.578.297-1.219.438-.64.156-1.344.156-2.5 0-3.828-1.64-1.312-1.657-1.312-4.782t1.312-4.781q1.328-1.656 3.828-1.656.703 0 1.344.156.656.156 1.219.453v2.719q-.625-.578-1.219-.844-.594-.281-1.219-.281-1.343 0-2.031 1.078-.687 1.062-.687 3.156t.687 3.172q.688 1.062 2.031 1.062.625 0 1.219-.265.594-.281 1.219-.86z"/><text x="6444.5" y="786.11" font-family="Helvetica" font-size="17" textLength="127">network_quota</text><rect width="198" height="39.789" x="3800" y="438.76" fill="#EEF7FF" rx="2.5" ry="2.5" style="stroke:#3d58d3;stroke-width:.5"/><circle cx="3815" cy="458.654" r="11" fill="#ADD1B2" style="stroke:#181818;stroke-width:1"/><path d="M3817.969 464.295q-.578.297-1.219.438-.64.156-1.344.156-2.5 0-3.828-1.64-1.312-1.657-1.312-4.782t1.312-4.781q1.328-1.656 3.828-1.656.703 0 1.344.156.656.156 1.219.453v2.719q-.625-.579-1.219-.844-.594-.281-1.219-.281-1.343 0-2.031 1.078-.687 1.062-.687 3.156t.687 3.172q.688 1.062 2.031 1.062.625 0 1.219-.265.594-.281 1.219-.86z"/><text x="3834" y="464.54" font-family="Helvetica" font-size="17" textLength="156">phantom_resource</text><rect width="90" height="39.789" x="5793" y="599.54" fill="#EEF7FF" rx="2.5" ry="2.5" style="stroke:#3d58d3;stroke-width:.5"/><circle cx="5808" cy="619.434" r="11" fill="#ADD1B2" style="stroke:#181818;stroke-width:1"/><path d="M5810.969 625.075q-.578.297-1.219.438-.64.156-1.344.156-2.5 0-3.828-1.64-1.312-1.657-1.312-4.782t1.312-4.781q1.328-1.657 3.828-1.657.703 0 1.344.157.656.156 1.219.453v2.719q-.625-.579-1.219-.844-.594-.281-1.219-.281-1.343 0-2.031 1.078-.687 1.062-.687 3.156t.687 3.172q.688 1.062 2.031 1.062.625 0 1.219-.265.594-.282 1.219-.86z"/><text x="5827" y="625.32" font-family="Helvetica" font-size="17" textLength="48">quota</text><rect width="95" height="39.789" x="6934.5" y="599.54" fill="#EEF7FF" rx="2.5" ry="2.5" style="stroke:#3d58d3;stroke-width:.5"/><circle cx="6949.5" cy="619.434" r="11" fill="#ADD1B2" style="stroke:#181818;stroke-width:1"/><path d="M6952.469 625.075q-.578.297-1.219.438-.64.156-1.344.156-2.5 0-3.828-1.64-1.312-1.657-1.312-4.782t1.312-4.781q1.328-1.657 3.828-1.657.703 0 1.344.157.656.156 1.219.453v2.719q-.625-.579-1.219-.844-.594-.281-1.219-.281-1.343 0-2.031 1.078-.687 1.062-.687 3.156t.687 3.172q.688 1.062 2.031 1.062.625 0 1.219-.265.594-.282 1.219-.86z"/><text x="6968.5" y="625.32" font-family="Helvetica" font-size="17" textLength="53">region</text><rect width="227" height="310.758" x="3785.5" y="7" fill="#EEF7FF" rx="2.5" ry="2.5" style="stroke:#3d58d3;stroke-width:.5"/><circle cx="3854.25" cy="26.895" r="11" fill="#ADD1B2" style="stroke:#181818;stroke-width:1"/><path d="M3857.219 32.535q-.578.297-1.219.438-.64.156-1.344.156-2.5 0-3.828-1.64-1.312-1.657-1.312-4.782t1.312-4.781q1.328-1.656 3.828-1.656.703 0 1.344.156.656.156 1.219.453v2.719q-.625-.578-1.219-.844-.594-.281-1.219-.281-1.343 0-2.031 1.078-.687 1.062-.687 3.156t.687 3.172q.688 1.062 2.031 1.062.625 0 1.219-.265.594-.281 1.219-.86z"/><text x="3879.75" y="32.78" font-family="Helvetica" font-size="17" textLength="71">resource</text><path d="M3786.5 46.789h225" style="stroke:#3d58d3;stroke-width:.5"/><text x="3796.5" y="68.784" font-family="sans-serif" font-size="14" font-weight="bold" textLength="29">age</text><text x="3825.5" y="68.784" font-family="sans-serif" font-size="14" textLength="66">: duration</text><text x="3796.5" y="95.081" font-family="sans-serif" font-size="14" font-weight="bold" textLength="43">atime</text><text x="3839.5" y="95.081" font-family="sans-serif" font-size="14" textLength="70">: datetime</text><text x="3796.5" y="121.378" font-family="sans-serif" font-size="14" font-weight="bold" textLength="43">ctime</text><text x="3839.5" y="121.378" font-family="sans-serif" font-size="14" textLength="70">: datetime</text><text x="3796.5" y="147.675" font-family="sans-serif" font-size="14" font-weight="bold" textLength="14">id</text><text x="3810.5" y="147.675" font-family="sans-serif" font-size="14" textLength="48">: string</text><text x="3796.5" y="173.972" font-family="sans-serif" font-size="14" font-weight="bold" textLength="33">kind</text><text x="3829.5" y="173.972" font-family="sans-serif" font-size="14" textLength="48">: string</text><text x="3796.5" y="200.269" font-family="sans-serif" font-size="14" font-weight="bold" textLength="90">last_access</text><text x="3886.5" y="200.269" font-family="sans-serif" font-size="14" textLength="66">: duration</text><text x="3796.5" y="226.565" font-family="sans-serif" font-size="14" font-weight="bold" textLength="90">last_update</text><text x="3886.5" y="226.565" font-family="sans-serif" font-size="14" textLength="66">: duration</text><text x="3796.5" y="252.862" font-family="sans-serif" font-size="14" font-weight="bold" textLength="48">mtime</text><text x="3844.5" y="252.862" font-family="sans-serif" font-size="14" textLength="70">: datetime</text><text x="3796.5" y="279.159" font-family="sans-serif" font-size="14" font-weight="bold" textLength="43">name</text><text x="3839.5" y="279.159" font-family="sans-serif" font-size="14" textLength="48">: string</text><text x="3796.5" y="305.456" font-family="sans-serif" font-size="14" font-weight="bold" textLength="34">tags</text><text x="3830.5" y="305.456" font-family="sans-serif" font-size="14" textLength="171">: dictionary[string, string]</text><rect width="79" height="39.789" x="6614.5" y="760.33" fill="#EEF7FF" rx="2.5" ry="2.5" style="stroke:#3d58d3;stroke-width:.5"/><circle cx="6629.5" cy="780.225" r="11" fill="#ADD1B2" style="stroke:#181818;stroke-width:1"/><path d="M6632.469 785.865q-.578.297-1.219.438-.64.156-1.344.156-2.5 0-3.828-1.64-1.312-1.657-1.312-4.782t1.312-4.781q1.328-1.656 3.828-1.656.703 0 1.344.156.656.156 1.219.453v2.719q-.625-.578-1.219-.844-.594-.281-1.219-.281-1.343 0-2.031 1.078-.687 1.062-.687 3.156t.687 3.172q.688 1.062 2.031 1.062.625 0 1.219-.265.594-.281 1.219-.86z"/><text x="6648.5" y="786.11" font-family="Helvetica" font-size="17" textLength="37">type</text><rect width="151" height="39.789" x="7010.5" y="921.12" fill="#EEF7FF" rx="2.5" ry="2.5" style="stroke:#3d58d3;stroke-width:.5"/><circle cx="7025.5" cy="941.014" r="11" fill="#ADD1B2" style="stroke:#181818;stroke-width:1"/><path d="M7028.469 946.655q-.578.297-1.219.438-.64.156-1.344.156-2.5 0-3.828-1.64-1.312-1.657-1.312-4.782t1.312-4.781q1.328-1.657 3.828-1.657.703 0 1.344.157.656.156 1.219.453v2.719q-.625-.578-1.219-.844-.594-.281-1.219-.281-1.343 0-2.031 1.078-.687 1.062-.687 3.156t.687 3.172q.688 1.062 2.031 1.062.625 0 1.219-.265.594-.282 1.219-.86z"/><text x="7044.5" y="946.9" font-family="Helvetica" font-size="17" textLength="109">volume_type</text><rect width="81" height="39.789" x="7358.5" y="599.54" fill="#EEF7FF" rx="2.5" ry="2.5" style="stroke:#3d58d3;stroke-width:.5"/><circle cx="7373.5" cy="619.434" r="11" fill="#ADD1B2" style="stroke:#181818;stroke-width:1"/><path d="M7376.469 625.075q-.578.297-1.219.438-.64.156-1.344.156-2.5 0-3.828-1.64-1.312-1.657-1.312-4.782t1.312-4.781q1.328-1.657 3.828-1.657.703 0 1.344.157.656.156 1.219.453v2.719q-.625-.579-1.219-.844-.594-.281-1.219-.281-1.343 0-2.031 1.078-.687 1.062-.687 3.156t.687 3.172q.688 1.062 2.031 1.062.625 0 1.219-.265.594-.282 1.219-.86z"/><text x="7392.5" y="625.32" font-family="Helvetica" font-size="17" textLength="39">zone</text><g fill="none"><path d="M6084.981 959.685c-157.33 28.65-491.311 89.465-668.551 121.745" style="stroke:#111827;stroke-width:2"/><path d="m6102.69 956.46-18.784-2.678 2.15 11.806z" style="stroke:#111827;stroke-width:2"/></g><g fill="none"><path d="M7057.206 974.671c-26.91 30.52-67.316 76.349-94.256 106.909" style="stroke:#111827;stroke-width:2"/><path d="m7069.11 961.17-16.405 9.533 9.001 7.937z" style="stroke:#111827;stroke-width:2"/></g><g fill="none"><path d="M6946.023 651.315c-35.55 30.52-91.023 78.125-126.633 108.695" style="stroke:#111827;stroke-width:2"/><path d="m6959.68 639.59-17.566 7.173 7.817 9.104z" style="stroke:#111827;stroke-width:2"/></g><g fill="none"><path d="M3781.73 460.142C3357.16 462.542 1670.21 479.45 276 599.54c-5.49.48-11.09 1.01-16.74 1.58" style="stroke:#111827;stroke-width:2"/><path d="m3799.73 460.04-18.034-5.898.068 12z" style="stroke:#111827;stroke-width:2"/></g><g fill="none"><path d="M5775.13 636.333c-106.57 26.95-356.19 90.067-488.45 123.507" style="stroke:#111827;stroke-width:2"/><path d="m5792.58 631.92-18.922-1.404 2.942 11.634z" style="stroke:#111827;stroke-width:2"/></g><g fill="none"><path d="M3781.63 463.378c-302.07 9.7-1217.95 40.012-1991.63 75.162-507.31 23.05-634.68 21.78-1141 61-5.34.42-10.76.86-16.24 1.32" style="stroke:#111827;stroke-width:2"/><path d="m3799.62 462.8-18.183-5.42.385 11.995z" style="stroke:#111827;stroke-width:2"/></g><g fill="none"><path d="M7114.624 974.715c26.71 30.52 66.796 76.305 93.546 106.865" style="stroke:#111827;stroke-width:2"/><path d="m7102.77 961.17 7.34 17.497 9.03-7.903z" style="stroke:#111827;stroke-width:2"/></g><path fill="none" d="M6098.791 966.488c-103.97 30.57-287.501 84.542-391.231 115.042m408.5-120.12-18.962-.679 3.386 11.513z" style="stroke:#111827;stroke-width:2"/><g fill="none"><path d="M4743.365 639.273c-6.08 1.26 5.485-1.143-.365.057-210.12 43.31-456.67 93.6-588.82 120.52" style="stroke:#111827;stroke-width:2"/><path d="m4760.99 635.62-18.843-2.222 2.435 11.75z" style="stroke:#111827;stroke-width:2"/></g><g fill="none"><path d="M3781.744 461.887C3407.484 469.527 2064.17 502.39 947 599.54c-5.84.51-11.81 1.08-17.84 1.69" style="stroke:#111827;stroke-width:2"/><path d="m3799.74 461.52-18.119-5.631.245 11.997z" style="stroke:#111827;stroke-width:2"/></g><path fill="none" d="M6982 657.59v102.42m0-120.42-6 18h12z" style="stroke:#111827;stroke-width:2"/><g fill="none"><path d="M3781.545 465.75C3450.034 483.08 2370.62 540.44 1464 599.54c-5.85.39-11.77.78-17.74 1.18" style="stroke:#111827;stroke-width:2"/><path d="m3799.52 464.81-18.289-5.052.627 11.983z" style="stroke:#111827;stroke-width:2"/></g><g fill="none"><path d="M3781.574 465.633C3480.384 481.273 2569.74 531.05 1802 599.54c-5.44.49-10.98 1-16.57 1.54" style="stroke:#111827;stroke-width:2"/><path d="m3799.55 464.7-18.287-5.058.622 11.983z" style="stroke:#111827;stroke-width:2"/></g><path fill="none" d="M1155.56 648.677c-53.54 30.58-141.59 80.873-194.98 111.373m210.61-120.3-18.606 3.717 5.952 10.42zm3577.193 5.165c-50.43 14.85-103.193 31.535-163.383 54.415-48.83 18.57-103.46 43.59-139.37 60.66m320.02-120.16-18.962-.671 3.39 11.511z" style="stroke:#111827;stroke-width:2"/><g fill="none"><path d="M6158.299 975.924c-21.33 30.52-52.499 75.096-73.859 105.656" style="stroke:#111827;stroke-width:2"/><path d="m6168.61 961.17-15.23 11.317 9.837 6.874z" style="stroke:#111827;stroke-width:2"/></g><path fill="none" d="M1254.307 648.701c53.35 30.58 141.033 80.849 194.243 111.349m-209.86-120.3 12.633 14.157 5.967-10.411zm5173.198 495.131c-29.6 30.52-74.608 76.929-104.248 107.489m116.78-120.41-16.839 8.744 8.614 8.354zM3781.647 469.825c-284.65 24.69-1090.017 94.535-1490.117 129.225m1508.05-130.78-18.451-4.422 1.037 11.955z" style="stroke:#111827;stroke-width:2"/><path fill="none" d="M3781.845 473.54c-228.82 27.14-777.285 92.18-1058.305 125.5m1076.18-127.62-18.581-3.838 1.413 11.916z" style="stroke:#111827;stroke-width:2"/><g fill="none"><path d="M3782.065 480.302c-169.53 29.95-495.985 87.608-672.405 118.768" style="stroke:#111827;stroke-width:2"/><path d="m3799.79 477.17-18.77-2.777 2.088 11.817z" style="stroke:#111827;stroke-width:2"/></g><g fill="none"><path d="M4768.42 647.024c-70.37 30.68-169.91 86.626-121.42 153.096 39.2 53.75 213.52 97.02 329.51 120.53" style="stroke:#111827;stroke-width:2"/><path d="m4784.92 639.83-18.898 1.694 4.796 11z" style="stroke:#111827;stroke-width:2"/></g><path fill="none" d="M6392.436 800.355C5951.376 864.665 5423.27 911.9 5195.95 930.9M6410.2 797.45l-18.732-3.017 1.936 11.843zM3822.287 484.51c-94.24 30.54-259.507 84.09-353.727 114.63m370.85-120.18-18.973-.159 3.7 11.416zm2634.538 655.964c29.4 30.52 74.082 76.886 103.532 107.446m-116.02-120.41 8.167 17.126 8.642-8.325zM3869.872 492.218c-27.29 30.52-68.352 76.432-95.682 107.002m107.68-120.42-16.47 9.419 8.945 7.998zm46.258 13.418c27.29 30.52 68.352 76.432 95.682 107.002M3916.13 478.8l7.525 17.417 8.946-7.998z" style="stroke:#111827;stroke-width:2"/><g fill="none"><path d="M3969.824 485.034c85.2 30.54 233.146 83.566 318.326 114.106" style="stroke:#111827;stroke-width:2"/><path d="m3952.88 478.96 14.92 11.722 4.049-11.296z" style="stroke:#111827;stroke-width:2"/></g><g fill="none"><path d="M4828.416 657.387c-4.62 30.52-10.896 72.053-15.506 102.623" style="stroke:#111827;stroke-width:2"/><path d="m4831.11 639.59-8.626 16.9 11.864 1.795z" style="stroke:#111827;stroke-width:2"/></g><path fill="none" d="M4005.487 482.876 4538.33 599.1M3987.9 479.04l16.308 9.698 2.557-11.724z" style="stroke:#111827;stroke-width:2"/><path fill="none" d="M4016.09 477.523c158 24.36 458.44 71.917 726.91 122.017 5.71 1.07 11.61 2.21 17.54 3.38M3998.3 474.78l16.875 8.673 1.83-11.86z" style="stroke:#111827;stroke-width:2"/><g fill="none"><path d="M4016.38 472.325c183.78 20.39 570.7 66.295 908.62 127.215 5.59 1.01 11.37 2.14 17.16 3.32" style="stroke:#111827;stroke-width:2"/><path d="m3998.49 470.34 17.229 7.948 1.323-11.927z" style="stroke:#111827;stroke-width:2"/></g><g fill="none"><path d="M5775.874 644.15c-78.23 29.87-221.284 84.47-303.124 115.71" style="stroke:#111827;stroke-width:2"/><path d="m5792.69 637.73-18.956.815 4.28 11.211z" style="stroke:#111827;stroke-width:2"/></g><g fill="none"><path d="M5798.023 650.38c-40.75 30.52-105.553 79.06-146.363 109.63" style="stroke:#111827;stroke-width:2"/><path d="m5812.43 639.59-18.004 5.988 7.194 9.605z" style="stroke:#111827;stroke-width:2"/></g><g fill="none"><path d="M5014.584 657.387c4.62 30.52 10.896 72.053 15.506 102.623" style="stroke:#111827;stroke-width:2"/><path d="m5011.89 639.59-3.238 18.695 11.864-1.796z" style="stroke:#111827;stroke-width:2"/></g><path fill="none" d="M6229.118 970.685c50.27 30.58 132.232 80.445 182.362 110.945m-197.74-120.3 12.26 14.48 6.236-10.251zM5838 657.59v102.42m0-120.42-6 18h12zm1311.081 328.65c73.47 30.54 199.029 82.73 272.489 113.26m-289.11-120.17 14.318 12.45 4.606-11.081z" style="stroke:#111827;stroke-width:2"/><g fill="none"><path d="M4015.995 472.914C4220.665 496.194 4686.98 549.67 5093 599.54c5.62.69 11.36 1.41 17.15 2.13" style="stroke:#111827;stroke-width:2"/><path d="m3998.11 470.88 17.207 7.996 1.356-11.923z" style="stroke:#111827;stroke-width:2"/></g><g fill="none"><path d="M6262.091 966.713c99.15 30.57 273.459 84.317 372.379 114.817" style="stroke:#111827;stroke-width:2"/><path d="m6244.89 961.41 15.433 11.037 3.536-11.467z" style="stroke:#111827;stroke-width:2"/></g><g fill="none"><path d="M7017.513 651.424c34.98 30.52 89.427 78.016 124.457 108.586" style="stroke:#111827;stroke-width:2"/><path d="m7003.95 639.59 9.619 16.355 7.889-9.042z" style="stroke:#111827;stroke-width:2"/></g><g fill="none"><path d="M4016.055 467.712C4255.385 484.662 4865.71 531.16 5387 599.54c5.57.74 11.29 1.54 17.06 2.39" style="stroke:#111827;stroke-width:2"/><path d="m3998.1 466.44 17.531 7.257.848-11.97z" style="stroke:#111827;stroke-width:2"/></g><path fill="none" d="M7450.456 648.326c56.43 30.58 149.884 81.224 206.154 111.724m-221.98-120.3 12.967 13.851 5.717-10.55zm-1557.67 10.863c39.4 30.52 101.77 78.827 141.22 109.397m-155.45-120.42 10.556 15.766 7.348-9.486z" style="stroke:#111827;stroke-width:2"/><g fill="none"><path d="M6597.563 805.217c-40.45 16.98-88.483 36.323-145.563 55.903-65.94 22.62-142.29 44.55-196.95 59.52" style="stroke:#111827;stroke-width:2"/><path d="m6614.16 798.25-18.92 1.435 4.645 11.064z" style="stroke:#111827;stroke-width:2"/></g><g fill="none"><path d="M5900.2 643.352c80.51 29.66 231.13 85.158 316.44 116.588" style="stroke:#111827;stroke-width:2"/><path d="m5883.31 637.13 14.816 11.852 4.148-11.26z" style="stroke:#111827;stroke-width:2"/></g><path fill="none" d="m7046.6 643.282 329.61 116.568m-346.58-122.57 14.97 11.658 4-11.313z" style="stroke:#111827;stroke-width:2"/><g fill="none"><path d="M5900.916 635.648c110.08 26.6 374.804 90.582 514.004 124.222" style="stroke:#111827;stroke-width:2"/><path d="m5883.42 631.42 16.087 10.06 2.819-11.664z" style="stroke:#111827;stroke-width:2"/></g><path fill="none" d="M3899 335.84v102.83m0-120.83-6 18h12zm117.114 151.07c177.49 14.05 543.206 43.12 866.886 69.63 350.3 28.7 772.77 64.44 909.77 76.06m-1794.6-147.11 17.47 7.402.947-11.963z" style="stroke:#111827;stroke-width:2"/><g fill="none"><path d="M4016.066 465.676c484.02 24.93 2572.574 132.504 2917.944 150.294" style="stroke:#111827;stroke-width:2"/><path d="m3998.09 464.75 17.668 6.918.617-11.984z" style="stroke:#111827;stroke-width:2"/></g><path fill="none" d="M5901.208 629.052c118.51 16.5 428.762 62.758 695.792 131.278 5.55 1.43 11.35 3.11 17.03 4.88m-730.65-138.64 17 8.425 1.655-11.885zm827.385 175.52c78.22 28.75 234.915 86.35 322.505 118.55m-339.4-124.76 14.825 11.841 4.14-11.263zM4016.245 464.472C4405.335 480.522 5846.26 540.64 7047 599.54c112.62 5.53 245.47 12.89 311.09 16.58M3998.26 463.73l17.737 6.737.495-11.99z" style="stroke:#111827;stroke-width:2"/></svg>