<svg xmlns="http://www.w3.org/2000/svg" width="513" height="732" viewBox="0 0 513 732"><rect width="109" height="39.789" x="7" y="686.44" fill="#EEF7FF" rx="2.5" ry="2.5" style="stroke:#3d58d3;stroke-width:.5"/><circle cx="22" cy="706.335" r="11" fill="#ADD1B2" style="stroke:#181818;stroke-width:1"/><path d="M24.969 711.975q-.578.297-1.219.438-.64.156-1.344.156-2.5 0-3.828-1.64-1.312-1.657-1.312-4.782t1.312-4.781q1.328-1.656 3.828-1.656.703 0 1.344.156.656.156 1.219.453v2.719q-.625-.578-1.219-.844-.594-.281-1.219-.281-1.343 0-2.031 1.078-.687 1.062-.687 3.156t.687 3.172q.688 1.062 2.031 1.062.625 0 1.219-.265.594-.281 1.219-.86z"/><text x="41" y="712.22" font-family="Helvetica" font-size="17" textLength="67">aws_alb</text><rect width="109" height="39.789" x="151" y="686.44" fill="#EEF7FF" rx="2.5" ry="2.5" style="stroke:#3d58d3;stroke-width:.5"/><circle cx="166" cy="706.335" r="11" fill="#ADD1B2" style="stroke:#181818;stroke-width:1"/><path d="M168.969 711.975q-.578.297-1.219.438-.64.156-1.344.156-2.5 0-3.828-1.64-1.312-1.657-1.312-4.782t1.312-4.781q1.328-1.656 3.828-1.656.703 0 1.344.156.656.156 1.219.453v2.719q-.625-.578-1.219-.844-.594-.281-1.219-.281-1.344 0-2.031 1.078-.687 1.062-.687 3.156t.687 3.172q.688 1.062 2.031 1.062.625 0 1.219-.265.594-.281 1.219-.86z"/><text x="185" y="712.22" font-family="Helvetica" font-size="17" textLength="67">aws_elb</text><rect width="212" height="39.789" x="294.5" y="686.44" fill="#EEF7FF" rx="2.5" ry="2.5" style="stroke:#3d58d3;stroke-width:.5"/><circle cx="309.5" cy="706.335" r="11" fill="#ADD1B2" style="stroke:#181818;stroke-width:1"/><path d="M312.469 711.975q-.578.297-1.219.438-.64.156-1.344.156-2.5 0-3.828-1.64-1.312-1.657-1.312-4.782t1.312-4.781q1.328-1.656 3.828-1.656.703 0 1.344.156.656.156 1.219.453v2.719q-.625-.578-1.219-.844-.594-.281-1.219-.281-1.344 0-2.031 1.078-.687 1.062-.687 3.156t.687 3.172q.688 1.062 2.031 1.062.625 0 1.219-.265.594-.281 1.219-.86z"/><text x="328.5" y="712.22" font-family="Helvetica" font-size="17" textLength="170">gcp_forwarding_rule</text><rect width="209" height="126.68" x="101" y="438.76" fill="#EEF7FF" rx="2.5" ry="2.5" style="stroke:#3d58d3;stroke-width:.5"/><circle cx="139.4" cy="458.654" r="11" fill="#ADD1B2" style="stroke:#181818;stroke-width:1"/><path d="M142.369 464.295q-.578.297-1.219.438-.64.156-1.344.156-2.5 0-3.828-1.64-1.312-1.657-1.312-4.782t1.312-4.781q1.328-1.656 3.828-1.656.703 0 1.344.156.656.156 1.219.453v2.719q-.625-.579-1.219-.844-.594-.281-1.219-.281-1.344 0-2.031 1.078-.687 1.062-.687 3.156t.687 3.172q.688 1.062 2.031 1.062.625 0 1.219-.265.594-.281 1.219-.86z"/><text x="163.6" y="464.54" font-family="Helvetica" font-size="17" textLength="115">load_balancer</text><path d="M102 478.549h207" style="stroke:#3d58d3;stroke-width:.5"/><text x="112" y="500.544" font-family="sans-serif" font-size="14" font-weight="bold" textLength="76">backends</text><text x="188" y="500.544" font-family="sans-serif" font-size="14" textLength="58">: string[]</text><text x="112" y="526.841" font-family="sans-serif" font-size="14" font-weight="bold" textLength="56">lb_type</text><text x="168" y="526.841" font-family="sans-serif" font-size="14" textLength="48">: string</text><text x="112" y="553.138" font-family="sans-serif" font-size="14" font-weight="bold" textLength="139">public_ip_address</text><text x="251" y="553.138" font-family="sans-serif" font-size="14" textLength="48">: string</text><rect width="227" height="310.758" x="92" y="7" fill="#EEF7FF" rx="2.5" ry="2.5" style="stroke:#3d58d3;stroke-width:.5"/><circle cx="160.75" cy="26.895" r="11" fill="#ADD1B2" style="stroke:#181818;stroke-width:1"/><path d="M163.719 32.535q-.578.297-1.219.438-.64.156-1.344.156-2.5 0-3.828-1.64-1.312-1.657-1.312-4.782t1.312-4.781q1.328-1.656 3.828-1.656.703 0 1.344.156.656.156 1.219.453v2.719q-.625-.578-1.219-.844-.594-.281-1.219-.281-1.344 0-2.031 1.078-.687 1.062-.687 3.156t.687 3.172q.688 1.062 2.031 1.062.625 0 1.219-.265.594-.281 1.219-.86z"/><text x="186.25" y="32.78" font-family="Helvetica" font-size="17" textLength="71">resource</text><path d="M93 46.789h225" style="stroke:#3d58d3;stroke-width:.5"/><text x="103" y="68.784" font-family="sans-serif" font-size="14" font-weight="bold" textLength="29">age</text><text x="132" y="68.784" font-family="sans-serif" font-size="14" textLength="66">: duration</text><text x="103" y="95.081" font-family="sans-serif" font-size="14" font-weight="bold" textLength="43">atime</text><text x="146" y="95.081" font-family="sans-serif" font-size="14" textLength="70">: datetime</text><text x="103" y="121.378" font-family="sans-serif" font-size="14" font-weight="bold" textLength="43">ctime</text><text x="146" y="121.378" font-family="sans-serif" font-size="14" textLength="70">: datetime</text><text x="103" y="147.675" font-family="sans-serif" font-size="14" font-weight="bold" textLength="14">id</text><text x="117" y="147.675" font-family="sans-serif" font-size="14" textLength="48">: string</text><text x="103" y="173.972" font-family="sans-serif" font-size="14" font-weight="bold" textLength="33">kind</text><text x="136" y="173.972" font-family="sans-serif" font-size="14" textLength="48">: string</text><text x="103" y="200.269" font-family="sans-serif" font-size="14" font-weight="bold" textLength="90">last_access</text><text x="193" y="200.269" font-family="sans-serif" font-size="14" textLength="66">: duration</text><text x="103" y="226.565" font-family="sans-serif" font-size="14" font-weight="bold" textLength="90">last_update</text><text x="193" y="226.565" font-family="sans-serif" font-size="14" textLength="66">: duration</text><text x="103" y="252.862" font-family="sans-serif" font-size="14" font-weight="bold" textLength="48">mtime</text><text x="151" y="252.862" font-family="sans-serif" font-size="14" textLength="70">: datetime</text><text x="103" y="279.159" font-family="sans-serif" font-size="14" font-weight="bold" textLength="43">name</text><text x="146" y="279.159" font-family="sans-serif" font-size="14" textLength="48">: string</text><text x="103" y="305.456" font-family="sans-serif" font-size="14" font-weight="bold" textLength="34">tags</text><text x="137" y="305.456" font-family="sans-serif" font-size="14" textLength="171">: dictionary[string, string]</text><g fill="none"><path d="M150.48 580.363c-29.57 41.53-55.95 78.587-75.43 105.947" style="stroke:#111827;stroke-width:2"/><path d="m160.92 565.7-15.328 11.183 9.775 6.96z" style="stroke:#111827;stroke-width:2"/></g><path fill="none" d="M205.5 583.7v102.61m0-120.61-6 18h12zm72.855 12.957c40.05 41.53 77.425 80.293 103.795 107.653M265.86 565.7l8.176 17.122 8.638-8.33zM205.5 335.91v102.41m0-120.41-6 18h12z" style="stroke:#111827;stroke-width:2"/></svg>