<svg xmlns="http://www.w3.org/2000/svg" width="484" height="1267" viewBox="0 0 484 1267"><rect width="238" height="39.789" x="7" y="1221.4" fill="#EEF7FF" rx="2.5" ry="2.5" style="stroke:#3d58d3;stroke-width:.5"/><circle cx="22" cy="1241.294" r="11" fill="#ADD1B2" style="stroke:#181818;stroke-width:1"/><path d="M24.969 1246.935q-.578.297-1.219.438-.64.156-1.344.156-2.5 0-3.828-1.64-1.312-1.657-1.312-4.782t1.312-4.781q1.328-1.657 3.828-1.657.703 0 1.344.157.656.156 1.219.453v2.719q-.625-.579-1.219-.844-.594-.281-1.219-.281-1.343 0-2.031 1.078-.687 1.062-.687 3.156t.687 3.172q.688 1.062 2.031 1.062.625 0 1.219-.265.594-.282 1.219-.86z"/><text x="41" y="1247.18" font-family="Helvetica" font-size="17" textLength="196">aws_ec2_instance_type</text><rect width="197" height="39.789" x="280.5" y="1221.4" fill="#EEF7FF" rx="2.5" ry="2.5" style="stroke:#3d58d3;stroke-width:.5"/><circle cx="295.5" cy="1241.294" r="11" fill="#ADD1B2" style="stroke:#181818;stroke-width:1"/><path d="M298.469 1246.935q-.578.297-1.219.438-.64.156-1.344.156-2.5 0-3.828-1.64-1.312-1.657-1.312-4.782t1.312-4.781q1.328-1.657 3.828-1.657.703 0 1.344.157.656.156 1.219.453v2.719q-.625-.579-1.219-.844-.594-.281-1.219-.281-1.344 0-2.031 1.078-.687 1.062-.687 3.156t.687 3.172q.688 1.062 2.031 1.062.625 0 1.219-.265.594-.282 1.219-.86z"/><text x="314.5" y="1247.18" font-family="Helvetica" font-size="17" textLength="155">gcp_machine_type</text><rect width="217" height="179.273" x="143.5" y="921.13" fill="#EEF7FF" rx="2.5" ry="2.5" style="stroke:#3d58d3;stroke-width:.5"/><circle cx="185.05" cy="941.024" r="11" fill="#ADD1B2" style="stroke:#181818;stroke-width:1"/><path d="M188.019 946.665q-.578.297-1.219.438-.64.156-1.344.156-2.5 0-3.828-1.64-1.312-1.657-1.312-4.782t1.312-4.781q1.328-1.657 3.828-1.657.703 0 1.344.157.656.156 1.219.453v2.719q-.625-.578-1.219-.844-.594-.281-1.219-.281-1.343 0-2.031 1.078-.687 1.062-.687 3.156t.687 3.172q.688 1.062 2.031 1.062.625 0 1.219-.265.594-.282 1.219-.86z"/><text x="209.95" y="946.91" font-family="Helvetica" font-size="17" textLength="116">instance_type</text><path d="M144.5 960.919h215" style="stroke:#3d58d3;stroke-width:.5"/><text x="154.5" y="982.914" font-family="sans-serif" font-size="14" font-weight="bold" textLength="119">instance_cores</text><text x="273.5" y="982.914" font-family="sans-serif" font-size="14" textLength="57">: double</text><text x="154.5" y="1009.211" font-family="sans-serif" font-size="14" font-weight="bold" textLength="138">instance_memory</text><text x="292.5" y="1009.211" font-family="sans-serif" font-size="14" textLength="57">: double</text><text x="154.5" y="1035.508" font-family="sans-serif" font-size="14" font-weight="bold" textLength="109">instance_type</text><text x="263.5" y="1035.508" font-family="sans-serif" font-size="14" textLength="48">: string</text><text x="154.5" y="1061.805" font-family="sans-serif" font-size="14" font-weight="bold" textLength="124">ondemand_cost</text><text x="278.5" y="1061.805" font-family="sans-serif" font-size="14" textLength="57">: double</text><text x="154.5" y="1088.102" font-family="sans-serif" font-size="14" font-weight="bold" textLength="100">reservations</text><text x="254.5" y="1088.102" font-family="sans-serif" font-size="14" textLength="44">: int64</text><rect width="198" height="39.789" x="153" y="438.76" fill="#EEF7FF" rx="2.5" ry="2.5" style="stroke:#3d58d3;stroke-width:.5"/><circle cx="168" cy="458.654" r="11" fill="#ADD1B2" style="stroke:#181818;stroke-width:1"/><path d="M170.969 464.295q-.578.297-1.219.438-.64.156-1.344.156-2.5 0-3.828-1.64-1.312-1.657-1.312-4.782t1.312-4.781q1.328-1.656 3.828-1.656.703 0 1.344.156.656.156 1.219.453v2.719q-.625-.579-1.219-.844-.594-.281-1.219-.281-1.344 0-2.031 1.078-.687 1.062-.687 3.156t.687 3.172q.688 1.062 2.031 1.062.625 0 1.219-.265.594-.281 1.219-.86z"/><text x="187" y="464.54" font-family="Helvetica" font-size="17" textLength="156">phantom_resource</text><rect width="90" height="39.789" x="207" y="599.55" fill="#EEF7FF" rx="2.5" ry="2.5" style="stroke:#3d58d3;stroke-width:.5"/><circle cx="222" cy="619.444" r="11" fill="#ADD1B2" style="stroke:#181818;stroke-width:1"/><path d="M224.969 625.085q-.578.297-1.219.438-.64.156-1.344.156-2.5 0-3.828-1.64-1.312-1.657-1.312-4.782t1.312-4.781q1.328-1.657 3.828-1.657.703 0 1.344.157.656.156 1.219.453v2.719q-.625-.579-1.219-.844-.594-.281-1.219-.281-1.344 0-2.031 1.078-.687 1.062-.687 3.156t.687 3.172q.688 1.062 2.031 1.062.625 0 1.219-.265.594-.282 1.219-.86z"/><text x="241" y="625.33" font-family="Helvetica" font-size="17" textLength="48">quota</text><rect width="227" height="310.758" x="138.5" y="7" fill="#EEF7FF" rx="2.5" ry="2.5" style="stroke:#3d58d3;stroke-width:.5"/><circle cx="207.25" cy="26.895" r="11" fill="#ADD1B2" style="stroke:#181818;stroke-width:1"/><path d="M210.219 32.535q-.578.297-1.219.438-.64.156-1.344.156-2.5 0-3.828-1.64-1.312-1.657-1.312-4.782t1.312-4.781q1.328-1.656 3.828-1.656.703 0 1.344.156.656.156 1.219.453v2.719q-.625-.578-1.219-.844-.594-.281-1.219-.281-1.344 0-2.031 1.078-.687 1.062-.687 3.156t.687 3.172q.688 1.062 2.031 1.062.625 0 1.219-.265.594-.281 1.219-.86z"/><text x="232.75" y="32.78" font-family="Helvetica" font-size="17" textLength="71">resource</text><path d="M139.5 46.789h225" style="stroke:#3d58d3;stroke-width:.5"/><text x="149.5" y="68.784" font-family="sans-serif" font-size="14" font-weight="bold" textLength="29">age</text><text x="178.5" y="68.784" font-family="sans-serif" font-size="14" textLength="66">: duration</text><text x="149.5" y="95.081" font-family="sans-serif" font-size="14" font-weight="bold" textLength="43">atime</text><text x="192.5" y="95.081" font-family="sans-serif" font-size="14" textLength="70">: datetime</text><text x="149.5" y="121.378" font-family="sans-serif" font-size="14" font-weight="bold" textLength="43">ctime</text><text x="192.5" y="121.378" font-family="sans-serif" font-size="14" textLength="70">: datetime</text><text x="149.5" y="147.675" font-family="sans-serif" font-size="14" font-weight="bold" textLength="14">id</text><text x="163.5" y="147.675" font-family="sans-serif" font-size="14" textLength="48">: string</text><text x="149.5" y="173.972" font-family="sans-serif" font-size="14" font-weight="bold" textLength="33">kind</text><text x="182.5" y="173.972" font-family="sans-serif" font-size="14" textLength="48">: string</text><text x="149.5" y="200.269" font-family="sans-serif" font-size="14" font-weight="bold" textLength="90">last_access</text><text x="239.5" y="200.269" font-family="sans-serif" font-size="14" textLength="66">: duration</text><text x="149.5" y="226.565" font-family="sans-serif" font-size="14" font-weight="bold" textLength="90">last_update</text><text x="239.5" y="226.565" font-family="sans-serif" font-size="14" textLength="66">: duration</text><text x="149.5" y="252.862" font-family="sans-serif" font-size="14" font-weight="bold" textLength="48">mtime</text><text x="197.5" y="252.862" font-family="sans-serif" font-size="14" textLength="70">: datetime</text><text x="149.5" y="279.159" font-family="sans-serif" font-size="14" font-weight="bold" textLength="43">name</text><text x="192.5" y="279.159" font-family="sans-serif" font-size="14" textLength="48">: string</text><text x="149.5" y="305.456" font-family="sans-serif" font-size="14" font-weight="bold" textLength="34">tags</text><text x="183.5" y="305.456" font-family="sans-serif" font-size="14" textLength="171">: dictionary[string, string]</text><rect width="79" height="39.789" x="212.5" y="760.34" fill="#EEF7FF" rx="2.5" ry="2.5" style="stroke:#3d58d3;stroke-width:.5"/><circle cx="227.5" cy="780.235" r="11" fill="#ADD1B2" style="stroke:#181818;stroke-width:1"/><path d="M230.469 785.875q-.578.297-1.219.438-.64.156-1.344.156-2.5 0-3.828-1.64-1.312-1.657-1.312-4.782t1.312-4.781q1.328-1.656 3.828-1.656.703 0 1.344.156.656.156 1.219.453v2.719q-.625-.578-1.219-.844-.594-.281-1.219-.281-1.344 0-2.031 1.078-.687 1.062-.687 3.156t.687 3.172q.688 1.062 2.031 1.062.625 0 1.219-.265.594-.281 1.219-.86z"/><text x="246.5" y="786.12" font-family="Helvetica" font-size="17" textLength="37">type</text><g fill="none"><path d="M194.23 1116.533c-24.46 44.37-43.18 78.317-57.76 104.777" style="stroke:#111827;stroke-width:2"/><path d="m202.92 1100.77-13.944 12.867 10.508 5.793z" style="stroke:#111827;stroke-width:2"/></g><path fill="none" d="M310.212 1116.505c24.65 44.37 43.538 78.345 58.238 104.805m-66.98-120.54 3.497 18.649 10.49-5.828zM252 818.32v102.5m0-120.5-6 18h12zm0-464.48v102.83m0-120.83-6 18h12zm0 178.97v102.41m0-120.41-6 18h12zm0 178.79v102.41m0-120.41-6 18h12z" style="stroke:#111827;stroke-width:2"/></svg>