<svg xmlns="http://www.w3.org/2000/svg" width="760" height="732" viewBox="0 0 760 732"><rect width="109" height="39.789" x="7" y="686.44" fill="#EEF7FF" rx="2.5" ry="2.5" style="stroke:#3d58d3;stroke-width:.5"/><circle cx="22" cy="706.335" r="11" fill="#ADD1B2" style="stroke:#181818;stroke-width:1"/><path d="M24.969 711.975q-.578.297-1.219.438-.64.156-1.344.156-2.5 0-3.828-1.64-1.312-1.657-1.312-4.782t1.312-4.781q1.328-1.656 3.828-1.656.703 0 1.344.156.656.156 1.219.453v2.719q-.625-.578-1.219-.844-.594-.281-1.219-.281-1.343 0-2.031 1.078-.687 1.062-.687 3.156t.687 3.172q.688 1.062 2.031 1.062.625 0 1.219-.265.594-.281 1.219-.86z"/><text x="41" y="712.22" font-family="Helvetica" font-size="17" textLength="67">aws_alb</text><rect width="109" height="39.789" x="151" y="686.44" fill="#EEF7FF" rx="2.5" ry="2.5" style="stroke:#3d58d3;stroke-width:.5"/><circle cx="166" cy="706.335" r="11" fill="#ADD1B2" style="stroke:#181818;stroke-width:1"/><path d="M168.969 711.975q-.578.297-1.219.438-.64.156-1.344.156-2.5 0-3.828-1.64-1.312-1.657-1.312-4.782t1.312-4.781q1.328-1.656 3.828-1.656.703 0 1.344.156.656.156 1.219.453v2.719q-.625-.578-1.219-.844-.594-.281-1.219-.281-1.344 0-2.031 1.078-.687 1.062-.687 3.156t.687 3.172q.688 1.062 2.031 1.062.625 0 1.219-.265.594-.281 1.219-.86z"/><text x="185" y="712.22" font-family="Helvetica" font-size="17" textLength="67">aws_elb</text><rect width="212" height="39.789" x="294.5" y="686.44" fill="#EEF7FF" rx="2.5" ry="2.5" style="stroke:#3d58d3;stroke-width:.5"/><circle cx="309.5" cy="706.335" r="11" fill="#ADD1B2" style="stroke:#181818;stroke-width:1"/><path d="M312.469 711.975q-.578.297-1.219.438-.64.156-1.344.156-2.5 0-3.828-1.64-1.312-1.657-1.312-4.782t1.312-4.781q1.328-1.656 3.828-1.656.703 0 1.344.156.656.156 1.219.453v2.719q-.625-.578-1.219-.844-.594-.281-1.219-.281-1.344 0-2.031 1.078-.687 1.062-.687 3.156t.687 3.172q.688 1.062 2.031 1.062.625 0 1.219-.265.594-.281 1.219-.86z"/><text x="328.5" y="712.22" font-family="Helvetica" font-size="17" textLength="170">azure_load_balancer</text><rect width="212" height="39.789" x="541.5" y="686.44" fill="#EEF7FF" rx="2.5" ry="2.5" style="stroke:#3d58d3;stroke-width:.5"/><circle cx="556.5" cy="706.335" r="11" fill="#ADD1B2" style="stroke:#181818;stroke-width:1"/><path d="M559.469 711.975q-.578.297-1.219.438-.64.156-1.344.156-2.5 0-3.828-1.64-1.312-1.657-1.312-4.782t1.312-4.781q1.328-1.656 3.828-1.656.703 0 1.344.156.656.156 1.219.453v2.719q-.625-.578-1.219-.844-.594-.281-1.219-.281-1.343 0-2.031 1.078-.687 1.062-.687 3.156t.687 3.172q.688 1.062 2.031 1.062.625 0 1.219-.265.594-.281 1.219-.86z"/><text x="575.5" y="712.22" font-family="Helvetica" font-size="17" textLength="170">gcp_forwarding_rule</text><rect width="209" height="126.68" x="198" y="438.76" fill="#EEF7FF" rx="2.5" ry="2.5" style="stroke:#3d58d3;stroke-width:.5"/><circle cx="236.4" cy="458.654" r="11" fill="#ADD1B2" style="stroke:#181818;stroke-width:1"/><path d="M239.369 464.295q-.578.297-1.219.438-.64.156-1.344.156-2.5 0-3.828-1.64-1.312-1.657-1.312-4.782t1.312-4.781q1.328-1.656 3.828-1.656.703 0 1.344.156.656.156 1.219.453v2.719q-.625-.579-1.219-.844-.594-.281-1.219-.281-1.344 0-2.031 1.078-.687 1.062-.687 3.156t.687 3.172q.688 1.062 2.031 1.062.625 0 1.219-.265.594-.281 1.219-.86z"/><text x="260.6" y="464.54" font-family="Helvetica" font-size="17" textLength="115">load_balancer</text><path d="M199 478.549h207" style="stroke:#3d58d3;stroke-width:.5"/><text x="209" y="500.544" font-family="sans-serif" font-size="14" font-weight="bold" textLength="76">backends</text><text x="285" y="500.544" font-family="sans-serif" font-size="14" textLength="58">: string[]</text><text x="209" y="526.841" font-family="sans-serif" font-size="14" font-weight="bold" textLength="56">lb_type</text><text x="265" y="526.841" font-family="sans-serif" font-size="14" textLength="48">: string</text><text x="209" y="553.138" font-family="sans-serif" font-size="14" font-weight="bold" textLength="139">public_ip_address</text><text x="348" y="553.138" font-family="sans-serif" font-size="14" textLength="48">: string</text><rect width="227" height="310.758" x="189" y="7" fill="#EEF7FF" rx="2.5" ry="2.5" style="stroke:#3d58d3;stroke-width:.5"/><circle cx="257.75" cy="26.895" r="11" fill="#ADD1B2" style="stroke:#181818;stroke-width:1"/><path d="M260.719 32.535q-.578.297-1.219.438-.64.156-1.344.156-2.5 0-3.828-1.64-1.312-1.657-1.312-4.782t1.312-4.781q1.328-1.656 3.828-1.656.703 0 1.344.156.656.156 1.219.453v2.719q-.625-.578-1.219-.844-.594-.281-1.219-.281-1.344 0-2.031 1.078-.687 1.062-.687 3.156t.687 3.172q.688 1.062 2.031 1.062.625 0 1.219-.265.594-.281 1.219-.86z"/><text x="283.25" y="32.78" font-family="Helvetica" font-size="17" textLength="71">resource</text><path d="M190 46.789h225" style="stroke:#3d58d3;stroke-width:.5"/><text x="200" y="68.784" font-family="sans-serif" font-size="14" font-weight="bold" textLength="29">age</text><text x="229" y="68.784" font-family="sans-serif" font-size="14" textLength="66">: duration</text><text x="200" y="95.081" font-family="sans-serif" font-size="14" font-weight="bold" textLength="43">atime</text><text x="243" y="95.081" font-family="sans-serif" font-size="14" textLength="70">: datetime</text><text x="200" y="121.378" font-family="sans-serif" font-size="14" font-weight="bold" textLength="43">ctime</text><text x="243" y="121.378" font-family="sans-serif" font-size="14" textLength="70">: datetime</text><text x="200" y="147.675" font-family="sans-serif" font-size="14" font-weight="bold" textLength="14">id</text><text x="214" y="147.675" font-family="sans-serif" font-size="14" textLength="48">: string</text><text x="200" y="173.972" font-family="sans-serif" font-size="14" font-weight="bold" textLength="33">kind</text><text x="233" y="173.972" font-family="sans-serif" font-size="14" textLength="48">: string</text><text x="200" y="200.269" font-family="sans-serif" font-size="14" font-weight="bold" textLength="90">last_access</text><text x="290" y="200.269" font-family="sans-serif" font-size="14" textLength="66">: duration</text><text x="200" y="226.565" font-family="sans-serif" font-size="14" font-weight="bold" textLength="90">last_update</text><text x="290" y="226.565" font-family="sans-serif" font-size="14" textLength="66">: duration</text><text x="200" y="252.862" font-family="sans-serif" font-size="14" font-weight="bold" textLength="48">mtime</text><text x="248" y="252.862" font-family="sans-serif" font-size="14" textLength="70">: datetime</text><text x="200" y="279.159" font-family="sans-serif" font-size="14" font-weight="bold" textLength="43">name</text><text x="243" y="279.159" font-family="sans-serif" font-size="14" textLength="48">: string</text><text x="200" y="305.456" font-family="sans-serif" font-size="14" font-weight="bold" textLength="34">tags</text><text x="234" y="305.456" font-family="sans-serif" font-size="14" textLength="171">: dictionary[string, string]</text><g fill="none"><path d="M214.112 577.27c-49.36 41.42-96.992 81.39-129.662 108.81" style="stroke:#111827;stroke-width:2"/><path d="m227.9 565.7-17.645 6.974 7.713 9.193z" style="stroke:#111827;stroke-width:2"/></g><g fill="none"><path d="M264.685 581.93c-19.92 41.53-36.935 77.02-50.055 104.38" style="stroke:#111827;stroke-width:2"/><path d="m272.47 565.7-13.195 13.635 10.82 5.19z" style="stroke:#111827;stroke-width:2"/></g><path fill="none" d="M340.688 581.9c20.12 41.53 37.332 77.05 50.592 104.41M332.84 565.7l2.448 18.815 10.8-5.232z" style="stroke:#111827;stroke-width:2"/><g fill="none"><path d="M422.949 573.702c70.97 41.6 144.541 84.728 191.721 112.388" style="stroke:#111827;stroke-width:2"/><path d="m407.42 564.6 12.495 14.279 6.068-10.353z" style="stroke:#111827;stroke-width:2"/></g><path fill="none" d="M302.5 335.91v102.41m0-120.41-6 18h12z" style="stroke:#111827;stroke-width:2"/></svg>