<svg xmlns="http://www.w3.org/2000/svg" width="815" height="1380" viewBox="0 0 815 1380"><rect width="361" height="100.383" x="384" y="1272.78" fill="#EEF7FF" rx="2.5" ry="2.5" style="stroke:#3d58d3;stroke-width:.5"/><circle cx="399" cy="1292.675" r="11" fill="#ADD1B2" style="stroke:#181818;stroke-width:1"/><path d="M401.969 1298.315q-.578.297-1.219.438-.64.156-1.344.156-2.5 0-3.828-1.64-1.312-1.657-1.312-4.782t1.312-4.781q1.328-1.656 3.828-1.656.703 0 1.344.156.656.156 1.219.453v2.719q-.625-.578-1.219-.844-.594-.281-1.219-.281-1.344 0-2.031 1.078-.687 1.062-.687 3.156t.687 3.172q.688 1.062 2.031 1.062.625 0 1.219-.265.594-.281 1.219-.86z"/><text x="418" y="1298.56" font-family="Helvetica" font-size="17" textLength="319">aws_athena_encryption_configuration</text><path d="M385 1312.569h359" style="stroke:#3d58d3;stroke-width:.5"/><text x="395" y="1334.564" font-family="sans-serif" font-size="14" font-weight="bold" textLength="142">encryption_option</text><text x="537" y="1334.564" font-family="sans-serif" font-size="14" textLength="48">: string</text><text x="395" y="1360.861" font-family="sans-serif" font-size="14" font-weight="bold" textLength="67">kms_key</text><text x="462" y="1360.861" font-family="sans-serif" font-size="14" textLength="48">: string</text><rect width="279" height="100.383" x="7" y="1099.25" fill="#EEF7FF" rx="2.5" ry="2.5" style="stroke:#3d58d3;stroke-width:.5"/><circle cx="22" cy="1119.145" r="11" fill="#ADD1B2" style="stroke:#181818;stroke-width:1"/><path d="M24.969 1124.785q-.578.297-1.219.438-.64.156-1.344.156-2.5 0-3.828-1.64-1.312-1.657-1.312-4.782t1.312-4.781q1.328-1.656 3.828-1.656.703 0 1.344.156.656.156 1.219.453v2.719q-.625-.578-1.219-.844-.594-.281-1.219-.281-1.343 0-2.031 1.078-.687 1.062-.687 3.156t.687 3.172q.688 1.062 2.031 1.062.625 0 1.219-.265.594-.281 1.219-.86z"/><text x="41" y="1125.03" font-family="Helvetica" font-size="17" textLength="237">aws_athena_engine_version</text><path d="M8 1139.039h277" style="stroke:#3d58d3;stroke-width:.5"/><text x="18" y="1161.034" font-family="sans-serif" font-size="14" font-weight="bold" textLength="197">effective_engine_version</text><text x="215" y="1161.034" font-family="sans-serif" font-size="14" textLength="48">: string</text><text x="18" y="1187.331" font-family="sans-serif" font-size="14" font-weight="bold" textLength="195">selected_engine_version</text><text x="213" y="1187.331" font-family="sans-serif" font-size="14" textLength="48">: string</text><rect width="487" height="126.68" x="321" y="1086.1" fill="#EEF7FF" rx="2.5" ry="2.5" style="stroke:#3d58d3;stroke-width:.5"/><circle cx="416.25" cy="1105.995" r="11" fill="#ADD1B2" style="stroke:#181818;stroke-width:1"/><path d="M419.219 1111.635q-.578.297-1.219.438-.64.156-1.344.156-2.5 0-3.828-1.64-1.312-1.657-1.312-4.782t1.312-4.781q1.328-1.657 3.828-1.657.703 0 1.344.157.656.156 1.219.453v2.719q-.625-.579-1.219-.844-.594-.281-1.219-.281-1.344 0-2.031 1.078-.687 1.062-.687 3.156t.687 3.172q.688 1.062 2.031 1.062.625 0 1.219-.265.594-.282 1.219-.86z"/><text x="441.75" y="1111.88" font-family="Helvetica" font-size="17" textLength="278">aws_athena_result_configuration</text><path d="M322 1125.889h485" style="stroke:#3d58d3;stroke-width:.5"/><text x="332" y="1147.884" font-family="sans-serif" font-size="14" font-weight="bold" textLength="197">encryption_configuration</text><text x="529" y="1147.884" font-family="sans-serif" font-size="14" textLength="268">: aws_athena_encryption_configuration</text><text x="332" y="1174.181" font-family="sans-serif" font-size="14" font-weight="bold" textLength="193">expected_bucket_owner</text><text x="525" y="1174.181" font-family="sans-serif" font-size="14" textLength="48">: string</text><text x="332" y="1200.478" font-family="sans-serif" font-size="14" font-weight="bold" textLength="121">output_location</text><text x="453" y="1200.478" font-family="sans-serif" font-size="14" textLength="48">: string</text><rect width="497" height="126.68" x="107" y="633.85" fill="#EEF7FF" rx="2.5" ry="2.5" style="stroke:#3d58d3;stroke-width:.5"/><circle cx="241.75" cy="653.745" r="11" fill="#ADD1B2" style="stroke:#181818;stroke-width:1"/><path d="M244.719 659.385q-.578.297-1.219.438-.64.156-1.344.156-2.5 0-3.828-1.64-1.312-1.657-1.312-4.782t1.312-4.781q1.328-1.656 3.828-1.656.703 0 1.344.156.656.156 1.219.453v2.719q-.625-.578-1.219-.844-.594-.281-1.219-.281-1.344 0-2.031 1.078-.687 1.062-.687 3.156t.687 3.172q.688 1.062 2.031 1.062.625 0 1.219-.265.594-.281 1.219-.86z"/><text x="267.25" y="659.63" font-family="Helvetica" font-size="17" textLength="209">aws_athena_work_group</text><path d="M108 673.639h495" style="stroke:#3d58d3;stroke-width:.5"/><text x="118" y="695.634" font-family="sans-serif" font-size="14" font-weight="bold" textLength="89">description</text><text x="207" y="695.634" font-family="sans-serif" font-size="14" textLength="48">: string</text><text x="118" y="721.931" font-family="sans-serif" font-size="14" font-weight="bold" textLength="199">workgroup_configuration</text><text x="317" y="721.931" font-family="sans-serif" font-size="14" textLength="276">: aws_athena_work_group_configuration</text><text x="118" y="748.228" font-family="sans-serif" font-size="14" font-weight="bold" textLength="134">workgroup_state</text><text x="252" y="748.228" font-family="sans-serif" font-size="14" textLength="48">: string</text><rect width="414" height="205.57" x="148.5" y="820.53" fill="#EEF7FF" rx="2.5" ry="2.5" style="stroke:#3d58d3;stroke-width:.5"/><circle cx="182.85" cy="840.424" r="11" fill="#ADD1B2" style="stroke:#181818;stroke-width:1"/><path d="M185.819 846.065q-.578.297-1.219.438-.64.156-1.344.156-2.5 0-3.828-1.64-1.312-1.657-1.312-4.782t1.312-4.781q1.328-1.657 3.828-1.657.703 0 1.344.157.656.156 1.219.453v2.719q-.625-.579-1.219-.844-.594-.281-1.219-.281-1.344 0-2.031 1.078-.687 1.062-.687 3.156t.687 3.172q.688 1.062 2.031 1.062.625 0 1.219-.265.594-.282 1.219-.86z"/><text x="206.15" y="846.31" font-family="Helvetica" font-size="17" textLength="329">aws_athena_work_group_configuration</text><path d="M149.5 860.319h412" style="stroke:#3d58d3;stroke-width:.5"/><text x="159.5" y="882.314" font-family="sans-serif" font-size="14" font-weight="bold" textLength="259">bytes_scanned_cutoff_per_query</text><text x="418.5" y="882.314" font-family="sans-serif" font-size="14" textLength="44">: int64</text><text x="159.5" y="908.611" font-family="sans-serif" font-size="14" font-weight="bold" textLength="275">enforce_work_group_configuration</text><text x="434.5" y="908.611" font-family="sans-serif" font-size="14" textLength="65">: boolean</text><text x="159.5" y="934.908" font-family="sans-serif" font-size="14" font-weight="bold" textLength="120">engine_version</text><text x="279.5" y="934.908" font-family="sans-serif" font-size="14" textLength="203">: aws_athena_engine_version</text><text x="159.5" y="961.205" font-family="sans-serif" font-size="14" font-weight="bold" textLength="298">publish_cloud_watch_metrics_enabled</text><text x="457.5" y="961.205" font-family="sans-serif" font-size="14" textLength="65">: boolean</text><text x="159.5" y="987.502" font-family="sans-serif" font-size="14" font-weight="bold" textLength="193">requester_pays_enabled</text><text x="352.5" y="987.502" font-family="sans-serif" font-size="14" textLength="65">: boolean</text><text x="159.5" y="1013.799" font-family="sans-serif" font-size="14" font-weight="bold" textLength="158">result_configuration</text><text x="317.5" y="1013.799" font-family="sans-serif" font-size="14" textLength="234">: aws_athena_result_configuration</text><rect width="155" height="74.086" x="278" y="438.76" fill="#EEF7FF" rx="2.5" ry="2.5" style="stroke:#3d58d3;stroke-width:.5"/><circle cx="293" cy="458.654" r="11" fill="#ADD1B2" style="stroke:#181818;stroke-width:1"/><path d="M295.969 464.295q-.578.297-1.219.438-.64.156-1.344.156-2.5 0-3.828-1.64-1.312-1.657-1.312-4.782t1.312-4.781q1.328-1.656 3.828-1.656.703 0 1.344.156.656.156 1.219.453v2.719q-.625-.579-1.219-.844-.594-.281-1.219-.281-1.344 0-2.031 1.078-.687 1.062-.687 3.156t.687 3.172q.688 1.062 2.031 1.062.625 0 1.219-.265.594-.281 1.219-.86z"/><text x="312" y="464.54" font-family="Helvetica" font-size="17" textLength="113">aws_resource</text><path d="M279 478.549h153" style="stroke:#3d58d3;stroke-width:.5"/><text x="289" y="500.544" font-family="sans-serif" font-size="14" font-weight="bold" textLength="26">arn</text><text x="315" y="500.544" font-family="sans-serif" font-size="14" textLength="48">: string</text><rect width="227" height="310.758" x="242" y="7" fill="#EEF7FF" rx="2.5" ry="2.5" style="stroke:#3d58d3;stroke-width:.5"/><circle cx="310.75" cy="26.895" r="11" fill="#ADD1B2" style="stroke:#181818;stroke-width:1"/><path d="M313.719 32.535q-.578.297-1.219.438-.64.156-1.344.156-2.5 0-3.828-1.64-1.312-1.657-1.312-4.782t1.312-4.781q1.328-1.656 3.828-1.656.703 0 1.344.156.656.156 1.219.453v2.719q-.625-.578-1.219-.844-.594-.281-1.219-.281-1.344 0-2.031 1.078-.687 1.062-.687 3.156t.687 3.172q.688 1.062 2.031 1.062.625 0 1.219-.265.594-.281 1.219-.86z"/><text x="336.25" y="32.78" font-family="Helvetica" font-size="17" textLength="71">resource</text><path d="M243 46.789h225" style="stroke:#3d58d3;stroke-width:.5"/><text x="253" y="68.784" font-family="sans-serif" font-size="14" font-weight="bold" textLength="29">age</text><text x="282" y="68.784" font-family="sans-serif" font-size="14" textLength="66">: duration</text><text x="253" y="95.081" font-family="sans-serif" font-size="14" font-weight="bold" textLength="43">atime</text><text x="296" y="95.081" font-family="sans-serif" font-size="14" textLength="70">: datetime</text><text x="253" y="121.378" font-family="sans-serif" font-size="14" font-weight="bold" textLength="43">ctime</text><text x="296" y="121.378" font-family="sans-serif" font-size="14" textLength="70">: datetime</text><text x="253" y="147.675" font-family="sans-serif" font-size="14" font-weight="bold" textLength="14">id</text><text x="267" y="147.675" font-family="sans-serif" font-size="14" textLength="48">: string</text><text x="253" y="173.972" font-family="sans-serif" font-size="14" font-weight="bold" textLength="33">kind</text><text x="286" y="173.972" font-family="sans-serif" font-size="14" textLength="48">: string</text><text x="253" y="200.269" font-family="sans-serif" font-size="14" font-weight="bold" textLength="90">last_access</text><text x="343" y="200.269" font-family="sans-serif" font-size="14" textLength="66">: duration</text><text x="253" y="226.565" font-family="sans-serif" font-size="14" font-weight="bold" textLength="90">last_update</text><text x="343" y="226.565" font-family="sans-serif" font-size="14" textLength="66">: duration</text><text x="253" y="252.862" font-family="sans-serif" font-size="14" font-weight="bold" textLength="48">mtime</text><text x="301" y="252.862" font-family="sans-serif" font-size="14" textLength="70">: datetime</text><text x="253" y="279.159" font-family="sans-serif" font-size="14" font-weight="bold" textLength="43">name</text><text x="296" y="279.159" font-family="sans-serif" font-size="14" textLength="48">: string</text><text x="253" y="305.456" font-family="sans-serif" font-size="14" font-weight="bold" textLength="34">tags</text><text x="287" y="305.456" font-family="sans-serif" font-size="14" textLength="171">: dictionary[string, string]</text><path fill="none" d="M564.5 1212.85v53.65" style="stroke:#111827;stroke-width:2"/><path fill="#111827" d="m564.5 1272.5 4-9-4 4-4-4z" style="stroke:#111827;stroke-width:2"/><path fill="none" d="M355.5 760.92v53.16" style="stroke:#111827;stroke-width:2"/><path fill="#111827" d="m355.5 820.08 4-9-4 4-4-4z" style="stroke:#111827;stroke-width:2"/><path fill="none" d="M355.5 531.03V633.7m0-120.67-6 18h12zm-95.33 513.51c-23.47 25.17-43.468 46.612-63.398 67.982" style="stroke:#111827;stroke-width:2"/><path fill="#111827" d="m192.68 1098.91 9.064-3.854-5.654.197-.197-5.653z" style="stroke:#111827;stroke-width:2"/><path fill="none" d="M450.83 1026.54c18.84 20.2 33.989 36.441 51.149 54.851" style="stroke:#111827;stroke-width:2"/><path fill="#111827" d="m506.07 1085.78-3.21-9.31-.2 5.652-5.653-.198z" style="stroke:#111827;stroke-width:2"/><path fill="none" d="M355.5 336.18v102.34m0-120.34-6 18h12z" style="stroke:#111827;stroke-width:2"/></svg>