<svg xmlns="http://www.w3.org/2000/svg" width="250" height="705" viewBox="0 0 250 705"><rect width="194" height="100.383" x="28" y="438.76" fill="#EEF7FF" rx="2.5" ry="2.5" style="stroke:#3d58d3;stroke-width:.5"/><circle cx="43" cy="458.654" r="11" fill="#ADD1B2" style="stroke:#181818;stroke-width:1"/><path d="M45.969 464.295q-.578.297-1.219.438-.64.156-1.344.156-2.5 0-3.828-1.64-1.312-1.657-1.312-4.782t1.312-4.781q1.328-1.656 3.828-1.656.703 0 1.344.156.656.156 1.219.453v2.719q-.625-.579-1.219-.844-.594-.281-1.219-.281-1.343 0-2.031 1.078-.687 1.062-.687 3.156t.687 3.172q.688 1.062 2.031 1.062.625 0 1.219-.265.594-.281 1.219-.86z"/><text x="62" y="464.54" font-family="Helvetica" font-size="17" textLength="152">autoscaling_group</text><path d="M29 478.549h192" style="stroke:#3d58d3;stroke-width:.5"/><text x="39" y="500.544" font-family="sans-serif" font-size="14" font-weight="bold" textLength="71">max_size</text><text x="110" y="500.544" font-family="sans-serif" font-size="14" textLength="44">: int64</text><text x="39" y="526.841" font-family="sans-serif" font-size="14" font-weight="bold" textLength="67">min_size</text><text x="106" y="526.841" font-family="sans-serif" font-size="14" textLength="44">: int64</text><rect width="236" height="39.789" x="7" y="660.14" fill="#EEF7FF" rx="2.5" ry="2.5" style="stroke:#3d58d3;stroke-width:.5"/><circle cx="22" cy="680.034" r="11" fill="#ADD1B2" style="stroke:#181818;stroke-width:1"/><path d="M24.969 685.675q-.578.297-1.219.438-.64.156-1.344.156-2.5 0-3.828-1.64-1.312-1.657-1.312-4.782t1.312-4.781q1.328-1.657 3.828-1.657.703 0 1.344.157.656.156 1.219.453v2.719q-.625-.579-1.219-.844-.594-.281-1.219-.281-1.343 0-2.031 1.078-.687 1.062-.687 3.156t.687 3.172q.688 1.062 2.031 1.062.625 0 1.219-.265.594-.282 1.219-.86z"/><text x="41" y="685.92" font-family="Helvetica" font-size="17" textLength="194">aws_autoscaling_group</text><rect width="227" height="310.758" x="11.5" y="7" fill="#EEF7FF" rx="2.5" ry="2.5" style="stroke:#3d58d3;stroke-width:.5"/><circle cx="80.25" cy="26.895" r="11" fill="#ADD1B2" style="stroke:#181818;stroke-width:1"/><path d="M83.219 32.535q-.578.297-1.219.438-.64.156-1.344.156-2.5 0-3.828-1.64-1.312-1.657-1.312-4.782t1.312-4.781q1.328-1.656 3.828-1.656.703 0 1.344.156.656.156 1.219.453v2.719q-.625-.578-1.219-.844-.594-.281-1.219-.281-1.344 0-2.031 1.078-.687 1.062-.687 3.156t.687 3.172q.688 1.062 2.031 1.062.625 0 1.219-.265.594-.281 1.219-.86z"/><text x="105.75" y="32.78" font-family="Helvetica" font-size="17" textLength="71">resource</text><path d="M12.5 46.789h225" style="stroke:#3d58d3;stroke-width:.5"/><text x="22.5" y="68.784" font-family="sans-serif" font-size="14" font-weight="bold" textLength="29">age</text><text x="51.5" y="68.784" font-family="sans-serif" font-size="14" textLength="66">: duration</text><text x="22.5" y="95.081" font-family="sans-serif" font-size="14" font-weight="bold" textLength="43">atime</text><text x="65.5" y="95.081" font-family="sans-serif" font-size="14" textLength="70">: datetime</text><text x="22.5" y="121.378" font-family="sans-serif" font-size="14" font-weight="bold" textLength="43">ctime</text><text x="65.5" y="121.378" font-family="sans-serif" font-size="14" textLength="70">: datetime</text><text x="22.5" y="147.675" font-family="sans-serif" font-size="14" font-weight="bold" textLength="14">id</text><text x="36.5" y="147.675" font-family="sans-serif" font-size="14" textLength="48">: string</text><text x="22.5" y="173.972" font-family="sans-serif" font-size="14" font-weight="bold" textLength="33">kind</text><text x="55.5" y="173.972" font-family="sans-serif" font-size="14" textLength="48">: string</text><text x="22.5" y="200.269" font-family="sans-serif" font-size="14" font-weight="bold" textLength="90">last_access</text><text x="112.5" y="200.269" font-family="sans-serif" font-size="14" textLength="66">: duration</text><text x="22.5" y="226.565" font-family="sans-serif" font-size="14" font-weight="bold" textLength="90">last_update</text><text x="112.5" y="226.565" font-family="sans-serif" font-size="14" textLength="66">: duration</text><text x="22.5" y="252.862" font-family="sans-serif" font-size="14" font-weight="bold" textLength="48">mtime</text><text x="70.5" y="252.862" font-family="sans-serif" font-size="14" textLength="70">: datetime</text><text x="22.5" y="279.159" font-family="sans-serif" font-size="14" font-weight="bold" textLength="43">name</text><text x="65.5" y="279.159" font-family="sans-serif" font-size="14" textLength="48">: string</text><text x="22.5" y="305.456" font-family="sans-serif" font-size="14" font-weight="bold" textLength="34">tags</text><text x="56.5" y="305.456" font-family="sans-serif" font-size="14" textLength="171">: dictionary[string, string]</text><path fill="none" d="M125 336.06v102.36m0-120.36-6 18h12zm0 239.57v102.26m0-120.26-6 18h12z" style="stroke:#111827;stroke-width:2"/></svg>