<svg xmlns="http://www.w3.org/2000/svg" width="756" height="732" viewBox="0 0 756 732"><rect width="211" height="39.789" x="7" y="686.44" fill="#EEF7FF" rx="2.5" ry="2.5" style="stroke:#3d58d3;stroke-width:.5"/><circle cx="22" cy="706.335" r="11" fill="#ADD1B2" style="stroke:#181818;stroke-width:1"/><path d="M24.969 711.975q-.578.297-1.219.438-.64.156-1.344.156-2.5 0-3.828-1.64-1.312-1.657-1.312-4.782t1.312-4.781q1.328-1.656 3.828-1.656.703 0 1.344.156.656.156 1.219.453v2.719q-.625-.578-1.219-.844-.594-.281-1.219-.281-1.343 0-2.031 1.078-.687 1.062-.687 3.156t.687 3.172q.688 1.062 2.031 1.062.625 0 1.219-.265.594-.281 1.219-.86z"/><text x="41" y="712.22" font-family="Helvetica" font-size="17" textLength="169">aws_acm_certificate</text><rect width="269" height="39.789" x="253" y="686.44" fill="#EEF7FF" rx="2.5" ry="2.5" style="stroke:#3d58d3;stroke-width:.5"/><circle cx="268" cy="706.335" r="11" fill="#ADD1B2" style="stroke:#181818;stroke-width:1"/><path d="M270.969 711.975q-.578.297-1.219.438-.64.156-1.344.156-2.5 0-3.828-1.64-1.312-1.657-1.312-4.782t1.312-4.781q1.328-1.656 3.828-1.656.703 0 1.344.156.656.156 1.219.453v2.719q-.625-.578-1.219-.844-.594-.281-1.219-.281-1.344 0-2.031 1.078-.687 1.062-.687 3.156t.687 3.172q.688 1.062 2.031 1.062.625 0 1.219-.265.594-.281 1.219-.86z"/><text x="287" y="712.22" font-family="Helvetica" font-size="17" textLength="227">aws_iam_server_certificate</text><rect width="199" height="126.68" x="288" y="438.76" fill="#EEF7FF" rx="2.5" ry="2.5" style="stroke:#3d58d3;stroke-width:.5"/><circle cx="336.75" cy="458.654" r="11" fill="#ADD1B2" style="stroke:#181818;stroke-width:1"/><path d="M339.719 464.295q-.578.297-1.219.438-.64.156-1.344.156-2.5 0-3.828-1.64-1.312-1.657-1.312-4.782t1.312-4.781q1.328-1.656 3.828-1.656.703 0 1.344.156.656.156 1.219.453v2.719q-.625-.579-1.219-.844-.594-.281-1.219-.281-1.344 0-2.031 1.078-.687 1.062-.687 3.156t.687 3.172q.688 1.062 2.031 1.062.625 0 1.219-.265.594-.281 1.219-.86z"/><text x="362.25" y="464.54" font-family="Helvetica" font-size="17" textLength="83">certificate</text><path d="M289 478.549h197" style="stroke:#3d58d3;stroke-width:.5"/><text x="299" y="500.544" font-family="sans-serif" font-size="14" font-weight="bold" textLength="88">dns_names</text><text x="387" y="500.544" font-family="sans-serif" font-size="14" textLength="58">: string[]</text><text x="299" y="526.841" font-family="sans-serif" font-size="14" font-weight="bold" textLength="59">expires</text><text x="358" y="526.841" font-family="sans-serif" font-size="14" textLength="70">: datetime</text><text x="299" y="553.138" font-family="sans-serif" font-size="14" font-weight="bold" textLength="129">sha1_fingerprint</text><text x="428" y="553.138" font-family="sans-serif" font-size="14" textLength="48">: string</text><rect width="192" height="39.789" x="557.5" y="686.44" fill="#EEF7FF" rx="2.5" ry="2.5" style="stroke:#3d58d3;stroke-width:.5"/><circle cx="572.5" cy="706.335" r="11" fill="#ADD1B2" style="stroke:#181818;stroke-width:1"/><path d="M575.469 711.975q-.578.297-1.219.438-.64.156-1.344.156-2.5 0-3.828-1.64-1.312-1.657-1.312-4.782t1.312-4.781q1.328-1.656 3.828-1.656.703 0 1.344.156.656.156 1.219.453v2.719q-.625-.578-1.219-.844-.594-.281-1.219-.281-1.343 0-2.031 1.078-.687 1.062-.687 3.156t.687 3.172q.688 1.062 2.031 1.062.625 0 1.219-.265.594-.281 1.219-.86z"/><text x="591.5" y="712.22" font-family="Helvetica" font-size="17" textLength="150">gcp_ssl_certificate</text><rect width="227" height="310.758" x="274" y="7" fill="#EEF7FF" rx="2.5" ry="2.5" style="stroke:#3d58d3;stroke-width:.5"/><circle cx="342.75" cy="26.895" r="11" fill="#ADD1B2" style="stroke:#181818;stroke-width:1"/><path d="M345.719 32.535q-.578.297-1.219.438-.64.156-1.344.156-2.5 0-3.828-1.64-1.312-1.657-1.312-4.782t1.312-4.781q1.328-1.656 3.828-1.656.703 0 1.344.156.656.156 1.219.453v2.719q-.625-.578-1.219-.844-.594-.281-1.219-.281-1.344 0-2.031 1.078-.687 1.062-.687 3.156t.687 3.172q.688 1.062 2.031 1.062.625 0 1.219-.265.594-.281 1.219-.86z"/><text x="368.25" y="32.78" font-family="Helvetica" font-size="17" textLength="71">resource</text><path d="M275 46.789h225" style="stroke:#3d58d3;stroke-width:.5"/><text x="285" y="68.784" font-family="sans-serif" font-size="14" font-weight="bold" textLength="29">age</text><text x="314" y="68.784" font-family="sans-serif" font-size="14" textLength="66">: duration</text><text x="285" y="95.081" font-family="sans-serif" font-size="14" font-weight="bold" textLength="43">atime</text><text x="328" y="95.081" font-family="sans-serif" font-size="14" textLength="70">: datetime</text><text x="285" y="121.378" font-family="sans-serif" font-size="14" font-weight="bold" textLength="43">ctime</text><text x="328" y="121.378" font-family="sans-serif" font-size="14" textLength="70">: datetime</text><text x="285" y="147.675" font-family="sans-serif" font-size="14" font-weight="bold" textLength="14">id</text><text x="299" y="147.675" font-family="sans-serif" font-size="14" textLength="48">: string</text><text x="285" y="173.972" font-family="sans-serif" font-size="14" font-weight="bold" textLength="33">kind</text><text x="318" y="173.972" font-family="sans-serif" font-size="14" textLength="48">: string</text><text x="285" y="200.269" font-family="sans-serif" font-size="14" font-weight="bold" textLength="90">last_access</text><text x="375" y="200.269" font-family="sans-serif" font-size="14" textLength="66">: duration</text><text x="285" y="226.565" font-family="sans-serif" font-size="14" font-weight="bold" textLength="90">last_update</text><text x="375" y="226.565" font-family="sans-serif" font-size="14" textLength="66">: duration</text><text x="285" y="252.862" font-family="sans-serif" font-size="14" font-weight="bold" textLength="48">mtime</text><text x="333" y="252.862" font-family="sans-serif" font-size="14" textLength="70">: datetime</text><text x="285" y="279.159" font-family="sans-serif" font-size="14" font-weight="bold" textLength="43">name</text><text x="328" y="279.159" font-family="sans-serif" font-size="14" textLength="48">: string</text><text x="285" y="305.456" font-family="sans-serif" font-size="14" font-weight="bold" textLength="34">tags</text><text x="319" y="305.456" font-family="sans-serif" font-size="14" textLength="171">: dictionary[string, string]</text><path fill="none" d="M287.87 576.366c-56.31 41.42-111.91 82.294-149.19 109.714M302.37 565.7l-18.055 5.832 7.11 9.667zm85.13 18v102.61m0-120.61-6 18h12zm0-229.79v102.41m0-120.41-6 18h12z" style="stroke:#111827;stroke-width:2"/><g fill="none"><path d="M484.168 576.595c54.47 41.42 107.942 82.065 144.002 109.485" style="stroke:#111827;stroke-width:2"/><path d="m469.84 565.7 10.696 15.671 7.264-9.552z" style="stroke:#111827;stroke-width:2"/></g></svg>