<svg xmlns="http://www.w3.org/2000/svg" width="422" height="645" viewBox="0 0 422 645"><rect width="199" height="39.789" x="7" y="599.55" fill="#EEF7FF" rx="2.5" ry="2.5" style="stroke:#3d58d3;stroke-width:.5"/><circle cx="22" cy="619.444" r="11" fill="#ADD1B2" style="stroke:#181818;stroke-width:1"/><path d="M24.969 625.085q-.578.297-1.219.438-.64.156-1.344.156-2.5 0-3.828-1.64-1.312-1.657-1.312-4.782t1.312-4.781q1.328-1.657 3.828-1.657.703 0 1.344.157.656.156 1.219.453v2.719q-.625-.579-1.219-.844-.594-.281-1.219-.281-1.343 0-2.031 1.078-.687 1.062-.687 3.156t.687 3.172q.688 1.062 2.031 1.062.625 0 1.219-.265.594-.282 1.219-.86z"/><text x="41" y="625.33" font-family="Helvetica" font-size="17" textLength="157">aws_route53_zone</text><rect width="174" height="39.789" x="241.5" y="599.55" fill="#EEF7FF" rx="2.5" ry="2.5" style="stroke:#3d58d3;stroke-width:.5"/><circle cx="256.5" cy="619.444" r="11" fill="#ADD1B2" style="stroke:#181818;stroke-width:1"/><path d="M259.469 625.085q-.578.297-1.219.438-.64.156-1.344.156-2.5 0-3.828-1.64-1.312-1.657-1.312-4.782t1.312-4.781q1.328-1.657 3.828-1.657.703 0 1.344.157.656.156 1.219.453v2.719q-.625-.579-1.219-.844-.594-.281-1.219-.281-1.344 0-2.031 1.078-.687 1.062-.687 3.156t.687 3.172q.688 1.062 2.031 1.062.625 0 1.219-.265.594-.282 1.219-.86z"/><text x="275.5" y="625.33" font-family="Helvetica" font-size="17" textLength="132">azure_dns_zone</text><rect width="119" height="39.789" x="158" y="438.76" fill="#EEF7FF" rx="2.5" ry="2.5" style="stroke:#3d58d3;stroke-width:.5"/><circle cx="173" cy="458.654" r="11" fill="#ADD1B2" style="stroke:#181818;stroke-width:1"/><path d="M175.969 464.295q-.578.297-1.219.438-.64.156-1.344.156-2.5 0-3.828-1.64-1.312-1.657-1.312-4.782t1.312-4.781q1.328-1.656 3.828-1.656.703 0 1.344.156.656.156 1.219.453v2.719q-.625-.579-1.219-.844-.594-.281-1.219-.281-1.344 0-2.031 1.078-.687 1.062-.687 3.156t.687 3.172q.688 1.062 2.031 1.062.625 0 1.219-.265.594-.281 1.219-.86z"/><text x="192" y="464.54" font-family="Helvetica" font-size="17" textLength="77">dns_zone</text><rect width="227" height="310.758" x="104" y="7" fill="#EEF7FF" rx="2.5" ry="2.5" style="stroke:#3d58d3;stroke-width:.5"/><circle cx="172.75" cy="26.895" r="11" fill="#ADD1B2" style="stroke:#181818;stroke-width:1"/><path d="M175.719 32.535q-.578.297-1.219.438-.64.156-1.344.156-2.5 0-3.828-1.64-1.312-1.657-1.312-4.782t1.312-4.781q1.328-1.656 3.828-1.656.703 0 1.344.156.656.156 1.219.453v2.719q-.625-.578-1.219-.844-.594-.281-1.219-.281-1.344 0-2.031 1.078-.687 1.062-.687 3.156t.687 3.172q.688 1.062 2.031 1.062.625 0 1.219-.265.594-.281 1.219-.86z"/><text x="198.25" y="32.78" font-family="Helvetica" font-size="17" textLength="71">resource</text><path d="M105 46.789h225" style="stroke:#3d58d3;stroke-width:.5"/><text x="115" y="68.784" font-family="sans-serif" font-size="14" font-weight="bold" textLength="29">age</text><text x="144" y="68.784" font-family="sans-serif" font-size="14" textLength="66">: duration</text><text x="115" y="95.081" font-family="sans-serif" font-size="14" font-weight="bold" textLength="43">atime</text><text x="158" y="95.081" font-family="sans-serif" font-size="14" textLength="70">: datetime</text><text x="115" y="121.378" font-family="sans-serif" font-size="14" font-weight="bold" textLength="43">ctime</text><text x="158" y="121.378" font-family="sans-serif" font-size="14" textLength="70">: datetime</text><text x="115" y="147.675" font-family="sans-serif" font-size="14" font-weight="bold" textLength="14">id</text><text x="129" y="147.675" font-family="sans-serif" font-size="14" textLength="48">: string</text><text x="115" y="173.972" font-family="sans-serif" font-size="14" font-weight="bold" textLength="33">kind</text><text x="148" y="173.972" font-family="sans-serif" font-size="14" textLength="48">: string</text><text x="115" y="200.269" font-family="sans-serif" font-size="14" font-weight="bold" textLength="90">last_access</text><text x="205" y="200.269" font-family="sans-serif" font-size="14" textLength="66">: duration</text><text x="115" y="226.565" font-family="sans-serif" font-size="14" font-weight="bold" textLength="90">last_update</text><text x="205" y="226.565" font-family="sans-serif" font-size="14" textLength="66">: duration</text><text x="115" y="252.862" font-family="sans-serif" font-size="14" font-weight="bold" textLength="48">mtime</text><text x="163" y="252.862" font-family="sans-serif" font-size="14" textLength="70">: datetime</text><text x="115" y="279.159" font-family="sans-serif" font-size="14" font-weight="bold" textLength="43">name</text><text x="158" y="279.159" font-family="sans-serif" font-size="14" textLength="48">: string</text><text x="115" y="305.456" font-family="sans-serif" font-size="14" font-weight="bold" textLength="34">tags</text><text x="149" y="305.456" font-family="sans-serif" font-size="14" textLength="171">: dictionary[string, string]</text><g fill="none"><path d="M193.799 493.564c-21.33 30.52-52.499 75.096-73.859 105.656" style="stroke:#111827;stroke-width:2"/><path d="m204.11 478.81-15.23 11.317 9.837 6.874z" style="stroke:#111827;stroke-width:2"/></g><path fill="none" d="M241.201 493.564c21.33 30.52 52.499 75.096 73.859 105.656m-84.17-120.41 5.393 18.191 9.836-6.874zM217.5 335.85v102.83m0-120.83-6 18h12z" style="stroke:#111827;stroke-width:2"/></svg>