<svg xmlns="http://www.w3.org/2000/svg" width="2736" height="890" viewBox="0 0 2736 890"><rect width="174" height="39.789" x="7" y="844.22" fill="#EEF7FF" rx="2.5" ry="2.5" style="stroke:#3d58d3;stroke-width:.5"/><circle cx="22" cy="864.115" r="11" fill="#ADD1B2" style="stroke:#181818;stroke-width:1"/><path d="M24.969 869.755q-.578.297-1.219.438-.64.156-1.344.156-2.5 0-3.828-1.64-1.312-1.657-1.312-4.782t1.312-4.781q1.328-1.656 3.828-1.656.703 0 1.344.156.656.156 1.219.453v2.719q-.625-.578-1.219-.844-.594-.281-1.219-.281-1.343 0-2.031 1.078-.687 1.062-.687 3.156t.687 3.172q.688 1.062 2.031 1.062.625 0 1.219-.265.594-.281 1.219-.86z"/><text x="41" y="870" font-family="Helvetica" font-size="17" textLength="132">aws_rds_cluster</text><rect width="188" height="39.789" x="216" y="844.22" fill="#EEF7FF" rx="2.5" ry="2.5" style="stroke:#3d58d3;stroke-width:.5"/><circle cx="231" cy="864.115" r="11" fill="#ADD1B2" style="stroke:#181818;stroke-width:1"/><path d="M233.969 869.755q-.578.297-1.219.438-.64.156-1.344.156-2.5 0-3.828-1.64-1.312-1.657-1.312-4.782t1.312-4.781q1.328-1.656 3.828-1.656.703 0 1.344.156.656.156 1.219.453v2.719q-.625-.578-1.219-.844-.594-.281-1.219-.281-1.344 0-2.031 1.078-.687 1.062-.687 3.156t.687 3.172q.688 1.062 2.031 1.062.625 0 1.219-.265.594-.281 1.219-.86z"/><text x="250" y="870" font-family="Helvetica" font-size="17" textLength="146">aws_rds_instance</text><rect width="261" height="39.789" x="438.5" y="844.22" fill="#EEF7FF" rx="2.5" ry="2.5" style="stroke:#3d58d3;stroke-width:.5"/><circle cx="453.5" cy="864.115" r="11" fill="#ADD1B2" style="stroke:#181818;stroke-width:1"/><path d="M456.469 869.755q-.578.297-1.219.438-.64.156-1.344.156-2.5 0-3.828-1.64-1.312-1.657-1.312-4.782t1.312-4.781q1.328-1.656 3.828-1.656.703 0 1.344.156.656.156 1.219.453v2.719q-.625-.578-1.219-.844-.594-.281-1.219-.281-1.344 0-2.031 1.078-.687 1.062-.687 3.156t.687 3.172q.688 1.062 2.031 1.062.625 0 1.219-.265.594-.281 1.219-.86z"/><text x="472.5" y="870" font-family="Helvetica" font-size="17" textLength="219">azure_cosmos_db_account</text><rect width="407" height="39.789" x="734.5" y="844.22" fill="#EEF7FF" rx="2.5" ry="2.5" style="stroke:#3d58d3;stroke-width:.5"/><circle cx="749.5" cy="864.115" r="11" fill="#ADD1B2" style="stroke:#181818;stroke-width:1"/><path d="M752.469 869.755q-.578.297-1.219.438-.64.156-1.344.156-2.5 0-3.828-1.64-1.312-1.657-1.312-4.782t1.312-4.781q1.328-1.656 3.828-1.656.703 0 1.344.156.656.156 1.219.453v2.719q-.625-.578-1.219-.844-.594-.281-1.219-.281-1.343 0-2.031 1.078-.687 1.062-.687 3.156t.687 3.172q.688 1.062 2.031 1.062.625 0 1.219-.265.594-.281 1.219-.86z"/><text x="768.5" y="870" font-family="Helvetica" font-size="17" textLength="365">azure_cosmos_db_postgresql_cluster_server</text><rect width="208" height="39.789" x="1177" y="844.22" fill="#EEF7FF" rx="2.5" ry="2.5" style="stroke:#3d58d3;stroke-width:.5"/><circle cx="1192" cy="864.115" r="11" fill="#ADD1B2" style="stroke:#181818;stroke-width:1"/><path d="M1194.969 869.755q-.578.297-1.219.438-.64.156-1.344.156-2.5 0-3.828-1.64-1.312-1.657-1.312-4.782t1.312-4.781q1.328-1.656 3.828-1.656.703 0 1.344.156.656.156 1.219.453v2.719q-.625-.578-1.219-.844-.594-.281-1.219-.281-1.343 0-2.031 1.078-.687 1.062-.687 3.156t.687 3.172q.688 1.062 2.031 1.062.625 0 1.219-.265.594-.281 1.219-.86z"/><text x="1211" y="870" font-family="Helvetica" font-size="17" textLength="166">azure_mysql_server</text><rect width="243" height="39.789" x="1420.5" y="844.22" fill="#EEF7FF" rx="2.5" ry="2.5" style="stroke:#3d58d3;stroke-width:.5"/><circle cx="1435.5" cy="864.115" r="11" fill="#ADD1B2" style="stroke:#181818;stroke-width:1"/><path d="M1438.469 869.755q-.578.297-1.219.438-.64.156-1.344.156-2.5 0-3.828-1.64-1.312-1.657-1.312-4.782t1.312-4.781q1.328-1.656 3.828-1.656.703 0 1.344.156.656.156 1.219.453v2.719q-.625-.578-1.219-.844-.594-.281-1.219-.281-1.343 0-2.031 1.078-.687 1.062-.687 3.156t.687 3.172q.688 1.062 2.031 1.062.625 0 1.219-.265.594-.281 1.219-.86z"/><text x="1454.5" y="870" font-family="Helvetica" font-size="17" textLength="201">azure_postgresql_server</text><rect width="265" height="39.789" x="1698.5" y="844.22" fill="#EEF7FF" rx="2.5" ry="2.5" style="stroke:#3d58d3;stroke-width:.5"/><circle cx="1713.5" cy="864.115" r="11" fill="#ADD1B2" style="stroke:#181818;stroke-width:1"/><path d="M1716.469 869.755q-.578.297-1.219.438-.64.156-1.344.156-2.5 0-3.828-1.64-1.312-1.657-1.312-4.782t1.312-4.781q1.328-1.656 3.828-1.656.703 0 1.344.156.656.156 1.219.453v2.719q-.625-.578-1.219-.844-.594-.281-1.219-.281-1.343 0-2.031 1.078-.687 1.062-.687 3.156t.687 3.172q.688 1.062 2.031 1.062.625 0 1.219-.265.594-.281 1.219-.86z"/><text x="1732.5" y="870" font-family="Helvetica" font-size="17" textLength="223">azure_sql_server_database</text><rect width="431" height="39.789" x="1998.5" y="844.22" fill="#EEF7FF" rx="2.5" ry="2.5" style="stroke:#3d58d3;stroke-width:.5"/><circle cx="2013.5" cy="864.115" r="11" fill="#ADD1B2" style="stroke:#181818;stroke-width:1"/><path d="M2016.469 869.755q-.578.297-1.219.438-.64.156-1.344.156-2.5 0-3.828-1.64-1.312-1.657-1.312-4.782t1.312-4.781q1.328-1.656 3.828-1.656.703 0 1.344.156.656.156 1.219.453v2.719q-.625-.578-1.219-.844-.594-.281-1.219-.281-1.343 0-2.031 1.078-.687 1.062-.687 3.156t.687 3.172q.688 1.062 2.031 1.062.625 0 1.219-.265.594-.281 1.219-.86z"/><text x="2032.5" y="870" font-family="Helvetica" font-size="17" textLength="389">azure_sql_server_managed_instance_database</text><rect width="287" height="284.461" x="1137.5" y="438.76" fill="#EEF7FF" rx="2.5" ry="2.5" style="stroke:#3d58d3;stroke-width:.5"/><circle cx="1234.25" cy="458.654" r="11" fill="#ADD1B2" style="stroke:#181818;stroke-width:1"/><path d="M1237.219 464.295q-.578.297-1.219.438-.64.156-1.344.156-2.5 0-3.828-1.64-1.312-1.657-1.312-4.782t1.312-4.781q1.328-1.656 3.828-1.656.703 0 1.344.156.656.156 1.219.453v2.719q-.625-.579-1.219-.844-.594-.281-1.219-.281-1.343 0-2.031 1.078-.687 1.062-.687 3.156t.687 3.172q.688 1.062 2.031 1.062.625 0 1.219-.265.594-.281 1.219-.86z"/><text x="1259.75" y="464.54" font-family="Helvetica" font-size="17" textLength="75">database</text><path d="M1138.5 478.549h285" style="stroke:#3d58d3;stroke-width:.5"/><text x="1148.5" y="500.544" font-family="sans-serif" font-size="14" font-weight="bold" textLength="97">db_endpoint</text><text x="1245.5" y="500.544" font-family="sans-serif" font-size="14" textLength="48">: string</text><text x="1148.5" y="526.841" font-family="sans-serif" font-size="14" font-weight="bold" textLength="177">db_publicly_accessible</text><text x="1325.5" y="526.841" font-family="sans-serif" font-size="14" textLength="65">: boolean</text><text x="1148.5" y="553.138" font-family="sans-serif" font-size="14" font-weight="bold" textLength="76">db_status</text><text x="1224.5" y="553.138" font-family="sans-serif" font-size="14" textLength="189">: database_instance_status</text><text x="1148.5" y="579.435" font-family="sans-serif" font-size="14" font-weight="bold" textLength="62">db_type</text><text x="1210.5" y="579.435" font-family="sans-serif" font-size="14" textLength="48">: string</text><text x="1148.5" y="605.732" font-family="sans-serif" font-size="14" font-weight="bold" textLength="86">db_version</text><text x="1234.5" y="605.732" font-family="sans-serif" font-size="14" textLength="48">: string</text><text x="1148.5" y="632.029" font-family="sans-serif" font-size="14" font-weight="bold" textLength="109">instance_type</text><text x="1257.5" y="632.029" font-family="sans-serif" font-size="14" textLength="48">: string</text><text x="1148.5" y="658.325" font-family="sans-serif" font-size="14" font-weight="bold" textLength="145">volume_encrypted</text><text x="1293.5" y="658.325" font-family="sans-serif" font-size="14" textLength="65">: boolean</text><text x="1148.5" y="684.622" font-family="sans-serif" font-size="14" font-weight="bold" textLength="97">volume_iops</text><text x="1245.5" y="684.622" font-family="sans-serif" font-size="14" textLength="44">: int64</text><text x="1148.5" y="710.919" font-family="sans-serif" font-size="14" font-weight="bold" textLength="96">volume_size</text><text x="1244.5" y="710.919" font-family="sans-serif" font-size="14" textLength="44">: int64</text><rect width="265" height="39.789" x="2464.5" y="844.22" fill="#EEF7FF" rx="2.5" ry="2.5" style="stroke:#3d58d3;stroke-width:.5"/><circle cx="2479.5" cy="864.115" r="11" fill="#ADD1B2" style="stroke:#181818;stroke-width:1"/><path d="M2482.469 869.755q-.578.297-1.219.438-.64.156-1.344.156-2.5 0-3.828-1.64-1.312-1.657-1.312-4.782t1.312-4.781q1.328-1.656 3.828-1.656.703 0 1.344.156.656.156 1.219.453v2.719q-.625-.578-1.219-.844-.594-.281-1.219-.281-1.343 0-2.031 1.078-.687 1.062-.687 3.156t.687 3.172q.688 1.062 2.031 1.062.625 0 1.219-.265.594-.281 1.219-.86z"/><text x="2498.5" y="870" font-family="Helvetica" font-size="17" textLength="223">gcp_sql_database_instance</text><rect width="227" height="310.758" x="1167.5" y="7" fill="#EEF7FF" rx="2.5" ry="2.5" style="stroke:#3d58d3;stroke-width:.5"/><circle cx="1236.25" cy="26.895" r="11" fill="#ADD1B2" style="stroke:#181818;stroke-width:1"/><path d="M1239.219 32.535q-.578.297-1.219.438-.64.156-1.344.156-2.5 0-3.828-1.64-1.312-1.657-1.312-4.782t1.312-4.781q1.328-1.656 3.828-1.656.703 0 1.344.156.656.156 1.219.453v2.719q-.625-.578-1.219-.844-.594-.281-1.219-.281-1.343 0-2.031 1.078-.687 1.062-.687 3.156t.687 3.172q.688 1.062 2.031 1.062.625 0 1.219-.265.594-.281 1.219-.86z"/><text x="1261.75" y="32.78" font-family="Helvetica" font-size="17" textLength="71">resource</text><path d="M1168.5 46.789h225" style="stroke:#3d58d3;stroke-width:.5"/><text x="1178.5" y="68.784" font-family="sans-serif" font-size="14" font-weight="bold" textLength="29">age</text><text x="1207.5" y="68.784" font-family="sans-serif" font-size="14" textLength="66">: duration</text><text x="1178.5" y="95.081" font-family="sans-serif" font-size="14" font-weight="bold" textLength="43">atime</text><text x="1221.5" y="95.081" font-family="sans-serif" font-size="14" textLength="70">: datetime</text><text x="1178.5" y="121.378" font-family="sans-serif" font-size="14" font-weight="bold" textLength="43">ctime</text><text x="1221.5" y="121.378" font-family="sans-serif" font-size="14" textLength="70">: datetime</text><text x="1178.5" y="147.675" font-family="sans-serif" font-size="14" font-weight="bold" textLength="14">id</text><text x="1192.5" y="147.675" font-family="sans-serif" font-size="14" textLength="48">: string</text><text x="1178.5" y="173.972" font-family="sans-serif" font-size="14" font-weight="bold" textLength="33">kind</text><text x="1211.5" y="173.972" font-family="sans-serif" font-size="14" textLength="48">: string</text><text x="1178.5" y="200.269" font-family="sans-serif" font-size="14" font-weight="bold" textLength="90">last_access</text><text x="1268.5" y="200.269" font-family="sans-serif" font-size="14" textLength="66">: duration</text><text x="1178.5" y="226.565" font-family="sans-serif" font-size="14" font-weight="bold" textLength="90">last_update</text><text x="1268.5" y="226.565" font-family="sans-serif" font-size="14" textLength="66">: duration</text><text x="1178.5" y="252.862" font-family="sans-serif" font-size="14" font-weight="bold" textLength="48">mtime</text><text x="1226.5" y="252.862" font-family="sans-serif" font-size="14" textLength="70">: datetime</text><text x="1178.5" y="279.159" font-family="sans-serif" font-size="14" font-weight="bold" textLength="43">name</text><text x="1221.5" y="279.159" font-family="sans-serif" font-size="14" textLength="48">: string</text><text x="1178.5" y="305.456" font-family="sans-serif" font-size="14" font-weight="bold" textLength="34">tags</text><text x="1212.5" y="305.456" font-family="sans-serif" font-size="14" textLength="171">: dictionary[string, string]</text><g fill="none"><path d="M1119.715 620.188C868.345 679.718 374.35 796.72 175.57 843.8" style="stroke:#111827;stroke-width:2"/><path d="m1137.23 616.04-18.898-1.69 2.765 11.677z" style="stroke:#111827;stroke-width:2"/></g><path fill="none" d="M1119.91 628.626C906.76 690.336 532.68 798.65 376.71 843.8m760.49-220.18-18.958-.758 3.337 11.527z" style="stroke:#111827;stroke-width:2"/><g fill="none"><path d="M1120.598 645.321C959.338 709.001 723.19 802.23 617.73 843.87" style="stroke:#111827;stroke-width:2"/><path d="m1137.34 638.71-18.946 1.03 4.408 11.162z" style="stroke:#111827;stroke-width:2"/></g><g fill="none"><path d="M1123.11 711.401c-66.73 54.7-125.26 102.659-161.56 132.419" style="stroke:#111827;stroke-width:2"/><path d="m1137.03 699.99-17.724 6.77 7.607 9.281z" style="stroke:#111827;stroke-width:2"/></g><path fill="none" d="M1281 741.38v102.55m0-120.55-6 18h12z" style="stroke:#111827;stroke-width:2"/><g fill="none"><path d="M1424.508 736.57c44.18 47.58 75.992 81.84 99.682 107.36" style="stroke:#111827;stroke-width:2"/><path d="m1412.26 723.38 7.851 17.273 8.794-8.165z" style="stroke:#111827;stroke-width:2"/></g><g fill="none"><path d="M1440.818 663.682c123.65 63.2 277.502 141.838 352.262 180.048" style="stroke:#111827;stroke-width:2"/><path d="m1424.79 655.49 13.297 13.535 5.462-10.685z" style="stroke:#111827;stroke-width:2"/></g><g fill="none"><path d="M1442.225 630.573c205.94 62.05 558.865 168.387 707.465 213.167" style="stroke:#111827;stroke-width:2"/><path d="m1424.99 625.38 15.504 10.938 3.462-11.49z" style="stroke:#111827;stroke-width:2"/></g><path fill="none" d="M1281 336.21V438.3m0-120.09-6 18h12zm161.573 298.3c272.61 58.23 839.337 179.3 1063.917 227.27M1424.97 612.75l16.35 9.628 2.506-11.736z" style="stroke:#111827;stroke-width:2"/></svg>