<svg xmlns="http://www.w3.org/2000/svg" width="317" height="893" viewBox="0 0 317 893"><rect width="137" height="39.789" x="7" y="847.23" fill="#EEF7FF" rx="2.5" ry="2.5" style="stroke:#3d58d3;stroke-width:.5"/><circle cx="22" cy="867.125" r="11" fill="#ADD1B2" style="stroke:#181818;stroke-width:1"/><path d="M24.969 872.765q-.578.297-1.219.438-.64.156-1.344.156-2.5 0-3.828-1.64-1.312-1.657-1.312-4.782t1.312-4.781q1.328-1.656 3.828-1.656.703 0 1.344.156.656.156 1.219.453v2.719q-.625-.578-1.219-.844-.594-.281-1.219-.281-1.343 0-2.031 1.078-.687 1.062-.687 3.156t.687 3.172q.688 1.062 2.031 1.062.625 0 1.219-.265.594-.281 1.219-.86z"/><text x="41" y="873.01" font-family="Helvetica" font-size="17" textLength="95">aws_region</text><rect width="132" height="39.789" x="178.5" y="847.23" fill="#EEF7FF" rx="2.5" ry="2.5" style="stroke:#3d58d3;stroke-width:.5"/><circle cx="193.5" cy="867.125" r="11" fill="#ADD1B2" style="stroke:#181818;stroke-width:1"/><path d="M196.469 872.765q-.578.297-1.219.438-.64.156-1.344.156-2.5 0-3.828-1.64-1.312-1.657-1.312-4.782t1.312-4.781q1.328-1.656 3.828-1.656.703 0 1.344.156.656.156 1.219.453v2.719q-.625-.578-1.219-.844-.594-.281-1.219-.281-1.344 0-2.031 1.078-.687 1.062-.687 3.156t.687 3.172q.688 1.062 2.031 1.062.625 0 1.219-.265.594-.281 1.219-.86z"/><text x="212.5" y="873.01" font-family="Helvetica" font-size="17" textLength="90">gcp_region</text><rect width="198" height="39.789" x="60.5" y="438.76" fill="#EEF7FF" rx="2.5" ry="2.5" style="stroke:#3d58d3;stroke-width:.5"/><circle cx="75.5" cy="458.654" r="11" fill="#ADD1B2" style="stroke:#181818;stroke-width:1"/><path d="M78.469 464.295q-.578.297-1.219.438-.64.156-1.344.156-2.5 0-3.828-1.64-1.312-1.657-1.312-4.782t1.312-4.781q1.328-1.656 3.828-1.656.703 0 1.344.156.656.156 1.219.453v2.719q-.625-.579-1.219-.844-.594-.281-1.219-.281-1.344 0-2.031 1.078-.687 1.062-.687 3.156t.687 3.172q.688 1.062 2.031 1.062.625 0 1.219-.265.594-.281 1.219-.86z"/><text x="94.5" y="464.54" font-family="Helvetica" font-size="17" textLength="156">phantom_resource</text><rect width="154" height="126.68" x="82.5" y="599.55" fill="#EEF7FF" rx="2.5" ry="2.5" style="stroke:#3d58d3;stroke-width:.5"/><circle cx="124.05" cy="619.444" r="11" fill="#ADD1B2" style="stroke:#181818;stroke-width:1"/><path d="M127.019 625.085q-.578.297-1.219.438-.64.156-1.344.156-2.5 0-3.828-1.64-1.312-1.657-1.312-4.782t1.312-4.781q1.328-1.657 3.828-1.657.703 0 1.344.157.656.156 1.219.453v2.719q-.625-.579-1.219-.844-.594-.281-1.219-.281-1.344 0-2.031 1.078-.687 1.062-.687 3.156t.687 3.172q.688 1.062 2.031 1.062.625 0 1.219-.265.594-.282 1.219-.86z"/><text x="148.95" y="625.33" font-family="Helvetica" font-size="17" textLength="53">region</text><path d="M83.5 639.339h152" style="stroke:#3d58d3;stroke-width:.5"/><text x="93.5" y="661.334" font-family="sans-serif" font-size="14" font-weight="bold" textLength="59">latitude</text><text x="152.5" y="661.334" font-family="sans-serif" font-size="14" textLength="57">: double</text><text x="93.5" y="687.631" font-family="sans-serif" font-size="14" font-weight="bold" textLength="84">long_name</text><text x="177.5" y="687.631" font-family="sans-serif" font-size="14" textLength="48">: string</text><text x="93.5" y="713.928" font-family="sans-serif" font-size="14" font-weight="bold" textLength="74">longitude</text><text x="167.5" y="713.928" font-family="sans-serif" font-size="14" textLength="57">: double</text><rect width="227" height="310.758" x="46" y="7" fill="#EEF7FF" rx="2.5" ry="2.5" style="stroke:#3d58d3;stroke-width:.5"/><circle cx="114.75" cy="26.895" r="11" fill="#ADD1B2" style="stroke:#181818;stroke-width:1"/><path d="M117.719 32.535q-.578.297-1.219.438-.64.156-1.344.156-2.5 0-3.828-1.64-1.312-1.657-1.312-4.782t1.312-4.781q1.328-1.656 3.828-1.656.703 0 1.344.156.656.156 1.219.453v2.719q-.625-.578-1.219-.844-.594-.281-1.219-.281-1.344 0-2.031 1.078-.687 1.062-.687 3.156t.687 3.172q.688 1.062 2.031 1.062.625 0 1.219-.265.594-.281 1.219-.86z"/><text x="140.25" y="32.78" font-family="Helvetica" font-size="17" textLength="71">resource</text><path d="M47 46.789h225" style="stroke:#3d58d3;stroke-width:.5"/><text x="57" y="68.784" font-family="sans-serif" font-size="14" font-weight="bold" textLength="29">age</text><text x="86" y="68.784" font-family="sans-serif" font-size="14" textLength="66">: duration</text><text x="57" y="95.081" font-family="sans-serif" font-size="14" font-weight="bold" textLength="43">atime</text><text x="100" y="95.081" font-family="sans-serif" font-size="14" textLength="70">: datetime</text><text x="57" y="121.378" font-family="sans-serif" font-size="14" font-weight="bold" textLength="43">ctime</text><text x="100" y="121.378" font-family="sans-serif" font-size="14" textLength="70">: datetime</text><text x="57" y="147.675" font-family="sans-serif" font-size="14" font-weight="bold" textLength="14">id</text><text x="71" y="147.675" font-family="sans-serif" font-size="14" textLength="48">: string</text><text x="57" y="173.972" font-family="sans-serif" font-size="14" font-weight="bold" textLength="33">kind</text><text x="90" y="173.972" font-family="sans-serif" font-size="14" textLength="48">: string</text><text x="57" y="200.269" font-family="sans-serif" font-size="14" font-weight="bold" textLength="90">last_access</text><text x="147" y="200.269" font-family="sans-serif" font-size="14" textLength="66">: duration</text><text x="57" y="226.565" font-family="sans-serif" font-size="14" font-weight="bold" textLength="90">last_update</text><text x="147" y="226.565" font-family="sans-serif" font-size="14" textLength="66">: duration</text><text x="57" y="252.862" font-family="sans-serif" font-size="14" font-weight="bold" textLength="48">mtime</text><text x="105" y="252.862" font-family="sans-serif" font-size="14" textLength="70">: datetime</text><text x="57" y="279.159" font-family="sans-serif" font-size="14" font-weight="bold" textLength="43">name</text><text x="100" y="279.159" font-family="sans-serif" font-size="14" textLength="48">: string</text><text x="57" y="305.456" font-family="sans-serif" font-size="14" font-weight="bold" textLength="34">tags</text><text x="91" y="305.456" font-family="sans-serif" font-size="14" textLength="171">: dictionary[string, string]</text><g fill="none"><path d="M126.595 743.113C109.345 784.643 94.77 819.74 83.4 847.1" style="stroke:#111827;stroke-width:2"/><path d="m133.5 726.49-12.446 14.322 11.082 4.603z" style="stroke:#111827;stroke-width:2"/></g><g fill="none"><path d="M192.786 743.083c17.46 41.53 32.224 76.657 43.714 104.017" style="stroke:#111827;stroke-width:2"/><path d="m185.81 726.49 1.445 18.919 11.062-4.651z" style="stroke:#111827;stroke-width:2"/></g><path fill="none" d="M159.5 335.85v102.83m0-120.83-6 18h12zm0 179.2v102.4m0-120.4-6 18h12z" style="stroke:#111827;stroke-width:2"/></svg>