<svg xmlns="http://www.w3.org/2000/svg" width="877" height="919" viewBox="0 0 877 919"><rect width="192" height="39.789" x="7" y="712.73" fill="#EEF7FF" rx="2.5" ry="2.5" style="stroke:#3d58d3;stroke-width:.5"/><circle cx="22" cy="732.625" r="11" fill="#ADD1B2" style="stroke:#181818;stroke-width:1"/><path d="M24.969 738.265q-.578.297-1.219.438-.64.156-1.344.156-2.5 0-3.828-1.64-1.312-1.657-1.312-4.782t1.312-4.781Q19.906 726 22.406 726q.703 0 1.344.156.656.156 1.219.453v2.719q-.625-.578-1.219-.844-.594-.281-1.219-.281-1.343 0-2.031 1.078-.687 1.062-.687 3.156t.687 3.172q.688 1.062 2.031 1.062.625 0 1.219-.265.594-.281 1.219-.86z"/><text x="41" y="738.51" font-family="Helvetica" font-size="17" textLength="150">aws_ec2_instance</text><rect width="315" height="39.789" x="41.5" y="873.52" fill="#EEF7FF" rx="2.5" ry="2.5" style="stroke:#3d58d3;stroke-width:.5"/><circle cx="56.5" cy="893.414" r="11" fill="#ADD1B2" style="stroke:#181818;stroke-width:1"/><path d="M59.469 899.055q-.578.297-1.219.438-.64.156-1.344.156-2.5 0-3.828-1.64-1.312-1.657-1.312-4.782t1.312-4.781q1.328-1.657 3.828-1.657.703 0 1.344.157.656.156 1.219.453v2.719q-.625-.579-1.219-.844-.594-.281-1.219-.281-1.343 0-2.031 1.078-.687 1.062-.687 3.156t.687 3.172q.688 1.062 2.031 1.062.625 0 1.219-.265.594-.282 1.219-.86z"/><text x="75.5" y="899.3" font-family="Helvetica" font-size="17" textLength="273">azure_compute_virtual_machine</text><rect width="362" height="39.789" x="234" y="712.73" fill="#EEF7FF" rx="2.5" ry="2.5" style="stroke:#3d58d3;stroke-width:.5"/><circle cx="249" cy="732.625" r="11" fill="#ADD1B2" style="stroke:#181818;stroke-width:1"/><path d="M251.969 738.265q-.578.297-1.219.438-.64.156-1.344.156-2.5 0-3.828-1.64-1.312-1.657-1.312-4.782t1.312-4.781q1.328-1.656 3.828-1.656.703 0 1.344.156.656.156 1.219.453v2.719q-.625-.578-1.219-.844-.594-.281-1.219-.281-1.344 0-2.031 1.078-.687 1.062-.687 3.156t.687 3.172q.688 1.062 2.031 1.062.625 0 1.219-.265.594-.281 1.219-.86z"/><text x="268" y="738.51" font-family="Helvetica" font-size="17" textLength="320">azure_compute_virtual_machine_base</text><rect width="478" height="39.789" x="392" y="873.52" fill="#EEF7FF" rx="2.5" ry="2.5" style="stroke:#3d58d3;stroke-width:.5"/><circle cx="407" cy="893.414" r="11" fill="#ADD1B2" style="stroke:#181818;stroke-width:1"/><path d="M409.969 899.055q-.578.297-1.219.438-.64.156-1.344.156-2.5 0-3.828-1.64-1.312-1.657-1.312-4.782t1.312-4.781q1.328-1.657 3.828-1.657.703 0 1.344.157.656.156 1.219.453v2.719q-.625-.579-1.219-.844-.594-.281-1.219-.281-1.344 0-2.031 1.078-.687 1.062-.687 3.156t.687 3.172q.688 1.062 2.031 1.062.625 0 1.219-.265.594-.282 1.219-.86z"/><text x="426" y="899.3" font-family="Helvetica" font-size="17" textLength="436">azure_compute_virtual_machine_scale_set_instance</text><rect width="149" height="39.789" x="630.5" y="712.73" fill="#EEF7FF" rx="2.5" ry="2.5" style="stroke:#3d58d3;stroke-width:.5"/><circle cx="645.5" cy="732.625" r="11" fill="#ADD1B2" style="stroke:#181818;stroke-width:1"/><path d="M648.469 738.265q-.578.297-1.219.438-.64.156-1.344.156-2.5 0-3.828-1.64-1.312-1.657-1.312-4.782t1.312-4.781q1.328-1.656 3.828-1.656.703 0 1.344.156.656.156 1.219.453v2.719q-.625-.578-1.219-.844-.594-.281-1.219-.281-1.343 0-2.031 1.078-.687 1.062-.687 3.156t.687 3.172q.688 1.062 2.031 1.062.625 0 1.219-.265.594-.281 1.219-.86z"/><text x="664.5" y="738.51" font-family="Helvetica" font-size="17" textLength="107">gcp_instance</text><rect width="263" height="152.977" x="283.5" y="438.76" fill="#EEF7FF" rx="2.5" ry="2.5" style="stroke:#3d58d3;stroke-width:.5"/><circle cx="370.75" cy="458.654" r="11" fill="#ADD1B2" style="stroke:#181818;stroke-width:1"/><path d="M373.719 464.295q-.578.297-1.219.438-.64.156-1.344.156-2.5 0-3.828-1.64-1.312-1.657-1.312-4.782t1.312-4.781q1.328-1.656 3.828-1.656.703 0 1.344.156.656.156 1.219.453v2.719q-.625-.579-1.219-.844-.594-.281-1.219-.281-1.344 0-2.031 1.078-.687 1.062-.687 3.156t.687 3.172q.688 1.062 2.031 1.062.625 0 1.219-.265.594-.281 1.219-.86z"/><text x="396.25" y="464.54" font-family="Helvetica" font-size="17" textLength="70">instance</text><path d="M284.5 478.549h261" style="stroke:#3d58d3;stroke-width:.5"/><text x="294.5" y="500.544" font-family="sans-serif" font-size="14" font-weight="bold" textLength="119">instance_cores</text><text x="413.5" y="500.544" font-family="sans-serif" font-size="14" textLength="57">: double</text><text x="294.5" y="526.841" font-family="sans-serif" font-size="14" font-weight="bold" textLength="138">instance_memory</text><text x="432.5" y="526.841" font-family="sans-serif" font-size="14" textLength="57">: double</text><text x="294.5" y="553.138" font-family="sans-serif" font-size="14" font-weight="bold" textLength="123">instance_status</text><text x="417.5" y="553.138" font-family="sans-serif" font-size="14" textLength="118">: instance_status</text><text x="294.5" y="579.435" font-family="sans-serif" font-size="14" font-weight="bold" textLength="109">instance_type</text><text x="403.5" y="579.435" font-family="sans-serif" font-size="14" textLength="48">: string</text><rect width="227" height="310.758" x="301.5" y="7" fill="#EEF7FF" rx="2.5" ry="2.5" style="stroke:#3d58d3;stroke-width:.5"/><circle cx="370.25" cy="26.895" r="11" fill="#ADD1B2" style="stroke:#181818;stroke-width:1"/><path d="M373.219 32.535q-.578.297-1.219.438-.64.156-1.344.156-2.5 0-3.828-1.64-1.312-1.657-1.312-4.782t1.312-4.781q1.328-1.656 3.828-1.656.703 0 1.344.156.656.156 1.219.453v2.719q-.625-.578-1.219-.844-.594-.281-1.219-.281-1.344 0-2.031 1.078-.687 1.062-.687 3.156t.687 3.172q.688 1.062 2.031 1.062.625 0 1.219-.265.594-.281 1.219-.86z"/><text x="395.75" y="32.78" font-family="Helvetica" font-size="17" textLength="71">resource</text><path d="M302.5 46.789h225" style="stroke:#3d58d3;stroke-width:.5"/><text x="312.5" y="68.784" font-family="sans-serif" font-size="14" font-weight="bold" textLength="29">age</text><text x="341.5" y="68.784" font-family="sans-serif" font-size="14" textLength="66">: duration</text><text x="312.5" y="95.081" font-family="sans-serif" font-size="14" font-weight="bold" textLength="43">atime</text><text x="355.5" y="95.081" font-family="sans-serif" font-size="14" textLength="70">: datetime</text><text x="312.5" y="121.378" font-family="sans-serif" font-size="14" font-weight="bold" textLength="43">ctime</text><text x="355.5" y="121.378" font-family="sans-serif" font-size="14" textLength="70">: datetime</text><text x="312.5" y="147.675" font-family="sans-serif" font-size="14" font-weight="bold" textLength="14">id</text><text x="326.5" y="147.675" font-family="sans-serif" font-size="14" textLength="48">: string</text><text x="312.5" y="173.972" font-family="sans-serif" font-size="14" font-weight="bold" textLength="33">kind</text><text x="345.5" y="173.972" font-family="sans-serif" font-size="14" textLength="48">: string</text><text x="312.5" y="200.269" font-family="sans-serif" font-size="14" font-weight="bold" textLength="90">last_access</text><text x="402.5" y="200.269" font-family="sans-serif" font-size="14" textLength="66">: duration</text><text x="312.5" y="226.565" font-family="sans-serif" font-size="14" font-weight="bold" textLength="90">last_update</text><text x="402.5" y="226.565" font-family="sans-serif" font-size="14" textLength="66">: duration</text><text x="312.5" y="252.862" font-family="sans-serif" font-size="14" font-weight="bold" textLength="48">mtime</text><text x="360.5" y="252.862" font-family="sans-serif" font-size="14" textLength="70">: datetime</text><text x="312.5" y="279.159" font-family="sans-serif" font-size="14" font-weight="bold" textLength="43">name</text><text x="355.5" y="279.159" font-family="sans-serif" font-size="14" textLength="48">: string</text><text x="312.5" y="305.456" font-family="sans-serif" font-size="14" font-weight="bold" textLength="34">tags</text><text x="346.5" y="305.456" font-family="sans-serif" font-size="14" textLength="171">: dictionary[string, string]</text><path fill="none" d="M290.186 602.405C228.076 645.275 170.1 685.3 131.09 712.23M305 592.18l-18.222 5.287 6.816 9.876z" style="stroke:#111827;stroke-width:2"/><g fill="none"><path d="M374.447 763.44c-41.52 30.52-107.727 79.19-149.297 109.75" style="stroke:#111827;stroke-width:2"/><path d="m388.95 752.78-18.057 5.827 7.107 9.668z" style="stroke:#111827;stroke-width:2"/></g><path fill="none" d="M415 610.18v102.05m0-120.05-6 18h12z" style="stroke:#111827;stroke-width:2"/><g fill="none"><path d="M455.553 763.44c41.52 30.52 107.727 79.19 149.297 109.75" style="stroke:#111827;stroke-width:2"/><path d="M441.05 752.78 452 768.275l7.107-9.668z" style="stroke:#111827;stroke-width:2"/></g><g fill="none"><path d="M531.691 602.911c57.73 42.87 110.939 82.389 147.199 109.319" style="stroke:#111827;stroke-width:2"/><path d="m517.24 592.18 10.874 15.549 7.154-9.635z" style="stroke:#111827;stroke-width:2"/></g><path fill="none" d="M415 336.04v102.27m0-120.27-6 18h12z" style="stroke:#111827;stroke-width:2"/></svg>