<svg xmlns="http://www.w3.org/2000/svg" width="306" height="1074" viewBox="0 0 306 1074"><rect width="292" height="39.789" x="7" y="1028.3" fill="#EEF7FF" rx="2.5" ry="2.5" style="stroke:#3d58d3;stroke-width:.5"/><circle cx="22" cy="1048.195" r="11" fill="#ADD1B2" style="stroke:#181818;stroke-width:1"/><path d="M24.969 1053.835q-.578.297-1.219.438-.64.156-1.344.156-2.5 0-3.828-1.64-1.312-1.657-1.312-4.782t1.312-4.781q1.328-1.657 3.828-1.657.703 0 1.344.157.656.156 1.219.453v2.719q-.625-.578-1.219-.844-.594-.281-1.219-.281-1.343 0-2.031 1.078-.687 1.062-.687 3.156t.687 3.172q.688 1.062 2.031 1.062.625 0 1.219-.265.594-.282 1.219-.86z"/><text x="41" y="1054.08" font-family="Helvetica" font-size="17" textLength="250">aws_route53_resource_record</text><rect width="196" height="468.539" x="55" y="438.76" fill="#EEF7FF" rx="2.5" ry="2.5" style="stroke:#3d58d3;stroke-width:.5"/><circle cx="98.8" cy="458.654" r="11" fill="#ADD1B2" style="stroke:#181818;stroke-width:1"/><path d="M101.769 464.295q-.578.297-1.219.438-.64.156-1.344.156-2.5 0-3.828-1.64-1.312-1.657-1.312-4.782t1.312-4.781q1.328-1.656 3.828-1.656.703 0 1.344.156.656.156 1.219.453v2.719q-.625-.579-1.219-.844-.594-.281-1.219-.281-1.344 0-2.031 1.078-.687 1.062-.687 3.156t.687 3.172q.688 1.062 2.031 1.062.625 0 1.219-.265.594-.281 1.219-.86z"/><text x="124.2" y="464.54" font-family="Helvetica" font-size="17" textLength="90">dns_record</text><path d="M56 478.549h194" style="stroke:#3d58d3;stroke-width:.5"/><text x="66" y="500.544" font-family="sans-serif" font-size="14" font-weight="bold" textLength="94">record_data</text><text x="160" y="500.544" font-family="sans-serif" font-size="14" textLength="48">: string</text><text x="66" y="526.841" font-family="sans-serif" font-size="14" font-weight="bold" textLength="110">record_expire</text><text x="176" y="526.841" font-family="sans-serif" font-size="14" textLength="44">: int64</text><text x="66" y="553.138" font-family="sans-serif" font-size="14" font-weight="bold" textLength="98">record_flags</text><text x="164" y="553.138" font-family="sans-serif" font-size="14" textLength="44">: int64</text><text x="66" y="579.435" font-family="sans-serif" font-size="14" font-weight="bold" textLength="130">record_minimum</text><text x="196" y="579.435" font-family="sans-serif" font-size="14" textLength="44">: int64</text><text x="66" y="605.732" font-family="sans-serif" font-size="14" font-weight="bold" textLength="117">record_mname</text><text x="183" y="605.732" font-family="sans-serif" font-size="14" textLength="48">: string</text><text x="66" y="632.029" font-family="sans-serif" font-size="14" font-weight="bold" textLength="93">record_port</text><text x="159" y="632.029" font-family="sans-serif" font-size="14" textLength="44">: int64</text><text x="66" y="658.325" font-family="sans-serif" font-size="14" font-weight="bold" textLength="117">record_priority</text><text x="183" y="658.325" font-family="sans-serif" font-size="14" textLength="44">: int64</text><text x="66" y="684.622" font-family="sans-serif" font-size="14" font-weight="bold" textLength="119">record_refresh</text><text x="185" y="684.622" font-family="sans-serif" font-size="14" textLength="44">: int64</text><text x="66" y="710.919" font-family="sans-serif" font-size="14" font-weight="bold" textLength="99">record_retry</text><text x="165" y="710.919" font-family="sans-serif" font-size="14" textLength="44">: int64</text><text x="66" y="737.216" font-family="sans-serif" font-size="14" font-weight="bold" textLength="110">record_rname</text><text x="176" y="737.216" font-family="sans-serif" font-size="14" textLength="48">: string</text><text x="66" y="763.513" font-family="sans-serif" font-size="14" font-weight="bold" textLength="103">record_serial</text><text x="169" y="763.513" font-family="sans-serif" font-size="14" textLength="44">: int64</text><text x="66" y="789.81" font-family="sans-serif" font-size="14" font-weight="bold" textLength="85">record_tag</text><text x="151" y="789.81" font-family="sans-serif" font-size="14" textLength="48">: string</text><text x="66" y="816.107" font-family="sans-serif" font-size="14" font-weight="bold" textLength="76">record_ttl</text><text x="142" y="816.107" font-family="sans-serif" font-size="14" textLength="44">: int64</text><text x="66" y="842.404" font-family="sans-serif" font-size="14" font-weight="bold" textLength="95">record_type</text><text x="161" y="842.404" font-family="sans-serif" font-size="14" textLength="48">: string</text><text x="66" y="868.7" font-family="sans-serif" font-size="14" font-weight="bold" textLength="102">record_value</text><text x="168" y="868.7" font-family="sans-serif" font-size="14" textLength="48">: string</text><text x="66" y="894.997" font-family="sans-serif" font-size="14" font-weight="bold" textLength="114">record_weight</text><text x="180" y="894.997" font-family="sans-serif" font-size="14" textLength="44">: int64</text><rect width="227" height="310.758" x="39.5" y="7" fill="#EEF7FF" rx="2.5" ry="2.5" style="stroke:#3d58d3;stroke-width:.5"/><circle cx="108.25" cy="26.895" r="11" fill="#ADD1B2" style="stroke:#181818;stroke-width:1"/><path d="M111.219 32.535q-.578.297-1.219.438-.64.156-1.344.156-2.5 0-3.828-1.64-1.312-1.657-1.312-4.782t1.312-4.781q1.328-1.656 3.828-1.656.703 0 1.344.156.656.156 1.219.453v2.719q-.625-.578-1.219-.844-.594-.281-1.219-.281-1.344 0-2.031 1.078-.687 1.062-.687 3.156t.687 3.172q.688 1.062 2.031 1.062.625 0 1.219-.265.594-.281 1.219-.86z"/><text x="133.75" y="32.78" font-family="Helvetica" font-size="17" textLength="71">resource</text><path d="M40.5 46.789h225" style="stroke:#3d58d3;stroke-width:.5"/><text x="50.5" y="68.784" font-family="sans-serif" font-size="14" font-weight="bold" textLength="29">age</text><text x="79.5" y="68.784" font-family="sans-serif" font-size="14" textLength="66">: duration</text><text x="50.5" y="95.081" font-family="sans-serif" font-size="14" font-weight="bold" textLength="43">atime</text><text x="93.5" y="95.081" font-family="sans-serif" font-size="14" textLength="70">: datetime</text><text x="50.5" y="121.378" font-family="sans-serif" font-size="14" font-weight="bold" textLength="43">ctime</text><text x="93.5" y="121.378" font-family="sans-serif" font-size="14" textLength="70">: datetime</text><text x="50.5" y="147.675" font-family="sans-serif" font-size="14" font-weight="bold" textLength="14">id</text><text x="64.5" y="147.675" font-family="sans-serif" font-size="14" textLength="48">: string</text><text x="50.5" y="173.972" font-family="sans-serif" font-size="14" font-weight="bold" textLength="33">kind</text><text x="83.5" y="173.972" font-family="sans-serif" font-size="14" textLength="48">: string</text><text x="50.5" y="200.269" font-family="sans-serif" font-size="14" font-weight="bold" textLength="90">last_access</text><text x="140.5" y="200.269" font-family="sans-serif" font-size="14" textLength="66">: duration</text><text x="50.5" y="226.565" font-family="sans-serif" font-size="14" font-weight="bold" textLength="90">last_update</text><text x="140.5" y="226.565" font-family="sans-serif" font-size="14" textLength="66">: duration</text><text x="50.5" y="252.862" font-family="sans-serif" font-size="14" font-weight="bold" textLength="48">mtime</text><text x="98.5" y="252.862" font-family="sans-serif" font-size="14" textLength="70">: datetime</text><text x="50.5" y="279.159" font-family="sans-serif" font-size="14" font-weight="bold" textLength="43">name</text><text x="93.5" y="279.159" font-family="sans-serif" font-size="14" textLength="48">: string</text><text x="50.5" y="305.456" font-family="sans-serif" font-size="14" font-weight="bold" textLength="34">tags</text><text x="84.5" y="305.456" font-family="sans-serif" font-size="14" textLength="171">: dictionary[string, string]</text><path fill="none" d="M153 925.71v102.18m0-120.18-6 18h12zm0-571.64v102.32m0-120.32-6 18h12z" style="stroke:#111827;stroke-width:2"/></svg>