<svg xmlns="http://www.w3.org/2000/svg" width="883" height="919" viewBox="0 0 883 919"><rect width="137" height="39.789" x="7" y="873.52" fill="#EEF7FF" rx="2.5" ry="2.5" style="stroke:#3d58d3;stroke-width:.5"/><circle cx="22" cy="893.414" r="11" fill="#ADD1B2" style="stroke:#181818;stroke-width:1"/><path d="M24.969 899.055q-.578.297-1.219.438-.64.156-1.344.156-2.5 0-3.828-1.64-1.312-1.657-1.312-4.782t1.312-4.781q1.328-1.657 3.828-1.657.703 0 1.344.157.656.156 1.219.453v2.719q-.625-.579-1.219-.844-.594-.281-1.219-.281-1.343 0-2.031 1.078-.687 1.062-.687 3.156t.687 3.172q.688 1.062 2.031 1.062.625 0 1.219-.265.594-.282 1.219-.86z"/><text x="41" y="899.3" font-family="Helvetica" font-size="17" textLength="95">aws_region</text><rect width="163" height="39.789" x="179" y="873.52" fill="#EEF7FF" rx="2.5" ry="2.5" style="stroke:#3d58d3;stroke-width:.5"/><circle cx="194" cy="893.414" r="11" fill="#ADD1B2" style="stroke:#181818;stroke-width:1"/><path d="M196.969 899.055q-.578.297-1.219.438-.64.156-1.344.156-2.5 0-3.828-1.64-1.312-1.657-1.312-4.782t1.312-4.781q1.328-1.657 3.828-1.657.703 0 1.344.157.656.156 1.219.453v2.719q-.625-.579-1.219-.844-.594-.281-1.219-.281-1.344 0-2.031 1.078-.687 1.062-.687 3.156t.687 3.172q.688 1.062 2.031 1.062.625 0 1.219-.265.594-.282 1.219-.86z"/><text x="213" y="899.3" font-family="Helvetica" font-size="17" textLength="121">azure_location</text><rect width="132" height="39.789" x="376.5" y="873.52" fill="#EEF7FF" rx="2.5" ry="2.5" style="stroke:#3d58d3;stroke-width:.5"/><circle cx="391.5" cy="893.414" r="11" fill="#ADD1B2" style="stroke:#181818;stroke-width:1"/><path d="M394.469 899.055q-.578.297-1.219.438-.64.156-1.344.156-2.5 0-3.828-1.64-1.312-1.657-1.312-4.782t1.312-4.781q1.328-1.657 3.828-1.657.703 0 1.344.157.656.156 1.219.453v2.719q-.625-.579-1.219-.844-.594-.281-1.219-.281-1.344 0-2.031 1.078-.687 1.062-.687 3.156t.687 3.172q.688 1.062 2.031 1.062.625 0 1.219-.265.594-.282 1.219-.86z"/><text x="410.5" y="899.3" font-family="Helvetica" font-size="17" textLength="90">gcp_region</text><rect width="333" height="39.789" x="543" y="873.52" fill="#EEF7FF" rx="2.5" ry="2.5" style="stroke:#3d58d3;stroke-width:.5"/><circle cx="558" cy="893.414" r="11" fill="#ADD1B2" style="stroke:#181818;stroke-width:1"/><path d="M560.969 899.055q-.578.297-1.219.438-.64.156-1.344.156-2.5 0-3.828-1.64-1.312-1.657-1.312-4.782t1.312-4.781q1.328-1.657 3.828-1.657.703 0 1.344.157.656.156 1.219.453v2.719q-.625-.579-1.219-.844-.594-.281-1.219-.281-1.343 0-2.031 1.078-.687 1.062-.687 3.156t.687 3.172q.688 1.062 2.031 1.062.625 0 1.219-.265.594-.282 1.219-.86z"/><text x="577" y="899.3" font-family="Helvetica" font-size="17" textLength="291">microsoft_graph_organization_root</text><rect width="198" height="39.789" x="252.5" y="438.76" fill="#EEF7FF" rx="2.5" ry="2.5" style="stroke:#3d58d3;stroke-width:.5"/><circle cx="267.5" cy="458.654" r="11" fill="#ADD1B2" style="stroke:#181818;stroke-width:1"/><path d="M270.469 464.295q-.578.297-1.219.438-.64.156-1.344.156-2.5 0-3.828-1.64-1.312-1.657-1.312-4.782t1.312-4.781q1.328-1.656 3.828-1.656.703 0 1.344.156.656.156 1.219.453v2.719q-.625-.579-1.219-.844-.594-.281-1.219-.281-1.344 0-2.031 1.078-.687 1.062-.687 3.156t.687 3.172q.688 1.062 2.031 1.062.625 0 1.219-.265.594-.281 1.219-.86z"/><text x="286.5" y="464.54" font-family="Helvetica" font-size="17" textLength="156">phantom_resource</text><rect width="195" height="152.977" x="254" y="599.54" fill="#EEF7FF" rx="2.5" ry="2.5" style="stroke:#3d58d3;stroke-width:.5"/><circle cx="315.75" cy="619.434" r="11" fill="#ADD1B2" style="stroke:#181818;stroke-width:1"/><path d="M318.719 625.075q-.578.297-1.219.438-.64.156-1.344.156-2.5 0-3.828-1.64-1.312-1.657-1.312-4.782t1.312-4.781q1.328-1.657 3.828-1.657.703 0 1.344.157.656.156 1.219.453v2.719q-.625-.579-1.219-.844-.594-.281-1.219-.281-1.344 0-2.031 1.078-.687 1.062-.687 3.156t.687 3.172q.688 1.062 2.031 1.062.625 0 1.219-.265.594-.282 1.219-.86z"/><text x="341.25" y="625.32" font-family="Helvetica" font-size="17" textLength="53">region</text><path d="M255 639.329h193" style="stroke:#3d58d3;stroke-width:.5"/><text x="265" y="661.324" font-family="sans-serif" font-size="14" font-weight="bold" textLength="59">latitude</text><text x="324" y="661.324" font-family="sans-serif" font-size="14" textLength="57">: double</text><text x="265" y="687.621" font-family="sans-serif" font-size="14" font-weight="bold" textLength="84">long_name</text><text x="349" y="687.621" font-family="sans-serif" font-size="14" textLength="48">: string</text><text x="265" y="713.918" font-family="sans-serif" font-size="14" font-weight="bold" textLength="74">longitude</text><text x="339" y="713.918" font-family="sans-serif" font-size="14" textLength="57">: double</text><text x="265" y="740.215" font-family="sans-serif" font-size="14" font-weight="bold" textLength="108">region_in_use</text><text x="373" y="740.215" font-family="sans-serif" font-size="14" textLength="65">: boolean</text><rect width="227" height="310.758" x="238" y="7" fill="#EEF7FF" rx="2.5" ry="2.5" style="stroke:#3d58d3;stroke-width:.5"/><circle cx="306.75" cy="26.895" r="11" fill="#ADD1B2" style="stroke:#181818;stroke-width:1"/><path d="M309.719 32.535q-.578.297-1.219.438-.64.156-1.344.156-2.5 0-3.828-1.64-1.312-1.657-1.312-4.782t1.312-4.781q1.328-1.656 3.828-1.656.703 0 1.344.156.656.156 1.219.453v2.719q-.625-.578-1.219-.844-.594-.281-1.219-.281-1.344 0-2.031 1.078-.687 1.062-.687 3.156t.687 3.172q.688 1.062 2.031 1.062.625 0 1.219-.265.594-.281 1.219-.86z"/><text x="332.25" y="32.78" font-family="Helvetica" font-size="17" textLength="71">resource</text><path d="M239 46.789h225" style="stroke:#3d58d3;stroke-width:.5"/><text x="249" y="68.784" font-family="sans-serif" font-size="14" font-weight="bold" textLength="29">age</text><text x="278" y="68.784" font-family="sans-serif" font-size="14" textLength="66">: duration</text><text x="249" y="95.081" font-family="sans-serif" font-size="14" font-weight="bold" textLength="43">atime</text><text x="292" y="95.081" font-family="sans-serif" font-size="14" textLength="70">: datetime</text><text x="249" y="121.378" font-family="sans-serif" font-size="14" font-weight="bold" textLength="43">ctime</text><text x="292" y="121.378" font-family="sans-serif" font-size="14" textLength="70">: datetime</text><text x="249" y="147.675" font-family="sans-serif" font-size="14" font-weight="bold" textLength="14">id</text><text x="263" y="147.675" font-family="sans-serif" font-size="14" textLength="48">: string</text><text x="249" y="173.972" font-family="sans-serif" font-size="14" font-weight="bold" textLength="33">kind</text><text x="282" y="173.972" font-family="sans-serif" font-size="14" textLength="48">: string</text><text x="249" y="200.269" font-family="sans-serif" font-size="14" font-weight="bold" textLength="90">last_access</text><text x="339" y="200.269" font-family="sans-serif" font-size="14" textLength="66">: duration</text><text x="249" y="226.565" font-family="sans-serif" font-size="14" font-weight="bold" textLength="90">last_update</text><text x="339" y="226.565" font-family="sans-serif" font-size="14" textLength="66">: duration</text><text x="249" y="252.862" font-family="sans-serif" font-size="14" font-weight="bold" textLength="48">mtime</text><text x="297" y="252.862" font-family="sans-serif" font-size="14" textLength="70">: datetime</text><text x="249" y="279.159" font-family="sans-serif" font-size="14" font-weight="bold" textLength="43">name</text><text x="292" y="279.159" font-family="sans-serif" font-size="14" textLength="48">: string</text><text x="249" y="305.456" font-family="sans-serif" font-size="14" font-weight="bold" textLength="34">tags</text><text x="283" y="305.456" font-family="sans-serif" font-size="14" textLength="171">: dictionary[string, string]</text><g fill="none"><path d="M240 764.043c-54.94 42.87-105.14 82.047-139.65 108.977" style="stroke:#111827;stroke-width:2"/><path d="m254.19 752.97-17.882 6.343 7.382 9.46z" style="stroke:#111827;stroke-width:2"/></g><path fill="none" d="M312.412 769.55c-18.12 42.87-32.342 76.54-43.722 103.47m50.73-120.05-12.534 14.244 11.053 4.672zm71.168 16.58c18.12 42.87 32.342 76.54 43.722 103.47m-50.73-120.05 1.481 18.916 11.053-4.672zm81.174-7.8C540.934 791 626.59 842.53 677.41 873.11M449.33 735.89l12.33 14.42 6.187-10.282zM351.5 335.84v102.83m0-120.83-6 18h12zm0 178.92v102.39m0-120.39-6 18h12z" style="stroke:#111827;stroke-width:2"/></svg>