<svg xmlns="http://www.w3.org/2000/svg" width="1998" height="890" viewBox="0 0 1998 890"><rect width="174" height="39.789" x="7" y="844.22" fill="#EEF7FF" rx="2.5" ry="2.5" style="stroke:#3d58d3;stroke-width:.5"/><circle cx="22" cy="864.115" r="11" fill="#ADD1B2" style="stroke:#181818;stroke-width:1"/><path d="M24.969 869.755q-.578.297-1.219.438-.64.156-1.344.156-2.5 0-3.828-1.64-1.312-1.657-1.312-4.782t1.312-4.781q1.328-1.656 3.828-1.656.703 0 1.344.156.656.156 1.219.453v2.719q-.625-.578-1.219-.844-.594-.281-1.219-.281-1.343 0-2.031 1.078-.687 1.062-.687 3.156t.687 3.172q.688 1.062 2.031 1.062.625 0 1.219-.265.594-.281 1.219-.86z"/><text x="41" y="870" font-family="Helvetica" font-size="17" textLength="132">aws_rds_cluster</text><rect width="188" height="39.789" x="216" y="844.22" fill="#EEF7FF" rx="2.5" ry="2.5" style="stroke:#3d58d3;stroke-width:.5"/><circle cx="231" cy="864.115" r="11" fill="#ADD1B2" style="stroke:#181818;stroke-width:1"/><path d="M233.969 869.755q-.578.297-1.219.438-.64.156-1.344.156-2.5 0-3.828-1.64-1.312-1.657-1.312-4.782t1.312-4.781q1.328-1.656 3.828-1.656.703 0 1.344.156.656.156 1.219.453v2.719q-.625-.578-1.219-.844-.594-.281-1.219-.281-1.344 0-2.031 1.078-.687 1.062-.687 3.156t.687 3.172q.688 1.062 2.031 1.062.625 0 1.219-.265.594-.281 1.219-.86z"/><text x="250" y="870" font-family="Helvetica" font-size="17" textLength="146">aws_rds_instance</text><rect width="208" height="39.789" x="439" y="844.22" fill="#EEF7FF" rx="2.5" ry="2.5" style="stroke:#3d58d3;stroke-width:.5"/><circle cx="454" cy="864.115" r="11" fill="#ADD1B2" style="stroke:#181818;stroke-width:1"/><path d="M456.969 869.755q-.578.297-1.219.438-.64.156-1.344.156-2.5 0-3.828-1.64-1.312-1.657-1.312-4.782t1.312-4.781q1.328-1.656 3.828-1.656.703 0 1.344.156.656.156 1.219.453v2.719q-.625-.578-1.219-.844-.594-.281-1.219-.281-1.344 0-2.031 1.078-.687 1.062-.687 3.156t.687 3.172q.688 1.062 2.031 1.062.625 0 1.219-.265.594-.281 1.219-.86z"/><text x="473" y="870" font-family="Helvetica" font-size="17" textLength="166">azure_mysql_server</text><rect width="243" height="39.789" x="682.5" y="844.22" fill="#EEF7FF" rx="2.5" ry="2.5" style="stroke:#3d58d3;stroke-width:.5"/><circle cx="697.5" cy="864.115" r="11" fill="#ADD1B2" style="stroke:#181818;stroke-width:1"/><path d="M700.469 869.755q-.578.297-1.219.438-.64.156-1.344.156-2.5 0-3.828-1.64-1.312-1.657-1.312-4.782t1.312-4.781q1.328-1.656 3.828-1.656.703 0 1.344.156.656.156 1.219.453v2.719q-.625-.578-1.219-.844-.594-.281-1.219-.281-1.343 0-2.031 1.078-.687 1.062-.687 3.156t.687 3.172q.688 1.062 2.031 1.062.625 0 1.219-.265.594-.281 1.219-.86z"/><text x="716.5" y="870" font-family="Helvetica" font-size="17" textLength="201">azure_postgresql_server</text><rect width="265" height="39.789" x="960.5" y="844.22" fill="#EEF7FF" rx="2.5" ry="2.5" style="stroke:#3d58d3;stroke-width:.5"/><circle cx="975.5" cy="864.115" r="11" fill="#ADD1B2" style="stroke:#181818;stroke-width:1"/><path d="M978.469 869.755q-.578.297-1.219.438-.64.156-1.344.156-2.5 0-3.828-1.64-1.312-1.657-1.312-4.782t1.312-4.781q1.328-1.656 3.828-1.656.703 0 1.344.156.656.156 1.219.453v2.719q-.625-.578-1.219-.844-.594-.281-1.219-.281-1.343 0-2.031 1.078-.687 1.062-.687 3.156t.687 3.172q.688 1.062 2.031 1.062.625 0 1.219-.265.594-.281 1.219-.86z"/><text x="994.5" y="870" font-family="Helvetica" font-size="17" textLength="223">azure_sql_server_database</text><rect width="431" height="39.789" x="1260.5" y="844.22" fill="#EEF7FF" rx="2.5" ry="2.5" style="stroke:#3d58d3;stroke-width:.5"/><circle cx="1275.5" cy="864.115" r="11" fill="#ADD1B2" style="stroke:#181818;stroke-width:1"/><path d="M1278.469 869.755q-.578.297-1.219.438-.64.156-1.344.156-2.5 0-3.828-1.64-1.312-1.657-1.312-4.782t1.312-4.781q1.328-1.656 3.828-1.656.703 0 1.344.156.656.156 1.219.453v2.719q-.625-.578-1.219-.844-.594-.281-1.219-.281-1.343 0-2.031 1.078-.687 1.062-.687 3.156t.687 3.172q.688 1.062 2.031 1.062.625 0 1.219-.265.594-.281 1.219-.86z"/><text x="1294.5" y="870" font-family="Helvetica" font-size="17" textLength="389">azure_sql_server_managed_instance_database</text><rect width="287" height="284.461" x="660.5" y="438.76" fill="#EEF7FF" rx="2.5" ry="2.5" style="stroke:#3d58d3;stroke-width:.5"/><circle cx="757.25" cy="458.654" r="11" fill="#ADD1B2" style="stroke:#181818;stroke-width:1"/><path d="M760.219 464.295q-.578.297-1.219.438-.64.156-1.344.156-2.5 0-3.828-1.64-1.312-1.657-1.312-4.782t1.312-4.781q1.328-1.656 3.828-1.656.703 0 1.344.156.656.156 1.219.453v2.719q-.625-.579-1.219-.844-.594-.281-1.219-.281-1.343 0-2.031 1.078-.687 1.062-.687 3.156t.687 3.172q.688 1.062 2.031 1.062.625 0 1.219-.265.594-.281 1.219-.86z"/><text x="782.75" y="464.54" font-family="Helvetica" font-size="17" textLength="75">database</text><path d="M661.5 478.549h285" style="stroke:#3d58d3;stroke-width:.5"/><text x="671.5" y="500.544" font-family="sans-serif" font-size="14" font-weight="bold" textLength="97">db_endpoint</text><text x="768.5" y="500.544" font-family="sans-serif" font-size="14" textLength="48">: string</text><text x="671.5" y="526.841" font-family="sans-serif" font-size="14" font-weight="bold" textLength="177">db_publicly_accessible</text><text x="848.5" y="526.841" font-family="sans-serif" font-size="14" textLength="65">: boolean</text><text x="671.5" y="553.138" font-family="sans-serif" font-size="14" font-weight="bold" textLength="76">db_status</text><text x="747.5" y="553.138" font-family="sans-serif" font-size="14" textLength="189">: database_instance_status</text><text x="671.5" y="579.435" font-family="sans-serif" font-size="14" font-weight="bold" textLength="62">db_type</text><text x="733.5" y="579.435" font-family="sans-serif" font-size="14" textLength="48">: string</text><text x="671.5" y="605.732" font-family="sans-serif" font-size="14" font-weight="bold" textLength="86">db_version</text><text x="757.5" y="605.732" font-family="sans-serif" font-size="14" textLength="48">: string</text><text x="671.5" y="632.029" font-family="sans-serif" font-size="14" font-weight="bold" textLength="109">instance_type</text><text x="780.5" y="632.029" font-family="sans-serif" font-size="14" textLength="48">: string</text><text x="671.5" y="658.325" font-family="sans-serif" font-size="14" font-weight="bold" textLength="145">volume_encrypted</text><text x="816.5" y="658.325" font-family="sans-serif" font-size="14" textLength="65">: boolean</text><text x="671.5" y="684.622" font-family="sans-serif" font-size="14" font-weight="bold" textLength="97">volume_iops</text><text x="768.5" y="684.622" font-family="sans-serif" font-size="14" textLength="44">: int64</text><text x="671.5" y="710.919" font-family="sans-serif" font-size="14" font-weight="bold" textLength="96">volume_size</text><text x="767.5" y="710.919" font-family="sans-serif" font-size="14" textLength="44">: int64</text><rect width="265" height="39.789" x="1726.5" y="844.22" fill="#EEF7FF" rx="2.5" ry="2.5" style="stroke:#3d58d3;stroke-width:.5"/><circle cx="1741.5" cy="864.115" r="11" fill="#ADD1B2" style="stroke:#181818;stroke-width:1"/><path d="M1744.469 869.755q-.578.297-1.219.438-.64.156-1.344.156-2.5 0-3.828-1.64-1.312-1.657-1.312-4.782t1.312-4.781q1.328-1.656 3.828-1.656.703 0 1.344.156.656.156 1.219.453v2.719q-.625-.578-1.219-.844-.594-.281-1.219-.281-1.343 0-2.031 1.078-.687 1.062-.687 3.156t.687 3.172q.688 1.062 2.031 1.062.625 0 1.219-.265.594-.281 1.219-.86z"/><text x="1760.5" y="870" font-family="Helvetica" font-size="17" textLength="223">gcp_sql_database_instance</text><rect width="227" height="310.758" x="690.5" y="7" fill="#EEF7FF" rx="2.5" ry="2.5" style="stroke:#3d58d3;stroke-width:.5"/><circle cx="759.25" cy="26.895" r="11" fill="#ADD1B2" style="stroke:#181818;stroke-width:1"/><path d="M762.219 32.535q-.578.297-1.219.438-.64.156-1.344.156-2.5 0-3.828-1.64-1.312-1.657-1.312-4.782t1.312-4.781q1.328-1.656 3.828-1.656.703 0 1.344.156.656.156 1.219.453v2.719q-.625-.578-1.219-.844-.594-.281-1.219-.281-1.343 0-2.031 1.078-.687 1.062-.687 3.156t.687 3.172q.688 1.062 2.031 1.062.625 0 1.219-.265.594-.281 1.219-.86z"/><text x="784.75" y="32.78" font-family="Helvetica" font-size="17" textLength="71">resource</text><path d="M691.5 46.789h225" style="stroke:#3d58d3;stroke-width:.5"/><text x="701.5" y="68.784" font-family="sans-serif" font-size="14" font-weight="bold" textLength="29">age</text><text x="730.5" y="68.784" font-family="sans-serif" font-size="14" textLength="66">: duration</text><text x="701.5" y="95.081" font-family="sans-serif" font-size="14" font-weight="bold" textLength="43">atime</text><text x="744.5" y="95.081" font-family="sans-serif" font-size="14" textLength="70">: datetime</text><text x="701.5" y="121.378" font-family="sans-serif" font-size="14" font-weight="bold" textLength="43">ctime</text><text x="744.5" y="121.378" font-family="sans-serif" font-size="14" textLength="70">: datetime</text><text x="701.5" y="147.675" font-family="sans-serif" font-size="14" font-weight="bold" textLength="14">id</text><text x="715.5" y="147.675" font-family="sans-serif" font-size="14" textLength="48">: string</text><text x="701.5" y="173.972" font-family="sans-serif" font-size="14" font-weight="bold" textLength="33">kind</text><text x="734.5" y="173.972" font-family="sans-serif" font-size="14" textLength="48">: string</text><text x="701.5" y="200.269" font-family="sans-serif" font-size="14" font-weight="bold" textLength="90">last_access</text><text x="791.5" y="200.269" font-family="sans-serif" font-size="14" textLength="66">: duration</text><text x="701.5" y="226.565" font-family="sans-serif" font-size="14" font-weight="bold" textLength="90">last_update</text><text x="791.5" y="226.565" font-family="sans-serif" font-size="14" textLength="66">: duration</text><text x="701.5" y="252.862" font-family="sans-serif" font-size="14" font-weight="bold" textLength="48">mtime</text><text x="749.5" y="252.862" font-family="sans-serif" font-size="14" textLength="70">: datetime</text><text x="701.5" y="279.159" font-family="sans-serif" font-size="14" font-weight="bold" textLength="43">name</text><text x="744.5" y="279.159" font-family="sans-serif" font-size="14" textLength="48">: string</text><text x="701.5" y="305.456" font-family="sans-serif" font-size="14" font-weight="bold" textLength="34">tags</text><text x="735.5" y="305.456" font-family="sans-serif" font-size="14" textLength="171">: dictionary[string, string]</text><g fill="none"><path d="M643.584 645.506C482.924 709.116 248.2 802.06 142.93 843.74" style="stroke:#111827;stroke-width:2"/><path d="m660.32 638.88-18.945 1.048 4.418 11.157z" style="stroke:#111827;stroke-width:2"/></g><g fill="none"><path d="M644.476 672.773C534.816 735.183 407.75 807.49 343.7 843.94" style="stroke:#111827;stroke-width:2"/><path d="m660.12 663.87-18.612 3.689 5.936 10.429z" style="stroke:#111827;stroke-width:2"/></g><g fill="none"><path d="M660.492 736.57c-44.18 47.58-75.992 81.84-99.682 107.36" style="stroke:#111827;stroke-width:2"/><path d="m672.74 723.38-16.645 9.108 8.794 8.165z" style="stroke:#111827;stroke-width:2"/></g><path fill="none" d="M804 741.38v102.55m0-120.55-6 18h12zm156.554 10.9c49.59 48.23 86.396 84.04 112.896 109.81m-125.8-122.36 8.72 16.851 8.367-8.602zm16.706-72.653c152.3 63.71 367.404 153.693 465.354 194.673M947.75 642.13l14.29 12.482 4.631-11.07zM804 336.21V438.3m0-120.09-6 18h12zm161.323 306.765c228.51 60.89 648.657 172.855 821.177 218.825M947.93 620.34l15.848 10.432 3.09-11.595z" style="stroke:#111827;stroke-width:2"/></svg>