<svg xmlns="http://www.w3.org/2000/svg" width="1462" height="1127" viewBox="0 0 1462 1127"><rect width="238" height="39.789" x="7" y="1081.91" fill="#EEF7FF" rx="2.5" ry="2.5" style="stroke:#3d58d3;stroke-width:.5"/><circle cx="22" cy="1101.804" r="11" fill="#ADD1B2" style="stroke:#181818;stroke-width:1"/><path d="M24.969 1107.445q-.578.297-1.219.438-.64.156-1.344.156-2.5 0-3.828-1.64-1.312-1.657-1.312-4.782t1.312-4.781q1.328-1.657 3.828-1.657.703 0 1.344.157.656.156 1.219.453v2.719q-.625-.579-1.219-.844-.594-.281-1.219-.281-1.343 0-2.031 1.078-.687 1.062-.687 3.156t.687 3.172q.688 1.062 2.031 1.062.625 0 1.219-.265.594-.282 1.219-.86z"/><text x="41" y="1107.69" font-family="Helvetica" font-size="17" textLength="196">aws_ec2_instance_type</text><rect width="231" height="39.789" x="820.5" y="1081.91" fill="#EEF7FF" rx="2.5" ry="2.5" style="stroke:#3d58d3;stroke-width:.5"/><circle cx="835.5" cy="1101.804" r="11" fill="#ADD1B2" style="stroke:#181818;stroke-width:1"/><path d="M838.469 1107.445q-.578.297-1.219.438-.64.156-1.344.156-2.5 0-3.828-1.64-1.312-1.657-1.312-4.782t1.312-4.781q1.328-1.657 3.828-1.657.703 0 1.344.157.656.156 1.219.453v2.719q-.625-.579-1.219-.844-.594-.281-1.219-.281-1.343 0-2.031 1.078-.687 1.062-.687 3.156t.687 3.172q.688 1.062 2.031 1.062.625 0 1.219-.265.594-.282 1.219-.86z"/><text x="854.5" y="1107.69" font-family="Helvetica" font-size="17" textLength="189">aws_ec2_volume_type</text><rect width="176" height="39.789" x="1086" y="1081.91" fill="#EEF7FF" rx="2.5" ry="2.5" style="stroke:#3d58d3;stroke-width:.5"/><circle cx="1101" cy="1101.804" r="11" fill="#ADD1B2" style="stroke:#181818;stroke-width:1"/><path d="M1103.969 1107.445q-.578.297-1.219.438-.64.156-1.344.156-2.5 0-3.828-1.64-1.312-1.657-1.312-4.782t1.312-4.781q1.328-1.657 3.828-1.657.703 0 1.344.157.656.156 1.219.453v2.719q-.625-.579-1.219-.844-.594-.281-1.219-.281-1.343 0-2.031 1.078-.687 1.062-.687 3.156t.687 3.172q.688 1.062 2.031 1.062.625 0 1.219-.265.594-.282 1.219-.86z"/><text x="1120" y="1107.69" font-family="Helvetica" font-size="17" textLength="134">azure_disk_type</text><rect width="273" height="39.789" x="280.5" y="1081.91" fill="#EEF7FF" rx="2.5" ry="2.5" style="stroke:#3d58d3;stroke-width:.5"/><circle cx="295.5" cy="1101.804" r="11" fill="#ADD1B2" style="stroke:#181818;stroke-width:1"/><path d="M298.469 1107.445q-.578.297-1.219.438-.64.156-1.344.156-2.5 0-3.828-1.64-1.312-1.657-1.312-4.782t1.312-4.781q1.328-1.657 3.828-1.657.703 0 1.344.157.656.156 1.219.453v2.719q-.625-.579-1.219-.844-.594-.281-1.219-.281-1.344 0-2.031 1.078-.687 1.062-.687 3.156t.687 3.172q.688 1.062 2.031 1.062.625 0 1.219-.265.594-.282 1.219-.86z"/><text x="314.5" y="1107.69" font-family="Helvetica" font-size="17" textLength="231">azure_virtual_machine_size</text><rect width="158" height="39.789" x="1297" y="1081.91" fill="#EEF7FF" rx="2.5" ry="2.5" style="stroke:#3d58d3;stroke-width:.5"/><circle cx="1312" cy="1101.804" r="11" fill="#ADD1B2" style="stroke:#181818;stroke-width:1"/><path d="M1314.969 1107.445q-.578.297-1.219.438-.64.156-1.344.156-2.5 0-3.828-1.64-1.312-1.657-1.312-4.782t1.312-4.781q1.328-1.657 3.828-1.657.703 0 1.344.157.656.156 1.219.453v2.719q-.625-.579-1.219-.844-.594-.281-1.219-.281-1.343 0-2.031 1.078-.687 1.062-.687 3.156t.687 3.172q.688 1.062 2.031 1.062.625 0 1.219-.265.594-.282 1.219-.86z"/><text x="1331" y="1107.69" font-family="Helvetica" font-size="17" textLength="116">gcp_disk_type</text><rect width="197" height="39.789" x="588.5" y="1081.91" fill="#EEF7FF" rx="2.5" ry="2.5" style="stroke:#3d58d3;stroke-width:.5"/><circle cx="603.5" cy="1101.804" r="11" fill="#ADD1B2" style="stroke:#181818;stroke-width:1"/><path d="M606.469 1107.445q-.578.297-1.219.438-.64.156-1.344.156-2.5 0-3.828-1.64-1.312-1.657-1.312-4.782t1.312-4.781q1.328-1.657 3.828-1.657.703 0 1.344.157.656.156 1.219.453v2.719q-.625-.579-1.219-.844-.594-.281-1.219-.281-1.343 0-2.031 1.078-.687 1.062-.687 3.156t.687 3.172q.688 1.062 2.031 1.062.625 0 1.219-.265.594-.282 1.219-.86z"/><text x="622.5" y="1107.69" font-family="Helvetica" font-size="17" textLength="155">gcp_machine_type</text><rect width="158" height="39.789" x="473" y="921.12" fill="#EEF7FF" rx="2.5" ry="2.5" style="stroke:#3d58d3;stroke-width:.5"/><circle cx="488" cy="941.014" r="11" fill="#ADD1B2" style="stroke:#181818;stroke-width:1"/><path d="M490.969 946.655q-.578.297-1.219.438-.64.156-1.344.156-2.5 0-3.828-1.64-1.312-1.657-1.312-4.782t1.312-4.781q1.328-1.657 3.828-1.657.703 0 1.344.157.656.156 1.219.453v2.719q-.625-.578-1.219-.844-.594-.281-1.219-.281-1.344 0-2.031 1.078-.687 1.062-.687 3.156t.687 3.172q.688 1.062 2.031 1.062.625 0 1.219-.265.594-.282 1.219-.86z"/><text x="507" y="946.9" font-family="Helvetica" font-size="17" textLength="116">instance_type</text><rect width="198" height="39.789" x="577" y="438.75" fill="#EEF7FF" rx="2.5" ry="2.5" style="stroke:#3d58d3;stroke-width:.5"/><circle cx="592" cy="458.644" r="11" fill="#ADD1B2" style="stroke:#181818;stroke-width:1"/><path d="M594.969 464.285q-.578.297-1.219.438-.64.156-1.344.156-2.5 0-3.828-1.64-1.312-1.657-1.312-4.782t1.312-4.781q1.328-1.656 3.828-1.656.703 0 1.344.156.656.156 1.219.453v2.719q-.625-.579-1.219-.844-.594-.281-1.219-.281-1.343 0-2.031 1.078-.687 1.062-.687 3.156t.687 3.172q.688 1.062 2.031 1.062.625 0 1.219-.265.594-.281 1.219-.86z"/><text x="611" y="464.53" font-family="Helvetica" font-size="17" textLength="156">phantom_resource</text><rect width="90" height="39.789" x="631" y="599.54" fill="#EEF7FF" rx="2.5" ry="2.5" style="stroke:#3d58d3;stroke-width:.5"/><circle cx="646" cy="619.434" r="11" fill="#ADD1B2" style="stroke:#181818;stroke-width:1"/><path d="M648.969 625.075q-.578.297-1.219.438-.64.156-1.344.156-2.5 0-3.828-1.64-1.312-1.657-1.312-4.782t1.312-4.781q1.328-1.657 3.828-1.657.703 0 1.344.157.656.156 1.219.453v2.719q-.625-.579-1.219-.844-.594-.281-1.219-.281-1.343 0-2.031 1.078-.687 1.062-.687 3.156t.687 3.172q.688 1.062 2.031 1.062.625 0 1.219-.265.594-.282 1.219-.86z"/><text x="665" y="625.32" font-family="Helvetica" font-size="17" textLength="48">quota</text><rect width="227" height="310.758" x="562.5" y="7" fill="#EEF7FF" rx="2.5" ry="2.5" style="stroke:#3d58d3;stroke-width:.5"/><circle cx="631.25" cy="26.895" r="11" fill="#ADD1B2" style="stroke:#181818;stroke-width:1"/><path d="M634.219 32.535q-.578.297-1.219.438-.64.156-1.344.156-2.5 0-3.828-1.64-1.312-1.657-1.312-4.782t1.312-4.781q1.328-1.656 3.828-1.656.703 0 1.344.156.656.156 1.219.453v2.719q-.625-.578-1.219-.844-.594-.281-1.219-.281-1.343 0-2.031 1.078-.687 1.062-.687 3.156t.687 3.172q.688 1.062 2.031 1.062.625 0 1.219-.265.594-.281 1.219-.86z"/><text x="656.75" y="32.78" font-family="Helvetica" font-size="17" textLength="71">resource</text><path d="M563.5 46.789h225" style="stroke:#3d58d3;stroke-width:.5"/><text x="573.5" y="68.784" font-family="sans-serif" font-size="14" font-weight="bold" textLength="29">age</text><text x="602.5" y="68.784" font-family="sans-serif" font-size="14" textLength="66">: duration</text><text x="573.5" y="95.081" font-family="sans-serif" font-size="14" font-weight="bold" textLength="43">atime</text><text x="616.5" y="95.081" font-family="sans-serif" font-size="14" textLength="70">: datetime</text><text x="573.5" y="121.378" font-family="sans-serif" font-size="14" font-weight="bold" textLength="43">ctime</text><text x="616.5" y="121.378" font-family="sans-serif" font-size="14" textLength="70">: datetime</text><text x="573.5" y="147.675" font-family="sans-serif" font-size="14" font-weight="bold" textLength="14">id</text><text x="587.5" y="147.675" font-family="sans-serif" font-size="14" textLength="48">: string</text><text x="573.5" y="173.972" font-family="sans-serif" font-size="14" font-weight="bold" textLength="33">kind</text><text x="606.5" y="173.972" font-family="sans-serif" font-size="14" textLength="48">: string</text><text x="573.5" y="200.269" font-family="sans-serif" font-size="14" font-weight="bold" textLength="90">last_access</text><text x="663.5" y="200.269" font-family="sans-serif" font-size="14" textLength="66">: duration</text><text x="573.5" y="226.565" font-family="sans-serif" font-size="14" font-weight="bold" textLength="90">last_update</text><text x="663.5" y="226.565" font-family="sans-serif" font-size="14" textLength="66">: duration</text><text x="573.5" y="252.862" font-family="sans-serif" font-size="14" font-weight="bold" textLength="48">mtime</text><text x="621.5" y="252.862" font-family="sans-serif" font-size="14" textLength="70">: datetime</text><text x="573.5" y="279.159" font-family="sans-serif" font-size="14" font-weight="bold" textLength="43">name</text><text x="616.5" y="279.159" font-family="sans-serif" font-size="14" textLength="48">: string</text><text x="573.5" y="305.456" font-family="sans-serif" font-size="14" font-weight="bold" textLength="34">tags</text><text x="607.5" y="305.456" font-family="sans-serif" font-size="14" textLength="171">: dictionary[string, string]</text><rect width="79" height="39.789" x="636.5" y="760.33" fill="#EEF7FF" rx="2.5" ry="2.5" style="stroke:#3d58d3;stroke-width:.5"/><circle cx="651.5" cy="780.225" r="11" fill="#ADD1B2" style="stroke:#181818;stroke-width:1"/><path d="M654.469 785.865q-.578.297-1.219.438-.64.156-1.344.156-2.5 0-3.828-1.64-1.312-1.657-1.312-4.782t1.312-4.781q1.328-1.656 3.828-1.656.703 0 1.344.156.656.156 1.219.453v2.719q-.625-.578-1.219-.844-.594-.281-1.219-.281-1.343 0-2.031 1.078-.687 1.062-.687 3.156t.687 3.172q.688 1.062 2.031 1.062.625 0 1.219-.265.594-.281 1.219-.86z"/><text x="670.5" y="786.11" font-family="Helvetica" font-size="17" textLength="37">type</text><rect width="151" height="39.789" x="979.5" y="921.12" fill="#EEF7FF" rx="2.5" ry="2.5" style="stroke:#3d58d3;stroke-width:.5"/><circle cx="994.5" cy="941.014" r="11" fill="#ADD1B2" style="stroke:#181818;stroke-width:1"/><path d="M997.469 946.655q-.578.297-1.219.438-.64.156-1.344.156-2.5 0-3.828-1.64-1.312-1.657-1.312-4.782t1.312-4.781q1.328-1.657 3.828-1.657.703 0 1.344.157.656.156 1.219.453v2.719q-.625-.578-1.219-.844-.594-.281-1.219-.281-1.343 0-2.031 1.078-.687 1.062-.687 3.156t.687 3.172q.688 1.062 2.031 1.062.625 0 1.219-.265.594-.282 1.219-.86z"/><text x="1013.5" y="946.9" font-family="Helvetica" font-size="17" textLength="109">volume_type</text><g fill="none"><path d="M483.324 967.617c-81.93 30.54-223.624 83.353-305.544 113.883" style="stroke:#111827;stroke-width:2"/><path d="m500.19 961.33-18.962.665 4.191 11.244z" style="stroke:#111827;stroke-width:2"/></g><path fill="none" d="M1029.853 975.572c-22.88 30.52-56.543 75.448-79.443 106.008m90.24-120.41-15.598 10.803 9.602 7.198z" style="stroke:#111827;stroke-width:2"/><g fill="none"><path d="M1080.147 975.572c22.88 30.52 56.543 75.448 79.443 106.008" style="stroke:#111827;stroke-width:2"/><path d="m1069.35 961.17 5.996 18.001 9.602-7.198z" style="stroke:#111827;stroke-width:2"/></g><g fill="none"><path d="M524.06 974.883c-25.95 30.52-64.73 76.137-90.72 106.697" style="stroke:#111827;stroke-width:2"/><path d="m535.72 961.17-16.23 9.827 9.141 7.773z" style="stroke:#111827;stroke-width:2"/></g><path fill="none" d="m1110.174 969.31 226.806 112.19m-242.94-120.17 13.474 13.359 5.32-10.756zm-514.1 13.553c25.95 30.52 64.73 76.137 90.72 106.697M568.28 961.17l7.089 17.6 9.142-7.774zm81.682-146.602c-23.83 30.52-59.082 75.662-82.952 106.222m94.03-120.41-15.807 10.495 9.459 7.385zM676 335.84v102.83m0-120.83-6 18h12zm0 178.96v102.42m0-120.42-6 18h12zm0 178.79v102.42m0-120.42-6 18h12z" style="stroke:#111827;stroke-width:2"/><g fill="none"><path d="M732.442 804.875c70.8 29.66 201.498 84.425 276.508 115.845" style="stroke:#111827;stroke-width:2"/><path d="m715.84 797.92 14.284 12.489 4.636-11.068z" style="stroke:#111827;stroke-width:2"/></g></svg>