<svg xmlns="http://www.w3.org/2000/svg" width="745" height="705" viewBox="0 0 745 705"><rect width="199" height="39.789" x="7" y="660.14" fill="#EEF7FF" rx="2.5" ry="2.5" style="stroke:#3d58d3;stroke-width:.5"/><circle cx="22" cy="680.034" r="11" fill="#ADD1B2" style="stroke:#181818;stroke-width:1"/><path d="M24.969 685.675q-.578.297-1.219.438-.64.156-1.344.156-2.5 0-3.828-1.64-1.312-1.657-1.312-4.782t1.312-4.781q1.328-1.657 3.828-1.657.703 0 1.344.157.656.156 1.219.453v2.719q-.625-.579-1.219-.844-.594-.281-1.219-.281-1.343 0-2.031 1.078-.687 1.062-.687 3.156t.687 3.172q.688 1.062 2.031 1.062.625 0 1.219-.265.594-.282 1.219-.86z"/><text x="41" y="685.92" font-family="Helvetica" font-size="17" textLength="157">aws_ec2_elastic_ip</text><rect width="321" height="39.789" x="241" y="660.14" fill="#EEF7FF" rx="2.5" ry="2.5" style="stroke:#3d58d3;stroke-width:.5"/><circle cx="256" cy="680.034" r="11" fill="#ADD1B2" style="stroke:#181818;stroke-width:1"/><path d="M258.969 685.675q-.578.297-1.219.438-.64.156-1.344.156-2.5 0-3.828-1.64-1.312-1.657-1.312-4.782t1.312-4.781q1.328-1.657 3.828-1.657.703 0 1.344.157.656.156 1.219.453v2.719q-.625-.579-1.219-.844-.594-.281-1.219-.281-1.344 0-2.031 1.078-.687 1.062-.687 3.156t.687 3.172q.688 1.062 2.031 1.062.625 0 1.219-.265.594-.282 1.219-.86z"/><text x="275" y="685.92" font-family="Helvetica" font-size="17" textLength="279">azure_network_public_ip_address</text><rect width="142" height="39.789" x="596.5" y="660.14" fill="#EEF7FF" rx="2.5" ry="2.5" style="stroke:#3d58d3;stroke-width:.5"/><circle cx="611.5" cy="680.034" r="11" fill="#ADD1B2" style="stroke:#181818;stroke-width:1"/><path d="M614.469 685.675q-.578.297-1.219.438-.64.156-1.344.156-2.5 0-3.828-1.64-1.312-1.657-1.312-4.782t1.312-4.781q1.328-1.657 3.828-1.657.703 0 1.344.157.656.156 1.219.453v2.719q-.625-.579-1.219-.844-.594-.281-1.219-.281-1.343 0-2.031 1.078-.687 1.062-.687 3.156t.687 3.172q.688 1.062 2.031 1.062.625 0 1.219-.265.594-.282 1.219-.86z"/><text x="630.5" y="685.92" font-family="Helvetica" font-size="17" textLength="100">gcp_address</text><rect width="208" height="100.383" x="297.5" y="438.76" fill="#EEF7FF" rx="2.5" ry="2.5" style="stroke:#3d58d3;stroke-width:.5"/><circle cx="348.75" cy="458.654" r="11" fill="#ADD1B2" style="stroke:#181818;stroke-width:1"/><path d="M351.719 464.295q-.578.297-1.219.438-.64.156-1.344.156-2.5 0-3.828-1.64-1.312-1.657-1.312-4.782t1.312-4.781q1.328-1.656 3.828-1.656.703 0 1.344.156.656.156 1.219.453v2.719q-.625-.579-1.219-.844-.594-.281-1.219-.281-1.344 0-2.031 1.078-.687 1.062-.687 3.156t.687 3.172q.688 1.062 2.031 1.062.625 0 1.219-.265.594-.281 1.219-.86z"/><text x="374.25" y="464.54" font-family="Helvetica" font-size="17" textLength="87">ip_address</text><path d="M298.5 478.549h206" style="stroke:#3d58d3;stroke-width:.5"/><text x="308.5" y="500.544" font-family="sans-serif" font-size="14" font-weight="bold" textLength="85">ip_address</text><text x="393.5" y="500.544" font-family="sans-serif" font-size="14" textLength="48">: string</text><text x="308.5" y="526.841" font-family="sans-serif" font-size="14" font-weight="bold" textLength="138">ip_address_family</text><text x="446.5" y="526.841" font-family="sans-serif" font-size="14" textLength="48">: string</text><rect width="227" height="310.758" x="288" y="7" fill="#EEF7FF" rx="2.5" ry="2.5" style="stroke:#3d58d3;stroke-width:.5"/><circle cx="356.75" cy="26.895" r="11" fill="#ADD1B2" style="stroke:#181818;stroke-width:1"/><path d="M359.719 32.535q-.578.297-1.219.438-.64.156-1.344.156-2.5 0-3.828-1.64-1.312-1.657-1.312-4.782t1.312-4.781q1.328-1.656 3.828-1.656.703 0 1.344.156.656.156 1.219.453v2.719q-.625-.578-1.219-.844-.594-.281-1.219-.281-1.344 0-2.031 1.078-.687 1.062-.687 3.156t.687 3.172q.688 1.062 2.031 1.062.625 0 1.219-.265.594-.281 1.219-.86z"/><text x="382.25" y="32.78" font-family="Helvetica" font-size="17" textLength="71">resource</text><path d="M289 46.789h225" style="stroke:#3d58d3;stroke-width:.5"/><text x="299" y="68.784" font-family="sans-serif" font-size="14" font-weight="bold" textLength="29">age</text><text x="328" y="68.784" font-family="sans-serif" font-size="14" textLength="66">: duration</text><text x="299" y="95.081" font-family="sans-serif" font-size="14" font-weight="bold" textLength="43">atime</text><text x="342" y="95.081" font-family="sans-serif" font-size="14" textLength="70">: datetime</text><text x="299" y="121.378" font-family="sans-serif" font-size="14" font-weight="bold" textLength="43">ctime</text><text x="342" y="121.378" font-family="sans-serif" font-size="14" textLength="70">: datetime</text><text x="299" y="147.675" font-family="sans-serif" font-size="14" font-weight="bold" textLength="14">id</text><text x="313" y="147.675" font-family="sans-serif" font-size="14" textLength="48">: string</text><text x="299" y="173.972" font-family="sans-serif" font-size="14" font-weight="bold" textLength="33">kind</text><text x="332" y="173.972" font-family="sans-serif" font-size="14" textLength="48">: string</text><text x="299" y="200.269" font-family="sans-serif" font-size="14" font-weight="bold" textLength="90">last_access</text><text x="389" y="200.269" font-family="sans-serif" font-size="14" textLength="66">: duration</text><text x="299" y="226.565" font-family="sans-serif" font-size="14" font-weight="bold" textLength="90">last_update</text><text x="389" y="226.565" font-family="sans-serif" font-size="14" textLength="66">: duration</text><text x="299" y="252.862" font-family="sans-serif" font-size="14" font-weight="bold" textLength="48">mtime</text><text x="347" y="252.862" font-family="sans-serif" font-size="14" textLength="70">: datetime</text><text x="299" y="279.159" font-family="sans-serif" font-size="14" font-weight="bold" textLength="43">name</text><text x="342" y="279.159" font-family="sans-serif" font-size="14" textLength="48">: string</text><text x="299" y="305.456" font-family="sans-serif" font-size="14" font-weight="bold" textLength="34">tags</text><text x="333" y="305.456" font-family="sans-serif" font-size="14" textLength="171">: dictionary[string, string]</text><path fill="none" d="M308.836 549.344c-61.28 39.28-128.396 82.296-172.096 110.306m187.25-120.02-18.392 4.662 6.476 10.103zm77.51 18v102.26m0-120.26-6 18h12z" style="stroke:#111827;stroke-width:2"/><g fill="none"><path d="M486.061 550.059c55.26 39.28 114.769 81.581 154.169 109.591" style="stroke:#111827;stroke-width:2"/><path d="m471.39 539.63 11.195 15.319 6.952-9.78z" style="stroke:#111827;stroke-width:2"/></g><path fill="none" d="M401.5 336.06v102.36m0-120.36-6 18h12z" style="stroke:#111827;stroke-width:2"/></svg>