<svg xmlns="http://www.w3.org/2000/svg" width="891" height="645" viewBox="0 0 891 645"><rect width="107" height="39.789" x="337" y="438.76" fill="#EEF7FF" rx="2.5" ry="2.5" style="stroke:#3d58d3;stroke-width:.5"/><circle cx="352" cy="458.654" r="11" fill="#ADD1B2" style="stroke:#181818;stroke-width:1"/><path d="M354.969 464.295q-.578.297-1.219.438-.64.156-1.344.156-2.5 0-3.828-1.64-1.312-1.657-1.312-4.782t1.312-4.781q1.328-1.656 3.828-1.656.703 0 1.344.156.656.156 1.219.453v2.719q-.625-.579-1.219-.844-.594-.281-1.219-.281-1.344 0-2.031 1.078-.687 1.062-.687 3.156t.687 3.172q.688 1.062 2.031 1.062.625 0 1.219-.265.594-.281 1.219-.86z"/><text x="371" y="464.54" font-family="Helvetica" font-size="17" textLength="65">account</text><rect width="149" height="39.789" x="7" y="599.55" fill="#EEF7FF" rx="2.5" ry="2.5" style="stroke:#3d58d3;stroke-width:.5"/><circle cx="22" cy="619.444" r="11" fill="#ADD1B2" style="stroke:#181818;stroke-width:1"/><path d="M24.969 625.085q-.578.297-1.219.438-.64.156-1.344.156-2.5 0-3.828-1.64-1.312-1.657-1.312-4.782t1.312-4.781q1.328-1.657 3.828-1.657.703 0 1.344.157.656.156 1.219.453v2.719q-.625-.579-1.219-.844-.594-.281-1.219-.281-1.343 0-2.031 1.078-.687 1.062-.687 3.156t.687 3.172q.688 1.062 2.031 1.062.625 0 1.219-.265.594-.282 1.219-.86z"/><text x="41" y="625.33" font-family="Helvetica" font-size="17" textLength="107">aws_account</text><rect width="197" height="39.789" x="191" y="599.55" fill="#EEF7FF" rx="2.5" ry="2.5" style="stroke:#3d58d3;stroke-width:.5"/><circle cx="206" cy="619.444" r="11" fill="#ADD1B2" style="stroke:#181818;stroke-width:1"/><path d="M208.969 625.085q-.578.297-1.219.438-.64.156-1.344.156-2.5 0-3.828-1.64-1.312-1.657-1.312-4.782t1.312-4.781q1.328-1.657 3.828-1.657.703 0 1.344.157.656.156 1.219.453v2.719q-.625-.579-1.219-.844-.594-.281-1.219-.281-1.344 0-2.031 1.078-.687 1.062-.687 3.156t.687 3.172q.688 1.062 2.031 1.062.625 0 1.219-.265.594-.282 1.219-.86z"/><text x="225" y="625.33" font-family="Helvetica" font-size="17" textLength="155">azure_subscription</text><rect width="136" height="39.789" x="423.5" y="599.55" fill="#EEF7FF" rx="2.5" ry="2.5" style="stroke:#3d58d3;stroke-width:.5"/><circle cx="438.5" cy="619.444" r="11" fill="#ADD1B2" style="stroke:#181818;stroke-width:1"/><path d="M441.469 625.085q-.578.297-1.219.438-.64.156-1.344.156-2.5 0-3.828-1.64-1.312-1.657-1.312-4.782t1.312-4.781q1.328-1.657 3.828-1.657.703 0 1.344.157.656.156 1.219.453v2.719q-.625-.579-1.219-.844-.594-.281-1.219-.281-1.344 0-2.031 1.078-.687 1.062-.687 3.156t.687 3.172q.688 1.062 2.031 1.062.625 0 1.219-.265.594-.282 1.219-.86z"/><text x="457.5" y="625.33" font-family="Helvetica" font-size="17" textLength="94">gcp_project</text><rect width="290" height="39.789" x="594.5" y="599.55" fill="#EEF7FF" rx="2.5" ry="2.5" style="stroke:#3d58d3;stroke-width:.5"/><circle cx="609.5" cy="619.444" r="11" fill="#ADD1B2" style="stroke:#181818;stroke-width:1"/><path d="M612.469 625.085q-.578.297-1.219.438-.64.156-1.344.156-2.5 0-3.828-1.64-1.312-1.657-1.312-4.782t1.312-4.781q1.328-1.657 3.828-1.657.703 0 1.344.157.656.156 1.219.453v2.719q-.625-.579-1.219-.844-.594-.281-1.219-.281-1.343 0-2.031 1.078-.687 1.062-.687 3.156t.687 3.172q.688 1.062 2.031 1.062.625 0 1.219-.265.594-.282 1.219-.86z"/><text x="628.5" y="625.33" font-family="Helvetica" font-size="17" textLength="248">microsoft_graph_organization</text><rect width="227" height="310.758" x="277" y="7" fill="#EEF7FF" rx="2.5" ry="2.5" style="stroke:#3d58d3;stroke-width:.5"/><circle cx="345.75" cy="26.895" r="11" fill="#ADD1B2" style="stroke:#181818;stroke-width:1"/><path d="M348.719 32.535q-.578.297-1.219.438-.64.156-1.344.156-2.5 0-3.828-1.64-1.312-1.657-1.312-4.782t1.312-4.781q1.328-1.656 3.828-1.656.703 0 1.344.156.656.156 1.219.453v2.719q-.625-.578-1.219-.844-.594-.281-1.219-.281-1.344 0-2.031 1.078-.687 1.062-.687 3.156t.687 3.172q.688 1.062 2.031 1.062.625 0 1.219-.265.594-.281 1.219-.86z"/><text x="371.25" y="32.78" font-family="Helvetica" font-size="17" textLength="71">resource</text><path d="M278 46.789h225" style="stroke:#3d58d3;stroke-width:.5"/><text x="288" y="68.784" font-family="sans-serif" font-size="14" font-weight="bold" textLength="29">age</text><text x="317" y="68.784" font-family="sans-serif" font-size="14" textLength="66">: duration</text><text x="288" y="95.081" font-family="sans-serif" font-size="14" font-weight="bold" textLength="43">atime</text><text x="331" y="95.081" font-family="sans-serif" font-size="14" textLength="70">: datetime</text><text x="288" y="121.378" font-family="sans-serif" font-size="14" font-weight="bold" textLength="43">ctime</text><text x="331" y="121.378" font-family="sans-serif" font-size="14" textLength="70">: datetime</text><text x="288" y="147.675" font-family="sans-serif" font-size="14" font-weight="bold" textLength="14">id</text><text x="302" y="147.675" font-family="sans-serif" font-size="14" textLength="48">: string</text><text x="288" y="173.972" font-family="sans-serif" font-size="14" font-weight="bold" textLength="33">kind</text><text x="321" y="173.972" font-family="sans-serif" font-size="14" textLength="48">: string</text><text x="288" y="200.269" font-family="sans-serif" font-size="14" font-weight="bold" textLength="90">last_access</text><text x="378" y="200.269" font-family="sans-serif" font-size="14" textLength="66">: duration</text><text x="288" y="226.565" font-family="sans-serif" font-size="14" font-weight="bold" textLength="90">last_update</text><text x="378" y="226.565" font-family="sans-serif" font-size="14" textLength="66">: duration</text><text x="288" y="252.862" font-family="sans-serif" font-size="14" font-weight="bold" textLength="48">mtime</text><text x="336" y="252.862" font-family="sans-serif" font-size="14" textLength="70">: datetime</text><text x="288" y="279.159" font-family="sans-serif" font-size="14" font-weight="bold" textLength="43">name</text><text x="331" y="279.159" font-family="sans-serif" font-size="14" textLength="48">: string</text><text x="288" y="305.456" font-family="sans-serif" font-size="14" font-weight="bold" textLength="34">tags</text><text x="322" y="305.456" font-family="sans-serif" font-size="14" textLength="171">: dictionary[string, string]</text><path fill="none" d="M390.5 335.85v102.83m0-120.83-6 18h12z" style="stroke:#111827;stroke-width:2"/><g fill="none"><path d="M336.91 487.197c-59.51 30.58-158.74 81.573-218.09 112.073" style="stroke:#111827;stroke-width:2"/><path d="m352.92 478.97-18.752 2.89 5.484 10.674z" style="stroke:#111827;stroke-width:2"/></g><g fill="none"><path d="M368.657 493.996c-19.42 30.52-47.487 74.664-66.927 105.224" style="stroke:#111827;stroke-width:2"/><path d="m378.32 478.81-14.725 11.965 10.124 6.442z" style="stroke:#111827;stroke-width:2"/></g><g fill="none"><path d="M412.343 493.996c19.42 30.52 47.487 74.664 66.927 105.224" style="stroke:#111827;stroke-width:2"/><path d="m402.68 478.81 4.601 18.407 10.124-6.442z" style="stroke:#111827;stroke-width:2"/></g><path fill="none" d="M449.334 486.425c67.12 30.54 180.636 82.185 247.746 112.715M432.95 478.97l13.899 12.916 4.97-10.923z" style="stroke:#111827;stroke-width:2"/></svg>