<svg xmlns="http://www.w3.org/2000/svg" width="753" height="919" viewBox="0 0 753 919"><rect width="192" height="39.789" x="7" y="712.73" fill="#EEF7FF" rx="2.5" ry="2.5" style="stroke:#3d58d3;stroke-width:.5"/><circle cx="22" cy="732.625" r="11" fill="#ADD1B2" style="stroke:#181818;stroke-width:1"/><path d="M24.969 738.265q-.578.297-1.219.438-.64.156-1.344.156-2.5 0-3.828-1.64-1.312-1.657-1.312-4.782t1.312-4.781Q19.906 726 22.406 726q.703 0 1.344.156.656.156 1.219.453v2.719q-.625-.578-1.219-.844-.594-.281-1.219-.281-1.343 0-2.031 1.078-.687 1.062-.687 3.156t.687 3.172q.688 1.062 2.031 1.062.625 0 1.219-.265.594-.281 1.219-.86z"/><text x="41" y="738.51" font-family="Helvetica" font-size="17" textLength="150">aws_ec2_instance</text><rect width="233" height="39.789" x="82.5" y="873.52" fill="#EEF7FF" rx="2.5" ry="2.5" style="stroke:#3d58d3;stroke-width:.5"/><circle cx="97.5" cy="893.414" r="11" fill="#ADD1B2" style="stroke:#181818;stroke-width:1"/><path d="M100.469 899.055q-.578.297-1.219.438-.64.156-1.344.156-2.5 0-3.828-1.64-1.312-1.657-1.312-4.782t1.312-4.781q1.328-1.657 3.828-1.657.703 0 1.344.157.656.156 1.219.453v2.719q-.625-.579-1.219-.844-.594-.281-1.219-.281-1.344 0-2.031 1.078-.687 1.062-.687 3.156t.687 3.172q.688 1.062 2.031 1.062.625 0 1.219-.265.594-.282 1.219-.86z"/><text x="116.5" y="899.3" font-family="Helvetica" font-size="17" textLength="191">azure_virtual_machine</text><rect width="280" height="39.789" x="234" y="712.73" fill="#EEF7FF" rx="2.5" ry="2.5" style="stroke:#3d58d3;stroke-width:.5"/><circle cx="249" cy="732.625" r="11" fill="#ADD1B2" style="stroke:#181818;stroke-width:1"/><path d="M251.969 738.265q-.578.297-1.219.438-.64.156-1.344.156-2.5 0-3.828-1.64-1.312-1.657-1.312-4.782t1.312-4.781q1.328-1.656 3.828-1.656.703 0 1.344.156.656.156 1.219.453v2.719q-.625-.578-1.219-.844-.594-.281-1.219-.281-1.344 0-2.031 1.078-.687 1.062-.687 3.156t.687 3.172q.688 1.062 2.031 1.062.625 0 1.219-.265.594-.281 1.219-.86z"/><text x="268" y="738.51" font-family="Helvetica" font-size="17" textLength="238">azure_virtual_machine_base</text><rect width="396" height="39.789" x="350" y="873.52" fill="#EEF7FF" rx="2.5" ry="2.5" style="stroke:#3d58d3;stroke-width:.5"/><circle cx="365" cy="893.414" r="11" fill="#ADD1B2" style="stroke:#181818;stroke-width:1"/><path d="M367.969 899.055q-.578.297-1.219.438-.64.156-1.344.156-2.5 0-3.828-1.64-1.312-1.657-1.312-4.782t1.312-4.781q1.328-1.657 3.828-1.657.703 0 1.344.157.656.156 1.219.453v2.719q-.625-.579-1.219-.844-.594-.281-1.219-.281-1.344 0-2.031 1.078-.687 1.062-.687 3.156t.687 3.172q.688 1.062 2.031 1.062.625 0 1.219-.265.594-.282 1.219-.86z"/><text x="384" y="899.3" font-family="Helvetica" font-size="17" textLength="354">azure_virtual_machine_scale_set_instance</text><rect width="149" height="39.789" x="548.5" y="712.73" fill="#EEF7FF" rx="2.5" ry="2.5" style="stroke:#3d58d3;stroke-width:.5"/><circle cx="563.5" cy="732.625" r="11" fill="#ADD1B2" style="stroke:#181818;stroke-width:1"/><path d="M566.469 738.265q-.578.297-1.219.438-.64.156-1.344.156-2.5 0-3.828-1.64-1.312-1.657-1.312-4.782t1.312-4.781q1.328-1.656 3.828-1.656.703 0 1.344.156.656.156 1.219.453v2.719q-.625-.578-1.219-.844-.594-.281-1.219-.281-1.343 0-2.031 1.078-.687 1.062-.687 3.156t.687 3.172q.688 1.062 2.031 1.062.625 0 1.219-.265.594-.281 1.219-.86z"/><text x="582.5" y="738.51" font-family="Helvetica" font-size="17" textLength="107">gcp_instance</text><rect width="263" height="152.977" x="242.5" y="438.76" fill="#EEF7FF" rx="2.5" ry="2.5" style="stroke:#3d58d3;stroke-width:.5"/><circle cx="329.75" cy="458.654" r="11" fill="#ADD1B2" style="stroke:#181818;stroke-width:1"/><path d="M332.719 464.295q-.578.297-1.219.438-.64.156-1.344.156-2.5 0-3.828-1.64-1.312-1.657-1.312-4.782t1.312-4.781q1.328-1.656 3.828-1.656.703 0 1.344.156.656.156 1.219.453v2.719q-.625-.579-1.219-.844-.594-.281-1.219-.281-1.344 0-2.031 1.078-.687 1.062-.687 3.156t.687 3.172q.688 1.062 2.031 1.062.625 0 1.219-.265.594-.281 1.219-.86z"/><text x="355.25" y="464.54" font-family="Helvetica" font-size="17" textLength="70">instance</text><path d="M243.5 478.549h261" style="stroke:#3d58d3;stroke-width:.5"/><text x="253.5" y="500.544" font-family="sans-serif" font-size="14" font-weight="bold" textLength="119">instance_cores</text><text x="372.5" y="500.544" font-family="sans-serif" font-size="14" textLength="57">: double</text><text x="253.5" y="526.841" font-family="sans-serif" font-size="14" font-weight="bold" textLength="138">instance_memory</text><text x="391.5" y="526.841" font-family="sans-serif" font-size="14" textLength="57">: double</text><text x="253.5" y="553.138" font-family="sans-serif" font-size="14" font-weight="bold" textLength="123">instance_status</text><text x="376.5" y="553.138" font-family="sans-serif" font-size="14" textLength="118">: instance_status</text><text x="253.5" y="579.435" font-family="sans-serif" font-size="14" font-weight="bold" textLength="109">instance_type</text><text x="362.5" y="579.435" font-family="sans-serif" font-size="14" textLength="48">: string</text><rect width="227" height="310.758" x="260.5" y="7" fill="#EEF7FF" rx="2.5" ry="2.5" style="stroke:#3d58d3;stroke-width:.5"/><circle cx="329.25" cy="26.895" r="11" fill="#ADD1B2" style="stroke:#181818;stroke-width:1"/><path d="M332.219 32.535q-.578.297-1.219.438-.64.156-1.344.156-2.5 0-3.828-1.64-1.312-1.657-1.312-4.782t1.312-4.781q1.328-1.656 3.828-1.656.703 0 1.344.156.656.156 1.219.453v2.719q-.625-.578-1.219-.844-.594-.281-1.219-.281-1.344 0-2.031 1.078-.687 1.062-.687 3.156t.687 3.172q.688 1.062 2.031 1.062.625 0 1.219-.265.594-.281 1.219-.86z"/><text x="354.75" y="32.78" font-family="Helvetica" font-size="17" textLength="71">resource</text><path d="M261.5 46.789h225" style="stroke:#3d58d3;stroke-width:.5"/><text x="271.5" y="68.784" font-family="sans-serif" font-size="14" font-weight="bold" textLength="29">age</text><text x="300.5" y="68.784" font-family="sans-serif" font-size="14" textLength="66">: duration</text><text x="271.5" y="95.081" font-family="sans-serif" font-size="14" font-weight="bold" textLength="43">atime</text><text x="314.5" y="95.081" font-family="sans-serif" font-size="14" textLength="70">: datetime</text><text x="271.5" y="121.378" font-family="sans-serif" font-size="14" font-weight="bold" textLength="43">ctime</text><text x="314.5" y="121.378" font-family="sans-serif" font-size="14" textLength="70">: datetime</text><text x="271.5" y="147.675" font-family="sans-serif" font-size="14" font-weight="bold" textLength="14">id</text><text x="285.5" y="147.675" font-family="sans-serif" font-size="14" textLength="48">: string</text><text x="271.5" y="173.972" font-family="sans-serif" font-size="14" font-weight="bold" textLength="33">kind</text><text x="304.5" y="173.972" font-family="sans-serif" font-size="14" textLength="48">: string</text><text x="271.5" y="200.269" font-family="sans-serif" font-size="14" font-weight="bold" textLength="90">last_access</text><text x="361.5" y="200.269" font-family="sans-serif" font-size="14" textLength="66">: duration</text><text x="271.5" y="226.565" font-family="sans-serif" font-size="14" font-weight="bold" textLength="90">last_update</text><text x="361.5" y="226.565" font-family="sans-serif" font-size="14" textLength="66">: duration</text><text x="271.5" y="252.862" font-family="sans-serif" font-size="14" font-weight="bold" textLength="48">mtime</text><text x="319.5" y="252.862" font-family="sans-serif" font-size="14" textLength="70">: datetime</text><text x="271.5" y="279.159" font-family="sans-serif" font-size="14" font-weight="bold" textLength="43">name</text><text x="314.5" y="279.159" font-family="sans-serif" font-size="14" textLength="48">: string</text><text x="271.5" y="305.456" font-family="sans-serif" font-size="14" font-weight="bold" textLength="34">tags</text><text x="305.5" y="305.456" font-family="sans-serif" font-size="14" textLength="171">: dictionary[string, string]</text><g fill="none"><path d="M264.368 603.378C210.418 646.248 161.29 685.3 127.4 712.23" style="stroke:#111827;stroke-width:2"/><path d="m278.46 592.18-17.825 6.5 7.465 9.396z" style="stroke:#111827;stroke-width:2"/></g><path fill="none" d="M339.56 764.877c-33.63 30.52-85.69 77.753-119.38 108.313m132.71-120.41-17.361 7.654 8.064 8.886zM374 610.18v102.05m0-120.05-6 18h12zm34.285 172.734c33.44 30.52 85.165 77.716 118.655 108.276M394.99 752.78l9.25 16.566 8.09-8.864zm80.414-148.824c49.56 42.87 94.046 81.344 125.176 108.274M461.79 592.18l9.688 16.314 7.85-9.076zM374 336.04v102.27m0-120.27-6 18h12z" style="stroke:#111827;stroke-width:2"/></svg>