<svg xmlns="http://www.w3.org/2000/svg" width="241" height="811" viewBox="0 0 241 811"><rect width="212" height="39.789" x="14.5" y="765.33" fill="#EEF7FF" rx="2.5" ry="2.5" style="stroke:#3d58d3;stroke-width:.5"/><circle cx="29.5" cy="785.225" r="11" fill="#ADD1B2" style="stroke:#181818;stroke-width:1"/><path d="M32.469 790.865q-.578.297-1.219.438-.64.156-1.344.156-2.5 0-3.828-1.64-1.312-1.657-1.312-4.782t1.312-4.781q1.328-1.656 3.828-1.656.703 0 1.344.156.656.156 1.219.453v2.719q-.625-.578-1.219-.844-.594-.281-1.219-.281-1.343 0-2.031 1.078-.687 1.062-.687 3.156t.687 3.172q.688 1.062 2.031 1.062.625 0 1.219-.265.594-.281 1.219-.86z"/><text x="48.5" y="791.11" font-family="Helvetica" font-size="17" textLength="170">aws_efs_file_system</text><rect width="220" height="205.57" x="10.5" y="438.76" fill="#EEF7FF" rx="2.5" ry="2.5" style="stroke:#3d58d3;stroke-width:.5"/><circle cx="49.35" cy="458.654" r="11" fill="#ADD1B2" style="stroke:#181818;stroke-width:1"/><path d="M52.319 464.295q-.578.297-1.219.438-.64.156-1.344.156-2.5 0-3.828-1.64-1.312-1.657-1.312-4.782t1.312-4.781q1.328-1.656 3.828-1.656.703 0 1.344.156.656.156 1.219.453v2.719q-.625-.579-1.219-.844-.594-.281-1.219-.281-1.343 0-2.031 1.078-.687 1.062-.687 3.156t.687 3.172q.688 1.062 2.031 1.062.625 0 1.219-.265.594-.281 1.219-.86z"/><text x="73.65" y="464.54" font-family="Helvetica" font-size="17" textLength="125">network_share</text><path d="M11.5 478.549h218" style="stroke:#3d58d3;stroke-width:.5"/><text x="21.5" y="500.544" font-family="sans-serif" font-size="14" font-weight="bold" textLength="133">share_encrypted</text><text x="154.5" y="500.544" font-family="sans-serif" font-size="14" textLength="65">: boolean</text><text x="21.5" y="526.841" font-family="sans-serif" font-size="14" font-weight="bold" textLength="85">share_iops</text><text x="106.5" y="526.841" font-family="sans-serif" font-size="14" textLength="44">: int64</text><text x="21.5" y="553.138" font-family="sans-serif" font-size="14" font-weight="bold" textLength="84">share_size</text><text x="105.5" y="553.138" font-family="sans-serif" font-size="14" textLength="44">: int64</text><text x="21.5" y="579.435" font-family="sans-serif" font-size="14" font-weight="bold" textLength="101">share_status</text><text x="122.5" y="579.435" font-family="sans-serif" font-size="14" textLength="48">: string</text><text x="21.5" y="605.732" font-family="sans-serif" font-size="14" font-weight="bold" textLength="141">share_throughput</text><text x="162.5" y="605.732" font-family="sans-serif" font-size="14" textLength="57">: double</text><text x="21.5" y="632.029" font-family="sans-serif" font-size="14" font-weight="bold" textLength="87">share_type</text><text x="108.5" y="632.029" font-family="sans-serif" font-size="14" textLength="48">: string</text><rect width="227" height="310.758" x="7" y="7" fill="#EEF7FF" rx="2.5" ry="2.5" style="stroke:#3d58d3;stroke-width:.5"/><circle cx="75.75" cy="26.895" r="11" fill="#ADD1B2" style="stroke:#181818;stroke-width:1"/><path d="M78.719 32.535q-.578.297-1.219.438-.64.156-1.344.156-2.5 0-3.828-1.64-1.312-1.657-1.312-4.782t1.312-4.781q1.328-1.656 3.828-1.656.703 0 1.344.156.656.156 1.219.453v2.719q-.625-.578-1.219-.844-.594-.281-1.219-.281-1.344 0-2.031 1.078-.687 1.062-.687 3.156t.687 3.172q.688 1.062 2.031 1.062.625 0 1.219-.265.594-.281 1.219-.86z"/><text x="101.25" y="32.78" font-family="Helvetica" font-size="17" textLength="71">resource</text><path d="M8 46.789h225" style="stroke:#3d58d3;stroke-width:.5"/><text x="18" y="68.784" font-family="sans-serif" font-size="14" font-weight="bold" textLength="29">age</text><text x="47" y="68.784" font-family="sans-serif" font-size="14" textLength="66">: duration</text><text x="18" y="95.081" font-family="sans-serif" font-size="14" font-weight="bold" textLength="43">atime</text><text x="61" y="95.081" font-family="sans-serif" font-size="14" textLength="70">: datetime</text><text x="18" y="121.378" font-family="sans-serif" font-size="14" font-weight="bold" textLength="43">ctime</text><text x="61" y="121.378" font-family="sans-serif" font-size="14" textLength="70">: datetime</text><text x="18" y="147.675" font-family="sans-serif" font-size="14" font-weight="bold" textLength="14">id</text><text x="32" y="147.675" font-family="sans-serif" font-size="14" textLength="48">: string</text><text x="18" y="173.972" font-family="sans-serif" font-size="14" font-weight="bold" textLength="33">kind</text><text x="51" y="173.972" font-family="sans-serif" font-size="14" textLength="48">: string</text><text x="18" y="200.269" font-family="sans-serif" font-size="14" font-weight="bold" textLength="90">last_access</text><text x="108" y="200.269" font-family="sans-serif" font-size="14" textLength="66">: duration</text><text x="18" y="226.565" font-family="sans-serif" font-size="14" font-weight="bold" textLength="90">last_update</text><text x="108" y="226.565" font-family="sans-serif" font-size="14" textLength="66">: duration</text><text x="18" y="252.862" font-family="sans-serif" font-size="14" font-weight="bold" textLength="48">mtime</text><text x="66" y="252.862" font-family="sans-serif" font-size="14" textLength="70">: datetime</text><text x="18" y="279.159" font-family="sans-serif" font-size="14" font-weight="bold" textLength="43">name</text><text x="61" y="279.159" font-family="sans-serif" font-size="14" textLength="48">: string</text><text x="18" y="305.456" font-family="sans-serif" font-size="14" font-weight="bold" textLength="34">tags</text><text x="52" y="305.456" font-family="sans-serif" font-size="14" textLength="171">: dictionary[string, string]</text><path fill="none" d="M120.5 662.69v102.46m0-120.46-6 18h12zm0-308.54v102.31m0-120.31-6 18h12z" style="stroke:#111827;stroke-width:2"/></svg>