<svg xmlns="http://www.w3.org/2000/svg" width="1720" height="890" viewBox="0 0 1720 890"><rect width="174" height="39.789" x="7" y="844.22" fill="#EEF7FF" rx="2.5" ry="2.5" style="stroke:#3d58d3;stroke-width:.5"/><circle cx="22" cy="864.115" r="11" fill="#ADD1B2" style="stroke:#181818;stroke-width:1"/><path d="M24.969 869.755q-.578.297-1.219.438-.64.156-1.344.156-2.5 0-3.828-1.64-1.312-1.657-1.312-4.782t1.312-4.781q1.328-1.656 3.828-1.656.703 0 1.344.156.656.156 1.219.453v2.719q-.625-.578-1.219-.844-.594-.281-1.219-.281-1.343 0-2.031 1.078-.687 1.062-.687 3.156t.687 3.172q.688 1.062 2.031 1.062.625 0 1.219-.265.594-.281 1.219-.86z"/><text x="41" y="870" font-family="Helvetica" font-size="17" textLength="132">aws_rds_cluster</text><rect width="188" height="39.789" x="216" y="844.22" fill="#EEF7FF" rx="2.5" ry="2.5" style="stroke:#3d58d3;stroke-width:.5"/><circle cx="231" cy="864.115" r="11" fill="#ADD1B2" style="stroke:#181818;stroke-width:1"/><path d="M233.969 869.755q-.578.297-1.219.438-.64.156-1.344.156-2.5 0-3.828-1.64-1.312-1.657-1.312-4.782t1.312-4.781q1.328-1.656 3.828-1.656.703 0 1.344.156.656.156 1.219.453v2.719q-.625-.578-1.219-.844-.594-.281-1.219-.281-1.344 0-2.031 1.078-.687 1.062-.687 3.156t.687 3.172q.688 1.062 2.031 1.062.625 0 1.219-.265.594-.281 1.219-.86z"/><text x="250" y="870" font-family="Helvetica" font-size="17" textLength="146">aws_rds_instance</text><rect width="208" height="39.789" x="439" y="844.22" fill="#EEF7FF" rx="2.5" ry="2.5" style="stroke:#3d58d3;stroke-width:.5"/><circle cx="454" cy="864.115" r="11" fill="#ADD1B2" style="stroke:#181818;stroke-width:1"/><path d="M456.969 869.755q-.578.297-1.219.438-.64.156-1.344.156-2.5 0-3.828-1.64-1.312-1.657-1.312-4.782t1.312-4.781q1.328-1.656 3.828-1.656.703 0 1.344.156.656.156 1.219.453v2.719q-.625-.578-1.219-.844-.594-.281-1.219-.281-1.344 0-2.031 1.078-.687 1.062-.687 3.156t.687 3.172q.688 1.062 2.031 1.062.625 0 1.219-.265.594-.281 1.219-.86z"/><text x="473" y="870" font-family="Helvetica" font-size="17" textLength="166">azure_mysql_server</text><rect width="265" height="39.789" x="682.5" y="844.22" fill="#EEF7FF" rx="2.5" ry="2.5" style="stroke:#3d58d3;stroke-width:.5"/><circle cx="697.5" cy="864.115" r="11" fill="#ADD1B2" style="stroke:#181818;stroke-width:1"/><path d="M700.469 869.755q-.578.297-1.219.438-.64.156-1.344.156-2.5 0-3.828-1.64-1.312-1.657-1.312-4.782t1.312-4.781q1.328-1.656 3.828-1.656.703 0 1.344.156.656.156 1.219.453v2.719q-.625-.578-1.219-.844-.594-.281-1.219-.281-1.343 0-2.031 1.078-.687 1.062-.687 3.156t.687 3.172q.688 1.062 2.031 1.062.625 0 1.219-.265.594-.281 1.219-.86z"/><text x="716.5" y="870" font-family="Helvetica" font-size="17" textLength="223">azure_sql_server_database</text><rect width="431" height="39.789" x="982.5" y="844.22" fill="#EEF7FF" rx="2.5" ry="2.5" style="stroke:#3d58d3;stroke-width:.5"/><circle cx="997.5" cy="864.115" r="11" fill="#ADD1B2" style="stroke:#181818;stroke-width:1"/><path d="M1000.469 869.755q-.578.297-1.219.438-.64.156-1.344.156-2.5 0-3.828-1.64-1.312-1.657-1.312-4.782t1.312-4.781q1.328-1.656 3.828-1.656.703 0 1.344.156.656.156 1.219.453v2.719q-.625-.578-1.219-.844-.594-.281-1.219-.281-1.343 0-2.031 1.078-.687 1.062-.687 3.156t.687 3.172q.688 1.062 2.031 1.062.625 0 1.219-.265.594-.281 1.219-.86z"/><text x="1016.5" y="870" font-family="Helvetica" font-size="17" textLength="389">azure_sql_server_managed_instance_database</text><rect width="287" height="284.461" x="535.5" y="438.76" fill="#EEF7FF" rx="2.5" ry="2.5" style="stroke:#3d58d3;stroke-width:.5"/><circle cx="632.25" cy="458.654" r="11" fill="#ADD1B2" style="stroke:#181818;stroke-width:1"/><path d="M635.219 464.295q-.578.297-1.219.438-.64.156-1.344.156-2.5 0-3.828-1.64-1.312-1.657-1.312-4.782t1.312-4.781q1.328-1.656 3.828-1.656.703 0 1.344.156.656.156 1.219.453v2.719q-.625-.579-1.219-.844-.594-.281-1.219-.281-1.343 0-2.031 1.078-.687 1.062-.687 3.156t.687 3.172q.688 1.062 2.031 1.062.625 0 1.219-.265.594-.281 1.219-.86z"/><text x="657.75" y="464.54" font-family="Helvetica" font-size="17" textLength="75">database</text><path d="M536.5 478.549h285" style="stroke:#3d58d3;stroke-width:.5"/><text x="546.5" y="500.544" font-family="sans-serif" font-size="14" font-weight="bold" textLength="97">db_endpoint</text><text x="643.5" y="500.544" font-family="sans-serif" font-size="14" textLength="48">: string</text><text x="546.5" y="526.841" font-family="sans-serif" font-size="14" font-weight="bold" textLength="177">db_publicly_accessible</text><text x="723.5" y="526.841" font-family="sans-serif" font-size="14" textLength="65">: boolean</text><text x="546.5" y="553.138" font-family="sans-serif" font-size="14" font-weight="bold" textLength="76">db_status</text><text x="622.5" y="553.138" font-family="sans-serif" font-size="14" textLength="189">: database_instance_status</text><text x="546.5" y="579.435" font-family="sans-serif" font-size="14" font-weight="bold" textLength="62">db_type</text><text x="608.5" y="579.435" font-family="sans-serif" font-size="14" textLength="48">: string</text><text x="546.5" y="605.732" font-family="sans-serif" font-size="14" font-weight="bold" textLength="86">db_version</text><text x="632.5" y="605.732" font-family="sans-serif" font-size="14" textLength="48">: string</text><text x="546.5" y="632.029" font-family="sans-serif" font-size="14" font-weight="bold" textLength="109">instance_type</text><text x="655.5" y="632.029" font-family="sans-serif" font-size="14" textLength="48">: string</text><text x="546.5" y="658.325" font-family="sans-serif" font-size="14" font-weight="bold" textLength="145">volume_encrypted</text><text x="691.5" y="658.325" font-family="sans-serif" font-size="14" textLength="65">: boolean</text><text x="546.5" y="684.622" font-family="sans-serif" font-size="14" font-weight="bold" textLength="97">volume_iops</text><text x="643.5" y="684.622" font-family="sans-serif" font-size="14" textLength="44">: int64</text><text x="546.5" y="710.919" font-family="sans-serif" font-size="14" font-weight="bold" textLength="96">volume_size</text><text x="642.5" y="710.919" font-family="sans-serif" font-size="14" textLength="44">: int64</text><rect width="265" height="39.789" x="1448.5" y="844.22" fill="#EEF7FF" rx="2.5" ry="2.5" style="stroke:#3d58d3;stroke-width:.5"/><circle cx="1463.5" cy="864.115" r="11" fill="#ADD1B2" style="stroke:#181818;stroke-width:1"/><path d="M1466.469 869.755q-.578.297-1.219.438-.64.156-1.344.156-2.5 0-3.828-1.64-1.312-1.657-1.312-4.782t1.312-4.781q1.328-1.656 3.828-1.656.703 0 1.344.156.656.156 1.219.453v2.719q-.625-.578-1.219-.844-.594-.281-1.219-.281-1.343 0-2.031 1.078-.687 1.062-.687 3.156t.687 3.172q.688 1.062 2.031 1.062.625 0 1.219-.265.594-.281 1.219-.86z"/><text x="1482.5" y="870" font-family="Helvetica" font-size="17" textLength="223">gcp_sql_database_instance</text><rect width="227" height="310.758" x="565.5" y="7" fill="#EEF7FF" rx="2.5" ry="2.5" style="stroke:#3d58d3;stroke-width:.5"/><circle cx="634.25" cy="26.895" r="11" fill="#ADD1B2" style="stroke:#181818;stroke-width:1"/><path d="M637.219 32.535q-.578.297-1.219.438-.64.156-1.344.156-2.5 0-3.828-1.64-1.312-1.657-1.312-4.782t1.312-4.781q1.328-1.656 3.828-1.656.703 0 1.344.156.656.156 1.219.453v2.719q-.625-.578-1.219-.844-.594-.281-1.219-.281-1.343 0-2.031 1.078-.687 1.062-.687 3.156t.687 3.172q.688 1.062 2.031 1.062.625 0 1.219-.265.594-.281 1.219-.86z"/><text x="659.75" y="32.78" font-family="Helvetica" font-size="17" textLength="71">resource</text><path d="M566.5 46.789h225" style="stroke:#3d58d3;stroke-width:.5"/><text x="576.5" y="68.784" font-family="sans-serif" font-size="14" font-weight="bold" textLength="29">age</text><text x="605.5" y="68.784" font-family="sans-serif" font-size="14" textLength="66">: duration</text><text x="576.5" y="95.081" font-family="sans-serif" font-size="14" font-weight="bold" textLength="43">atime</text><text x="619.5" y="95.081" font-family="sans-serif" font-size="14" textLength="70">: datetime</text><text x="576.5" y="121.378" font-family="sans-serif" font-size="14" font-weight="bold" textLength="43">ctime</text><text x="619.5" y="121.378" font-family="sans-serif" font-size="14" textLength="70">: datetime</text><text x="576.5" y="147.675" font-family="sans-serif" font-size="14" font-weight="bold" textLength="14">id</text><text x="590.5" y="147.675" font-family="sans-serif" font-size="14" textLength="48">: string</text><text x="576.5" y="173.972" font-family="sans-serif" font-size="14" font-weight="bold" textLength="33">kind</text><text x="609.5" y="173.972" font-family="sans-serif" font-size="14" textLength="48">: string</text><text x="576.5" y="200.269" font-family="sans-serif" font-size="14" font-weight="bold" textLength="90">last_access</text><text x="666.5" y="200.269" font-family="sans-serif" font-size="14" textLength="66">: duration</text><text x="576.5" y="226.565" font-family="sans-serif" font-size="14" font-weight="bold" textLength="90">last_update</text><text x="666.5" y="226.565" font-family="sans-serif" font-size="14" textLength="66">: duration</text><text x="576.5" y="252.862" font-family="sans-serif" font-size="14" font-weight="bold" textLength="48">mtime</text><text x="624.5" y="252.862" font-family="sans-serif" font-size="14" textLength="70">: datetime</text><text x="576.5" y="279.159" font-family="sans-serif" font-size="14" font-weight="bold" textLength="43">name</text><text x="619.5" y="279.159" font-family="sans-serif" font-size="14" textLength="48">: string</text><text x="576.5" y="305.456" font-family="sans-serif" font-size="14" font-weight="bold" textLength="34">tags</text><text x="610.5" y="305.456" font-family="sans-serif" font-size="14" textLength="171">: dictionary[string, string]</text><g fill="none"><path d="M518.916 658.917C386.646 722.487 215.35 804.8 134.11 843.84" style="stroke:#111827;stroke-width:2"/><path d="m535.14 651.12-18.823 2.39 5.198 10.815z" style="stroke:#111827;stroke-width:2"/></g><g fill="none"><path d="M520.691 702.597C446.061 759.447 376.45 812.49 335.39 843.77" style="stroke:#111827;stroke-width:2"/><path d="m535.01 691.69-17.955 6.134 7.272 9.546z" style="stroke:#111827;stroke-width:2"/></g><path fill="none" d="M602.76 739.583c-23.02 47.58-38.14 78.827-50.48 104.347m58.32-120.55-13.24 13.59 10.802 5.226zm144.64 16.203c23.02 47.58 38.14 78.827 50.48 104.347M747.4 723.38l2.438 18.816 10.803-5.226zm91.308-54.878c115.95 62.8 254.772 137.998 323.622 175.298M822.88 659.93l12.97 13.848 5.715-10.551zM679 336.21V438.3m0-120.09-6 18h12zm161.105 313.996c200.07 62.35 536.505 167.204 678.905 211.594M822.92 626.85l15.4 11.084 3.57-11.457z" style="stroke:#111827;stroke-width:2"/></svg>