<svg xmlns="http://www.w3.org/2000/svg" width="792" height="1267" viewBox="0 0 792 1267"><rect width="238" height="39.789" x="7" y="1221.4" fill="#EEF7FF" rx="2.5" ry="2.5" style="stroke:#3d58d3;stroke-width:.5"/><circle cx="22" cy="1241.294" r="11" fill="#ADD1B2" style="stroke:#181818;stroke-width:1"/><path d="M24.969 1246.935q-.578.297-1.219.438-.64.156-1.344.156-2.5 0-3.828-1.64-1.312-1.657-1.312-4.782t1.312-4.781q1.328-1.657 3.828-1.657.703 0 1.344.157.656.156 1.219.453v2.719q-.625-.579-1.219-.844-.594-.281-1.219-.281-1.343 0-2.031 1.078-.687 1.062-.687 3.156t.687 3.172q.688 1.062 2.031 1.062.625 0 1.219-.265.594-.282 1.219-.86z"/><text x="41" y="1247.18" font-family="Helvetica" font-size="17" textLength="196">aws_ec2_instance_type</text><rect width="273" height="39.789" x="280.5" y="1221.4" fill="#EEF7FF" rx="2.5" ry="2.5" style="stroke:#3d58d3;stroke-width:.5"/><circle cx="295.5" cy="1241.294" r="11" fill="#ADD1B2" style="stroke:#181818;stroke-width:1"/><path d="M298.469 1246.935q-.578.297-1.219.438-.64.156-1.344.156-2.5 0-3.828-1.64-1.312-1.657-1.312-4.782t1.312-4.781q1.328-1.657 3.828-1.657.703 0 1.344.157.656.156 1.219.453v2.719q-.625-.579-1.219-.844-.594-.281-1.219-.281-1.344 0-2.031 1.078-.687 1.062-.687 3.156t.687 3.172q.688 1.062 2.031 1.062.625 0 1.219-.265.594-.282 1.219-.86z"/><text x="314.5" y="1247.18" font-family="Helvetica" font-size="17" textLength="231">azure_virtual_machine_size</text><rect width="197" height="39.789" x="588.5" y="1221.4" fill="#EEF7FF" rx="2.5" ry="2.5" style="stroke:#3d58d3;stroke-width:.5"/><circle cx="603.5" cy="1241.294" r="11" fill="#ADD1B2" style="stroke:#181818;stroke-width:1"/><path d="M606.469 1246.935q-.578.297-1.219.438-.64.156-1.344.156-2.5 0-3.828-1.64-1.312-1.657-1.312-4.782t1.312-4.781q1.328-1.657 3.828-1.657.703 0 1.344.157.656.156 1.219.453v2.719q-.625-.579-1.219-.844-.594-.281-1.219-.281-1.343 0-2.031 1.078-.687 1.062-.687 3.156t.687 3.172q.688 1.062 2.031 1.062.625 0 1.219-.265.594-.282 1.219-.86z"/><text x="622.5" y="1247.18" font-family="Helvetica" font-size="17" textLength="155">gcp_machine_type</text><rect width="217" height="179.273" x="308.5" y="921.13" fill="#EEF7FF" rx="2.5" ry="2.5" style="stroke:#3d58d3;stroke-width:.5"/><circle cx="350.05" cy="941.024" r="11" fill="#ADD1B2" style="stroke:#181818;stroke-width:1"/><path d="M353.019 946.665q-.578.297-1.219.438-.64.156-1.344.156-2.5 0-3.828-1.64-1.312-1.657-1.312-4.782t1.312-4.781q1.328-1.657 3.828-1.657.703 0 1.344.157.656.156 1.219.453v2.719q-.625-.578-1.219-.844-.594-.281-1.219-.281-1.344 0-2.031 1.078-.687 1.062-.687 3.156t.687 3.172q.688 1.062 2.031 1.062.625 0 1.219-.265.594-.282 1.219-.86z"/><text x="374.95" y="946.91" font-family="Helvetica" font-size="17" textLength="116">instance_type</text><path d="M309.5 960.919h215" style="stroke:#3d58d3;stroke-width:.5"/><text x="319.5" y="982.914" font-family="sans-serif" font-size="14" font-weight="bold" textLength="119">instance_cores</text><text x="438.5" y="982.914" font-family="sans-serif" font-size="14" textLength="57">: double</text><text x="319.5" y="1009.211" font-family="sans-serif" font-size="14" font-weight="bold" textLength="138">instance_memory</text><text x="457.5" y="1009.211" font-family="sans-serif" font-size="14" textLength="57">: double</text><text x="319.5" y="1035.508" font-family="sans-serif" font-size="14" font-weight="bold" textLength="109">instance_type</text><text x="428.5" y="1035.508" font-family="sans-serif" font-size="14" textLength="48">: string</text><text x="319.5" y="1061.805" font-family="sans-serif" font-size="14" font-weight="bold" textLength="124">ondemand_cost</text><text x="443.5" y="1061.805" font-family="sans-serif" font-size="14" textLength="57">: double</text><text x="319.5" y="1088.102" font-family="sans-serif" font-size="14" font-weight="bold" textLength="100">reservations</text><text x="419.5" y="1088.102" font-family="sans-serif" font-size="14" textLength="44">: int64</text><rect width="198" height="39.789" x="318" y="438.76" fill="#EEF7FF" rx="2.5" ry="2.5" style="stroke:#3d58d3;stroke-width:.5"/><circle cx="333" cy="458.654" r="11" fill="#ADD1B2" style="stroke:#181818;stroke-width:1"/><path d="M335.969 464.295q-.578.297-1.219.438-.64.156-1.344.156-2.5 0-3.828-1.64-1.312-1.657-1.312-4.782t1.312-4.781q1.328-1.656 3.828-1.656.703 0 1.344.156.656.156 1.219.453v2.719q-.625-.579-1.219-.844-.594-.281-1.219-.281-1.344 0-2.031 1.078-.687 1.062-.687 3.156t.687 3.172q.688 1.062 2.031 1.062.625 0 1.219-.265.594-.281 1.219-.86z"/><text x="352" y="464.54" font-family="Helvetica" font-size="17" textLength="156">phantom_resource</text><rect width="90" height="39.789" x="372" y="599.55" fill="#EEF7FF" rx="2.5" ry="2.5" style="stroke:#3d58d3;stroke-width:.5"/><circle cx="387" cy="619.444" r="11" fill="#ADD1B2" style="stroke:#181818;stroke-width:1"/><path d="M389.969 625.085q-.578.297-1.219.438-.64.156-1.344.156-2.5 0-3.828-1.64-1.312-1.657-1.312-4.782t1.312-4.781q1.328-1.657 3.828-1.657.703 0 1.344.157.656.156 1.219.453v2.719q-.625-.579-1.219-.844-.594-.281-1.219-.281-1.344 0-2.031 1.078-.687 1.062-.687 3.156t.687 3.172q.688 1.062 2.031 1.062.625 0 1.219-.265.594-.282 1.219-.86z"/><text x="406" y="625.33" font-family="Helvetica" font-size="17" textLength="48">quota</text><rect width="227" height="310.758" x="303.5" y="7" fill="#EEF7FF" rx="2.5" ry="2.5" style="stroke:#3d58d3;stroke-width:.5"/><circle cx="372.25" cy="26.895" r="11" fill="#ADD1B2" style="stroke:#181818;stroke-width:1"/><path d="M375.219 32.535q-.578.297-1.219.438-.64.156-1.344.156-2.5 0-3.828-1.64-1.312-1.657-1.312-4.782t1.312-4.781q1.328-1.656 3.828-1.656.703 0 1.344.156.656.156 1.219.453v2.719q-.625-.578-1.219-.844-.594-.281-1.219-.281-1.344 0-2.031 1.078-.687 1.062-.687 3.156t.687 3.172q.688 1.062 2.031 1.062.625 0 1.219-.265.594-.281 1.219-.86z"/><text x="397.75" y="32.78" font-family="Helvetica" font-size="17" textLength="71">resource</text><path d="M304.5 46.789h225" style="stroke:#3d58d3;stroke-width:.5"/><text x="314.5" y="68.784" font-family="sans-serif" font-size="14" font-weight="bold" textLength="29">age</text><text x="343.5" y="68.784" font-family="sans-serif" font-size="14" textLength="66">: duration</text><text x="314.5" y="95.081" font-family="sans-serif" font-size="14" font-weight="bold" textLength="43">atime</text><text x="357.5" y="95.081" font-family="sans-serif" font-size="14" textLength="70">: datetime</text><text x="314.5" y="121.378" font-family="sans-serif" font-size="14" font-weight="bold" textLength="43">ctime</text><text x="357.5" y="121.378" font-family="sans-serif" font-size="14" textLength="70">: datetime</text><text x="314.5" y="147.675" font-family="sans-serif" font-size="14" font-weight="bold" textLength="14">id</text><text x="328.5" y="147.675" font-family="sans-serif" font-size="14" textLength="48">: string</text><text x="314.5" y="173.972" font-family="sans-serif" font-size="14" font-weight="bold" textLength="33">kind</text><text x="347.5" y="173.972" font-family="sans-serif" font-size="14" textLength="48">: string</text><text x="314.5" y="200.269" font-family="sans-serif" font-size="14" font-weight="bold" textLength="90">last_access</text><text x="404.5" y="200.269" font-family="sans-serif" font-size="14" textLength="66">: duration</text><text x="314.5" y="226.565" font-family="sans-serif" font-size="14" font-weight="bold" textLength="90">last_update</text><text x="404.5" y="226.565" font-family="sans-serif" font-size="14" textLength="66">: duration</text><text x="314.5" y="252.862" font-family="sans-serif" font-size="14" font-weight="bold" textLength="48">mtime</text><text x="362.5" y="252.862" font-family="sans-serif" font-size="14" textLength="70">: datetime</text><text x="314.5" y="279.159" font-family="sans-serif" font-size="14" font-weight="bold" textLength="43">name</text><text x="357.5" y="279.159" font-family="sans-serif" font-size="14" textLength="48">: string</text><text x="314.5" y="305.456" font-family="sans-serif" font-size="14" font-weight="bold" textLength="34">tags</text><text x="348.5" y="305.456" font-family="sans-serif" font-size="14" textLength="171">: dictionary[string, string]</text><rect width="79" height="39.789" x="377.5" y="760.34" fill="#EEF7FF" rx="2.5" ry="2.5" style="stroke:#3d58d3;stroke-width:.5"/><circle cx="392.5" cy="780.235" r="11" fill="#ADD1B2" style="stroke:#181818;stroke-width:1"/><path d="M395.469 785.875q-.578.297-1.219.438-.64.156-1.344.156-2.5 0-3.828-1.64-1.312-1.657-1.312-4.782t1.312-4.781q1.328-1.656 3.828-1.656.703 0 1.344.156.656.156 1.219.453v2.719q-.625-.578-1.219-.844-.594-.281-1.219-.281-1.344 0-2.031 1.078-.687 1.062-.687 3.156t.687 3.172q.688 1.062 2.031 1.062.625 0 1.219-.265.594-.281 1.219-.86z"/><text x="411.5" y="786.12" font-family="Helvetica" font-size="17" textLength="37">type</text><path fill="none" d="M294.073 1108.307c-57.47 45.13-108.963 85.573-143.633 112.793m157.79-123.91-17.862 6.398 7.41 9.438zM417 1118.77v102.54m0-120.54-6 18h12zm118.898 11.63c52.27 44.25 97.082 82.17 128.412 108.69m-142.15-120.32 9.861 16.21 7.754-9.16zM417 818.32v102.5m0-120.5-6 18h12zm0-464.48v102.83m0-120.83-6 18h12zm0 178.97v102.41m0-120.41-6 18h12zm0 178.79v102.41m0-120.41-6 18h12z" style="stroke:#111827;stroke-width:2"/></svg>