<svg xmlns="http://www.w3.org/2000/svg" width="291" height="1138" viewBox="0 0 291 1138"><rect width="277" height="205.57" x="7" y="660.14" fill="#EEF7FF" rx="2.5" ry="2.5" style="stroke:#3d58d3;stroke-width:.5"/><circle cx="22" cy="680.034" r="11" fill="#ADD1B2" style="stroke:#181818;stroke-width:1"/><path d="M24.969 685.675q-.578.297-1.219.438-.64.156-1.344.156-2.5 0-3.828-1.64-1.312-1.657-1.312-4.782t1.312-4.781q1.328-1.657 3.828-1.657.703 0 1.344.157.656.156 1.219.453v2.719q-.625-.579-1.219-.844-.594-.281-1.219-.281-1.343 0-2.031 1.078-.687 1.062-.687 3.156t.687 3.172q.688 1.062 2.031 1.062.625 0 1.219-.265.594-.282 1.219-.86z"/><text x="41" y="685.92" font-family="Helvetica" font-size="17" textLength="235">azure_mysql_server_log_file</text><path d="M8 699.929h275" style="stroke:#3d58d3;stroke-width:.5"/><text x="18" y="721.924" font-family="sans-serif" font-size="14" font-weight="bold" textLength="102">created_time</text><text x="120" y="721.924" font-family="sans-serif" font-size="14" textLength="70">: datetime</text><text x="18" y="748.221" font-family="sans-serif" font-size="14" font-weight="bold" textLength="144">last_modified_time</text><text x="162" y="748.221" font-family="sans-serif" font-size="14" textLength="70">: datetime</text><text x="18" y="774.518" font-family="sans-serif" font-size="14" font-weight="bold" textLength="79">size_in_kb</text><text x="97" y="774.518" font-family="sans-serif" font-size="14" textLength="44">: int64</text><text x="18" y="800.815" font-family="sans-serif" font-size="14" font-weight="bold" textLength="98">system_data</text><text x="116" y="800.815" font-family="sans-serif" font-size="14" textLength="142">: azure_system_data</text><text x="18" y="827.112" font-family="sans-serif" font-size="14" font-weight="bold" textLength="35">type</text><text x="53" y="827.112" font-family="sans-serif" font-size="14" textLength="48">: string</text><text x="18" y="853.409" font-family="sans-serif" font-size="14" font-weight="bold" textLength="21">url</text><text x="39" y="853.409" font-family="sans-serif" font-size="14" textLength="48">: string</text><rect width="241" height="205.57" x="25" y="925.71" fill="#EEF7FF" rx="2.5" ry="2.5" style="stroke:#3d58d3;stroke-width:.5"/><circle cx="57.1" cy="945.605" r="11" fill="#ADD1B2" style="stroke:#181818;stroke-width:1"/><path d="M60.069 951.245q-.578.297-1.219.438-.64.156-1.344.156-2.5 0-3.828-1.64-1.312-1.657-1.312-4.782t1.312-4.781q1.328-1.656 3.828-1.656.703 0 1.344.156.656.156 1.219.453v2.719q-.625-.578-1.219-.844-.594-.281-1.219-.281-1.343 0-2.031 1.078-.687 1.062-.687 3.156t.687 3.172q.688 1.062 2.031 1.062.625 0 1.219-.265.594-.281 1.219-.86z"/><text x="79.9" y="951.49" font-family="Helvetica" font-size="17" textLength="161">azure_system_data</text><path d="M26 965.499h239" style="stroke:#3d58d3;stroke-width:.5"/><text x="36" y="987.494" font-family="sans-serif" font-size="14" font-weight="bold" textLength="83">created_at</text><text x="119" y="987.494" font-family="sans-serif" font-size="14" textLength="70">: datetime</text><text x="36" y="1013.791" font-family="sans-serif" font-size="14" font-weight="bold" textLength="87">created_by</text><text x="123" y="1013.791" font-family="sans-serif" font-size="14" textLength="48">: string</text><text x="36" y="1040.088" font-family="sans-serif" font-size="14" font-weight="bold" textLength="129">created_by_type</text><text x="165" y="1040.088" font-family="sans-serif" font-size="14" textLength="48">: string</text><text x="36" y="1066.385" font-family="sans-serif" font-size="14" font-weight="bold" textLength="125">last_modified_at</text><text x="161" y="1066.385" font-family="sans-serif" font-size="14" textLength="70">: datetime</text><text x="36" y="1092.682" font-family="sans-serif" font-size="14" font-weight="bold" textLength="129">last_modified_by</text><text x="165" y="1092.682" font-family="sans-serif" font-size="14" textLength="48">: string</text><text x="36" y="1118.979" font-family="sans-serif" font-size="14" font-weight="bold" textLength="171">last_modified_by_type</text><text x="207" y="1118.979" font-family="sans-serif" font-size="14" textLength="48">: string</text><rect width="214" height="100.383" x="38.5" y="438.76" fill="#EEF7FF" rx="2.5" ry="2.5" style="stroke:#3d58d3;stroke-width:.5"/><circle cx="59.8" cy="458.654" r="11" fill="#ADD1B2" style="stroke:#181818;stroke-width:1"/><path d="M62.769 464.295q-.578.297-1.219.438-.64.156-1.344.156-2.5 0-3.828-1.64-1.312-1.657-1.312-4.782t1.312-4.781q1.328-1.656 3.828-1.656.703 0 1.344.156.656.156 1.219.453v2.719q-.625-.579-1.219-.844-.594-.281-1.219-.281-1.344 0-2.031 1.078-.687 1.062-.687 3.156t.687 3.172q.688 1.062 2.031 1.062.625 0 1.219-.265.594-.281 1.219-.86z"/><text x="80.2" y="464.54" font-family="Helvetica" font-size="17" textLength="158">microsoft_resource</text><path d="M39.5 478.549h212" style="stroke:#3d58d3;stroke-width:.5"/><text x="49.5" y="500.544" font-family="sans-serif" font-size="14" font-weight="bold" textLength="35">etag</text><text x="84.5" y="500.544" font-family="sans-serif" font-size="14" textLength="48">: string</text><text x="49.5" y="526.841" font-family="sans-serif" font-size="14" font-weight="bold" textLength="144">provisioning_state</text><text x="193.5" y="526.841" font-family="sans-serif" font-size="14" textLength="48">: string</text><rect width="227" height="310.758" x="32" y="7" fill="#EEF7FF" rx="2.5" ry="2.5" style="stroke:#3d58d3;stroke-width:.5"/><circle cx="100.75" cy="26.895" r="11" fill="#ADD1B2" style="stroke:#181818;stroke-width:1"/><path d="M103.719 32.535q-.578.297-1.219.438-.64.156-1.344.156-2.5 0-3.828-1.64-1.312-1.657-1.312-4.782t1.312-4.781q1.328-1.656 3.828-1.656.703 0 1.344.156.656.156 1.219.453v2.719q-.625-.578-1.219-.844-.594-.281-1.219-.281-1.344 0-2.031 1.078-.687 1.062-.687 3.156t.687 3.172q.688 1.062 2.031 1.062.625 0 1.219-.265.594-.281 1.219-.86z"/><text x="126.25" y="32.78" font-family="Helvetica" font-size="17" textLength="71">resource</text><path d="M33 46.789h225" style="stroke:#3d58d3;stroke-width:.5"/><text x="43" y="68.784" font-family="sans-serif" font-size="14" font-weight="bold" textLength="29">age</text><text x="72" y="68.784" font-family="sans-serif" font-size="14" textLength="66">: duration</text><text x="43" y="95.081" font-family="sans-serif" font-size="14" font-weight="bold" textLength="43">atime</text><text x="86" y="95.081" font-family="sans-serif" font-size="14" textLength="70">: datetime</text><text x="43" y="121.378" font-family="sans-serif" font-size="14" font-weight="bold" textLength="43">ctime</text><text x="86" y="121.378" font-family="sans-serif" font-size="14" textLength="70">: datetime</text><text x="43" y="147.675" font-family="sans-serif" font-size="14" font-weight="bold" textLength="14">id</text><text x="57" y="147.675" font-family="sans-serif" font-size="14" textLength="48">: string</text><text x="43" y="173.972" font-family="sans-serif" font-size="14" font-weight="bold" textLength="33">kind</text><text x="76" y="173.972" font-family="sans-serif" font-size="14" textLength="48">: string</text><text x="43" y="200.269" font-family="sans-serif" font-size="14" font-weight="bold" textLength="90">last_access</text><text x="133" y="200.269" font-family="sans-serif" font-size="14" textLength="66">: duration</text><text x="43" y="226.565" font-family="sans-serif" font-size="14" font-weight="bold" textLength="90">last_update</text><text x="133" y="226.565" font-family="sans-serif" font-size="14" textLength="66">: duration</text><text x="43" y="252.862" font-family="sans-serif" font-size="14" font-weight="bold" textLength="48">mtime</text><text x="91" y="252.862" font-family="sans-serif" font-size="14" textLength="70">: datetime</text><text x="43" y="279.159" font-family="sans-serif" font-size="14" font-weight="bold" textLength="43">name</text><text x="86" y="279.159" font-family="sans-serif" font-size="14" textLength="48">: string</text><text x="43" y="305.456" font-family="sans-serif" font-size="14" font-weight="bold" textLength="34">tags</text><text x="77" y="305.456" font-family="sans-serif" font-size="14" textLength="171">: dictionary[string, string]</text><path fill="none" d="M145.5 866.2v53.07" style="stroke:#111827;stroke-width:2"/><path fill="#111827" d="m145.5 925.27 4-9-4 4-4-4z" style="stroke:#111827;stroke-width:2"/><path fill="none" d="M145.5 557.52v102.23m0-120.23-6 18h12zm0-203.46v102.36m0-120.36-6 18h12z" style="stroke:#111827;stroke-width:2"/></svg>