<svg xmlns="http://www.w3.org/2000/svg" width="534" height="679" viewBox="0 0 534 679"><rect width="184" height="39.789" x="7" y="633.84" fill="#EEF7FF" rx="2.5" ry="2.5" style="stroke:#3d58d3;stroke-width:.5"/><circle cx="22" cy="653.735" r="11" fill="#ADD1B2" style="stroke:#181818;stroke-width:1"/><path d="M24.969 659.375q-.578.297-1.219.438-.64.156-1.344.156-2.5 0-3.828-1.64-1.312-1.657-1.312-4.782t1.312-4.781q1.328-1.656 3.828-1.656.703 0 1.344.156.656.156 1.219.453v2.719q-.625-.578-1.219-.844-.594-.281-1.219-.281-1.343 0-2.031 1.078-.687 1.062-.687 3.156t.687 3.172q.688 1.062 2.031 1.062.625 0 1.219-.265.594-.281 1.219-.86z"/><text x="41" y="659.62" font-family="Helvetica" font-size="17" textLength="142">aws_ec2_keypair</text><rect width="301" height="39.789" x="226.5" y="633.84" fill="#EEF7FF" rx="2.5" ry="2.5" style="stroke:#3d58d3;stroke-width:.5"/><circle cx="241.5" cy="653.735" r="11" fill="#ADD1B2" style="stroke:#181818;stroke-width:1"/><path d="M244.469 659.375q-.578.297-1.219.438-.64.156-1.344.156-2.5 0-3.828-1.64-1.312-1.657-1.312-4.782t1.312-4.781q1.328-1.656 3.828-1.656.703 0 1.344.156.656.156 1.219.453v2.719q-.625-.578-1.219-.844-.594-.281-1.219-.281-1.344 0-2.031 1.078-.687 1.062-.687 3.156t.687 3.172q.688 1.062 2.031 1.062.625 0 1.219-.265.594-.281 1.219-.86z"/><text x="260.5" y="659.62" font-family="Helvetica" font-size="17" textLength="259">azure_ssh_public_key_resource</text><rect width="154" height="74.086" x="161" y="438.76" fill="#EEF7FF" rx="2.5" ry="2.5" style="stroke:#3d58d3;stroke-width:.5"/><circle cx="198.5" cy="458.654" r="11" fill="#ADD1B2" style="stroke:#181818;stroke-width:1"/><path d="M201.469 464.295q-.578.297-1.219.438-.64.156-1.344.156-2.5 0-3.828-1.64-1.312-1.657-1.312-4.782t1.312-4.781q1.328-1.656 3.828-1.656.703 0 1.344.156.656.156 1.219.453v2.719q-.625-.579-1.219-.844-.594-.281-1.219-.281-1.344 0-2.031 1.078-.687 1.062-.687 3.156t.687 3.172q.688 1.062 2.031 1.062.625 0 1.219-.265.594-.281 1.219-.86z"/><text x="222.5" y="464.54" font-family="Helvetica" font-size="17" textLength="62">keypair</text><path d="M162 478.549h152" style="stroke:#3d58d3;stroke-width:.5"/><text x="172" y="500.544" font-family="sans-serif" font-size="14" font-weight="bold" textLength="84">fingerprint</text><text x="256" y="500.544" font-family="sans-serif" font-size="14" textLength="48">: string</text><rect width="227" height="310.758" x="124.5" y="7" fill="#EEF7FF" rx="2.5" ry="2.5" style="stroke:#3d58d3;stroke-width:.5"/><circle cx="193.25" cy="26.895" r="11" fill="#ADD1B2" style="stroke:#181818;stroke-width:1"/><path d="M196.219 32.535q-.578.297-1.219.438-.64.156-1.344.156-2.5 0-3.828-1.64-1.312-1.657-1.312-4.782t1.312-4.781q1.328-1.656 3.828-1.656.703 0 1.344.156.656.156 1.219.453v2.719q-.625-.578-1.219-.844-.594-.281-1.219-.281-1.344 0-2.031 1.078-.687 1.062-.687 3.156t.687 3.172q.688 1.062 2.031 1.062.625 0 1.219-.265.594-.281 1.219-.86z"/><text x="218.75" y="32.78" font-family="Helvetica" font-size="17" textLength="71">resource</text><path d="M125.5 46.789h225" style="stroke:#3d58d3;stroke-width:.5"/><text x="135.5" y="68.784" font-family="sans-serif" font-size="14" font-weight="bold" textLength="29">age</text><text x="164.5" y="68.784" font-family="sans-serif" font-size="14" textLength="66">: duration</text><text x="135.5" y="95.081" font-family="sans-serif" font-size="14" font-weight="bold" textLength="43">atime</text><text x="178.5" y="95.081" font-family="sans-serif" font-size="14" textLength="70">: datetime</text><text x="135.5" y="121.378" font-family="sans-serif" font-size="14" font-weight="bold" textLength="43">ctime</text><text x="178.5" y="121.378" font-family="sans-serif" font-size="14" textLength="70">: datetime</text><text x="135.5" y="147.675" font-family="sans-serif" font-size="14" font-weight="bold" textLength="14">id</text><text x="149.5" y="147.675" font-family="sans-serif" font-size="14" textLength="48">: string</text><text x="135.5" y="173.972" font-family="sans-serif" font-size="14" font-weight="bold" textLength="33">kind</text><text x="168.5" y="173.972" font-family="sans-serif" font-size="14" textLength="48">: string</text><text x="135.5" y="200.269" font-family="sans-serif" font-size="14" font-weight="bold" textLength="90">last_access</text><text x="225.5" y="200.269" font-family="sans-serif" font-size="14" textLength="66">: duration</text><text x="135.5" y="226.565" font-family="sans-serif" font-size="14" font-weight="bold" textLength="90">last_update</text><text x="225.5" y="226.565" font-family="sans-serif" font-size="14" textLength="66">: duration</text><text x="135.5" y="252.862" font-family="sans-serif" font-size="14" font-weight="bold" textLength="48">mtime</text><text x="183.5" y="252.862" font-family="sans-serif" font-size="14" textLength="70">: datetime</text><text x="135.5" y="279.159" font-family="sans-serif" font-size="14" font-weight="bold" textLength="43">name</text><text x="178.5" y="279.159" font-family="sans-serif" font-size="14" textLength="48">: string</text><text x="135.5" y="305.456" font-family="sans-serif" font-size="14" font-weight="bold" textLength="34">tags</text><text x="169.5" y="305.456" font-family="sans-serif" font-size="14" textLength="171">: dictionary[string, string]</text><g fill="none"><path d="M198.04 527.373c-28.95 36.64-61.27 77.557-84 106.317" style="stroke:#111827;stroke-width:2"/><path d="m209.2 513.25-15.867 10.404 9.416 7.44z" style="stroke:#111827;stroke-width:2"/></g><path fill="none" d="M277.96 527.373c28.95 36.64 61.27 77.557 84 106.317M266.8 513.25l6.451 17.843 9.416-7.44zM238 336.17v102.34m0-120.34-6 18h12z" style="stroke:#111827;stroke-width:2"/></svg>