<svg xmlns="http://www.w3.org/2000/svg" width="1082" height="645" viewBox="0 0 1082 645"><rect width="271" height="39.789" x="7" y="599.55" fill="#EEF7FF" rx="2.5" ry="2.5" style="stroke:#3d58d3;stroke-width:.5"/><circle cx="22" cy="619.444" r="11" fill="#ADD1B2" style="stroke:#181818;stroke-width:1"/><path d="M24.969 625.085q-.578.297-1.219.438-.64.156-1.344.156-2.5 0-3.828-1.64-1.312-1.657-1.312-4.782t1.312-4.781q1.328-1.657 3.828-1.657.703 0 1.344.157.656.156 1.219.453v2.719q-.625-.579-1.219-.844-.594-.281-1.219-.281-1.343 0-2.031 1.078-.687 1.062-.687 3.156t.687 3.172q.688 1.062 2.031 1.062.625 0 1.219-.265.594-.282 1.219-.86z"/><text x="41" y="625.33" font-family="Helvetica" font-size="17" textLength="229">aws_ec2_internet_gateway</text><rect width="231" height="39.789" x="313" y="599.55" fill="#EEF7FF" rx="2.5" ry="2.5" style="stroke:#3d58d3;stroke-width:.5"/><circle cx="328" cy="619.444" r="11" fill="#ADD1B2" style="stroke:#181818;stroke-width:1"/><path d="M330.969 625.085q-.578.297-1.219.438-.64.156-1.344.156-2.5 0-3.828-1.64-1.312-1.657-1.312-4.782t1.312-4.781q1.328-1.657 3.828-1.657.703 0 1.344.157.656.156 1.219.453v2.719q-.625-.579-1.219-.844-.594-.281-1.219-.281-1.344 0-2.031 1.078-.687 1.062-.687 3.156t.687 3.172q.688 1.062 2.031 1.062.625 0 1.219-.265.594-.282 1.219-.86z"/><text x="347" y="625.33" font-family="Helvetica" font-size="17" textLength="189">aws_ec2_nat_gateway</text><rect width="114" height="39.789" x="513.5" y="438.76" fill="#EEF7FF" rx="2.5" ry="2.5" style="stroke:#3d58d3;stroke-width:.5"/><circle cx="528.5" cy="458.654" r="11" fill="#ADD1B2" style="stroke:#181818;stroke-width:1"/><path d="M531.469 464.295q-.578.297-1.219.438-.64.156-1.344.156-2.5 0-3.828-1.64-1.312-1.657-1.312-4.782t1.312-4.781q1.328-1.656 3.828-1.656.703 0 1.344.156.656.156 1.219.453v2.719q-.625-.579-1.219-.844-.594-.281-1.219-.281-1.343 0-2.031 1.078-.687 1.062-.687 3.156t.687 3.172q.688 1.062 2.031 1.062.625 0 1.219-.265.594-.281 1.219-.86z"/><text x="547.5" y="464.54" font-family="Helvetica" font-size="17" textLength="72">gateway</text><rect width="270" height="39.789" x="578.5" y="599.55" fill="#EEF7FF" rx="2.5" ry="2.5" style="stroke:#3d58d3;stroke-width:.5"/><circle cx="593.5" cy="619.444" r="11" fill="#ADD1B2" style="stroke:#181818;stroke-width:1"/><path d="M596.469 625.085q-.578.297-1.219.438-.64.156-1.344.156-2.5 0-3.828-1.64-1.312-1.657-1.312-4.782t1.312-4.781q1.328-1.657 3.828-1.657.703 0 1.344.157.656.156 1.219.453v2.719q-.625-.579-1.219-.844-.594-.281-1.219-.281-1.343 0-2.031 1.078-.687 1.062-.687 3.156t.687 3.172q.688 1.062 2.031 1.062.625 0 1.219-.265.594-.282 1.219-.86z"/><text x="612.5" y="625.33" font-family="Helvetica" font-size="17" textLength="228">gcp_external_vpn_gateway</text><rect width="191" height="39.789" x="884" y="599.55" fill="#EEF7FF" rx="2.5" ry="2.5" style="stroke:#3d58d3;stroke-width:.5"/><circle cx="899" cy="619.444" r="11" fill="#ADD1B2" style="stroke:#181818;stroke-width:1"/><path d="M901.969 625.085q-.578.297-1.219.438-.64.156-1.344.156-2.5 0-3.828-1.64-1.312-1.657-1.312-4.782t1.312-4.781q1.328-1.657 3.828-1.657.703 0 1.344.157.656.156 1.219.453v2.719q-.625-.579-1.219-.844-.594-.281-1.219-.281-1.343 0-2.031 1.078-.687 1.062-.687 3.156t.687 3.172q.688 1.062 2.031 1.062.625 0 1.219-.265.594-.282 1.219-.86z"/><text x="918" y="625.33" font-family="Helvetica" font-size="17" textLength="149">gcp_vpn_gateway</text><rect width="227" height="310.758" x="457" y="7" fill="#EEF7FF" rx="2.5" ry="2.5" style="stroke:#3d58d3;stroke-width:.5"/><circle cx="525.75" cy="26.895" r="11" fill="#ADD1B2" style="stroke:#181818;stroke-width:1"/><path d="M528.719 32.535q-.578.297-1.219.438-.64.156-1.344.156-2.5 0-3.828-1.64-1.312-1.657-1.312-4.782t1.312-4.781q1.328-1.656 3.828-1.656.703 0 1.344.156.656.156 1.219.453v2.719q-.625-.578-1.219-.844-.594-.281-1.219-.281-1.343 0-2.031 1.078-.687 1.062-.687 3.156t.687 3.172q.688 1.062 2.031 1.062.625 0 1.219-.265.594-.281 1.219-.86z"/><text x="551.25" y="32.78" font-family="Helvetica" font-size="17" textLength="71">resource</text><path d="M458 46.789h225" style="stroke:#3d58d3;stroke-width:.5"/><text x="468" y="68.784" font-family="sans-serif" font-size="14" font-weight="bold" textLength="29">age</text><text x="497" y="68.784" font-family="sans-serif" font-size="14" textLength="66">: duration</text><text x="468" y="95.081" font-family="sans-serif" font-size="14" font-weight="bold" textLength="43">atime</text><text x="511" y="95.081" font-family="sans-serif" font-size="14" textLength="70">: datetime</text><text x="468" y="121.378" font-family="sans-serif" font-size="14" font-weight="bold" textLength="43">ctime</text><text x="511" y="121.378" font-family="sans-serif" font-size="14" textLength="70">: datetime</text><text x="468" y="147.675" font-family="sans-serif" font-size="14" font-weight="bold" textLength="14">id</text><text x="482" y="147.675" font-family="sans-serif" font-size="14" textLength="48">: string</text><text x="468" y="173.972" font-family="sans-serif" font-size="14" font-weight="bold" textLength="33">kind</text><text x="501" y="173.972" font-family="sans-serif" font-size="14" textLength="48">: string</text><text x="468" y="200.269" font-family="sans-serif" font-size="14" font-weight="bold" textLength="90">last_access</text><text x="558" y="200.269" font-family="sans-serif" font-size="14" textLength="66">: duration</text><text x="468" y="226.565" font-family="sans-serif" font-size="14" font-weight="bold" textLength="90">last_update</text><text x="558" y="226.565" font-family="sans-serif" font-size="14" textLength="66">: duration</text><text x="468" y="252.862" font-family="sans-serif" font-size="14" font-weight="bold" textLength="48">mtime</text><text x="516" y="252.862" font-family="sans-serif" font-size="14" textLength="70">: datetime</text><text x="468" y="279.159" font-family="sans-serif" font-size="14" font-weight="bold" textLength="43">name</text><text x="511" y="279.159" font-family="sans-serif" font-size="14" textLength="48">: string</text><text x="468" y="305.456" font-family="sans-serif" font-size="14" font-weight="bold" textLength="34">tags</text><text x="502" y="305.456" font-family="sans-serif" font-size="14" textLength="171">: dictionary[string, string]</text><g fill="none"><path d="M501.574 485.23c-82.32 30.54-224.754 83.38-307.044 113.91" style="stroke:#111827;stroke-width:2"/><path d="m518.45 478.97-18.963.635 4.174 11.251z" style="stroke:#111827;stroke-width:2"/></g><g fill="none"><path d="M541.372 492.228c-27.29 30.52-68.352 76.432-95.682 106.992" style="stroke:#111827;stroke-width:2"/><path d="m553.37 478.81-16.47 9.419 8.945 7.999z" style="stroke:#111827;stroke-width:2"/></g><path fill="none" d="M570.5 335.85v102.83m0-120.83-6 18h12zm29.294 174.337c27.48 30.52 68.876 76.473 96.396 107.033M587.75 478.81l7.585 17.391 8.918-8.03z" style="stroke:#111827;stroke-width:2"/><g fill="none"><path d="M637.02 485.484c78.67 30.54 214.12 83.126 292.76 113.656" style="stroke:#111827;stroke-width:2"/><path d="m620.24 478.97 14.609 12.107 4.342-11.186z" style="stroke:#111827;stroke-width:2"/></g></svg>