<svg xmlns="http://www.w3.org/2000/svg" width="1155" height="1745" viewBox="0 0 1155 1745"><rect width="237" height="179.273" x="18.5" y="1399.05" fill="#EEF7FF" rx="2.5" ry="2.5" style="stroke:#3d58d3;stroke-width:.5"/><circle cx="33.5" cy="1418.945" r="11" fill="#ADD1B2" style="stroke:#181818;stroke-width:1"/><path d="M36.469 1424.585q-.578.297-1.219.438-.64.156-1.344.156-2.5 0-3.828-1.64-1.312-1.657-1.312-4.782t1.312-4.781q1.328-1.657 3.828-1.657.703 0 1.344.157.656.156 1.219.453v2.719q-.625-.578-1.219-.844-.594-.281-1.219-.281-1.343 0-2.031 1.078-.687 1.062-.687 3.156t.687 3.172q.688 1.062 2.031 1.062.625 0 1.219-.265.594-.282 1.219-.86z"/><text x="52.5" y="1424.83" font-family="Helvetica" font-size="17" textLength="195">gcp_deprecation_status</text><path d="M19.5 1438.839h235" style="stroke:#3d58d3;stroke-width:.5"/><text x="29.5" y="1460.834" font-family="sans-serif" font-size="14" font-weight="bold" textLength="60">deleted</text><text x="89.5" y="1460.834" font-family="sans-serif" font-size="14" textLength="48">: string</text><text x="29.5" y="1487.131" font-family="sans-serif" font-size="14" font-weight="bold" textLength="91">deprecated</text><text x="120.5" y="1487.131" font-family="sans-serif" font-size="14" textLength="48">: string</text><text x="29.5" y="1513.428" font-family="sans-serif" font-size="14" font-weight="bold" textLength="69">obsolete</text><text x="98.5" y="1513.428" font-family="sans-serif" font-size="14" textLength="48">: string</text><text x="29.5" y="1539.725" font-family="sans-serif" font-size="14" font-weight="bold" textLength="99">replacement</text><text x="128.5" y="1539.725" font-family="sans-serif" font-size="14" textLength="48">: string</text><text x="29.5" y="1566.022" font-family="sans-serif" font-size="14" font-weight="bold" textLength="40">state</text><text x="69.5" y="1566.022" font-family="sans-serif" font-size="14" textLength="48">: string</text><rect width="632" height="626.32" x="204" y="712.73" fill="#EEF7FF" rx="2.5" ry="2.5" style="stroke:#3d58d3;stroke-width:.5"/><circle cx="425.75" cy="732.625" r="11" fill="#ADD1B2" style="stroke:#181818;stroke-width:1"/><path d="M428.719 738.265q-.578.297-1.219.438-.64.156-1.344.156-2.5 0-3.828-1.64-1.312-1.657-1.312-4.782t1.312-4.781q1.328-1.656 3.828-1.656.703 0 1.344.156.656.156 1.219.453v2.719q-.625-.578-1.219-.844-.594-.281-1.219-.281-1.344 0-2.031 1.078-.687 1.062-.687 3.156t.687 3.172q.688 1.062 2.031 1.062.625 0 1.219-.265.594-.281 1.219-.86z"/><text x="451.25" y="738.51" font-family="Helvetica" font-size="17" textLength="170">gcp_forwarding_rule</text><path d="M205 752.519h630" style="stroke:#3d58d3;stroke-width:.5"/><text x="215" y="774.514" font-family="sans-serif" font-size="14" font-weight="bold" textLength="66">all_ports</text><text x="281" y="774.514" font-family="sans-serif" font-size="14" textLength="65">: boolean</text><text x="215" y="800.811" font-family="sans-serif" font-size="14" font-weight="bold" textLength="157">allow_global_access</text><text x="372" y="800.811" font-family="sans-serif" font-size="14" textLength="65">: boolean</text><text x="215" y="827.108" font-family="sans-serif" font-size="14" font-weight="bold" textLength="132">backend_service</text><text x="347" y="827.108" font-family="sans-serif" font-size="14" textLength="48">: string</text><text x="215" y="853.405" font-family="sans-serif" font-size="14" font-weight="bold" textLength="84">fingerprint</text><text x="299" y="853.405" font-family="sans-serif" font-size="14" textLength="48">: string</text><text x="215" y="879.702" font-family="sans-serif" font-size="14" font-weight="bold" textLength="85">ip_address</text><text x="300" y="879.702" font-family="sans-serif" font-size="14" textLength="48">: string</text><text x="215" y="905.999" font-family="sans-serif" font-size="14" font-weight="bold" textLength="87">ip_protocol</text><text x="302" y="905.999" font-family="sans-serif" font-size="14" textLength="48">: string</text><text x="215" y="932.295" font-family="sans-serif" font-size="14" font-weight="bold" textLength="80">ip_version</text><text x="295" y="932.295" font-family="sans-serif" font-size="14" textLength="48">: string</text><text x="215" y="958.592" font-family="sans-serif" font-size="14" font-weight="bold" textLength="169">is_mirroring_collector</text><text x="384" y="958.592" font-family="sans-serif" font-size="14" textLength="65">: boolean</text><text x="215" y="984.889" font-family="sans-serif" font-size="14" font-weight="bold" textLength="184">load_balancing_scheme</text><text x="399" y="984.889" font-family="sans-serif" font-size="14" textLength="48">: string</text><text x="215" y="1011.186" font-family="sans-serif" font-size="14" font-weight="bold" textLength="126">metadata_filters</text><text x="341" y="1011.186" font-family="sans-serif" font-size="14" textLength="153">: gcp_metadata_filter[]</text><text x="215" y="1037.483" font-family="sans-serif" font-size="14" font-weight="bold" textLength="66">network</text><text x="281" y="1037.483" font-family="sans-serif" font-size="14" textLength="48">: string</text><text x="215" y="1063.78" font-family="sans-serif" font-size="14" font-weight="bold" textLength="100">network_tier</text><text x="315" y="1063.78" font-family="sans-serif" font-size="14" textLength="48">: string</text><text x="215" y="1090.077" font-family="sans-serif" font-size="14" font-weight="bold" textLength="183">no_automate_dns_zone</text><text x="398" y="1090.077" font-family="sans-serif" font-size="14" textLength="65">: boolean</text><text x="215" y="1116.374" font-family="sans-serif" font-size="14" font-weight="bold" textLength="86">port_range</text><text x="301" y="1116.374" font-family="sans-serif" font-size="14" textLength="48">: string</text><text x="215" y="1142.67" font-family="sans-serif" font-size="14" font-weight="bold" textLength="42">ports</text><text x="257" y="1142.67" font-family="sans-serif" font-size="14" textLength="58">: string[]</text><text x="215" y="1168.967" font-family="sans-serif" font-size="14" font-weight="bold" textLength="144">psc_connection_id</text><text x="359" y="1168.967" font-family="sans-serif" font-size="14" textLength="48">: string</text><text x="215" y="1195.264" font-family="sans-serif" font-size="14" font-weight="bold" textLength="179">psc_connection_status</text><text x="394" y="1195.264" font-family="sans-serif" font-size="14" textLength="48">: string</text><text x="215" y="1221.561" font-family="sans-serif" font-size="14" font-weight="bold" textLength="245">service_directory_registrations</text><text x="460" y="1221.561" font-family="sans-serif" font-size="14" textLength="365">: gcp_forwarding_rule_service_directory_registration[]</text><text x="215" y="1247.858" font-family="sans-serif" font-size="14" font-weight="bold" textLength="102">service_label</text><text x="317" y="1247.858" font-family="sans-serif" font-size="14" textLength="48">: string</text><text x="215" y="1274.155" font-family="sans-serif" font-size="14" font-weight="bold" textLength="108">service_name</text><text x="323" y="1274.155" font-family="sans-serif" font-size="14" textLength="48">: string</text><text x="215" y="1300.452" font-family="sans-serif" font-size="14" font-weight="bold" textLength="95">subnetwork</text><text x="310" y="1300.452" font-family="sans-serif" font-size="14" textLength="48">: string</text><text x="215" y="1326.749" font-family="sans-serif" font-size="14" font-weight="bold" textLength="48">target</text><text x="263" y="1326.749" font-family="sans-serif" font-size="14" textLength="48">: string</text><rect width="468" height="126.68" x="291" y="1425.35" fill="#EEF7FF" rx="2.5" ry="2.5" style="stroke:#3d58d3;stroke-width:.5"/><circle cx="306" cy="1445.245" r="11" fill="#ADD1B2" style="stroke:#181818;stroke-width:1"/><path d="M308.969 1450.885q-.578.297-1.219.438-.64.156-1.344.156-2.5 0-3.828-1.64-1.312-1.657-1.312-4.782t1.312-4.781q1.328-1.657 3.828-1.657.703 0 1.344.157.656.156 1.219.453v2.719q-.625-.579-1.219-.844-.594-.281-1.219-.281-1.344 0-2.031 1.078-.687 1.062-.687 3.156t.687 3.172q.688 1.062 2.031 1.062.625 0 1.219-.265.594-.282 1.219-.86z"/><text x="325" y="1451.13" font-family="Helvetica" font-size="17" textLength="426">gcp_forwarding_rule_service_directory_registration</text><path d="M292 1465.139h466" style="stroke:#3d58d3;stroke-width:.5"/><text x="302" y="1487.134" font-family="sans-serif" font-size="14" font-weight="bold" textLength="90">namespace</text><text x="392" y="1487.134" font-family="sans-serif" font-size="14" textLength="48">: string</text><text x="302" y="1513.431" font-family="sans-serif" font-size="14" font-weight="bold" textLength="58">service</text><text x="360" y="1513.431" font-family="sans-serif" font-size="14" textLength="48">: string</text><text x="302" y="1539.728" font-family="sans-serif" font-size="14" font-weight="bold" textLength="195">service_directory_region</text><text x="497" y="1539.728" font-family="sans-serif" font-size="14" textLength="48">: string</text><rect width="354" height="100.383" x="794" y="1438.5" fill="#EEF7FF" rx="2.5" ry="2.5" style="stroke:#3d58d3;stroke-width:.5"/><circle cx="878.25" cy="1458.395" r="11" fill="#ADD1B2" style="stroke:#181818;stroke-width:1"/><path d="M881.219 1464.035q-.578.297-1.219.438-.64.156-1.344.156-2.5 0-3.828-1.64-1.312-1.657-1.312-4.782t1.312-4.781q1.328-1.656 3.828-1.656.703 0 1.344.156.656.156 1.219.453v2.719q-.625-.578-1.219-.844-.594-.281-1.219-.281-1.343 0-2.031 1.078-.687 1.062-.687 3.156t.687 3.172q.688 1.062 2.031 1.062.625 0 1.219-.265.594-.281 1.219-.86z"/><text x="903.75" y="1464.28" font-family="Helvetica" font-size="17" textLength="167">gcp_metadata_filter</text><path d="M795 1478.289h352" style="stroke:#3d58d3;stroke-width:.5"/><text x="805" y="1500.284" font-family="sans-serif" font-size="14" font-weight="bold" textLength="90">filter_labels</text><text x="895" y="1500.284" font-family="sans-serif" font-size="14" textLength="242">: gcp_metadata_filter_label_match[]</text><text x="805" y="1526.581" font-family="sans-serif" font-size="14" font-weight="bold" textLength="155">filter_match_criteria</text><text x="960" y="1526.581" font-family="sans-serif" font-size="14" textLength="48">: string</text><rect width="320" height="100.383" x="811" y="1638.33" fill="#EEF7FF" rx="2.5" ry="2.5" style="stroke:#3d58d3;stroke-width:.5"/><circle cx="826" cy="1658.225" r="11" fill="#ADD1B2" style="stroke:#181818;stroke-width:1"/><path d="M828.969 1663.865q-.578.297-1.219.438-.64.156-1.344.156-2.5 0-3.828-1.64-1.312-1.657-1.312-4.782t1.312-4.781q1.328-1.657 3.828-1.657.703 0 1.344.157.656.156 1.219.453v2.719q-.625-.579-1.219-.844-.594-.281-1.219-.281-1.343 0-2.031 1.078-.687 1.062-.687 3.156t.687 3.172q.688 1.062 2.031 1.062.625 0 1.219-.265.594-.282 1.219-.86z"/><text x="845" y="1664.11" font-family="Helvetica" font-size="17" textLength="278">gcp_metadata_filter_label_match</text><path d="M812 1678.119h318" style="stroke:#3d58d3;stroke-width:.5"/><text x="822" y="1700.114" font-family="sans-serif" font-size="14" font-weight="bold" textLength="43">name</text><text x="865" y="1700.114" font-family="sans-serif" font-size="14" textLength="48">: string</text><text x="822" y="1726.411" font-family="sans-serif" font-size="14" font-weight="bold" textLength="42">value</text><text x="864" y="1726.411" font-family="sans-serif" font-size="14" textLength="48">: string</text><rect width="348" height="152.977" x="7" y="438.76" fill="#EEF7FF" rx="2.5" ry="2.5" style="stroke:#3d58d3;stroke-width:.5"/><circle cx="117.75" cy="458.654" r="11" fill="#ADD1B2" style="stroke:#181818;stroke-width:1"/><path d="M120.719 464.295q-.578.297-1.219.438-.64.156-1.344.156-2.5 0-3.828-1.64-1.312-1.657-1.312-4.782t1.312-4.781q1.328-1.656 3.828-1.656.703 0 1.344.156.656.156 1.219.453v2.719q-.625-.579-1.219-.844-.594-.281-1.219-.281-1.344 0-2.031 1.078-.687 1.062-.687 3.156t.687 3.172q.688 1.062 2.031 1.062.625 0 1.219-.265.594-.281 1.219-.86z"/><text x="143.25" y="464.54" font-family="Helvetica" font-size="17" textLength="108">gcp_resource</text><path d="M8 478.549h346" style="stroke:#3d58d3;stroke-width:.5"/><text x="18" y="500.544" font-family="sans-serif" font-size="14" font-weight="bold" textLength="151">deprecation_status</text><text x="169" y="500.544" font-family="sans-serif" font-size="14" textLength="175">: gcp_deprecation_status</text><text x="18" y="526.841" font-family="sans-serif" font-size="14" font-weight="bold" textLength="89">description</text><text x="107" y="526.841" font-family="sans-serif" font-size="14" textLength="48">: string</text><text x="18" y="553.138" font-family="sans-serif" font-size="14" font-weight="bold" textLength="128">label_fingerprint</text><text x="146" y="553.138" font-family="sans-serif" font-size="14" textLength="48">: string</text><text x="18" y="579.435" font-family="sans-serif" font-size="14" font-weight="bold" textLength="27">link</text><text x="45" y="579.435" font-family="sans-serif" font-size="14" textLength="48">: string</text><rect width="227" height="310.758" x="67.5" y="7" fill="#EEF7FF" rx="2.5" ry="2.5" style="stroke:#3d58d3;stroke-width:.5"/><circle cx="136.25" cy="26.895" r="11" fill="#ADD1B2" style="stroke:#181818;stroke-width:1"/><path d="M139.219 32.535q-.578.297-1.219.438-.64.156-1.344.156-2.5 0-3.828-1.64-1.312-1.657-1.312-4.782t1.312-4.781q1.328-1.656 3.828-1.656.703 0 1.344.156.656.156 1.219.453v2.719q-.625-.578-1.219-.844-.594-.281-1.219-.281-1.344 0-2.031 1.078-.687 1.062-.687 3.156t.687 3.172q.688 1.062 2.031 1.062.625 0 1.219-.265.594-.281 1.219-.86z"/><text x="161.75" y="32.78" font-family="Helvetica" font-size="17" textLength="71">resource</text><path d="M68.5 46.789h225" style="stroke:#3d58d3;stroke-width:.5"/><text x="78.5" y="68.784" font-family="sans-serif" font-size="14" font-weight="bold" textLength="29">age</text><text x="107.5" y="68.784" font-family="sans-serif" font-size="14" textLength="66">: duration</text><text x="78.5" y="95.081" font-family="sans-serif" font-size="14" font-weight="bold" textLength="43">atime</text><text x="121.5" y="95.081" font-family="sans-serif" font-size="14" textLength="70">: datetime</text><text x="78.5" y="121.378" font-family="sans-serif" font-size="14" font-weight="bold" textLength="43">ctime</text><text x="121.5" y="121.378" font-family="sans-serif" font-size="14" textLength="70">: datetime</text><text x="78.5" y="147.675" font-family="sans-serif" font-size="14" font-weight="bold" textLength="14">id</text><text x="92.5" y="147.675" font-family="sans-serif" font-size="14" textLength="48">: string</text><text x="78.5" y="173.972" font-family="sans-serif" font-size="14" font-weight="bold" textLength="33">kind</text><text x="111.5" y="173.972" font-family="sans-serif" font-size="14" textLength="48">: string</text><text x="78.5" y="200.269" font-family="sans-serif" font-size="14" font-weight="bold" textLength="90">last_access</text><text x="168.5" y="200.269" font-family="sans-serif" font-size="14" textLength="66">: duration</text><text x="78.5" y="226.565" font-family="sans-serif" font-size="14" font-weight="bold" textLength="90">last_update</text><text x="168.5" y="226.565" font-family="sans-serif" font-size="14" textLength="66">: duration</text><text x="78.5" y="252.862" font-family="sans-serif" font-size="14" font-weight="bold" textLength="48">mtime</text><text x="126.5" y="252.862" font-family="sans-serif" font-size="14" textLength="70">: datetime</text><text x="78.5" y="279.159" font-family="sans-serif" font-size="14" font-weight="bold" textLength="43">name</text><text x="121.5" y="279.159" font-family="sans-serif" font-size="14" textLength="48">: string</text><text x="78.5" y="305.456" font-family="sans-serif" font-size="14" font-weight="bold" textLength="34">tags</text><text x="112.5" y="305.456" font-family="sans-serif" font-size="14" textLength="171">: dictionary[string, string]</text><path fill="none" d="M260.29 1339.35c-17.61 21.19-30.494 36.696-45.624 54.896" style="stroke:#111827;stroke-width:2"/><path fill="#111827" d="m210.83 1398.86 8.83-4.364-5.634.52-.519-5.634z" style="stroke:#111827;stroke-width:2"/><path fill="none" d="M523.39 1339.35c.35 31.95.605 55.47.865 79.62" style="stroke:#111827;stroke-width:2"/><path fill="#111827" d="m524.32 1424.97 3.903-9.043-3.957 4.043-4.043-3.956z" style="stroke:#111827;stroke-width:2"/><path fill="none" d="M825.82 1339.35c37.23 38.04 66.903 68.362 92.543 94.562" style="stroke:#111827;stroke-width:2"/><path fill="#111827" d="m922.56 1438.2-3.436-9.23-.061 5.657-5.657-.062z" style="stroke:#111827;stroke-width:2"/><g fill="none"><path d="M241.55 607.1c22.42 33.65 40.47 60.72 70.17 105.29" style="stroke:#111827;stroke-width:2"/><path d="m231.57 592.12 4.987 18.307 9.987-6.654z" style="stroke:#111827;stroke-width:2"/></g><path fill="none" d="M971 1539.36v92.47" style="stroke:#111827;stroke-width:2"/><path fill="#111827" d="m971 1637.83 4-9-4 4-4-4z" style="stroke:#111827;stroke-width:2"/><path fill="none" d="M177.57 592.07c-8.03 177.16-27.709 611.556-36.279 800.846" style="stroke:#111827;stroke-width:2"/><path fill="#111827" d="m141.02 1398.91 4.403-8.81-4.177 3.815-3.815-4.177z" style="stroke:#111827;stroke-width:2"/><path fill="none" d="M181 336.04v102.27m0-120.27-6 18h12z" style="stroke:#111827;stroke-width:2"/></svg>