<svg xmlns="http://www.w3.org/2000/svg" width="346" height="837" viewBox="0 0 346 837"><rect width="185" height="39.789" x="7" y="791.62" fill="#EEF7FF" rx="2.5" ry="2.5" style="stroke:#3d58d3;stroke-width:.5"/><circle cx="22" cy="811.514" r="11" fill="#ADD1B2" style="stroke:#181818;stroke-width:1"/><path d="M24.969 817.155q-.578.297-1.219.438-.64.156-1.344.156-2.5 0-3.828-1.64-1.312-1.657-1.312-4.782t1.312-4.781q1.328-1.657 3.828-1.657.703 0 1.344.157.656.156 1.219.453v2.719q-.625-.578-1.219-.844-.594-.281-1.219-.281-1.343 0-2.031 1.078-.687 1.062-.687 3.156t.687 3.172q.688 1.062 2.031 1.062.625 0 1.219-.265.594-.282 1.219-.86z"/><text x="41" y="817.4" font-family="Helvetica" font-size="17" textLength="143">aws_ec2_volume</text><rect width="112" height="39.789" x="227.5" y="791.62" fill="#EEF7FF" rx="2.5" ry="2.5" style="stroke:#3d58d3;stroke-width:.5"/><circle cx="242.5" cy="811.514" r="11" fill="#ADD1B2" style="stroke:#181818;stroke-width:1"/><path d="M245.469 817.155q-.578.297-1.219.438-.64.156-1.344.156-2.5 0-3.828-1.64-1.312-1.657-1.312-4.782t1.312-4.781q1.328-1.657 3.828-1.657.703 0 1.344.157.656.156 1.219.453v2.719q-.625-.578-1.219-.844-.594-.281-1.219-.281-1.344 0-2.031 1.078-.687 1.062-.687 3.156t.687 3.172q.688 1.062 2.031 1.062.625 0 1.219-.265.594-.282 1.219-.86z"/><text x="261.5" y="817.4" font-family="Helvetica" font-size="17" textLength="70">gcp_disk</text><rect width="227" height="310.758" x="78" y="7" fill="#EEF7FF" rx="2.5" ry="2.5" style="stroke:#3d58d3;stroke-width:.5"/><circle cx="146.75" cy="26.895" r="11" fill="#ADD1B2" style="stroke:#181818;stroke-width:1"/><path d="M149.719 32.535q-.578.297-1.219.438-.64.156-1.344.156-2.5 0-3.828-1.64-1.312-1.657-1.312-4.782t1.312-4.781q1.328-1.656 3.828-1.656.703 0 1.344.156.656.156 1.219.453v2.719q-.625-.578-1.219-.844-.594-.281-1.219-.281-1.344 0-2.031 1.078-.687 1.062-.687 3.156t.687 3.172q.688 1.062 2.031 1.062.625 0 1.219-.265.594-.281 1.219-.86z"/><text x="172.25" y="32.78" font-family="Helvetica" font-size="17" textLength="71">resource</text><path d="M79 46.789h225" style="stroke:#3d58d3;stroke-width:.5"/><text x="89" y="68.784" font-family="sans-serif" font-size="14" font-weight="bold" textLength="29">age</text><text x="118" y="68.784" font-family="sans-serif" font-size="14" textLength="66">: duration</text><text x="89" y="95.081" font-family="sans-serif" font-size="14" font-weight="bold" textLength="43">atime</text><text x="132" y="95.081" font-family="sans-serif" font-size="14" textLength="70">: datetime</text><text x="89" y="121.378" font-family="sans-serif" font-size="14" font-weight="bold" textLength="43">ctime</text><text x="132" y="121.378" font-family="sans-serif" font-size="14" textLength="70">: datetime</text><text x="89" y="147.675" font-family="sans-serif" font-size="14" font-weight="bold" textLength="14">id</text><text x="103" y="147.675" font-family="sans-serif" font-size="14" textLength="48">: string</text><text x="89" y="173.972" font-family="sans-serif" font-size="14" font-weight="bold" textLength="33">kind</text><text x="122" y="173.972" font-family="sans-serif" font-size="14" textLength="48">: string</text><text x="89" y="200.269" font-family="sans-serif" font-size="14" font-weight="bold" textLength="90">last_access</text><text x="179" y="200.269" font-family="sans-serif" font-size="14" textLength="66">: duration</text><text x="89" y="226.565" font-family="sans-serif" font-size="14" font-weight="bold" textLength="90">last_update</text><text x="179" y="226.565" font-family="sans-serif" font-size="14" textLength="66">: duration</text><text x="89" y="252.862" font-family="sans-serif" font-size="14" font-weight="bold" textLength="48">mtime</text><text x="137" y="252.862" font-family="sans-serif" font-size="14" textLength="70">: datetime</text><text x="89" y="279.159" font-family="sans-serif" font-size="14" font-weight="bold" textLength="43">name</text><text x="132" y="279.159" font-family="sans-serif" font-size="14" textLength="48">: string</text><text x="89" y="305.456" font-family="sans-serif" font-size="14" font-weight="bold" textLength="34">tags</text><text x="123" y="305.456" font-family="sans-serif" font-size="14" textLength="171">: dictionary[string, string]</text><rect width="277" height="231.867" x="53" y="438.75" fill="#EEF7FF" rx="2.5" ry="2.5" style="stroke:#3d58d3;stroke-width:.5"/><circle cx="150.75" cy="458.644" r="11" fill="#ADD1B2" style="stroke:#181818;stroke-width:1"/><path d="M153.719 464.285q-.578.297-1.219.438-.64.156-1.344.156-2.5 0-3.828-1.64-1.312-1.657-1.312-4.782t1.312-4.781q1.328-1.656 3.828-1.656.703 0 1.344.156.656.156 1.219.453v2.719q-.625-.579-1.219-.844-.594-.281-1.219-.281-1.344 0-2.031 1.078-.687 1.062-.687 3.156t.687 3.172q.688 1.062 2.031 1.062.625 0 1.219-.265.594-.281 1.219-.86z"/><text x="176.25" y="464.53" font-family="Helvetica" font-size="17" textLength="63">volume</text><path d="M54 478.539h275" style="stroke:#3d58d3;stroke-width:.5"/><text x="64" y="500.534" font-family="sans-serif" font-size="14" font-weight="bold" textLength="190">snapshot_before_delete</text><text x="254" y="500.534" font-family="sans-serif" font-size="14" textLength="65">: boolean</text><text x="64" y="526.831" font-family="sans-serif" font-size="14" font-weight="bold" textLength="145">volume_encrypted</text><text x="209" y="526.831" font-family="sans-serif" font-size="14" textLength="65">: boolean</text><text x="64" y="553.128" font-family="sans-serif" font-size="14" font-weight="bold" textLength="97">volume_iops</text><text x="161" y="553.128" font-family="sans-serif" font-size="14" textLength="44">: int64</text><text x="64" y="579.425" font-family="sans-serif" font-size="14" font-weight="bold" textLength="96">volume_size</text><text x="160" y="579.425" font-family="sans-serif" font-size="14" textLength="44">: int64</text><text x="64" y="605.722" font-family="sans-serif" font-size="14" font-weight="bold" textLength="113">volume_status</text><text x="177" y="605.722" font-family="sans-serif" font-size="14" textLength="109">: volume_status</text><text x="64" y="632.019" font-family="sans-serif" font-size="14" font-weight="bold" textLength="153">volume_throughput</text><text x="217" y="632.019" font-family="sans-serif" font-size="14" textLength="44">: int64</text><text x="64" y="658.315" font-family="sans-serif" font-size="14" font-weight="bold" textLength="99">volume_type</text><text x="163" y="658.315" font-family="sans-serif" font-size="14" textLength="48">: string</text><g fill="none"><path d="M143.826 687.73c-16.67 46.16-28.006 77.57-37.376 103.54" style="stroke:#111827;stroke-width:2"/><path d="m149.94 670.8-11.757 14.892 11.286 4.076z" style="stroke:#111827;stroke-width:2"/></g><path fill="none" d="M239.174 687.73c16.67 46.16 28.006 77.57 37.376 103.54M233.06 670.8l.47 18.968 11.287-4.076zM191.5 336.2v102.3m0-120.3-6 18h12z" style="stroke:#111827;stroke-width:2"/></svg>