<svg xmlns="http://www.w3.org/2000/svg" width="566" height="645" viewBox="0 0 566 645"><rect width="107" height="39.789" x="236" y="438.76" fill="#EEF7FF" rx="2.5" ry="2.5" style="stroke:#3d58d3;stroke-width:.5"/><circle cx="251" cy="458.654" r="11" fill="#ADD1B2" style="stroke:#181818;stroke-width:1"/><path d="M253.969 464.295q-.578.297-1.219.438-.64.156-1.344.156-2.5 0-3.828-1.64-1.312-1.657-1.312-4.782t1.312-4.781q1.328-1.656 3.828-1.656.703 0 1.344.156.656.156 1.219.453v2.719q-.625-.579-1.219-.844-.594-.281-1.219-.281-1.344 0-2.031 1.078-.687 1.062-.687 3.156t.687 3.172q.688 1.062 2.031 1.062.625 0 1.219-.265.594-.281 1.219-.86z"/><text x="270" y="464.54" font-family="Helvetica" font-size="17" textLength="65">account</text><rect width="149" height="39.789" x="7" y="599.55" fill="#EEF7FF" rx="2.5" ry="2.5" style="stroke:#3d58d3;stroke-width:.5"/><circle cx="22" cy="619.444" r="11" fill="#ADD1B2" style="stroke:#181818;stroke-width:1"/><path d="M24.969 625.085q-.578.297-1.219.438-.64.156-1.344.156-2.5 0-3.828-1.64-1.312-1.657-1.312-4.782t1.312-4.781q1.328-1.657 3.828-1.657.703 0 1.344.157.656.156 1.219.453v2.719q-.625-.579-1.219-.844-.594-.281-1.219-.281-1.343 0-2.031 1.078-.687 1.062-.687 3.156t.687 3.172q.688 1.062 2.031 1.062.625 0 1.219-.265.594-.282 1.219-.86z"/><text x="41" y="625.33" font-family="Helvetica" font-size="17" textLength="107">aws_account</text><rect width="197" height="39.789" x="191" y="599.55" fill="#EEF7FF" rx="2.5" ry="2.5" style="stroke:#3d58d3;stroke-width:.5"/><circle cx="206" cy="619.444" r="11" fill="#ADD1B2" style="stroke:#181818;stroke-width:1"/><path d="M208.969 625.085q-.578.297-1.219.438-.64.156-1.344.156-2.5 0-3.828-1.64-1.312-1.657-1.312-4.782t1.312-4.781q1.328-1.657 3.828-1.657.703 0 1.344.157.656.156 1.219.453v2.719q-.625-.579-1.219-.844-.594-.281-1.219-.281-1.344 0-2.031 1.078-.687 1.062-.687 3.156t.687 3.172q.688 1.062 2.031 1.062.625 0 1.219-.265.594-.282 1.219-.86z"/><text x="225" y="625.33" font-family="Helvetica" font-size="17" textLength="155">azure_subscription</text><rect width="136" height="39.789" x="423.5" y="599.55" fill="#EEF7FF" rx="2.5" ry="2.5" style="stroke:#3d58d3;stroke-width:.5"/><circle cx="438.5" cy="619.444" r="11" fill="#ADD1B2" style="stroke:#181818;stroke-width:1"/><path d="M441.469 625.085q-.578.297-1.219.438-.64.156-1.344.156-2.5 0-3.828-1.64-1.312-1.657-1.312-4.782t1.312-4.781q1.328-1.657 3.828-1.657.703 0 1.344.157.656.156 1.219.453v2.719q-.625-.579-1.219-.844-.594-.281-1.219-.281-1.344 0-2.031 1.078-.687 1.062-.687 3.156t.687 3.172q.688 1.062 2.031 1.062.625 0 1.219-.265.594-.282 1.219-.86z"/><text x="457.5" y="625.33" font-family="Helvetica" font-size="17" textLength="94">gcp_project</text><rect width="227" height="310.758" x="176" y="7" fill="#EEF7FF" rx="2.5" ry="2.5" style="stroke:#3d58d3;stroke-width:.5"/><circle cx="244.75" cy="26.895" r="11" fill="#ADD1B2" style="stroke:#181818;stroke-width:1"/><path d="M247.719 32.535q-.578.297-1.219.438-.64.156-1.344.156-2.5 0-3.828-1.64-1.312-1.657-1.312-4.782t1.312-4.781q1.328-1.656 3.828-1.656.703 0 1.344.156.656.156 1.219.453v2.719q-.625-.578-1.219-.844-.594-.281-1.219-.281-1.344 0-2.031 1.078-.687 1.062-.687 3.156t.687 3.172q.688 1.062 2.031 1.062.625 0 1.219-.265.594-.281 1.219-.86z"/><text x="270.25" y="32.78" font-family="Helvetica" font-size="17" textLength="71">resource</text><path d="M177 46.789h225" style="stroke:#3d58d3;stroke-width:.5"/><text x="187" y="68.784" font-family="sans-serif" font-size="14" font-weight="bold" textLength="29">age</text><text x="216" y="68.784" font-family="sans-serif" font-size="14" textLength="66">: duration</text><text x="187" y="95.081" font-family="sans-serif" font-size="14" font-weight="bold" textLength="43">atime</text><text x="230" y="95.081" font-family="sans-serif" font-size="14" textLength="70">: datetime</text><text x="187" y="121.378" font-family="sans-serif" font-size="14" font-weight="bold" textLength="43">ctime</text><text x="230" y="121.378" font-family="sans-serif" font-size="14" textLength="70">: datetime</text><text x="187" y="147.675" font-family="sans-serif" font-size="14" font-weight="bold" textLength="14">id</text><text x="201" y="147.675" font-family="sans-serif" font-size="14" textLength="48">: string</text><text x="187" y="173.972" font-family="sans-serif" font-size="14" font-weight="bold" textLength="33">kind</text><text x="220" y="173.972" font-family="sans-serif" font-size="14" textLength="48">: string</text><text x="187" y="200.269" font-family="sans-serif" font-size="14" font-weight="bold" textLength="90">last_access</text><text x="277" y="200.269" font-family="sans-serif" font-size="14" textLength="66">: duration</text><text x="187" y="226.565" font-family="sans-serif" font-size="14" font-weight="bold" textLength="90">last_update</text><text x="277" y="226.565" font-family="sans-serif" font-size="14" textLength="66">: duration</text><text x="187" y="252.862" font-family="sans-serif" font-size="14" font-weight="bold" textLength="48">mtime</text><text x="235" y="252.862" font-family="sans-serif" font-size="14" textLength="70">: datetime</text><text x="187" y="279.159" font-family="sans-serif" font-size="14" font-weight="bold" textLength="43">name</text><text x="230" y="279.159" font-family="sans-serif" font-size="14" textLength="48">: string</text><text x="187" y="305.456" font-family="sans-serif" font-size="14" font-weight="bold" textLength="34">tags</text><text x="221" y="305.456" font-family="sans-serif" font-size="14" textLength="171">: dictionary[string, string]</text><path fill="none" d="M289.5 335.85v102.83m0-120.83-6 18h12zm-39.398 171.882L106.68 599.22m157.73-120.41-17.948 6.153 7.281 9.538zm25.09 18v102.41m0-120.41-6 18h12z" style="stroke:#111827;stroke-width:2"/><g fill="none"><path d="M328.02 489.935c38.82 30.52 100.15 78.725 139.03 109.285" style="stroke:#111827;stroke-width:2"/><path d="m313.87 478.81 10.442 15.842 7.417-9.434z" style="stroke:#111827;stroke-width:2"/></g></svg>