<svg xmlns="http://www.w3.org/2000/svg" width="2956" height="1375" viewBox="0 0 2956 1375"><rect width="238" height="39.789" x="593.5" y="1168.8" fill="#EEF7FF" rx="2.5" ry="2.5" style="stroke:#3d58d3;stroke-width:.5"/><circle cx="608.5" cy="1188.695" r="11" fill="#ADD1B2" style="stroke:#181818;stroke-width:1"/><path d="M611.469 1194.335q-.578.297-1.219.438-.64.156-1.344.156-2.5 0-3.828-1.64-1.312-1.657-1.312-4.782t1.312-4.781q1.328-1.657 3.828-1.657.703 0 1.344.157.656.156 1.219.453v2.719q-.625-.578-1.219-.844-.594-.281-1.219-.281-1.343 0-2.031 1.078-.687 1.062-.687 3.156t.687 3.172q.688 1.062 2.031 1.062.625 0 1.219-.265.594-.282 1.219-.86z"/><text x="627.5" y="1194.58" font-family="Helvetica" font-size="17" textLength="196">aws_ec2_instance_type</text><rect width="231" height="39.789" x="2233" y="1168.8" fill="#EEF7FF" rx="2.5" ry="2.5" style="stroke:#3d58d3;stroke-width:.5"/><circle cx="2248" cy="1188.695" r="11" fill="#ADD1B2" style="stroke:#181818;stroke-width:1"/><path d="M2250.969 1194.335q-.578.297-1.219.438-.64.156-1.344.156-2.5 0-3.828-1.64-1.312-1.657-1.312-4.782t1.312-4.781q1.328-1.657 3.828-1.657.703 0 1.344.157.656.156 1.219.453v2.719q-.625-.578-1.219-.844-.594-.281-1.219-.281-1.343 0-2.031 1.078-.687 1.062-.687 3.156t.687 3.172q.688 1.062 2.031 1.062.625 0 1.219-.265.594-.282 1.219-.86z"/><text x="2267" y="1194.58" font-family="Helvetica" font-size="17" textLength="189">aws_ec2_volume_type</text><rect width="199" height="39.789" x="7" y="847.22" fill="#EEF7FF" rx="2.5" ry="2.5" style="stroke:#3d58d3;stroke-width:.5"/><circle cx="22" cy="867.115" r="11" fill="#ADD1B2" style="stroke:#181818;stroke-width:1"/><path d="M24.969 872.755q-.578.297-1.219.438-.64.156-1.344.156-2.5 0-3.828-1.64-1.312-1.657-1.312-4.782t1.312-4.781q1.328-1.656 3.828-1.656.703 0 1.344.156.656.156 1.219.453v2.719q-.625-.578-1.219-.844-.594-.281-1.219-.281-1.343 0-2.031 1.078-.687 1.062-.687 3.156t.687 3.172q.688 1.062 2.031 1.062.625 0 1.219-.265.594-.281 1.219-.86z"/><text x="41" y="873" font-family="Helvetica" font-size="17" textLength="157">aws_service_quota</text><rect width="258" height="39.789" x="2498.5" y="1168.8" fill="#EEF7FF" rx="2.5" ry="2.5" style="stroke:#3d58d3;stroke-width:.5"/><circle cx="2513.5" cy="1188.695" r="11" fill="#ADD1B2" style="stroke:#181818;stroke-width:1"/><path d="M2516.469 1194.335q-.578.297-1.219.438-.64.156-1.344.156-2.5 0-3.828-1.64-1.312-1.657-1.312-4.782t1.312-4.781q1.328-1.657 3.828-1.657.703 0 1.344.157.656.156 1.219.453v2.719q-.625-.578-1.219-.844-.594-.281-1.219-.281-1.343 0-2.031 1.078-.687 1.062-.687 3.156t.687 3.172q.688 1.062 2.031 1.062.625 0 1.219-.265.594-.282 1.219-.86z"/><text x="2532.5" y="1194.58" font-family="Helvetica" font-size="17" textLength="216">azure_compute_disk_type</text><rect width="355" height="39.789" x="867" y="1168.8" fill="#EEF7FF" rx="2.5" ry="2.5" style="stroke:#3d58d3;stroke-width:.5"/><circle cx="882" cy="1188.695" r="11" fill="#ADD1B2" style="stroke:#181818;stroke-width:1"/><path d="M884.969 1194.335q-.578.297-1.219.438-.64.156-1.344.156-2.5 0-3.828-1.64-1.312-1.657-1.312-4.782t1.312-4.781q1.328-1.657 3.828-1.657.703 0 1.344.157.656.156 1.219.453v2.719q-.625-.578-1.219-.844-.594-.281-1.219-.281-1.343 0-2.031 1.078-.687 1.062-.687 3.156t.687 3.172q.688 1.062 2.031 1.062.625 0 1.219-.265.594-.282 1.219-.86z"/><text x="901" y="1194.58" font-family="Helvetica" font-size="17" textLength="313">azure_compute_virtual_machine_size</text><rect width="432" height="39.789" x="1257.5" y="1168.8" fill="#EEF7FF" rx="2.5" ry="2.5" style="stroke:#3d58d3;stroke-width:.5"/><circle cx="1272.5" cy="1188.695" r="11" fill="#ADD1B2" style="stroke:#181818;stroke-width:1"/><path d="M1275.469 1194.335q-.578.297-1.219.438-.64.156-1.344.156-2.5 0-3.828-1.64-1.312-1.657-1.312-4.782t1.312-4.781q1.328-1.657 3.828-1.657.703 0 1.344.157.656.156 1.219.453v2.719q-.625-.578-1.219-.844-.594-.281-1.219-.281-1.343 0-2.031 1.078-.687 1.062-.687 3.156t.687 3.172q.688 1.062 2.031 1.062.625 0 1.219-.265.594-.282 1.219-.86z"/><text x="1291.5" y="1194.58" font-family="Helvetica" font-size="17" textLength="390">azure_machine_learning_virtual_machine_size</text><rect width="254" height="39.789" x="1564.5" y="1329.59" fill="#EEF7FF" rx="2.5" ry="2.5" style="stroke:#3d58d3;stroke-width:.5"/><circle cx="1579.5" cy="1349.485" r="11" fill="#ADD1B2" style="stroke:#181818;stroke-width:1"/><path d="M1582.469 1355.125q-.578.297-1.219.438-.64.156-1.344.156-2.5 0-3.828-1.64-1.312-1.657-1.312-4.782t1.312-4.781q1.328-1.657 3.828-1.657.703 0 1.344.157.656.156 1.219.453v2.719q-.625-.579-1.219-.844-.594-.281-1.219-.281-1.343 0-2.031 1.078-.687 1.062-.687 3.156t.687 3.172q.688 1.062 2.031 1.062.625 0 1.219-.265.594-.282 1.219-.86z"/><text x="1598.5" y="1355.37" font-family="Helvetica" font-size="17" textLength="212">azure_mysql_server_type</text><rect width="225" height="39.789" x="1246" y="1008.01" fill="#EEF7FF" rx="2.5" ry="2.5" style="stroke:#3d58d3;stroke-width:.5"/><circle cx="1261" cy="1027.905" r="11" fill="#ADD1B2" style="stroke:#181818;stroke-width:1"/><path d="M1263.969 1033.545q-.578.297-1.219.438-.64.156-1.344.156-2.5 0-3.828-1.64-1.312-1.657-1.312-4.782t1.312-4.781q1.328-1.657 3.828-1.657.703 0 1.344.157.656.156 1.219.453v2.719q-.625-.578-1.219-.844-.594-.281-1.219-.281-1.343 0-2.031 1.078-.687 1.062-.687 3.156t.687 3.172q.688 1.062 2.031 1.062.625 0 1.219-.265.594-.281 1.219-.86z"/><text x="1280" y="1033.79" font-family="Helvetica" font-size="17" textLength="183">azure_network_usage</text><rect width="289" height="39.789" x="1854" y="1329.59" fill="#EEF7FF" rx="2.5" ry="2.5" style="stroke:#3d58d3;stroke-width:.5"/><circle cx="1869" cy="1349.485" r="11" fill="#ADD1B2" style="stroke:#181818;stroke-width:1"/><path d="M1871.969 1355.125q-.578.297-1.219.438-.64.156-1.344.156-2.5 0-3.828-1.64-1.312-1.657-1.312-4.782t1.312-4.781q1.328-1.657 3.828-1.657.703 0 1.344.157.656.156 1.219.453v2.719q-.625-.579-1.219-.844-.594-.281-1.219-.281-1.343 0-2.031 1.078-.687 1.062-.687 3.156t.687 3.172q.688 1.062 2.031 1.062.625 0 1.219-.265.594-.282 1.219-.86z"/><text x="1888" y="1355.37" font-family="Helvetica" font-size="17" textLength="247">azure_postgresql_server_type</text><rect width="155" height="39.789" x="241" y="847.22" fill="#EEF7FF" rx="2.5" ry="2.5" style="stroke:#3d58d3;stroke-width:.5"/><circle cx="256" cy="867.115" r="11" fill="#ADD1B2" style="stroke:#181818;stroke-width:1"/><path d="M258.969 872.755q-.578.297-1.219.438-.64.156-1.344.156-2.5 0-3.828-1.64-1.312-1.657-1.312-4.782t1.312-4.781q1.328-1.656 3.828-1.656.703 0 1.344.156.656.156 1.219.453v2.719q-.625-.578-1.219-.844-.594-.281-1.219-.281-1.344 0-2.031 1.078-.687 1.062-.687 3.156t.687 3.172q.688 1.062 2.031 1.062.625 0 1.219-.265.594-.281 1.219-.86z"/><text x="275" y="873" font-family="Helvetica" font-size="17" textLength="113">bucket_quota</text><rect width="182" height="39.789" x="431.5" y="847.22" fill="#EEF7FF" rx="2.5" ry="2.5" style="stroke:#3d58d3;stroke-width:.5"/><circle cx="446.5" cy="867.115" r="11" fill="#ADD1B2" style="stroke:#181818;stroke-width:1"/><path d="M449.469 872.755q-.578.297-1.219.438-.64.156-1.344.156-2.5 0-3.828-1.64-1.312-1.657-1.312-4.782t1.312-4.781q1.328-1.656 3.828-1.656.703 0 1.344.156.656.156 1.219.453v2.719q-.625-.578-1.219-.844-.594-.281-1.219-.281-1.344 0-2.031 1.078-.687 1.062-.687 3.156t.687 3.172q.688 1.062 2.031 1.062.625 0 1.219-.265.594-.281 1.219-.86z"/><text x="465.5" y="873" font-family="Helvetica" font-size="17" textLength="140">certificate_quota</text><rect width="242" height="39.789" x="1724.5" y="1168.8" fill="#EEF7FF" rx="2.5" ry="2.5" style="stroke:#3d58d3;stroke-width:.5"/><circle cx="1739.5" cy="1188.695" r="11" fill="#ADD1B2" style="stroke:#181818;stroke-width:1"/><path d="M1742.469 1194.335q-.578.297-1.219.438-.64.156-1.344.156-2.5 0-3.828-1.64-1.312-1.657-1.312-4.782t1.312-4.781q1.328-1.657 3.828-1.657.703 0 1.344.157.656.156 1.219.453v2.719q-.625-.578-1.219-.844-.594-.281-1.219-.281-1.343 0-2.031 1.078-.687 1.062-.687 3.156t.687 3.172q.688 1.062 2.031 1.062.625 0 1.219-.265.594-.282 1.219-.86z"/><text x="1758.5" y="1194.58" font-family="Helvetica" font-size="17" textLength="200">database_instance_type</text><rect width="171" height="39.789" x="649" y="847.22" fill="#EEF7FF" rx="2.5" ry="2.5" style="stroke:#3d58d3;stroke-width:.5"/><circle cx="664" cy="867.115" r="11" fill="#ADD1B2" style="stroke:#181818;stroke-width:1"/><path d="M666.969 872.755q-.578.297-1.219.438-.64.156-1.344.156-2.5 0-3.828-1.64-1.312-1.657-1.312-4.782t1.312-4.781q1.328-1.656 3.828-1.656.703 0 1.344.156.656.156 1.219.453v2.719q-.625-.578-1.219-.844-.594-.281-1.219-.281-1.343 0-2.031 1.078-.687 1.062-.687 3.156t.687 3.172q.688 1.062 2.031 1.062.625 0 1.219-.265.594-.281 1.219-.86z"/><text x="683" y="873" font-family="Helvetica" font-size="17" textLength="129">gateway_quota</text><rect width="158" height="39.789" x="2791.5" y="1168.8" fill="#EEF7FF" rx="2.5" ry="2.5" style="stroke:#3d58d3;stroke-width:.5"/><circle cx="2806.5" cy="1188.695" r="11" fill="#ADD1B2" style="stroke:#181818;stroke-width:1"/><path d="M2809.469 1194.335q-.578.297-1.219.438-.64.156-1.344.156-2.5 0-3.828-1.64-1.312-1.657-1.312-4.782t1.312-4.781q1.328-1.657 3.828-1.657.703 0 1.344.157.656.156 1.219.453v2.719q-.625-.578-1.219-.844-.594-.281-1.219-.281-1.343 0-2.031 1.078-.687 1.062-.687 3.156t.687 3.172q.688 1.062 2.031 1.062.625 0 1.219-.265.594-.282 1.219-.86z"/><text x="2825.5" y="1194.58" font-family="Helvetica" font-size="17" textLength="116">gcp_disk_type</text><rect width="197" height="39.789" x="2001" y="1168.8" fill="#EEF7FF" rx="2.5" ry="2.5" style="stroke:#3d58d3;stroke-width:.5"/><circle cx="2016" cy="1188.695" r="11" fill="#ADD1B2" style="stroke:#181818;stroke-width:1"/><path d="M2018.969 1194.335q-.578.297-1.219.438-.64.156-1.344.156-2.5 0-3.828-1.64-1.312-1.657-1.312-4.782t1.312-4.781q1.328-1.657 3.828-1.657.703 0 1.344.157.656.156 1.219.453v2.719q-.625-.578-1.219-.844-.594-.281-1.219-.281-1.343 0-2.031 1.078-.687 1.062-.687 3.156t.687 3.172q.688 1.062 2.031 1.062.625 0 1.219-.265.594-.282 1.219-.86z"/><text x="2035" y="1194.58" font-family="Helvetica" font-size="17" textLength="155">gcp_machine_type</text><rect width="169" height="39.789" x="855" y="847.22" fill="#EEF7FF" rx="2.5" ry="2.5" style="stroke:#3d58d3;stroke-width:.5"/><circle cx="870" cy="867.115" r="11" fill="#ADD1B2" style="stroke:#181818;stroke-width:1"/><path d="M872.969 872.755q-.578.297-1.219.438-.64.156-1.344.156-2.5 0-3.828-1.64-1.312-1.657-1.312-4.782t1.312-4.781q1.328-1.656 3.828-1.656.703 0 1.344.156.656.156 1.219.453v2.719q-.625-.578-1.219-.844-.594-.281-1.219-.281-1.343 0-2.031 1.078-.687 1.062-.687 3.156t.687 3.172q.688 1.062 2.031 1.062.625 0 1.219-.265.594-.281 1.219-.86z"/><text x="889" y="873" font-family="Helvetica" font-size="17" textLength="127">instance_quota</text><rect width="158" height="39.789" x="1505.5" y="1008.01" fill="#EEF7FF" rx="2.5" ry="2.5" style="stroke:#3d58d3;stroke-width:.5"/><circle cx="1520.5" cy="1027.905" r="11" fill="#ADD1B2" style="stroke:#181818;stroke-width:1"/><path d="M1523.469 1033.545q-.578.297-1.219.438-.64.156-1.344.156-2.5 0-3.828-1.64-1.312-1.657-1.312-4.782t1.312-4.781q1.328-1.657 3.828-1.657.703 0 1.344.157.656.156 1.219.453v2.719q-.625-.578-1.219-.844-.594-.281-1.219-.281-1.343 0-2.031 1.078-.687 1.062-.687 3.156t.687 3.172q.688 1.062 2.031 1.062.625 0 1.219-.265.594-.281 1.219-.86z"/><text x="1539.5" y="1033.79" font-family="Helvetica" font-size="17" textLength="116">instance_type</text><rect width="214" height="39.789" x="1058.5" y="847.22" fill="#EEF7FF" rx="2.5" ry="2.5" style="stroke:#3d58d3;stroke-width:.5"/><circle cx="1073.5" cy="867.115" r="11" fill="#ADD1B2" style="stroke:#181818;stroke-width:1"/><path d="M1076.469 872.755q-.578.297-1.219.438-.64.156-1.344.156-2.5 0-3.828-1.64-1.312-1.657-1.312-4.782t1.312-4.781q1.328-1.656 3.828-1.656.703 0 1.344.156.656.156 1.219.453v2.719q-.625-.578-1.219-.844-.594-.281-1.219-.281-1.343 0-2.031 1.078-.687 1.062-.687 3.156t.687 3.172q.688 1.062 2.031 1.062.625 0 1.219-.265.594-.281 1.219-.86z"/><text x="1092.5" y="873" font-family="Helvetica" font-size="17" textLength="172">load_balancer_quota</text><rect width="169" height="39.789" x="1307" y="847.22" fill="#EEF7FF" rx="2.5" ry="2.5" style="stroke:#3d58d3;stroke-width:.5"/><circle cx="1322" cy="867.115" r="11" fill="#ADD1B2" style="stroke:#181818;stroke-width:1"/><path d="M1324.969 872.755q-.578.297-1.219.438-.64.156-1.344.156-2.5 0-3.828-1.64-1.312-1.657-1.312-4.782t1.312-4.781q1.328-1.656 3.828-1.656.703 0 1.344.156.656.156 1.219.453v2.719q-.625-.578-1.219-.844-.594-.281-1.219-.281-1.343 0-2.031 1.078-.687 1.062-.687 3.156t.687 3.172q.688 1.062 2.031 1.062.625 0 1.219-.265.594-.281 1.219-.86z"/><text x="1341" y="873" font-family="Helvetica" font-size="17" textLength="127">network_quota</text><rect width="198" height="39.789" x="737.5" y="438.75" fill="#EEF7FF" rx="2.5" ry="2.5" style="stroke:#3d58d3;stroke-width:.5"/><circle cx="752.5" cy="458.644" r="11" fill="#ADD1B2" style="stroke:#181818;stroke-width:1"/><path d="M755.469 464.285q-.578.297-1.219.438-.64.156-1.344.156-2.5 0-3.828-1.64-1.312-1.657-1.312-4.782t1.312-4.781q1.328-1.656 3.828-1.656.703 0 1.344.156.656.156 1.219.453v2.719q-.625-.579-1.219-.844-.594-.281-1.219-.281-1.343 0-2.031 1.078-.687 1.062-.687 3.156t.687 3.172q.688 1.062 2.031 1.062.625 0 1.219-.265.594-.281 1.219-.86z"/><text x="771.5" y="464.53" font-family="Helvetica" font-size="17" textLength="156">phantom_resource</text><rect width="157" height="126.68" x="758" y="599.54" fill="#EEF7FF" rx="2.5" ry="2.5" style="stroke:#3d58d3;stroke-width:.5"/><circle cx="803.25" cy="619.434" r="11" fill="#ADD1B2" style="stroke:#181818;stroke-width:1"/><path d="M806.219 625.075q-.578.297-1.219.438-.64.156-1.344.156-2.5 0-3.828-1.64-1.312-1.657-1.312-4.782t1.312-4.781q1.328-1.657 3.828-1.657.703 0 1.344.157.656.156 1.219.453v2.719q-.625-.579-1.219-.844-.594-.281-1.219-.281-1.343 0-2.031 1.078-.687 1.062-.687 3.156t.687 3.172q.688 1.062 2.031 1.062.625 0 1.219-.265.594-.282 1.219-.86z"/><text x="828.75" y="625.32" font-family="Helvetica" font-size="17" textLength="48">quota</text><path d="M759 639.329h155" style="stroke:#3d58d3;stroke-width:.5"/><text x="769" y="661.324" font-family="sans-serif" font-size="14" font-weight="bold" textLength="45">quota</text><text x="814" y="661.324" font-family="sans-serif" font-size="14" textLength="57">: double</text><text x="769" y="687.621" font-family="sans-serif" font-size="14" font-weight="bold" textLength="87">quota_type</text><text x="856" y="687.621" font-family="sans-serif" font-size="14" textLength="48">: string</text><text x="769" y="713.918" font-family="sans-serif" font-size="14" font-weight="bold" textLength="48">usage</text><text x="817" y="713.918" font-family="sans-serif" font-size="14" textLength="57">: double</text><rect width="227" height="310.758" x="723" y="7" fill="#EEF7FF" rx="2.5" ry="2.5" style="stroke:#3d58d3;stroke-width:.5"/><circle cx="791.75" cy="26.895" r="11" fill="#ADD1B2" style="stroke:#181818;stroke-width:1"/><path d="M794.719 32.535q-.578.297-1.219.438-.64.156-1.344.156-2.5 0-3.828-1.64-1.312-1.657-1.312-4.782t1.312-4.781q1.328-1.656 3.828-1.656.703 0 1.344.156.656.156 1.219.453v2.719q-.625-.578-1.219-.844-.594-.281-1.219-.281-1.343 0-2.031 1.078-.687 1.062-.687 3.156t.687 3.172q.688 1.062 2.031 1.062.625 0 1.219-.265.594-.281 1.219-.86z"/><text x="817.25" y="32.78" font-family="Helvetica" font-size="17" textLength="71">resource</text><path d="M724 46.789h225" style="stroke:#3d58d3;stroke-width:.5"/><text x="734" y="68.784" font-family="sans-serif" font-size="14" font-weight="bold" textLength="29">age</text><text x="763" y="68.784" font-family="sans-serif" font-size="14" textLength="66">: duration</text><text x="734" y="95.081" font-family="sans-serif" font-size="14" font-weight="bold" textLength="43">atime</text><text x="777" y="95.081" font-family="sans-serif" font-size="14" textLength="70">: datetime</text><text x="734" y="121.378" font-family="sans-serif" font-size="14" font-weight="bold" textLength="43">ctime</text><text x="777" y="121.378" font-family="sans-serif" font-size="14" textLength="70">: datetime</text><text x="734" y="147.675" font-family="sans-serif" font-size="14" font-weight="bold" textLength="14">id</text><text x="748" y="147.675" font-family="sans-serif" font-size="14" textLength="48">: string</text><text x="734" y="173.972" font-family="sans-serif" font-size="14" font-weight="bold" textLength="33">kind</text><text x="767" y="173.972" font-family="sans-serif" font-size="14" textLength="48">: string</text><text x="734" y="200.269" font-family="sans-serif" font-size="14" font-weight="bold" textLength="90">last_access</text><text x="824" y="200.269" font-family="sans-serif" font-size="14" textLength="66">: duration</text><text x="734" y="226.565" font-family="sans-serif" font-size="14" font-weight="bold" textLength="90">last_update</text><text x="824" y="226.565" font-family="sans-serif" font-size="14" textLength="66">: duration</text><text x="734" y="252.862" font-family="sans-serif" font-size="14" font-weight="bold" textLength="48">mtime</text><text x="782" y="252.862" font-family="sans-serif" font-size="14" textLength="70">: datetime</text><text x="734" y="279.159" font-family="sans-serif" font-size="14" font-weight="bold" textLength="43">name</text><text x="777" y="279.159" font-family="sans-serif" font-size="14" textLength="48">: string</text><text x="734" y="305.456" font-family="sans-serif" font-size="14" font-weight="bold" textLength="34">tags</text><text x="768" y="305.456" font-family="sans-serif" font-size="14" textLength="171">: dictionary[string, string]</text><rect width="79" height="39.789" x="1545" y="847.22" fill="#EEF7FF" rx="2.5" ry="2.5" style="stroke:#3d58d3;stroke-width:.5"/><circle cx="1560" cy="867.115" r="11" fill="#ADD1B2" style="stroke:#181818;stroke-width:1"/><path d="M1562.969 872.755q-.578.297-1.219.438-.64.156-1.344.156-2.5 0-3.828-1.64-1.312-1.657-1.312-4.782t1.312-4.781q1.328-1.656 3.828-1.656.703 0 1.344.156.656.156 1.219.453v2.719q-.625-.578-1.219-.844-.594-.281-1.219-.281-1.343 0-2.031 1.078-.687 1.062-.687 3.156t.687 3.172q.688 1.062 2.031 1.062.625 0 1.219-.265.594-.281 1.219-.86z"/><text x="1579" y="873" font-family="Helvetica" font-size="17" textLength="37">type</text><rect width="151" height="39.789" x="2413" y="1008.01" fill="#EEF7FF" rx="2.5" ry="2.5" style="stroke:#3d58d3;stroke-width:.5"/><circle cx="2428" cy="1027.905" r="11" fill="#ADD1B2" style="stroke:#181818;stroke-width:1"/><path d="M2430.969 1033.545q-.578.297-1.219.438-.64.156-1.344.156-2.5 0-3.828-1.64-1.312-1.657-1.312-4.782t1.312-4.781q1.328-1.657 3.828-1.657.703 0 1.344.157.656.156 1.219.453v2.719q-.625-.578-1.219-.844-.594-.281-1.219-.281-1.343 0-2.031 1.078-.687 1.062-.687 3.156t.687 3.172q.688 1.062 2.031 1.062.625 0 1.219-.265.594-.281 1.219-.86z"/><text x="2447" y="1033.79" font-family="Helvetica" font-size="17" textLength="109">volume_type</text><path fill="none" d="M1487.472 1048.021c-236.76 44.64-513.732 93.799-664.352 120.309m682.03-123.7-18.808-2.502 2.26 11.786z" style="stroke:#111827;stroke-width:2"/><g fill="none"><path d="M2459.706 1061.561c-26.91 30.52-67.316 76.349-94.256 106.909" style="stroke:#111827;stroke-width:2"/><path d="m2471.61 1048.06-16.405 9.533 9.001 7.937z" style="stroke:#111827;stroke-width:2"/></g><path fill="none" d="M740.333 690.526C596.923 730.256 312.89 808.94 176.36 846.77m581.32-161.05-18.948-.976 3.203 11.564z" style="stroke:#111827;stroke-width:2"/><g fill="none"><path d="M2517.124 1061.605c26.71 30.52 66.796 76.305 93.546 106.865" style="stroke:#111827;stroke-width:2"/><path d="m2505.27 1048.06 7.34 17.497 9.03-7.903z" style="stroke:#111827;stroke-width:2"/></g><path fill="none" d="M1501.291 1053.378c-103.96 30.57-287.501 84.542-391.231 115.042m408.5-120.12-18.961-.678 3.385 11.512z" style="stroke:#111827;stroke-width:2"/><g fill="none"><path d="M1560.799 1062.814c-21.33 30.52-52.499 75.096-73.859 105.656" style="stroke:#111827;stroke-width:2"/><path d="m1571.11 1048.06-15.23 11.317 9.837 6.874z" style="stroke:#111827;stroke-width:2"/></g><path fill="none" d="M1814.388 1221.771c-29.6 30.52-74.608 76.929-104.248 107.489m116.78-120.41-16.839 8.744 8.614 8.354zm-443.061-303.956c-6.34 30.52-15.009 72.226-21.369 102.796m25.03-120.42-9.536 16.403 11.75 2.441zm488.928 334.544c29.4 30.52 74.082 76.886 103.532 107.446m-116.02-120.41 8.167 17.126 8.642-8.325z" style="stroke:#111827;stroke-width:2"/><g fill="none"><path d="M740.783 701.256C632.593 743.496 458.21 811.57 368.12 846.75" style="stroke:#111827;stroke-width:2"/><path d="m757.55 694.71-18.95.957 4.365 11.178z" style="stroke:#111827;stroke-width:2"/></g><path fill="none" d="M742.537 724.407C675.867 767.347 599.08 816.8 552.36 846.89m205.31-132.23-18.382 4.702 6.498 10.089zm873.948 342.915c50.27 30.58 132.232 80.445 182.362 110.945m-197.74-120.3 12.26 14.48 6.236-10.251z" style="stroke:#111827;stroke-width:2"/><g fill="none"><path d="M796.823 742.561c-20.95 41.53-38.933 77.179-52.723 104.529" style="stroke:#111827;stroke-width:2"/><path d="m804.93 726.49-13.464 13.369 10.714 5.404z" style="stroke:#111827;stroke-width:2"/></g><path fill="none" d="M2551.581 1055.13c73.47 30.54 199.029 82.73 272.489 113.26m-289.11-120.17 14.318 12.45 4.606-11.081z" style="stroke:#111827;stroke-width:2"/><g fill="none"><path d="M1664.591 1053.603c99.15 30.57 273.459 84.317 372.379 114.817" style="stroke:#111827;stroke-width:2"/><path d="m1647.39 1048.3 15.433 11.037 3.536-11.467z" style="stroke:#111827;stroke-width:2"/></g><path fill="none" d="M876.552 742.528c21.16 41.53 39.328 77.212 53.258 104.562m-61.43-120.6 2.826 18.762 10.692-5.448zm716.12 178.78v102.42m0-120.42-6 18h12zM930.635 721.746 1134.27 846.92M915.3 712.32l12.193 14.537 6.284-10.223zm17.042-13.517c114.77 41.82 307.788 112.157 405.938 147.917M915.43 692.64l14.858 11.8 4.108-11.275zm-78.93-356.8v102.83m0-120.83-6 18h12zm0 179.2v102.4m0-120.4-6 18h12z" style="stroke:#111827;stroke-width:2"/><path fill="none" d="M932.866 689.938c158.66 42.9 493.654 133.472 611.994 165.462M915.49 685.24l15.81 10.49 3.132-11.584z" style="stroke:#111827;stroke-width:2"/><g fill="none"><path d="M1641.948 878.205c138.86 24.4 586.442 103.015 770.592 135.355" style="stroke:#111827;stroke-width:2"/><path d="m1624.22 875.09 16.69 9.025 2.077-11.82z" style="stroke:#111827;stroke-width:2"/></g></svg>