<svg xmlns="http://www.w3.org/2000/svg" width="551" height="645" viewBox="0 0 551 645"><rect width="271" height="39.789" x="7" y="599.55" fill="#EEF7FF" rx="2.5" ry="2.5" style="stroke:#3d58d3;stroke-width:.5"/><circle cx="22" cy="619.444" r="11" fill="#ADD1B2" style="stroke:#181818;stroke-width:1"/><path d="M24.969 625.085q-.578.297-1.219.438-.64.156-1.344.156-2.5 0-3.828-1.64-1.312-1.657-1.312-4.782t1.312-4.781q1.328-1.657 3.828-1.657.703 0 1.344.157.656.156 1.219.453v2.719q-.625-.579-1.219-.844-.594-.281-1.219-.281-1.343 0-2.031 1.078-.687 1.062-.687 3.156t.687 3.172q.688 1.062 2.031 1.062.625 0 1.219-.265.594-.282 1.219-.86z"/><text x="41" y="625.33" font-family="Helvetica" font-size="17" textLength="229">aws_ec2_internet_gateway</text><rect width="231" height="39.789" x="313" y="599.55" fill="#EEF7FF" rx="2.5" ry="2.5" style="stroke:#3d58d3;stroke-width:.5"/><circle cx="328" cy="619.444" r="11" fill="#ADD1B2" style="stroke:#181818;stroke-width:1"/><path d="M330.969 625.085q-.578.297-1.219.438-.64.156-1.344.156-2.5 0-3.828-1.64-1.312-1.657-1.312-4.782t1.312-4.781q1.328-1.657 3.828-1.657.703 0 1.344.157.656.156 1.219.453v2.719q-.625-.579-1.219-.844-.594-.281-1.219-.281-1.344 0-2.031 1.078-.687 1.062-.687 3.156t.687 3.172q.688 1.062 2.031 1.062.625 0 1.219-.265.594-.282 1.219-.86z"/><text x="347" y="625.33" font-family="Helvetica" font-size="17" textLength="189">aws_ec2_nat_gateway</text><rect width="114" height="39.789" x="228.5" y="438.76" fill="#EEF7FF" rx="2.5" ry="2.5" style="stroke:#3d58d3;stroke-width:.5"/><circle cx="243.5" cy="458.654" r="11" fill="#ADD1B2" style="stroke:#181818;stroke-width:1"/><path d="M246.469 464.295q-.578.297-1.219.438-.64.156-1.344.156-2.5 0-3.828-1.64-1.312-1.657-1.312-4.782t1.312-4.781q1.328-1.656 3.828-1.656.703 0 1.344.156.656.156 1.219.453v2.719q-.625-.579-1.219-.844-.594-.281-1.219-.281-1.344 0-2.031 1.078-.687 1.062-.687 3.156t.687 3.172q.688 1.062 2.031 1.062.625 0 1.219-.265.594-.281 1.219-.86z"/><text x="262.5" y="464.54" font-family="Helvetica" font-size="17" textLength="72">gateway</text><rect width="227" height="310.758" x="172" y="7" fill="#EEF7FF" rx="2.5" ry="2.5" style="stroke:#3d58d3;stroke-width:.5"/><circle cx="240.75" cy="26.895" r="11" fill="#ADD1B2" style="stroke:#181818;stroke-width:1"/><path d="M243.719 32.535q-.578.297-1.219.438-.64.156-1.344.156-2.5 0-3.828-1.64-1.312-1.657-1.312-4.782t1.312-4.781q1.328-1.656 3.828-1.656.703 0 1.344.156.656.156 1.219.453v2.719q-.625-.578-1.219-.844-.594-.281-1.219-.281-1.344 0-2.031 1.078-.687 1.062-.687 3.156t.687 3.172q.688 1.062 2.031 1.062.625 0 1.219-.265.594-.281 1.219-.86z"/><text x="266.25" y="32.78" font-family="Helvetica" font-size="17" textLength="71">resource</text><path d="M173 46.789h225" style="stroke:#3d58d3;stroke-width:.5"/><text x="183" y="68.784" font-family="sans-serif" font-size="14" font-weight="bold" textLength="29">age</text><text x="212" y="68.784" font-family="sans-serif" font-size="14" textLength="66">: duration</text><text x="183" y="95.081" font-family="sans-serif" font-size="14" font-weight="bold" textLength="43">atime</text><text x="226" y="95.081" font-family="sans-serif" font-size="14" textLength="70">: datetime</text><text x="183" y="121.378" font-family="sans-serif" font-size="14" font-weight="bold" textLength="43">ctime</text><text x="226" y="121.378" font-family="sans-serif" font-size="14" textLength="70">: datetime</text><text x="183" y="147.675" font-family="sans-serif" font-size="14" font-weight="bold" textLength="14">id</text><text x="197" y="147.675" font-family="sans-serif" font-size="14" textLength="48">: string</text><text x="183" y="173.972" font-family="sans-serif" font-size="14" font-weight="bold" textLength="33">kind</text><text x="216" y="173.972" font-family="sans-serif" font-size="14" textLength="48">: string</text><text x="183" y="200.269" font-family="sans-serif" font-size="14" font-weight="bold" textLength="90">last_access</text><text x="273" y="200.269" font-family="sans-serif" font-size="14" textLength="66">: duration</text><text x="183" y="226.565" font-family="sans-serif" font-size="14" font-weight="bold" textLength="90">last_update</text><text x="273" y="226.565" font-family="sans-serif" font-size="14" textLength="66">: duration</text><text x="183" y="252.862" font-family="sans-serif" font-size="14" font-weight="bold" textLength="48">mtime</text><text x="231" y="252.862" font-family="sans-serif" font-size="14" textLength="70">: datetime</text><text x="183" y="279.159" font-family="sans-serif" font-size="14" font-weight="bold" textLength="43">name</text><text x="226" y="279.159" font-family="sans-serif" font-size="14" textLength="48">: string</text><text x="183" y="305.456" font-family="sans-serif" font-size="14" font-weight="bold" textLength="34">tags</text><text x="217" y="305.456" font-family="sans-serif" font-size="14" textLength="171">: dictionary[string, string]</text><g fill="none"><path d="M256.206 492.187c-27.48 30.52-68.876 76.473-96.396 107.033" style="stroke:#111827;stroke-width:2"/><path d="m268.25 478.81-16.503 9.362 8.918 8.03z" style="stroke:#111827;stroke-width:2"/></g><path fill="none" d="M314.794 492.187c27.48 30.52 68.876 76.473 96.396 107.033M302.75 478.81l7.585 17.391 8.918-8.03zM285.5 335.85v102.83m0-120.83-6 18h12z" style="stroke:#111827;stroke-width:2"/></svg>