<svg xmlns="http://www.w3.org/2000/svg" width="667" height="705" viewBox="0 0 667 705"><rect width="199" height="39.789" x="7" y="660.14" fill="#EEF7FF" rx="2.5" ry="2.5" style="stroke:#3d58d3;stroke-width:.5"/><circle cx="22" cy="680.034" r="11" fill="#ADD1B2" style="stroke:#181818;stroke-width:1"/><path d="M24.969 685.675q-.578.297-1.219.438-.64.156-1.344.156-2.5 0-3.828-1.64-1.312-1.657-1.312-4.782t1.312-4.781q1.328-1.657 3.828-1.657.703 0 1.344.157.656.156 1.219.453v2.719q-.625-.579-1.219-.844-.594-.281-1.219-.281-1.343 0-2.031 1.078-.687 1.062-.687 3.156t.687 3.172q.688 1.062 2.031 1.062.625 0 1.219-.265.594-.282 1.219-.86z"/><text x="41" y="685.92" font-family="Helvetica" font-size="17" textLength="157">aws_ec2_elastic_ip</text><rect width="242" height="39.789" x="241.5" y="660.14" fill="#EEF7FF" rx="2.5" ry="2.5" style="stroke:#3d58d3;stroke-width:.5"/><circle cx="256.5" cy="680.034" r="11" fill="#ADD1B2" style="stroke:#181818;stroke-width:1"/><path d="M259.469 685.675q-.578.297-1.219.438-.64.156-1.344.156-2.5 0-3.828-1.64-1.312-1.657-1.312-4.782t1.312-4.781q1.328-1.657 3.828-1.657.703 0 1.344.157.656.156 1.219.453v2.719q-.625-.579-1.219-.844-.594-.281-1.219-.281-1.344 0-2.031 1.078-.687 1.062-.687 3.156t.687 3.172q.688 1.062 2.031 1.062.625 0 1.219-.265.594-.282 1.219-.86z"/><text x="275.5" y="685.92" font-family="Helvetica" font-size="17" textLength="200">azure_public_ip_address</text><rect width="142" height="39.789" x="518.5" y="660.14" fill="#EEF7FF" rx="2.5" ry="2.5" style="stroke:#3d58d3;stroke-width:.5"/><circle cx="533.5" cy="680.034" r="11" fill="#ADD1B2" style="stroke:#181818;stroke-width:1"/><path d="M536.469 685.675q-.578.297-1.219.438-.64.156-1.344.156-2.5 0-3.828-1.64-1.312-1.657-1.312-4.782t1.312-4.781q1.328-1.657 3.828-1.657.703 0 1.344.157.656.156 1.219.453v2.719q-.625-.579-1.219-.844-.594-.281-1.219-.281-1.343 0-2.031 1.078-.687 1.062-.687 3.156t.687 3.172q.688 1.062 2.031 1.062.625 0 1.219-.265.594-.282 1.219-.86z"/><text x="552.5" y="685.92" font-family="Helvetica" font-size="17" textLength="100">gcp_address</text><rect width="208" height="100.383" x="258.5" y="438.76" fill="#EEF7FF" rx="2.5" ry="2.5" style="stroke:#3d58d3;stroke-width:.5"/><circle cx="309.75" cy="458.654" r="11" fill="#ADD1B2" style="stroke:#181818;stroke-width:1"/><path d="M312.719 464.295q-.578.297-1.219.438-.64.156-1.344.156-2.5 0-3.828-1.64-1.312-1.657-1.312-4.782t1.312-4.781q1.328-1.656 3.828-1.656.703 0 1.344.156.656.156 1.219.453v2.719q-.625-.579-1.219-.844-.594-.281-1.219-.281-1.344 0-2.031 1.078-.687 1.062-.687 3.156t.687 3.172q.688 1.062 2.031 1.062.625 0 1.219-.265.594-.281 1.219-.86z"/><text x="335.25" y="464.54" font-family="Helvetica" font-size="17" textLength="87">ip_address</text><path d="M259.5 478.549h206" style="stroke:#3d58d3;stroke-width:.5"/><text x="269.5" y="500.544" font-family="sans-serif" font-size="14" font-weight="bold" textLength="85">ip_address</text><text x="354.5" y="500.544" font-family="sans-serif" font-size="14" textLength="48">: string</text><text x="269.5" y="526.841" font-family="sans-serif" font-size="14" font-weight="bold" textLength="138">ip_address_family</text><text x="407.5" y="526.841" font-family="sans-serif" font-size="14" textLength="48">: string</text><rect width="227" height="310.758" x="249" y="7" fill="#EEF7FF" rx="2.5" ry="2.5" style="stroke:#3d58d3;stroke-width:.5"/><circle cx="317.75" cy="26.895" r="11" fill="#ADD1B2" style="stroke:#181818;stroke-width:1"/><path d="M320.719 32.535q-.578.297-1.219.438-.64.156-1.344.156-2.5 0-3.828-1.64-1.312-1.657-1.312-4.782t1.312-4.781q1.328-1.656 3.828-1.656.703 0 1.344.156.656.156 1.219.453v2.719q-.625-.578-1.219-.844-.594-.281-1.219-.281-1.344 0-2.031 1.078-.687 1.062-.687 3.156t.687 3.172q.688 1.062 2.031 1.062.625 0 1.219-.265.594-.281 1.219-.86z"/><text x="343.25" y="32.78" font-family="Helvetica" font-size="17" textLength="71">resource</text><path d="M250 46.789h225" style="stroke:#3d58d3;stroke-width:.5"/><text x="260" y="68.784" font-family="sans-serif" font-size="14" font-weight="bold" textLength="29">age</text><text x="289" y="68.784" font-family="sans-serif" font-size="14" textLength="66">: duration</text><text x="260" y="95.081" font-family="sans-serif" font-size="14" font-weight="bold" textLength="43">atime</text><text x="303" y="95.081" font-family="sans-serif" font-size="14" textLength="70">: datetime</text><text x="260" y="121.378" font-family="sans-serif" font-size="14" font-weight="bold" textLength="43">ctime</text><text x="303" y="121.378" font-family="sans-serif" font-size="14" textLength="70">: datetime</text><text x="260" y="147.675" font-family="sans-serif" font-size="14" font-weight="bold" textLength="14">id</text><text x="274" y="147.675" font-family="sans-serif" font-size="14" textLength="48">: string</text><text x="260" y="173.972" font-family="sans-serif" font-size="14" font-weight="bold" textLength="33">kind</text><text x="293" y="173.972" font-family="sans-serif" font-size="14" textLength="48">: string</text><text x="260" y="200.269" font-family="sans-serif" font-size="14" font-weight="bold" textLength="90">last_access</text><text x="350" y="200.269" font-family="sans-serif" font-size="14" textLength="66">: duration</text><text x="260" y="226.565" font-family="sans-serif" font-size="14" font-weight="bold" textLength="90">last_update</text><text x="350" y="226.565" font-family="sans-serif" font-size="14" textLength="66">: duration</text><text x="260" y="252.862" font-family="sans-serif" font-size="14" font-weight="bold" textLength="48">mtime</text><text x="308" y="252.862" font-family="sans-serif" font-size="14" textLength="70">: datetime</text><text x="260" y="279.159" font-family="sans-serif" font-size="14" font-weight="bold" textLength="43">name</text><text x="303" y="279.159" font-family="sans-serif" font-size="14" textLength="48">: string</text><text x="260" y="305.456" font-family="sans-serif" font-size="14" font-weight="bold" textLength="34">tags</text><text x="294" y="305.456" font-family="sans-serif" font-size="14" textLength="171">: dictionary[string, string]</text><path fill="none" d="M280.761 550.324c-53.18 39.28-110.101 81.316-148.021 109.326m162.5-120.02-18.043 5.868 7.13 9.652zm67.26 18v102.26m0-120.26-6 18h12zm73.47 11.52c47.16 39.28 96.64 80.49 130.26 108.5M422.14 539.63l9.99 16.13 7.68-9.22zM362.5 336.06v102.36m0-120.36-6 18h12z" style="stroke:#111827;stroke-width:2"/></svg>