<svg xmlns="http://www.w3.org/2000/svg" width="450" height="705" viewBox="0 0 450 705"><rect width="194" height="100.383" x="146" y="438.76" fill="#EEF7FF" rx="2.5" ry="2.5" style="stroke:#3d58d3;stroke-width:.5"/><circle cx="161" cy="458.654" r="11" fill="#ADD1B2" style="stroke:#181818;stroke-width:1"/><path d="M163.969 464.295q-.578.297-1.219.438-.64.156-1.344.156-2.5 0-3.828-1.64-1.312-1.657-1.312-4.782t1.312-4.781q1.328-1.656 3.828-1.656.703 0 1.344.156.656.156 1.219.453v2.719q-.625-.579-1.219-.844-.594-.281-1.219-.281-1.344 0-2.031 1.078-.687 1.062-.687 3.156t.687 3.172q.688 1.062 2.031 1.062.625 0 1.219-.265.594-.281 1.219-.86z"/><text x="180" y="464.54" font-family="Helvetica" font-size="17" textLength="152">autoscaling_group</text><path d="M147 478.549h192" style="stroke:#3d58d3;stroke-width:.5"/><text x="157" y="500.544" font-family="sans-serif" font-size="14" font-weight="bold" textLength="71">max_size</text><text x="228" y="500.544" font-family="sans-serif" font-size="14" textLength="44">: int64</text><text x="157" y="526.841" font-family="sans-serif" font-size="14" font-weight="bold" textLength="67">min_size</text><text x="224" y="526.841" font-family="sans-serif" font-size="14" textLength="44">: int64</text><rect width="236" height="39.789" x="7" y="660.14" fill="#EEF7FF" rx="2.5" ry="2.5" style="stroke:#3d58d3;stroke-width:.5"/><circle cx="22" cy="680.034" r="11" fill="#ADD1B2" style="stroke:#181818;stroke-width:1"/><path d="M24.969 685.675q-.578.297-1.219.438-.64.156-1.344.156-2.5 0-3.828-1.64-1.312-1.657-1.312-4.782t1.312-4.781q1.328-1.657 3.828-1.657.703 0 1.344.157.656.156 1.219.453v2.719q-.625-.579-1.219-.844-.594-.281-1.219-.281-1.343 0-2.031 1.078-.687 1.062-.687 3.156t.687 3.172q.688 1.062 2.031 1.062.625 0 1.219-.265.594-.282 1.219-.86z"/><text x="41" y="685.92" font-family="Helvetica" font-size="17" textLength="194">aws_autoscaling_group</text><rect width="165" height="39.789" x="278.5" y="660.14" fill="#EEF7FF" rx="2.5" ry="2.5" style="stroke:#3d58d3;stroke-width:.5"/><circle cx="293.5" cy="680.034" r="11" fill="#ADD1B2" style="stroke:#181818;stroke-width:1"/><path d="M296.469 685.675q-.578.297-1.219.438-.64.156-1.344.156-2.5 0-3.828-1.64-1.312-1.657-1.312-4.782t1.312-4.781q1.328-1.657 3.828-1.657.703 0 1.344.157.656.156 1.219.453v2.719q-.625-.579-1.219-.844-.594-.281-1.219-.281-1.344 0-2.031 1.078-.687 1.062-.687 3.156t.687 3.172q.688 1.062 2.031 1.062.625 0 1.219-.265.594-.282 1.219-.86z"/><text x="312.5" y="685.92" font-family="Helvetica" font-size="17" textLength="123">gcp_autoscaler</text><rect width="227" height="310.758" x="129.5" y="7" fill="#EEF7FF" rx="2.5" ry="2.5" style="stroke:#3d58d3;stroke-width:.5"/><circle cx="198.25" cy="26.895" r="11" fill="#ADD1B2" style="stroke:#181818;stroke-width:1"/><path d="M201.219 32.535q-.578.297-1.219.438-.64.156-1.344.156-2.5 0-3.828-1.64-1.312-1.657-1.312-4.782t1.312-4.781q1.328-1.656 3.828-1.656.703 0 1.344.156.656.156 1.219.453v2.719q-.625-.578-1.219-.844-.594-.281-1.219-.281-1.344 0-2.031 1.078-.687 1.062-.687 3.156t.687 3.172q.688 1.062 2.031 1.062.625 0 1.219-.265.594-.281 1.219-.86z"/><text x="223.75" y="32.78" font-family="Helvetica" font-size="17" textLength="71">resource</text><path d="M130.5 46.789h225" style="stroke:#3d58d3;stroke-width:.5"/><text x="140.5" y="68.784" font-family="sans-serif" font-size="14" font-weight="bold" textLength="29">age</text><text x="169.5" y="68.784" font-family="sans-serif" font-size="14" textLength="66">: duration</text><text x="140.5" y="95.081" font-family="sans-serif" font-size="14" font-weight="bold" textLength="43">atime</text><text x="183.5" y="95.081" font-family="sans-serif" font-size="14" textLength="70">: datetime</text><text x="140.5" y="121.378" font-family="sans-serif" font-size="14" font-weight="bold" textLength="43">ctime</text><text x="183.5" y="121.378" font-family="sans-serif" font-size="14" textLength="70">: datetime</text><text x="140.5" y="147.675" font-family="sans-serif" font-size="14" font-weight="bold" textLength="14">id</text><text x="154.5" y="147.675" font-family="sans-serif" font-size="14" textLength="48">: string</text><text x="140.5" y="173.972" font-family="sans-serif" font-size="14" font-weight="bold" textLength="33">kind</text><text x="173.5" y="173.972" font-family="sans-serif" font-size="14" textLength="48">: string</text><text x="140.5" y="200.269" font-family="sans-serif" font-size="14" font-weight="bold" textLength="90">last_access</text><text x="230.5" y="200.269" font-family="sans-serif" font-size="14" textLength="66">: duration</text><text x="140.5" y="226.565" font-family="sans-serif" font-size="14" font-weight="bold" textLength="90">last_update</text><text x="230.5" y="226.565" font-family="sans-serif" font-size="14" textLength="66">: duration</text><text x="140.5" y="252.862" font-family="sans-serif" font-size="14" font-weight="bold" textLength="48">mtime</text><text x="188.5" y="252.862" font-family="sans-serif" font-size="14" textLength="70">: datetime</text><text x="140.5" y="279.159" font-family="sans-serif" font-size="14" font-weight="bold" textLength="43">name</text><text x="183.5" y="279.159" font-family="sans-serif" font-size="14" textLength="48">: string</text><text x="140.5" y="305.456" font-family="sans-serif" font-size="14" font-weight="bold" textLength="34">tags</text><text x="174.5" y="305.456" font-family="sans-serif" font-size="14" textLength="171">: dictionary[string, string]</text><path fill="none" d="M243 336.06v102.36m0-120.36-6 18h12z" style="stroke:#111827;stroke-width:2"/><g fill="none"><path d="M202.468 554.899c-24.59 39.39-48.078 77.041-65.518 104.991" style="stroke:#111827;stroke-width:2"/><path d="m212 539.63-14.622 12.092 10.18 6.354z" style="stroke:#111827;stroke-width:2"/></g><g fill="none"><path d="M283.532 554.899c24.59 39.39 48.078 77.041 65.518 104.991" style="stroke:#111827;stroke-width:2"/><path d="m274 539.63 4.442 18.446 10.18-6.354z" style="stroke:#111827;stroke-width:2"/></g></svg>