<svg xmlns="http://www.w3.org/2000/svg" width="437" height="1188" viewBox="0 0 437 1188"><rect width="231" height="39.789" x="7" y="1142.51" fill="#EEF7FF" rx="2.5" ry="2.5" style="stroke:#3d58d3;stroke-width:.5"/><circle cx="22" cy="1162.405" r="11" fill="#ADD1B2" style="stroke:#181818;stroke-width:1"/><path d="M24.969 1168.045q-.578.297-1.219.438-.64.156-1.344.156-2.5 0-3.828-1.64-1.312-1.657-1.312-4.782t1.312-4.781q1.328-1.656 3.828-1.656.703 0 1.344.156.656.156 1.219.453v2.719q-.625-.578-1.219-.844-.594-.281-1.219-.281-1.343 0-2.031 1.078-.687 1.062-.687 3.156t.687 3.172q.688 1.062 2.031 1.062.625 0 1.219-.265.594-.281 1.219-.86z"/><text x="41" y="1168.29" font-family="Helvetica" font-size="17" textLength="189">aws_ec2_volume_type</text><rect width="158" height="39.789" x="272.5" y="1142.51" fill="#EEF7FF" rx="2.5" ry="2.5" style="stroke:#3d58d3;stroke-width:.5"/><circle cx="287.5" cy="1162.405" r="11" fill="#ADD1B2" style="stroke:#181818;stroke-width:1"/><path d="M290.469 1168.045q-.578.297-1.219.438-.64.156-1.344.156-2.5 0-3.828-1.64-1.312-1.657-1.312-4.782t1.312-4.781q1.328-1.656 3.828-1.656.703 0 1.344.156.656.156 1.219.453v2.719q-.625-.578-1.219-.844-.594-.281-1.219-.281-1.344 0-2.031 1.078-.687 1.062-.687 3.156t.687 3.172q.688 1.062 2.031 1.062.625 0 1.219-.265.594-.281 1.219-.86z"/><text x="306.5" y="1168.29" font-family="Helvetica" font-size="17" textLength="116">gcp_disk_type</text><rect width="198" height="39.789" x="137.5" y="438.76" fill="#EEF7FF" rx="2.5" ry="2.5" style="stroke:#3d58d3;stroke-width:.5"/><circle cx="152.5" cy="458.654" r="11" fill="#ADD1B2" style="stroke:#181818;stroke-width:1"/><path d="M155.469 464.295q-.578.297-1.219.438-.64.156-1.344.156-2.5 0-3.828-1.64-1.312-1.657-1.312-4.782t1.312-4.781q1.328-1.656 3.828-1.656.703 0 1.344.156.656.156 1.219.453v2.719q-.625-.579-1.219-.844-.594-.281-1.219-.281-1.344 0-2.031 1.078-.687 1.062-.687 3.156t.687 3.172q.688 1.062 2.031 1.062.625 0 1.219-.265.594-.281 1.219-.86z"/><text x="171.5" y="464.54" font-family="Helvetica" font-size="17" textLength="156">phantom_resource</text><rect width="90" height="39.789" x="191.5" y="599.55" fill="#EEF7FF" rx="2.5" ry="2.5" style="stroke:#3d58d3;stroke-width:.5"/><circle cx="206.5" cy="619.444" r="11" fill="#ADD1B2" style="stroke:#181818;stroke-width:1"/><path d="M209.469 625.085q-.578.297-1.219.438-.64.156-1.344.156-2.5 0-3.828-1.64-1.312-1.657-1.312-4.782t1.312-4.781q1.328-1.657 3.828-1.657.703 0 1.344.157.656.156 1.219.453v2.719q-.625-.579-1.219-.844-.594-.281-1.219-.281-1.344 0-2.031 1.078-.687 1.062-.687 3.156t.687 3.172q.688 1.062 2.031 1.062.625 0 1.219-.265.594-.282 1.219-.86z"/><text x="225.5" y="625.33" font-family="Helvetica" font-size="17" textLength="48">quota</text><rect width="227" height="310.758" x="123" y="7" fill="#EEF7FF" rx="2.5" ry="2.5" style="stroke:#3d58d3;stroke-width:.5"/><circle cx="191.75" cy="26.895" r="11" fill="#ADD1B2" style="stroke:#181818;stroke-width:1"/><path d="M194.719 32.535q-.578.297-1.219.438-.64.156-1.344.156-2.5 0-3.828-1.64-1.312-1.657-1.312-4.782t1.312-4.781q1.328-1.656 3.828-1.656.703 0 1.344.156.656.156 1.219.453v2.719q-.625-.578-1.219-.844-.594-.281-1.219-.281-1.344 0-2.031 1.078-.687 1.062-.687 3.156t.687 3.172q.688 1.062 2.031 1.062.625 0 1.219-.265.594-.281 1.219-.86z"/><text x="217.25" y="32.78" font-family="Helvetica" font-size="17" textLength="71">resource</text><path d="M124 46.789h225" style="stroke:#3d58d3;stroke-width:.5"/><text x="134" y="68.784" font-family="sans-serif" font-size="14" font-weight="bold" textLength="29">age</text><text x="163" y="68.784" font-family="sans-serif" font-size="14" textLength="66">: duration</text><text x="134" y="95.081" font-family="sans-serif" font-size="14" font-weight="bold" textLength="43">atime</text><text x="177" y="95.081" font-family="sans-serif" font-size="14" textLength="70">: datetime</text><text x="134" y="121.378" font-family="sans-serif" font-size="14" font-weight="bold" textLength="43">ctime</text><text x="177" y="121.378" font-family="sans-serif" font-size="14" textLength="70">: datetime</text><text x="134" y="147.675" font-family="sans-serif" font-size="14" font-weight="bold" textLength="14">id</text><text x="148" y="147.675" font-family="sans-serif" font-size="14" textLength="48">: string</text><text x="134" y="173.972" font-family="sans-serif" font-size="14" font-weight="bold" textLength="33">kind</text><text x="167" y="173.972" font-family="sans-serif" font-size="14" textLength="48">: string</text><text x="134" y="200.269" font-family="sans-serif" font-size="14" font-weight="bold" textLength="90">last_access</text><text x="224" y="200.269" font-family="sans-serif" font-size="14" textLength="66">: duration</text><text x="134" y="226.565" font-family="sans-serif" font-size="14" font-weight="bold" textLength="90">last_update</text><text x="224" y="226.565" font-family="sans-serif" font-size="14" textLength="66">: duration</text><text x="134" y="252.862" font-family="sans-serif" font-size="14" font-weight="bold" textLength="48">mtime</text><text x="182" y="252.862" font-family="sans-serif" font-size="14" textLength="70">: datetime</text><text x="134" y="279.159" font-family="sans-serif" font-size="14" font-weight="bold" textLength="43">name</text><text x="177" y="279.159" font-family="sans-serif" font-size="14" textLength="48">: string</text><text x="134" y="305.456" font-family="sans-serif" font-size="14" font-weight="bold" textLength="34">tags</text><text x="168" y="305.456" font-family="sans-serif" font-size="14" textLength="171">: dictionary[string, string]</text><rect width="79" height="39.789" x="197" y="760.34" fill="#EEF7FF" rx="2.5" ry="2.5" style="stroke:#3d58d3;stroke-width:.5"/><circle cx="212" cy="780.235" r="11" fill="#ADD1B2" style="stroke:#181818;stroke-width:1"/><path d="M214.969 785.875q-.578.297-1.219.438-.64.156-1.344.156-2.5 0-3.828-1.64-1.312-1.657-1.312-4.782t1.312-4.781q1.328-1.656 3.828-1.656.703 0 1.344.156.656.156 1.219.453v2.719q-.625-.578-1.219-.844-.594-.281-1.219-.281-1.344 0-2.031 1.078-.687 1.062-.687 3.156t.687 3.172q.688 1.062 2.031 1.062.625 0 1.219-.265.594-.281 1.219-.86z"/><text x="231" y="786.12" font-family="Helvetica" font-size="17" textLength="37">type</text><rect width="203" height="100.383" x="135" y="921.13" fill="#EEF7FF" rx="2.5" ry="2.5" style="stroke:#3d58d3;stroke-width:.5"/><circle cx="173.4" cy="941.024" r="11" fill="#ADD1B2" style="stroke:#181818;stroke-width:1"/><path d="M176.369 946.665q-.578.297-1.219.438-.64.156-1.344.156-2.5 0-3.828-1.64-1.312-1.657-1.312-4.782t1.312-4.781q1.328-1.657 3.828-1.657.703 0 1.344.157.656.156 1.219.453v2.719q-.625-.578-1.219-.844-.594-.281-1.219-.281-1.344 0-2.031 1.078-.687 1.062-.687 3.156t.687 3.172q.688 1.062 2.031 1.062.625 0 1.219-.265.594-.282 1.219-.86z"/><text x="197.6" y="946.91" font-family="Helvetica" font-size="17" textLength="109">volume_type</text><path d="M136 960.919h201" style="stroke:#3d58d3;stroke-width:.5"/><text x="146" y="982.914" font-family="sans-serif" font-size="14" font-weight="bold" textLength="124">ondemand_cost</text><text x="270" y="982.914" font-family="sans-serif" font-size="14" textLength="57">: double</text><text x="146" y="1009.211" font-family="sans-serif" font-size="14" font-weight="bold" textLength="99">volume_type</text><text x="245" y="1009.211" font-family="sans-serif" font-size="14" textLength="48">: string</text><g fill="none"><path d="M197.256 1037.415c-23.75 39.39-46.366 76.895-63.206 104.845" style="stroke:#111827;stroke-width:2"/><path d="m206.55 1022-14.433 12.317 10.277 6.196z" style="stroke:#111827;stroke-width:2"/></g><g fill="none"><path d="M276.064 1037.378c23.96 39.39 46.796 76.932 63.786 104.882" style="stroke:#111827;stroke-width:2"/><path d="m266.71 1022 4.228 18.497 10.252-6.237z" style="stroke:#111827;stroke-width:2"/></g><path fill="none" d="M236.5 335.84v102.83m0-120.83-6 18h12zm0 178.97v102.41m0-120.41-6 18h12zm0 178.79v102.41m0-120.41-6 18h12zm0 178.8v102.35m0-120.35-6 18h12z" style="stroke:#111827;stroke-width:2"/></svg>