<svg xmlns="http://www.w3.org/2000/svg" width="310" height="645" viewBox="0 0 310 645"><rect width="112" height="39.789" x="7" y="599.55" fill="#EEF7FF" rx="2.5" ry="2.5" style="stroke:#3d58d3;stroke-width:.5"/><circle cx="22" cy="619.444" r="11" fill="#ADD1B2" style="stroke:#181818;stroke-width:1"/><path d="M24.969 625.085q-.578.297-1.219.438-.64.156-1.344.156-2.5 0-3.828-1.64-1.312-1.657-1.312-4.782t1.312-4.781q1.328-1.657 3.828-1.657.703 0 1.344.157.656.156 1.219.453v2.719q-.625-.579-1.219-.844-.594-.281-1.219-.281-1.343 0-2.031 1.078-.687 1.062-.687 3.156t.687 3.172q.688 1.062 2.031 1.062.625 0 1.219-.265.594-.282 1.219-.86z"/><text x="41" y="625.33" font-family="Helvetica" font-size="17" textLength="70">aws_vpc</text><rect width="149" height="39.789" x="154.5" y="599.55" fill="#EEF7FF" rx="2.5" ry="2.5" style="stroke:#3d58d3;stroke-width:.5"/><circle cx="169.5" cy="619.444" r="11" fill="#ADD1B2" style="stroke:#181818;stroke-width:1"/><path d="M172.469 625.085q-.578.297-1.219.438-.64.156-1.344.156-2.5 0-3.828-1.64-1.312-1.657-1.312-4.782t1.312-4.781q1.328-1.657 3.828-1.657.703 0 1.344.157.656.156 1.219.453v2.719q-.625-.579-1.219-.844-.594-.281-1.219-.281-1.344 0-2.031 1.078-.687 1.062-.687 3.156t.687 3.172q.688 1.062 2.031 1.062.625 0 1.219-.265.594-.282 1.219-.86z"/><text x="188.5" y="625.33" font-family="Helvetica" font-size="17" textLength="107">gcp_network</text><rect width="112" height="39.789" x="90" y="438.76" fill="#EEF7FF" rx="2.5" ry="2.5" style="stroke:#3d58d3;stroke-width:.5"/><circle cx="105" cy="458.654" r="11" fill="#ADD1B2" style="stroke:#181818;stroke-width:1"/><path d="M107.969 464.295q-.578.297-1.219.438-.64.156-1.344.156-2.5 0-3.828-1.64-1.312-1.657-1.312-4.782t1.312-4.781q1.328-1.656 3.828-1.656.703 0 1.344.156.656.156 1.219.453v2.719q-.625-.579-1.219-.844-.594-.281-1.219-.281-1.344 0-2.031 1.078-.687 1.062-.687 3.156t.687 3.172q.688 1.062 2.031 1.062.625 0 1.219-.265.594-.281 1.219-.86z"/><text x="124" y="464.54" font-family="Helvetica" font-size="17" textLength="70">network</text><rect width="227" height="310.758" x="32.5" y="7" fill="#EEF7FF" rx="2.5" ry="2.5" style="stroke:#3d58d3;stroke-width:.5"/><circle cx="101.25" cy="26.895" r="11" fill="#ADD1B2" style="stroke:#181818;stroke-width:1"/><path d="M104.219 32.535q-.578.297-1.219.438-.64.156-1.344.156-2.5 0-3.828-1.64-1.312-1.657-1.312-4.782t1.312-4.781q1.328-1.656 3.828-1.656.703 0 1.344.156.656.156 1.219.453v2.719q-.625-.578-1.219-.844-.594-.281-1.219-.281-1.344 0-2.031 1.078-.687 1.062-.687 3.156t.687 3.172q.688 1.062 2.031 1.062.625 0 1.219-.265.594-.281 1.219-.86z"/><text x="126.75" y="32.78" font-family="Helvetica" font-size="17" textLength="71">resource</text><path d="M33.5 46.789h225" style="stroke:#3d58d3;stroke-width:.5"/><text x="43.5" y="68.784" font-family="sans-serif" font-size="14" font-weight="bold" textLength="29">age</text><text x="72.5" y="68.784" font-family="sans-serif" font-size="14" textLength="66">: duration</text><text x="43.5" y="95.081" font-family="sans-serif" font-size="14" font-weight="bold" textLength="43">atime</text><text x="86.5" y="95.081" font-family="sans-serif" font-size="14" textLength="70">: datetime</text><text x="43.5" y="121.378" font-family="sans-serif" font-size="14" font-weight="bold" textLength="43">ctime</text><text x="86.5" y="121.378" font-family="sans-serif" font-size="14" textLength="70">: datetime</text><text x="43.5" y="147.675" font-family="sans-serif" font-size="14" font-weight="bold" textLength="14">id</text><text x="57.5" y="147.675" font-family="sans-serif" font-size="14" textLength="48">: string</text><text x="43.5" y="173.972" font-family="sans-serif" font-size="14" font-weight="bold" textLength="33">kind</text><text x="76.5" y="173.972" font-family="sans-serif" font-size="14" textLength="48">: string</text><text x="43.5" y="200.269" font-family="sans-serif" font-size="14" font-weight="bold" textLength="90">last_access</text><text x="133.5" y="200.269" font-family="sans-serif" font-size="14" textLength="66">: duration</text><text x="43.5" y="226.565" font-family="sans-serif" font-size="14" font-weight="bold" textLength="90">last_update</text><text x="133.5" y="226.565" font-family="sans-serif" font-size="14" textLength="66">: duration</text><text x="43.5" y="252.862" font-family="sans-serif" font-size="14" font-weight="bold" textLength="48">mtime</text><text x="91.5" y="252.862" font-family="sans-serif" font-size="14" textLength="70">: datetime</text><text x="43.5" y="279.159" font-family="sans-serif" font-size="14" font-weight="bold" textLength="43">name</text><text x="86.5" y="279.159" font-family="sans-serif" font-size="14" textLength="48">: string</text><text x="43.5" y="305.456" font-family="sans-serif" font-size="14" font-weight="bold" textLength="34">tags</text><text x="77.5" y="305.456" font-family="sans-serif" font-size="14" textLength="171">: dictionary[string, string]</text><g fill="none"><path d="M127.653 494.763c-15.95 30.52-38.633 73.897-54.603 104.457" style="stroke:#111827;stroke-width:2"/><path d="m135.99 478.81-13.655 13.174 10.635 5.558z" style="stroke:#111827;stroke-width:2"/></g><g fill="none"><path d="M164.347 494.763c15.95 30.52 38.633 73.897 54.603 104.457" style="stroke:#111827;stroke-width:2"/><path d="m156.01 478.81 3.02 18.732 10.635-5.558z" style="stroke:#111827;stroke-width:2"/></g><path fill="none" d="M146 335.85v102.83m0-120.83-6 18h12z" style="stroke:#111827;stroke-width:2"/></svg>