<svg xmlns="http://www.w3.org/2000/svg" width="449" height="705" viewBox="0 0 449 705"><rect width="177" height="39.789" x="7" y="660.14" fill="#EEF7FF" rx="2.5" ry="2.5" style="stroke:#3d58d3;stroke-width:.5"/><circle cx="22" cy="680.034" r="11" fill="#ADD1B2" style="stroke:#181818;stroke-width:1"/><path d="M24.969 685.675q-.578.297-1.219.438-.64.156-1.344.156-2.5 0-3.828-1.64-1.312-1.657-1.312-4.782t1.312-4.781q1.328-1.657 3.828-1.657.703 0 1.344.157.656.156 1.219.453v2.719q-.625-.579-1.219-.844-.594-.281-1.219-.281-1.343 0-2.031 1.078-.687 1.062-.687 3.156t.687 3.172q.688 1.062 2.031 1.062.625 0 1.219-.265.594-.282 1.219-.86z"/><text x="41" y="685.92" font-family="Helvetica" font-size="17" textLength="135">aws_eks_cluster</text><rect width="223" height="39.789" x="219" y="660.14" fill="#EEF7FF" rx="2.5" ry="2.5" style="stroke:#3d58d3;stroke-width:.5"/><circle cx="234" cy="680.034" r="11" fill="#ADD1B2" style="stroke:#181818;stroke-width:1"/><path d="M236.969 685.675q-.578.297-1.219.438-.64.156-1.344.156-2.5 0-3.828-1.64-1.312-1.657-1.312-4.782t1.312-4.781q1.328-1.657 3.828-1.657.703 0 1.344.157.656.156 1.219.453v2.719q-.625-.579-1.219-.844-.594-.281-1.219-.281-1.344 0-2.031 1.078-.687 1.062-.687 3.156t.687 3.172q.688 1.062 2.031 1.062.625 0 1.219-.265.594-.282 1.219-.86z"/><text x="253" y="685.92" font-family="Helvetica" font-size="17" textLength="181">gcp_container_cluster</text><rect width="366" height="100.383" x="29.5" y="438.76" fill="#EEF7FF" rx="2.5" ry="2.5" style="stroke:#3d58d3;stroke-width:.5"/><circle cx="44.5" cy="458.654" r="11" fill="#ADD1B2" style="stroke:#181818;stroke-width:1"/><path d="M47.469 464.295q-.578.297-1.219.438-.64.156-1.344.156-2.5 0-3.828-1.64-1.312-1.657-1.312-4.782t1.312-4.781q1.328-1.656 3.828-1.656.703 0 1.344.156.656.156 1.219.453v2.719q-.625-.579-1.219-.844-.594-.281-1.219-.281-1.343 0-2.031 1.078-.687 1.062-.687 3.156t.687 3.172q.688 1.062 2.031 1.062.625 0 1.219-.265.594-.281 1.219-.86z"/><text x="63.5" y="464.54" font-family="Helvetica" font-size="17" textLength="324">managed_kubernetes_cluster_provider</text><path d="M30.5 478.549h364" style="stroke:#3d58d3;stroke-width:.5"/><text x="40.5" y="500.544" font-family="sans-serif" font-size="14" font-weight="bold" textLength="70">endpoint</text><text x="110.5" y="500.544" font-family="sans-serif" font-size="14" textLength="48">: string</text><text x="40.5" y="526.841" font-family="sans-serif" font-size="14" font-weight="bold" textLength="59">version</text><text x="99.5" y="526.841" font-family="sans-serif" font-size="14" textLength="48">: string</text><rect width="227" height="310.758" x="99" y="7" fill="#EEF7FF" rx="2.5" ry="2.5" style="stroke:#3d58d3;stroke-width:.5"/><circle cx="167.75" cy="26.895" r="11" fill="#ADD1B2" style="stroke:#181818;stroke-width:1"/><path d="M170.719 32.535q-.578.297-1.219.438-.64.156-1.344.156-2.5 0-3.828-1.64-1.312-1.657-1.312-4.782t1.312-4.781q1.328-1.656 3.828-1.656.703 0 1.344.156.656.156 1.219.453v2.719q-.625-.578-1.219-.844-.594-.281-1.219-.281-1.344 0-2.031 1.078-.687 1.062-.687 3.156t.687 3.172q.688 1.062 2.031 1.062.625 0 1.219-.265.594-.281 1.219-.86z"/><text x="193.25" y="32.78" font-family="Helvetica" font-size="17" textLength="71">resource</text><path d="M100 46.789h225" style="stroke:#3d58d3;stroke-width:.5"/><text x="110" y="68.784" font-family="sans-serif" font-size="14" font-weight="bold" textLength="29">age</text><text x="139" y="68.784" font-family="sans-serif" font-size="14" textLength="66">: duration</text><text x="110" y="95.081" font-family="sans-serif" font-size="14" font-weight="bold" textLength="43">atime</text><text x="153" y="95.081" font-family="sans-serif" font-size="14" textLength="70">: datetime</text><text x="110" y="121.378" font-family="sans-serif" font-size="14" font-weight="bold" textLength="43">ctime</text><text x="153" y="121.378" font-family="sans-serif" font-size="14" textLength="70">: datetime</text><text x="110" y="147.675" font-family="sans-serif" font-size="14" font-weight="bold" textLength="14">id</text><text x="124" y="147.675" font-family="sans-serif" font-size="14" textLength="48">: string</text><text x="110" y="173.972" font-family="sans-serif" font-size="14" font-weight="bold" textLength="33">kind</text><text x="143" y="173.972" font-family="sans-serif" font-size="14" textLength="48">: string</text><text x="110" y="200.269" font-family="sans-serif" font-size="14" font-weight="bold" textLength="90">last_access</text><text x="200" y="200.269" font-family="sans-serif" font-size="14" textLength="66">: duration</text><text x="110" y="226.565" font-family="sans-serif" font-size="14" font-weight="bold" textLength="90">last_update</text><text x="200" y="226.565" font-family="sans-serif" font-size="14" textLength="66">: duration</text><text x="110" y="252.862" font-family="sans-serif" font-size="14" font-weight="bold" textLength="48">mtime</text><text x="158" y="252.862" font-family="sans-serif" font-size="14" textLength="70">: datetime</text><text x="110" y="279.159" font-family="sans-serif" font-size="14" font-weight="bold" textLength="43">name</text><text x="153" y="279.159" font-family="sans-serif" font-size="14" textLength="48">: string</text><text x="110" y="305.456" font-family="sans-serif" font-size="14" font-weight="bold" textLength="34">tags</text><text x="144" y="305.456" font-family="sans-serif" font-size="14" textLength="171">: dictionary[string, string]</text><g fill="none"><path d="M172.29 554.937c-24.37 39.39-47.65 77.003-64.94 104.953" style="stroke:#111827;stroke-width:2"/><path d="m181.76 539.63-14.573 12.15 10.205 6.314z" style="stroke:#111827;stroke-width:2"/></g><g fill="none"><path d="M253.032 554.899c24.59 39.39 48.078 77.041 65.518 104.991" style="stroke:#111827;stroke-width:2"/><path d="m243.5 539.63 4.442 18.446 10.18-6.354z" style="stroke:#111827;stroke-width:2"/></g><path fill="none" d="M212.5 336.06v102.36m0-120.36-6 18h12z" style="stroke:#111827;stroke-width:2"/></svg>