<svg xmlns="http://www.w3.org/2000/svg" width="1618" height="1427" viewBox="0 0 1618 1427"><rect width="238" height="39.789" x="7" y="1221.4" fill="#EEF7FF" rx="2.5" ry="2.5" style="stroke:#3d58d3;stroke-width:.5"/><circle cx="22" cy="1241.294" r="11" fill="#ADD1B2" style="stroke:#181818;stroke-width:1"/><path d="M24.969 1246.935q-.578.297-1.219.438-.64.156-1.344.156-2.5 0-3.828-1.64-1.312-1.657-1.312-4.782t1.312-4.781q1.328-1.657 3.828-1.657.703 0 1.344.157.656.156 1.219.453v2.719q-.625-.579-1.219-.844-.594-.281-1.219-.281-1.343 0-2.031 1.078-.687 1.062-.687 3.156t.687 3.172q.688 1.062 2.031 1.062.625 0 1.219-.265.594-.282 1.219-.86z"/><text x="41" y="1247.18" font-family="Helvetica" font-size="17" textLength="196">aws_ec2_instance_type</text><rect width="355" height="39.789" x="280.5" y="1221.4" fill="#EEF7FF" rx="2.5" ry="2.5" style="stroke:#3d58d3;stroke-width:.5"/><circle cx="295.5" cy="1241.294" r="11" fill="#ADD1B2" style="stroke:#181818;stroke-width:1"/><path d="M298.469 1246.935q-.578.297-1.219.438-.64.156-1.344.156-2.5 0-3.828-1.64-1.312-1.657-1.312-4.782t1.312-4.781q1.328-1.657 3.828-1.657.703 0 1.344.157.656.156 1.219.453v2.719q-.625-.579-1.219-.844-.594-.281-1.219-.281-1.344 0-2.031 1.078-.687 1.062-.687 3.156t.687 3.172q.688 1.062 2.031 1.062.625 0 1.219-.265.594-.282 1.219-.86z"/><text x="314.5" y="1247.18" font-family="Helvetica" font-size="17" textLength="313">azure_compute_virtual_machine_size</text><rect width="432" height="39.789" x="671" y="1221.4" fill="#EEF7FF" rx="2.5" ry="2.5" style="stroke:#3d58d3;stroke-width:.5"/><circle cx="686" cy="1241.294" r="11" fill="#ADD1B2" style="stroke:#181818;stroke-width:1"/><path d="M688.969 1246.935q-.578.297-1.219.438-.64.156-1.344.156-2.5 0-3.828-1.64-1.312-1.657-1.312-4.782t1.312-4.781q1.328-1.657 3.828-1.657.703 0 1.344.157.656.156 1.219.453v2.719q-.625-.579-1.219-.844-.594-.281-1.219-.281-1.343 0-2.031 1.078-.687 1.062-.687 3.156t.687 3.172q.688 1.062 2.031 1.062.625 0 1.219-.265.594-.282 1.219-.86z"/><text x="705" y="1247.18" font-family="Helvetica" font-size="17" textLength="390">azure_machine_learning_virtual_machine_size</text><rect width="254" height="39.789" x="978" y="1382.19" fill="#EEF7FF" rx="2.5" ry="2.5" style="stroke:#3d58d3;stroke-width:.5"/><circle cx="993" cy="1402.084" r="11" fill="#ADD1B2" style="stroke:#181818;stroke-width:1"/><path d="M995.969 1407.725q-.578.297-1.219.438-.64.156-1.344.156-2.5 0-3.828-1.64-1.312-1.657-1.312-4.782t1.312-4.781q1.328-1.657 3.828-1.657.703 0 1.344.157.656.156 1.219.453v2.719q-.625-.579-1.219-.844-.594-.281-1.219-.281-1.343 0-2.031 1.078-.687 1.062-.687 3.156t.687 3.172q.688 1.062 2.031 1.062.625 0 1.219-.265.594-.282 1.219-.86z"/><text x="1012" y="1407.97" font-family="Helvetica" font-size="17" textLength="212">azure_mysql_server_type</text><rect width="289" height="39.789" x="1267.5" y="1382.19" fill="#EEF7FF" rx="2.5" ry="2.5" style="stroke:#3d58d3;stroke-width:.5"/><circle cx="1282.5" cy="1402.084" r="11" fill="#ADD1B2" style="stroke:#181818;stroke-width:1"/><path d="M1285.469 1407.725q-.578.297-1.219.438-.64.156-1.344.156-2.5 0-3.828-1.64-1.312-1.657-1.312-4.782t1.312-4.781q1.328-1.657 3.828-1.657.703 0 1.344.157.656.156 1.219.453v2.719q-.625-.579-1.219-.844-.594-.281-1.219-.281-1.343 0-2.031 1.078-.687 1.062-.687 3.156t.687 3.172q.688 1.062 2.031 1.062.625 0 1.219-.265.594-.282 1.219-.86z"/><text x="1301.5" y="1407.97" font-family="Helvetica" font-size="17" textLength="247">azure_postgresql_server_type</text><rect width="242" height="39.789" x="1138" y="1221.4" fill="#EEF7FF" rx="2.5" ry="2.5" style="stroke:#3d58d3;stroke-width:.5"/><circle cx="1153" cy="1241.294" r="11" fill="#ADD1B2" style="stroke:#181818;stroke-width:1"/><path d="M1155.969 1246.935q-.578.297-1.219.438-.64.156-1.344.156-2.5 0-3.828-1.64-1.312-1.657-1.312-4.782t1.312-4.781q1.328-1.657 3.828-1.657.703 0 1.344.157.656.156 1.219.453v2.719q-.625-.579-1.219-.844-.594-.281-1.219-.281-1.343 0-2.031 1.078-.687 1.062-.687 3.156t.687 3.172q.688 1.062 2.031 1.062.625 0 1.219-.265.594-.282 1.219-.86z"/><text x="1172" y="1247.18" font-family="Helvetica" font-size="17" textLength="200">database_instance_type</text><rect width="197" height="39.789" x="1414.5" y="1221.4" fill="#EEF7FF" rx="2.5" ry="2.5" style="stroke:#3d58d3;stroke-width:.5"/><circle cx="1429.5" cy="1241.294" r="11" fill="#ADD1B2" style="stroke:#181818;stroke-width:1"/><path d="M1432.469 1246.935q-.578.297-1.219.438-.64.156-1.344.156-2.5 0-3.828-1.64-1.312-1.657-1.312-4.782t1.312-4.781q1.328-1.657 3.828-1.657.703 0 1.344.157.656.156 1.219.453v2.719q-.625-.579-1.219-.844-.594-.281-1.219-.281-1.343 0-2.031 1.078-.687 1.062-.687 3.156t.687 3.172q.688 1.062 2.031 1.062.625 0 1.219-.265.594-.282 1.219-.86z"/><text x="1448.5" y="1247.18" font-family="Helvetica" font-size="17" textLength="155">gcp_machine_type</text><rect width="217" height="179.273" x="778.5" y="921.13" fill="#EEF7FF" rx="2.5" ry="2.5" style="stroke:#3d58d3;stroke-width:.5"/><circle cx="820.05" cy="941.024" r="11" fill="#ADD1B2" style="stroke:#181818;stroke-width:1"/><path d="M823.019 946.665q-.578.297-1.219.438-.64.156-1.344.156-2.5 0-3.828-1.64-1.312-1.657-1.312-4.782t1.312-4.781q1.328-1.657 3.828-1.657.703 0 1.344.157.656.156 1.219.453v2.719q-.625-.578-1.219-.844-.594-.281-1.219-.281-1.344 0-2.031 1.078-.687 1.062-.687 3.156t.687 3.172q.688 1.062 2.031 1.062.625 0 1.219-.265.594-.282 1.219-.86z"/><text x="844.95" y="946.91" font-family="Helvetica" font-size="17" textLength="116">instance_type</text><path d="M779.5 960.919h215" style="stroke:#3d58d3;stroke-width:.5"/><text x="789.5" y="982.914" font-family="sans-serif" font-size="14" font-weight="bold" textLength="119">instance_cores</text><text x="908.5" y="982.914" font-family="sans-serif" font-size="14" textLength="57">: double</text><text x="789.5" y="1009.211" font-family="sans-serif" font-size="14" font-weight="bold" textLength="138">instance_memory</text><text x="927.5" y="1009.211" font-family="sans-serif" font-size="14" textLength="57">: double</text><text x="789.5" y="1035.508" font-family="sans-serif" font-size="14" font-weight="bold" textLength="109">instance_type</text><text x="898.5" y="1035.508" font-family="sans-serif" font-size="14" textLength="48">: string</text><text x="789.5" y="1061.805" font-family="sans-serif" font-size="14" font-weight="bold" textLength="124">ondemand_cost</text><text x="913.5" y="1061.805" font-family="sans-serif" font-size="14" textLength="57">: double</text><text x="789.5" y="1088.102" font-family="sans-serif" font-size="14" font-weight="bold" textLength="100">reservations</text><text x="889.5" y="1088.102" font-family="sans-serif" font-size="14" textLength="44">: int64</text><rect width="198" height="39.789" x="788" y="438.76" fill="#EEF7FF" rx="2.5" ry="2.5" style="stroke:#3d58d3;stroke-width:.5"/><circle cx="803" cy="458.654" r="11" fill="#ADD1B2" style="stroke:#181818;stroke-width:1"/><path d="M805.969 464.295q-.578.297-1.219.438-.64.156-1.344.156-2.5 0-3.828-1.64-1.312-1.657-1.312-4.782t1.312-4.781q1.328-1.656 3.828-1.656.703 0 1.344.156.656.156 1.219.453v2.719q-.625-.579-1.219-.844-.594-.281-1.219-.281-1.343 0-2.031 1.078-.687 1.062-.687 3.156t.687 3.172q.688 1.062 2.031 1.062.625 0 1.219-.265.594-.281 1.219-.86z"/><text x="822" y="464.54" font-family="Helvetica" font-size="17" textLength="156">phantom_resource</text><rect width="90" height="39.789" x="842" y="599.55" fill="#EEF7FF" rx="2.5" ry="2.5" style="stroke:#3d58d3;stroke-width:.5"/><circle cx="857" cy="619.444" r="11" fill="#ADD1B2" style="stroke:#181818;stroke-width:1"/><path d="M859.969 625.085q-.578.297-1.219.438-.64.156-1.344.156-2.5 0-3.828-1.64-1.312-1.657-1.312-4.782t1.312-4.781q1.328-1.657 3.828-1.657.703 0 1.344.157.656.156 1.219.453v2.719q-.625-.579-1.219-.844-.594-.281-1.219-.281-1.343 0-2.031 1.078-.687 1.062-.687 3.156t.687 3.172q.688 1.062 2.031 1.062.625 0 1.219-.265.594-.282 1.219-.86z"/><text x="876" y="625.33" font-family="Helvetica" font-size="17" textLength="48">quota</text><rect width="227" height="310.758" x="773.5" y="7" fill="#EEF7FF" rx="2.5" ry="2.5" style="stroke:#3d58d3;stroke-width:.5"/><circle cx="842.25" cy="26.895" r="11" fill="#ADD1B2" style="stroke:#181818;stroke-width:1"/><path d="M845.219 32.535q-.578.297-1.219.438-.64.156-1.344.156-2.5 0-3.828-1.64-1.312-1.657-1.312-4.782t1.312-4.781q1.328-1.656 3.828-1.656.703 0 1.344.156.656.156 1.219.453v2.719q-.625-.578-1.219-.844-.594-.281-1.219-.281-1.343 0-2.031 1.078-.687 1.062-.687 3.156t.687 3.172q.688 1.062 2.031 1.062.625 0 1.219-.265.594-.281 1.219-.86z"/><text x="867.75" y="32.78" font-family="Helvetica" font-size="17" textLength="71">resource</text><path d="M774.5 46.789h225" style="stroke:#3d58d3;stroke-width:.5"/><text x="784.5" y="68.784" font-family="sans-serif" font-size="14" font-weight="bold" textLength="29">age</text><text x="813.5" y="68.784" font-family="sans-serif" font-size="14" textLength="66">: duration</text><text x="784.5" y="95.081" font-family="sans-serif" font-size="14" font-weight="bold" textLength="43">atime</text><text x="827.5" y="95.081" font-family="sans-serif" font-size="14" textLength="70">: datetime</text><text x="784.5" y="121.378" font-family="sans-serif" font-size="14" font-weight="bold" textLength="43">ctime</text><text x="827.5" y="121.378" font-family="sans-serif" font-size="14" textLength="70">: datetime</text><text x="784.5" y="147.675" font-family="sans-serif" font-size="14" font-weight="bold" textLength="14">id</text><text x="798.5" y="147.675" font-family="sans-serif" font-size="14" textLength="48">: string</text><text x="784.5" y="173.972" font-family="sans-serif" font-size="14" font-weight="bold" textLength="33">kind</text><text x="817.5" y="173.972" font-family="sans-serif" font-size="14" textLength="48">: string</text><text x="784.5" y="200.269" font-family="sans-serif" font-size="14" font-weight="bold" textLength="90">last_access</text><text x="874.5" y="200.269" font-family="sans-serif" font-size="14" textLength="66">: duration</text><text x="784.5" y="226.565" font-family="sans-serif" font-size="14" font-weight="bold" textLength="90">last_update</text><text x="874.5" y="226.565" font-family="sans-serif" font-size="14" textLength="66">: duration</text><text x="784.5" y="252.862" font-family="sans-serif" font-size="14" font-weight="bold" textLength="48">mtime</text><text x="832.5" y="252.862" font-family="sans-serif" font-size="14" textLength="70">: datetime</text><text x="784.5" y="279.159" font-family="sans-serif" font-size="14" font-weight="bold" textLength="43">name</text><text x="827.5" y="279.159" font-family="sans-serif" font-size="14" textLength="48">: string</text><text x="784.5" y="305.456" font-family="sans-serif" font-size="14" font-weight="bold" textLength="34">tags</text><text x="818.5" y="305.456" font-family="sans-serif" font-size="14" textLength="171">: dictionary[string, string]</text><rect width="79" height="39.789" x="847.5" y="760.34" fill="#EEF7FF" rx="2.5" ry="2.5" style="stroke:#3d58d3;stroke-width:.5"/><circle cx="862.5" cy="780.235" r="11" fill="#ADD1B2" style="stroke:#181818;stroke-width:1"/><path d="M865.469 785.875q-.578.297-1.219.438-.64.156-1.344.156-2.5 0-3.828-1.64-1.312-1.657-1.312-4.782t1.312-4.781q1.328-1.656 3.828-1.656.703 0 1.344.156.656.156 1.219.453v2.719q-.625-.578-1.219-.844-.594-.281-1.219-.281-1.343 0-2.031 1.078-.687 1.062-.687 3.156t.687 3.172q.688 1.062 2.031 1.062.625 0 1.219-.265.594-.281 1.219-.86z"/><text x="881.5" y="786.12" font-family="Helvetica" font-size="17" textLength="37">type</text><path fill="none" d="M761.13 1049.567c-160.88 48.31-440.25 132.203-570.7 171.383m587.94-176.56-18.965-.57 3.451 11.493zm-16.067 33.803c-93.34 49.72-206.373 109.937-268.283 142.917m284.17-151.38-18.708 3.167 5.642 10.591zM887 1118.78v102.53m0-120.53-6 18h12zm340.888 173.591c-29.6 30.52-74.608 76.929-104.248 107.489m116.78-120.41-16.839 8.744 8.614 8.354zm49.528 12.964c29.4 30.52 74.082 76.886 103.532 107.446m-116.02-120.41 8.167 17.126 8.642-8.325zm-266.273-173.397c79.33 48.74 166.093 102.037 216.623 133.087m-231.96-142.51 12.196 14.535 6.281-10.225z" style="stroke:#111827;stroke-width:2"/><g fill="none"><path d="M1012.588 1057.613c135.67 49.53 345.392 126.097 447.592 163.397" style="stroke:#111827;stroke-width:2"/><path d="m995.68 1051.44 14.85 11.809 4.116-11.272z" style="stroke:#111827;stroke-width:2"/></g><path fill="none" d="M887 818.33v102.49m0-120.49-6 18h12zm0-464.49v102.83m0-120.83-6 18h12zm0 178.97v102.41m0-120.41-6 18h12zm0 178.79v102.41m0-120.41-6 18h12z" style="stroke:#111827;stroke-width:2"/></svg>