<svg xmlns="http://www.w3.org/2000/svg" width="576" height="645" viewBox="0 0 576 645"><rect width="112" height="39.789" x="7" y="599.55" fill="#EEF7FF" rx="2.5" ry="2.5" style="stroke:#3d58d3;stroke-width:.5"/><circle cx="22" cy="619.444" r="11" fill="#ADD1B2" style="stroke:#181818;stroke-width:1"/><path d="M24.969 625.085q-.578.297-1.219.438-.64.156-1.344.156-2.5 0-3.828-1.64-1.312-1.657-1.312-4.782t1.312-4.781q1.328-1.657 3.828-1.657.703 0 1.344.157.656.156 1.219.453v2.719q-.625-.579-1.219-.844-.594-.281-1.219-.281-1.343 0-2.031 1.078-.687 1.062-.687 3.156t.687 3.172q.688 1.062 2.031 1.062.625 0 1.219-.265.594-.282 1.219-.86z"/><text x="41" y="625.33" font-family="Helvetica" font-size="17" textLength="70">aws_vpc</text><rect width="231" height="39.789" x="154.5" y="599.55" fill="#EEF7FF" rx="2.5" ry="2.5" style="stroke:#3d58d3;stroke-width:.5"/><circle cx="169.5" cy="619.444" r="11" fill="#ADD1B2" style="stroke:#181818;stroke-width:1"/><path d="M172.469 625.085q-.578.297-1.219.438-.64.156-1.344.156-2.5 0-3.828-1.64-1.312-1.657-1.312-4.782t1.312-4.781q1.328-1.657 3.828-1.657.703 0 1.344.157.656.156 1.219.453v2.719q-.625-.579-1.219-.844-.594-.281-1.219-.281-1.344 0-2.031 1.078-.687 1.062-.687 3.156t.687 3.172q.688 1.062 2.031 1.062.625 0 1.219-.265.594-.282 1.219-.86z"/><text x="188.5" y="625.33" font-family="Helvetica" font-size="17" textLength="189">azure_virtual_network</text><rect width="149" height="39.789" x="420.5" y="599.55" fill="#EEF7FF" rx="2.5" ry="2.5" style="stroke:#3d58d3;stroke-width:.5"/><circle cx="435.5" cy="619.444" r="11" fill="#ADD1B2" style="stroke:#181818;stroke-width:1"/><path d="M438.469 625.085q-.578.297-1.219.438-.64.156-1.344.156-2.5 0-3.828-1.64-1.312-1.657-1.312-4.782t1.312-4.781q1.328-1.657 3.828-1.657.703 0 1.344.157.656.156 1.219.453v2.719q-.625-.579-1.219-.844-.594-.281-1.219-.281-1.344 0-2.031 1.078-.687 1.062-.687 3.156t.687 3.172q.688 1.062 2.031 1.062.625 0 1.219-.265.594-.282 1.219-.86z"/><text x="454.5" y="625.33" font-family="Helvetica" font-size="17" textLength="107">gcp_network</text><rect width="112" height="39.789" x="214" y="438.76" fill="#EEF7FF" rx="2.5" ry="2.5" style="stroke:#3d58d3;stroke-width:.5"/><circle cx="229" cy="458.654" r="11" fill="#ADD1B2" style="stroke:#181818;stroke-width:1"/><path d="M231.969 464.295q-.578.297-1.219.438-.64.156-1.344.156-2.5 0-3.828-1.64-1.312-1.657-1.312-4.782t1.312-4.781q1.328-1.656 3.828-1.656.703 0 1.344.156.656.156 1.219.453v2.719q-.625-.579-1.219-.844-.594-.281-1.219-.281-1.344 0-2.031 1.078-.687 1.062-.687 3.156t.687 3.172q.688 1.062 2.031 1.062.625 0 1.219-.265.594-.281 1.219-.86z"/><text x="248" y="464.54" font-family="Helvetica" font-size="17" textLength="70">network</text><rect width="227" height="310.758" x="156.5" y="7" fill="#EEF7FF" rx="2.5" ry="2.5" style="stroke:#3d58d3;stroke-width:.5"/><circle cx="225.25" cy="26.895" r="11" fill="#ADD1B2" style="stroke:#181818;stroke-width:1"/><path d="M228.219 32.535q-.578.297-1.219.438-.64.156-1.344.156-2.5 0-3.828-1.64-1.312-1.657-1.312-4.782t1.312-4.781q1.328-1.656 3.828-1.656.703 0 1.344.156.656.156 1.219.453v2.719q-.625-.578-1.219-.844-.594-.281-1.219-.281-1.344 0-2.031 1.078-.687 1.062-.687 3.156t.687 3.172q.688 1.062 2.031 1.062.625 0 1.219-.265.594-.281 1.219-.86z"/><text x="250.75" y="32.78" font-family="Helvetica" font-size="17" textLength="71">resource</text><path d="M157.5 46.789h225" style="stroke:#3d58d3;stroke-width:.5"/><text x="167.5" y="68.784" font-family="sans-serif" font-size="14" font-weight="bold" textLength="29">age</text><text x="196.5" y="68.784" font-family="sans-serif" font-size="14" textLength="66">: duration</text><text x="167.5" y="95.081" font-family="sans-serif" font-size="14" font-weight="bold" textLength="43">atime</text><text x="210.5" y="95.081" font-family="sans-serif" font-size="14" textLength="70">: datetime</text><text x="167.5" y="121.378" font-family="sans-serif" font-size="14" font-weight="bold" textLength="43">ctime</text><text x="210.5" y="121.378" font-family="sans-serif" font-size="14" textLength="70">: datetime</text><text x="167.5" y="147.675" font-family="sans-serif" font-size="14" font-weight="bold" textLength="14">id</text><text x="181.5" y="147.675" font-family="sans-serif" font-size="14" textLength="48">: string</text><text x="167.5" y="173.972" font-family="sans-serif" font-size="14" font-weight="bold" textLength="33">kind</text><text x="200.5" y="173.972" font-family="sans-serif" font-size="14" textLength="48">: string</text><text x="167.5" y="200.269" font-family="sans-serif" font-size="14" font-weight="bold" textLength="90">last_access</text><text x="257.5" y="200.269" font-family="sans-serif" font-size="14" textLength="66">: duration</text><text x="167.5" y="226.565" font-family="sans-serif" font-size="14" font-weight="bold" textLength="90">last_update</text><text x="257.5" y="226.565" font-family="sans-serif" font-size="14" textLength="66">: duration</text><text x="167.5" y="252.862" font-family="sans-serif" font-size="14" font-weight="bold" textLength="48">mtime</text><text x="215.5" y="252.862" font-family="sans-serif" font-size="14" textLength="70">: datetime</text><text x="167.5" y="279.159" font-family="sans-serif" font-size="14" font-weight="bold" textLength="43">name</text><text x="210.5" y="279.159" font-family="sans-serif" font-size="14" textLength="48">: string</text><text x="167.5" y="305.456" font-family="sans-serif" font-size="14" font-weight="bold" textLength="34">tags</text><text x="201.5" y="305.456" font-family="sans-serif" font-size="14" textLength="171">: dictionary[string, string]</text><g fill="none"><path d="M230.748 489.765C190.958 520.285 127.9 568.66 88.06 599.22" style="stroke:#111827;stroke-width:2"/><path d="m245.03 478.81-17.934 6.194 7.303 9.522z" style="stroke:#111827;stroke-width:2"/></g><path fill="none" d="M270 496.81v102.41m0-120.41-6 18h12z" style="stroke:#111827;stroke-width:2"/><g fill="none"><path d="M311.847 489.188c43.25 30.52 112.613 79.472 155.913 110.032" style="stroke:#111827;stroke-width:2"/><path d="m297.14 478.81 11.248 15.28 6.918-9.804z" style="stroke:#111827;stroke-width:2"/></g><path fill="none" d="M270 335.85v102.83m0-120.83-6 18h12z" style="stroke:#111827;stroke-width:2"/></svg>