<svg xmlns="http://www.w3.org/2000/svg" width="926" height="645" viewBox="0 0 926 645"><rect width="168" height="39.789" x="7" y="599.55" fill="#EEF7FF" rx="2.5" ry="2.5" style="stroke:#3d58d3;stroke-width:.5"/><circle cx="22" cy="619.444" r="11" fill="#ADD1B2" style="stroke:#181818;stroke-width:1"/><path d="M24.969 625.085q-.578.297-1.219.438-.64.156-1.344.156-2.5 0-3.828-1.64-1.312-1.657-1.312-4.782t1.312-4.781q1.328-1.657 3.828-1.657.703 0 1.344.157.656.156 1.219.453v2.719q-.625-.579-1.219-.844-.594-.281-1.219-.281-1.343 0-2.031 1.078-.687 1.062-.687 3.156t.687 3.172q.688 1.062 2.031 1.062.625 0 1.219-.265.594-.282 1.219-.86z"/><text x="41" y="625.33" font-family="Helvetica" font-size="17" textLength="126">aws_s3_bucket</text><rect width="291" height="39.789" x="210.5" y="599.55" fill="#EEF7FF" rx="2.5" ry="2.5" style="stroke:#3d58d3;stroke-width:.5"/><circle cx="225.5" cy="619.444" r="11" fill="#ADD1B2" style="stroke:#181818;stroke-width:1"/><path d="M228.469 625.085q-.578.297-1.219.438-.64.156-1.344.156-2.5 0-3.828-1.64-1.312-1.657-1.312-4.782t1.312-4.781q1.328-1.657 3.828-1.657.703 0 1.344.157.656.156 1.219.453v2.719q-.625-.579-1.219-.844-.594-.281-1.219-.281-1.344 0-2.031 1.078-.687 1.062-.687 3.156t.687 3.172q.688 1.062 2.031 1.062.625 0 1.219-.265.594-.282 1.219-.86z"/><text x="244.5" y="625.33" font-family="Helvetica" font-size="17" textLength="249">azure_storage_blob_container</text><rect width="98" height="39.789" x="450" y="438.76" fill="#EEF7FF" rx="2.5" ry="2.5" style="stroke:#3d58d3;stroke-width:.5"/><circle cx="465" cy="458.654" r="11" fill="#ADD1B2" style="stroke:#181818;stroke-width:1"/><path d="M467.969 464.295q-.578.297-1.219.438-.64.156-1.344.156-2.5 0-3.828-1.64-1.312-1.657-1.312-4.782t1.312-4.781q1.328-1.656 3.828-1.656.703 0 1.344.156.656.156 1.219.453v2.719q-.625-.579-1.219-.844-.594-.281-1.219-.281-1.344 0-2.031 1.078-.687 1.062-.687 3.156t.687 3.172q.688 1.062 2.031 1.062.625 0 1.219-.265.594-.281 1.219-.86z"/><text x="484" y="464.54" font-family="Helvetica" font-size="17" textLength="56">bucket</text><rect width="213" height="39.789" x="536.5" y="599.55" fill="#EEF7FF" rx="2.5" ry="2.5" style="stroke:#3d58d3;stroke-width:.5"/><circle cx="551.5" cy="619.444" r="11" fill="#ADD1B2" style="stroke:#181818;stroke-width:1"/><path d="M554.469 625.085q-.578.297-1.219.438-.64.156-1.344.156-2.5 0-3.828-1.64-1.312-1.657-1.312-4.782t1.312-4.781q1.328-1.657 3.828-1.657.703 0 1.344.157.656.156 1.219.453v2.719q-.625-.579-1.219-.844-.594-.281-1.219-.281-1.343 0-2.031 1.078-.687 1.062-.687 3.156t.687 3.172q.688 1.062 2.031 1.062.625 0 1.219-.265.594-.282 1.219-.86z"/><text x="570.5" y="625.33" font-family="Helvetica" font-size="17" textLength="171">gcp_backend_bucket</text><rect width="135" height="39.789" x="784.5" y="599.55" fill="#EEF7FF" rx="2.5" ry="2.5" style="stroke:#3d58d3;stroke-width:.5"/><circle cx="799.5" cy="619.444" r="11" fill="#ADD1B2" style="stroke:#181818;stroke-width:1"/><path d="M802.469 625.085q-.578.297-1.219.438-.64.156-1.344.156-2.5 0-3.828-1.64-1.312-1.657-1.312-4.782t1.312-4.781q1.328-1.657 3.828-1.657.703 0 1.344.157.656.156 1.219.453v2.719q-.625-.579-1.219-.844-.594-.281-1.219-.281-1.343 0-2.031 1.078-.687 1.062-.687 3.156t.687 3.172q.688 1.062 2.031 1.062.625 0 1.219-.265.594-.282 1.219-.86z"/><text x="818.5" y="625.33" font-family="Helvetica" font-size="17" textLength="93">gcp_bucket</text><rect width="227" height="310.758" x="385.5" y="7" fill="#EEF7FF" rx="2.5" ry="2.5" style="stroke:#3d58d3;stroke-width:.5"/><circle cx="454.25" cy="26.895" r="11" fill="#ADD1B2" style="stroke:#181818;stroke-width:1"/><path d="M457.219 32.535q-.578.297-1.219.438-.64.156-1.344.156-2.5 0-3.828-1.64-1.312-1.657-1.312-4.782t1.312-4.781q1.328-1.656 3.828-1.656.703 0 1.344.156.656.156 1.219.453v2.719q-.625-.578-1.219-.844-.594-.281-1.219-.281-1.344 0-2.031 1.078-.687 1.062-.687 3.156t.687 3.172q.688 1.062 2.031 1.062.625 0 1.219-.265.594-.281 1.219-.86z"/><text x="479.75" y="32.78" font-family="Helvetica" font-size="17" textLength="71">resource</text><path d="M386.5 46.789h225" style="stroke:#3d58d3;stroke-width:.5"/><text x="396.5" y="68.784" font-family="sans-serif" font-size="14" font-weight="bold" textLength="29">age</text><text x="425.5" y="68.784" font-family="sans-serif" font-size="14" textLength="66">: duration</text><text x="396.5" y="95.081" font-family="sans-serif" font-size="14" font-weight="bold" textLength="43">atime</text><text x="439.5" y="95.081" font-family="sans-serif" font-size="14" textLength="70">: datetime</text><text x="396.5" y="121.378" font-family="sans-serif" font-size="14" font-weight="bold" textLength="43">ctime</text><text x="439.5" y="121.378" font-family="sans-serif" font-size="14" textLength="70">: datetime</text><text x="396.5" y="147.675" font-family="sans-serif" font-size="14" font-weight="bold" textLength="14">id</text><text x="410.5" y="147.675" font-family="sans-serif" font-size="14" textLength="48">: string</text><text x="396.5" y="173.972" font-family="sans-serif" font-size="14" font-weight="bold" textLength="33">kind</text><text x="429.5" y="173.972" font-family="sans-serif" font-size="14" textLength="48">: string</text><text x="396.5" y="200.269" font-family="sans-serif" font-size="14" font-weight="bold" textLength="90">last_access</text><text x="486.5" y="200.269" font-family="sans-serif" font-size="14" textLength="66">: duration</text><text x="396.5" y="226.565" font-family="sans-serif" font-size="14" font-weight="bold" textLength="90">last_update</text><text x="486.5" y="226.565" font-family="sans-serif" font-size="14" textLength="66">: duration</text><text x="396.5" y="252.862" font-family="sans-serif" font-size="14" font-weight="bold" textLength="48">mtime</text><text x="444.5" y="252.862" font-family="sans-serif" font-size="14" textLength="70">: datetime</text><text x="396.5" y="279.159" font-family="sans-serif" font-size="14" font-weight="bold" textLength="43">name</text><text x="439.5" y="279.159" font-family="sans-serif" font-size="14" textLength="48">: string</text><text x="396.5" y="305.456" font-family="sans-serif" font-size="14" font-weight="bold" textLength="34">tags</text><text x="430.5" y="305.456" font-family="sans-serif" font-size="14" textLength="171">: dictionary[string, string]</text><g fill="none"><path d="M433.016 485.338C354.696 515.818 219.33 568.5 140.71 599.1" style="stroke:#111827;stroke-width:2"/><path d="m449.79 478.81-18.95.937 4.352 11.183z" style="stroke:#111827;stroke-width:2"/></g><g fill="none"><path d="M469.706 492.187c-27.48 30.52-68.876 76.473-96.396 107.033" style="stroke:#111827;stroke-width:2"/><path d="m481.75 478.81-16.503 9.362 8.918 8.03z" style="stroke:#111827;stroke-width:2"/></g><path fill="none" d="M499 335.85v102.83m0-120.83-6 18h12z" style="stroke:#111827;stroke-width:2"/><g fill="none"><path d="M528.462 492.143c27.68 30.52 69.388 76.517 97.108 107.077" style="stroke:#111827;stroke-width:2"/><path d="m516.37 478.81 7.648 17.364 8.889-8.062z" style="stroke:#111827;stroke-width:2"/></g><path fill="none" d="M558.346 486.355c67.89 30.54 182.864 82.255 250.744 112.785M541.93 478.97l13.954 12.856 4.923-10.943z" style="stroke:#111827;stroke-width:2"/></svg>